<svg xmlns="http://www.w3.org/2000/svg" width="24" height="24" fill="none" viewBox="0 0 24 24"><g fill="#fff" clip-path="url(#a)"><path d="M22.572 12A3.5 3.5 0 0 0 24 9.188c0-1.416-.861-2.68-2.124-3.227.204-2.068-1.606-4.06-3.837-3.837A3.53 3.53 0 0 0 14.812 0a3.48 3.48 0 0 0-2.109.725v7.76h1.406v-2.11a.703.703 0 1 1 1.407 0v2.11h2.109a.703.703 0 1 1 0 1.406h-2.11v1.406h2.11a.703.703 0 1 1 0 1.406h-2.11v1.406h2.11a.703.703 0 1 1 0 1.407h-2.11v2.109a.703.703 0 1 1-1.406 0v-2.11h-1.406v7.76a3.48 3.48 0 0 0 2.11.725 3.53 3.53 0 0 0 3.226-2.124c2.224.225 4.042-1.762 3.837-3.837A3.53 3.53 0 0 0 24 14.812 3.5 3.5 0 0 0 22.572 12"/><path d="M9.89 9.89v4.22h4.22V9.89zM12 12.704a.703.703 0 1 1 0-1.406.703.703 0 0 1 0 1.406"/><path d="M11.297 8.484V.725A3.48 3.48 0 0 0 9.187 0a3.53 3.53 0 0 0-3.225 2.124c-2.202-.22-4.044 1.742-3.837 3.837A3.53 3.53 0 0 0 0 9.187C0 10.343.566 11.36 1.428 12A3.5 3.5 0 0 0 0 14.813c0 1.415.861 2.679 2.124 3.226-.204 2.066 1.608 4.062 3.837 3.837A3.53 3.53 0 0 0 9.187 24a3.48 3.48 0 0 0 2.11-.725v-7.76H9.89v2.11a.703.703 0 1 1-1.407 0v-2.11H6.375a.703.703 0 1 1 0-1.406h2.11v-1.406h-2.11a.703.703 0 1 1 0-1.406h2.11V9.89h-2.11a.703.703 0 1 1 0-1.407h2.11V6.375a.703.703 0 1 1 1.406 0v2.11z"/></g><defs><clipPath id="a"><path fill="#fff" d="M0 0h24v24H0z"/></clipPath></defs></svg>