<svg xmlns="http://www.w3.org/2000/svg" width="136" height="224" fill="none" viewBox="0 0 136 224"><path fill="url(#a)" stroke="#c02d2d" stroke-width="1.18" d="M46.854 145.765c-18.985 21.884-27.656 49.614-26.017 76.838-26.802-.656-51.247-10.806-70.102-27.219l72.87-72.868zm49.619 49.619c-16.51 14.372-37.307 23.943-60.22 26.541-1.45-23.051 5.731-46.541 21.545-65.217zm-27.765-49.586c18.675-15.814 42.166-22.996 65.217-21.544-2.598 22.912-12.169 43.709-26.541 60.22zm-56.015-34.194-72.868 72.869c-16.413-18.855-26.565-43.3-27.22-70.103 27.224 1.639 54.953-7.032 76.836-26.017zm94.691-72.869c16.413 18.854 26.563 43.3 27.219 70.102-27.224-1.639-54.954 7.032-76.838 26.017l-23.25-23.25zM26.37.605c26.803.656 51.248 10.807 70.103 27.22l-72.868 72.869L.353 77.442C19.337 55.558 28.009 27.83 26.37.605ZM-21.5 77.41c-18.675 15.813-42.164 22.995-65.215 21.543 2.599-22.911 12.17-43.707 26.541-60.217zM10.953 1.284c1.452 23.05-5.73 46.54-21.543 65.215l-38.675-38.674c16.51-14.372 37.307-23.942 60.218-26.54Z" opacity=".1"/><defs><linearGradient id="a" x1="29.258" x2="-94.463" y1="-26.287" y2="155.757" gradientUnits="userSpaceOnUse"><stop stop-color="#7b0f0f"/><stop offset=".98" stop-color="#7b0f0f" stop-opacity=".02"/></linearGradient></defs></svg>