<svg xmlns="http://www.w3.org/2000/svg" width="32" height="32" fill="none" viewBox="0 0 32 32"><path fill="#f1ede7" d="M11.333 6.995v-.718a2 2 0 1 0-4 0v.718"/><path stroke="#191919" stroke-linecap="round" stroke-linejoin="round" stroke-width="1.333" d="M11.333 6.995v-.718a2 2 0 1 0-4 0v.718"/><path fill="#f1ede7" d="M15.333 6.995v-2.05a2 2 0 1 0-4 0v2.05"/><path stroke="#191919" stroke-linecap="round" stroke-linejoin="round" stroke-width="1.333" d="M15.333 6.995v-2.05a2 2 0 1 0-4 0v2.05"/><path fill="#f1ede7" d="M19.333 6.997v-4a2 2 0 1 0-4 0v4"/><path stroke="#191919" stroke-linecap="round" stroke-linejoin="round" stroke-width="1.333" d="M19.333 6.997v-4a2 2 0 1 0-4 0v4"/><path fill="#f1ede7" d="M23.333 6.995v-2.05a2 2 0 1 0-4 0v2.05"/><path stroke="#191919" stroke-linecap="round" stroke-linejoin="round" stroke-width="1.333" d="M23.333 6.995v-2.05a2 2 0 1 0-4 0v2.05"/><path fill="#e4f6cd" d="M2.667 22.997A.667.667 0 0 1 2 22.33V7.664a.667.667 0 0 1 .667-.667h26.666a.667.667 0 0 1 .667.667V22.33a.666.666 0 0 1-.667.667z"/><path stroke="#191919" stroke-linecap="round" stroke-linejoin="round" stroke-width="1.333" d="m30 11.664-4.667-4.667"/><path fill="#f1ede7" d="M27.324 16.933a2 2 0 0 0-3.953-.33 1.4 1.4 0 0 0-.134.351l-.4 2.755a2.67 2.67 0 0 1-1.316 1.937l-2.19 1.253c-.06.035-.107.086-.164.126l.009-.03H6.666L10 27.662v3.333l12 .01V29.67a2.67 2.67 0 0 1 1.067-2.133l3.2-2.4a2.67 2.67 0 0 0 1.066-2.133v-6.046c0-.008-.009-.017-.009-.026"/><path fill="#ffbc44" d="m22.837 19.712.4-2.757zm4.487-2.779c0 .009.007.016.007.026.003-.009-.007-.016-.007-.026"/><path fill="#81c230" d="M2.667 6.998A.667.667 0 0 0 2 7.665V22.33a.667.667 0 0 0 .667.667h4.708l16-16z"/><path stroke="#191919" stroke-linecap="round" stroke-linejoin="round" stroke-width="1.333" d="M8.854 26.05 10 27.66v3.333M22 31v-1.333a2.67 2.67 0 0 1 1.067-2.133l3.2-2.4a2.67 2.67 0 0 0 1.066-2.133v-6.042c0-.009-.006-.017-.006-.026a2 2 0 0 0-3.954-.33q-.09.166-.133.351l-.4 2.756a2.67 2.67 0 0 1-1.316 1.937l-2.19 1.252A2.67 2.67 0 0 0 18 25.215v1.786m-2.667-16.004V9.664m2 1.333h-2.708a1.79 1.79 0 0 0-.666 3.45l2.752 1.1a1.79 1.79 0 0 1-.667 3.45h-2.71m1.999 1.333v-1.333"/><path stroke="#191919" stroke-linecap="round" stroke-linejoin="round" stroke-width="1.333" d="M14 22.997H2.667A.667.667 0 0 1 2 22.33V7.664a.667.667 0 0 1 .667-.667h26.666a.667.667 0 0 1 .667.667v14m-28-10 4.667-4.667M2 18.33l4.667 4.667"/></svg>