<svg xmlns="http://www.w3.org/2000/svg" width="30" height="31" fill="none" viewBox="0 0 30 31"><g clip-path="url(#a)"><path fill="#26a17b" d="M15.204 30.268C23.375 30.268 30 23.643 30 15.472 30 7.3 23.375.676 15.204.676 7.032.676.408 7.3.408 15.472s6.624 14.796 14.796 14.796"/><path fill="#fff" fill-rule="evenodd" d="M16.981 16.75v-.001c-.102.007-.626.039-1.796.039-.934 0-1.591-.028-1.822-.04v.003c-3.596-.158-6.28-.784-6.28-1.533s2.684-1.374 6.28-1.535v2.445c.235.017.908.057 1.838.057 1.116 0 1.676-.047 1.78-.056v-2.444c3.588.16 6.265.786 6.265 1.533 0 .75-2.677 1.374-6.265 1.533m0-3.32v-2.187h5.007V7.906H8.356v3.337h5.007v2.187c-4.07.187-7.13.993-7.13 1.958 0 .966 3.06 1.771 7.13 1.96v7.01h3.618v-7.013c4.063-.187 7.115-.992 7.115-1.957 0-.964-3.052-1.77-7.115-1.957" clip-rule="evenodd"/></g><defs><clipPath id="a"><path fill="#fff" d="M.408.676H30v29.592H.408z"/></clipPath></defs></svg>