<svg xmlns="http://www.w3.org/2000/svg" width="573" height="432" fill="none" viewBox="0 0 573 432"><g filter="url(#a)"><circle cx="146.525" cy="146.525" r="146.525" fill="url(#b)" transform="matrix(.6762 .73672 -.97612 .21724 329.998 76.115)"/></g><path stroke="#fff" stroke-opacity=".12" stroke-width="1.44" d="M428.375 184.22c54.451 59.326 34.871 121.6-43.731 139.093s-186.464-16.419-240.915-75.744-34.873-121.599 43.73-139.093 186.465 16.419 240.916 75.744Z"/><g opacity=".35"><g filter="url(#c)"><circle cx="113.036" cy="113.036" r="113.036" fill="#fff" fill-opacity=".04" transform="matrix(.6762 .73672 -.97612 .21724 319.955 108.062)"/></g><path stroke="#fff" stroke-opacity=".12" stroke-width="1.44" d="M395.686 191.495c41.945 45.7 26.863 93.671-33.686 107.146s-143.637-12.647-185.582-58.347c-41.945-45.699-26.863-93.67 33.687-107.146s143.637 12.648 185.581 58.347Z"/></g><g filter="url(#d)"><path fill="url(#e)" d="M215.603 132.521q-2.588.472-5.124 1.036c-40.025 8.908-60.084 32.964-56.804 61.443l-1.489-.235c-1.787-15.315 3.1-29.291 14.133-40.426s27.794-19.006 48.481-22.767z"/></g><g filter="url(#f)"><path fill="url(#g)" d="m215.602 132.521.125.687 1.187-.216-.779-.922zm-5.123 1.035-.152-.682zM153.675 195l-.109.69.908.143-.105-.913zm-1.489-.235-.694.081.062.526.524.083zm14.132-40.426-.496-.492zm48.482-22.767.533-.451-.261-.309-.397.072zm.802.949-.126-.687q-2.599.474-5.149 1.04l.152.682.152.681q2.522-.56 5.096-1.029zm-5.123 1.035-.152-.682c-20.112 4.476-35.279 12.774-45.009 23.597-9.742 10.837-14.001 24.17-12.337 38.609l.694-.08.694-.08c-1.618-14.041 2.513-26.975 11.987-37.515 9.486-10.551 24.362-18.736 44.275-23.168zM153.675 195l.108-.69-1.488-.235-.109.69-.108.69 1.488.235zm-1.489-.235.694-.081c-1.761-15.099 3.048-28.867 13.934-39.854l-.496-.491-.496-.492c-11.179 11.283-16.141 25.47-14.33 40.999zm14.132-40.426.496.491c10.903-11.003 27.517-18.827 48.11-22.571l-.124-.687-.125-.688c-20.781 3.778-37.69 11.697-48.853 22.963zm48.482-22.767-.534.45.802.95.534-.451.533-.451-.802-.949z"/></g><g filter="url(#h)"><circle cx="92.6" cy="92.6" r="92.6" fill="#191b1d" transform="matrix(.6762 .73672 -.97612 .21724 314.021 127.857)"/></g><path stroke="#fff" stroke-opacity=".12" stroke-width=".547" d="M376.369 196.137c34.479 37.566 22.082 76.999-27.691 88.077-49.773 11.077-118.073-10.397-152.553-47.963-34.479-37.566-22.081-76.999 27.692-88.076s118.072 10.396 152.552 47.962Z"/><path fill="url(#i)" fill-opacity=".92" d="m224.643 178.423 42.769 1.892-.488-16.327 29.497 17.03-3.657 2.111h7.314l38.176 22.041-7.251 4.186 15.702 9.066-2.002 5.391-31.947-18.445v-11.541l-7.801 4.504-4.105 8.844-16.213 2.509-10.155-5.864 18.772-10.838-14.654 2.267-24.84 14.342-3.901 8.445 17.797-10.275 29.497 17.031 8.011-4.625 19.451-1.195 10.325 5.961h9.348l-6.898 18.586-.001-.001-43.466 5.377-15.701-9.065-6.429 3.712-38.27-21.591.002-4.62-4.048 2.337-29.836-16.834 28.279.282-3.278-24.694zm95.659 55.511v-3.66l-6.339 3.66zm-17.309 1.83 20.966-12.105-9.265.563-10.239 5.911zm-44.602-10.832.001 3.096 24.622.703.487-3.659-7.313-4.222-6.826 3.941zl18.528-10.698-8.532.141-9.995 5.771zm28.44-16.515 16.578-9.571h-7.635l-8.86 5.115z"/><g filter="url(#j)"><path fill="url(#k)" d="M274.511 146.668c18.276 2.504 36.753 7.88 53.74 15.64l-.81 1.038c-32.7-14.915-71.358-21.001-102.597-14.049l-1.213-1.32c15.11-3.363 32.603-3.813 50.88-1.309"/></g><g filter="url(#l)"><path fill="url(#m)" d="m274.511 146.668.095-.692zm53.74 15.64.551.429.544-.697-.805-.368zm-.81 1.038-.289.636.501.229.339-.435zm-102.597-14.049-.514.472.272.297.394-.087zm-1.213-1.32-.151-.682-1.182.263.819.891zm50.88-1.309-.095.692c18.208 2.494 36.619 7.852 53.545 15.583l.29-.635.29-.636c-17.048-7.787-35.591-13.183-53.935-15.696zm53.74 15.64-.551-.43-.809 1.039.55.429.551.43.81-1.039zm-.81 1.038.29-.635c-32.803-14.962-71.618-21.088-103.039-14.096l.152.682.152.682c31.056-6.912 69.559-.865 102.156 14.003zm-102.597-14.049.514-.473-1.212-1.32-.515.473-.514.472 1.213 1.32zm-1.213-1.32.152.682c15.015-3.342 32.423-3.793 50.633-1.299l.095-.692.095-.692c-18.344-2.513-35.922-2.065-51.126 1.319z"/></g><g filter="url(#n)"><path fill="url(#o)" d="m242.736 270.752-.311.626zm53.221 17.328.697-.045.057.883-.872-.149zm-.085-1.315.118-.688.543.093.036.55zm-92.702-46.148-.159-.68.392-.092.276.294zm-1.748.41-.509.478-.828-.883 1.178-.276zm41.314 29.725.311-.625c16.453 8.189 34.686 14.126 53.028 17.265l-.118.688-.118.689c-18.474-3.162-36.838-9.141-53.414-17.391zm53.221 17.328-.697.045-.085-1.315.697-.045.697-.045.085 1.315zm-.085-1.315-.119.688c-35.533-6.101-71.061-22.89-93.092-46.358l.509-.478.509-.478c21.777 23.196 57.001 39.874 92.311 45.938zm-92.702-46.148.159.68-1.747.41-.16-.68-.159-.681 1.748-.409zm-1.748.41.51-.479c10.528 11.215 24.661 21.389 41.115 29.579l-.311.625-.311.626c-16.575-8.25-30.851-18.517-41.512-29.873z"/></g><g filter="url(#p)"><path fill="#1c1e20" d="M114.858 162.072c-8.581 27.294 2.812 58.028 28.168 85.654l-3.662 11.649c-25.357-27.627-36.749-58.361-28.168-85.654z"/></g><path stroke="#fff" stroke-opacity=".12" stroke-width="1.44" d="M111.561 174.999c-2.127 23.976 9.358 49.589 30.655 72.906l-3.162 10.057c-24.351-26.928-35.256-56.584-27.493-82.963Z"/><g filter="url(#q)"><path fill="#1c1e20" d="M143.026 247.727c54.72 59.618 163.114 93.697 242.105 76.117l-3.663 11.649c-78.991 17.579-187.385-16.5-242.104-76.118z"/></g><path stroke="#fff" stroke-opacity=".12" stroke-width="1.44" d="M143.341 249.124c27.455 29.489 67.966 52.636 111.42 66.298 43.453 13.661 89.92 17.861 129.311 9.389l-3.165 10.067c-39.259 8.638-85.803 4.518-129.377-9.182s-84.102-36.956-111.354-66.505z"/><g filter="url(#r)"><path fill="#1c1e20" d="M457.245 269.72c-8.581 27.293-35.511 45.979-72.115 54.125l-3.662 11.648c36.604-8.146 63.534-26.832 72.115-54.125z"/></g><path stroke="#fff" stroke-opacity=".12" stroke-width="1.44" d="M452.552 282.207c-8.729 26.075-34.642 44.156-70.021 52.305l3.162-10.058c30.808-6.936 54.883-21.368 66.859-42.247Z"/><defs><filter id="a" width="348.014" height="251.35" x="112.044" y="103.322" color-interpolation-filters="sRGB" filterUnits="userSpaceOnUse"><feFlood flood-opacity="0" result="BackgroundImageFix"/><feBlend in="SourceGraphic" in2="BackgroundImageFix" result="shape"/><feColorMatrix in="SourceAlpha" result="hardAlpha" values="0 0 0 0 0 0 0 0 0 0 0 0 0 0 0 0 0 0 127 0"/><feOffset dy="26.205"/><feGaussianBlur stdDeviation="13.103"/><feComposite in2="hardAlpha" k2="-1" k3="1" operator="arithmetic"/><feColorMatrix values="0 0 0 0 1 0 0 0 0 1 0 0 0 0 1 0 0 0 0.07 0"/><feBlend in2="shape" result="effect1_innerShadow_112_1311"/></filter><filter id="c" width="268.475" height="199.893" x="151.815" y="129.051" color-interpolation-filters="sRGB" filterUnits="userSpaceOnUse"><feFlood flood-opacity="0" result="BackgroundImageFix"/><feBlend in="SourceGraphic" in2="BackgroundImageFix" result="shape"/><feColorMatrix in="SourceAlpha" result="hardAlpha" values="0 0 0 0 0 0 0 0 0 0 0 0 0 0 0 0 0 0 127 0"/><feOffset dy="26.205"/><feGaussianBlur stdDeviation="13.103"/><feComposite in2="hardAlpha" k2="-1" k3="1" operator="arithmetic"/><feColorMatrix values="0 0 0 0 1 0 0 0 0 1 0 0 0 0 1 0 0 0 0.07 0"/><feBlend in2="shape" result="effect1_innerShadow_112_1311"/></filter><filter id="d" width="71.203" height="70.854" x="148.113" y="127.859" color-interpolation-filters="sRGB" filterUnits="userSpaceOnUse"><feFlood flood-opacity="0" result="BackgroundImageFix"/><feBlend in="SourceGraphic" in2="BackgroundImageFix" result="shape"/><feGaussianBlur result="effect1_foregroundBlur_112_1311" stdDeviation="1.857"/></filter><filter id="f" width="65.786" height="83.235" x="151.128" y="130.812" color-interpolation-filters="sRGB" filterUnits="userSpaceOnUse"><feFlood flood-opacity="0" result="BackgroundImageFix"/><feBlend in="SourceGraphic" in2="BackgroundImageFix" result="shape"/><feColorMatrix in="SourceAlpha" result="hardAlpha" values="0 0 0 0 0 0 0 0 0 0 0 0 0 0 0 0 0 0 127 0"/><feOffset dy="18.216"/><feGaussianBlur stdDeviation="9.108"/><feComposite in2="hardAlpha" k2="-1" k3="1" operator="arithmetic"/><feColorMatrix values="0 0 0 0 1 0 0 0 0 1 0 0 0 0 1 0 0 0 0.07 0"/><feBlend in2="shape" result="effect1_innerShadow_112_1311"/></filter><filter id="h" width="219.936" height="152.234" x="176.279" y="145.051" color-interpolation-filters="sRGB" filterUnits="userSpaceOnUse"><feFlood flood-opacity="0" result="BackgroundImageFix"/><feBlend in="SourceGraphic" in2="BackgroundImageFix" result="shape"/><feColorMatrix in="SourceAlpha" result="hardAlpha" values="0 0 0 0 0 0 0 0 0 0 0 0 0 0 0 0 0 0 127 0"/><feOffset dy="9.947"/><feGaussianBlur stdDeviation="4.973"/><feComposite in2="hardAlpha" k2="-1" k3="1" operator="arithmetic"/><feColorMatrix values="0 0 0 0 1 0 0 0 0 1 0 0 0 0 1 0 0 0 0.07 0"/><feBlend in2="shape" result="effect1_innerShadow_112_1311"/></filter><filter id="j" width="112.046" height="25.7" x="219.918" y="141.359" color-interpolation-filters="sRGB" filterUnits="userSpaceOnUse"><feFlood flood-opacity="0" result="BackgroundImageFix"/><feBlend in="SourceGraphic" in2="BackgroundImageFix" result="shape"/><feGaussianBlur result="effect1_foregroundBlur_112_1311" stdDeviation="1.857"/></filter><filter id="l" width="107.048" height="38.052" x="222.298" y="144.375" color-interpolation-filters="sRGB" filterUnits="userSpaceOnUse"><feFlood flood-opacity="0" result="BackgroundImageFix"/><feBlend in="SourceGraphic" in2="BackgroundImageFix" result="shape"/><feColorMatrix in="SourceAlpha" result="hardAlpha" values="0 0 0 0 0 0 0 0 0 0 0 0 0 0 0 0 0 0 127 0"/><feOffset dy="18.216"/><feGaussianBlur stdDeviation="9.108"/><feComposite in2="hardAlpha" k2="-1" k3="1" operator="arithmetic"/><feColorMatrix values="0 0 0 0 1 0 0 0 0 1 0 0 0 0 1 0 0 0 0.07 0"/><feBlend in2="shape" result="effect1_innerShadow_112_1311"/></filter><filter id="n" width="96.626" height="67.288" x="200.085" y="239.846" color-interpolation-filters="sRGB" filterUnits="userSpaceOnUse"><feFlood flood-opacity="0" result="BackgroundImageFix"/><feBlend in="SourceGraphic" in2="BackgroundImageFix" result="shape"/><feColorMatrix in="SourceAlpha" result="hardAlpha" values="0 0 0 0 0 0 0 0 0 0 0 0 0 0 0 0 0 0 127 0"/><feOffset dy="18.216"/><feGaussianBlur stdDeviation="9.108"/><feComposite in2="hardAlpha" k2="-1" k3="1" operator="arithmetic"/><feColorMatrix values="0 0 0 0 1 0 0 0 0 1 0 0 0 0 1 0 0 0 0.07 0"/><feBlend in2="shape" result="effect1_innerShadow_112_1311"/></filter><filter id="p" width="34.658" height="98.7" x="108.368" y="162.072" color-interpolation-filters="sRGB" filterUnits="userSpaceOnUse"><feFlood flood-opacity="0" result="BackgroundImageFix"/><feBlend in="SourceGraphic" in2="BackgroundImageFix" result="shape"/><feColorMatrix in="SourceAlpha" result="hardAlpha" values="0 0 0 0 0 0 0 0 0 0 0 0 0 0 0 0 0 0 127 0"/><feOffset dy="1.397"/><feGaussianBlur stdDeviation="3.667"/><feComposite in2="hardAlpha" k2="-1" k3="1" operator="arithmetic"/><feColorMatrix values="0 0 0 0 1 0 0 0 0 1 0 0 0 0 1 0 0 0 0.07 0"/><feBlend in2="shape" result="effect1_innerShadow_112_1311"/></filter><filter id="q" width="245.767" height="93.788" x="139.364" y="247.727" color-interpolation-filters="sRGB" filterUnits="userSpaceOnUse"><feFlood flood-opacity="0" result="BackgroundImageFix"/><feBlend in="SourceGraphic" in2="BackgroundImageFix" result="shape"/><feColorMatrix in="SourceAlpha" result="hardAlpha" values="0 0 0 0 0 0 0 0 0 0 0 0 0 0 0 0 0 0 127 0"/><feOffset dy="1.397"/><feGaussianBlur stdDeviation="3.667"/><feComposite in2="hardAlpha" k2="-1" k3="1" operator="arithmetic"/><feColorMatrix values="0 0 0 0 1 0 0 0 0 1 0 0 0 0 1 0 0 0 0.07 0"/><feBlend in2="shape" result="effect1_innerShadow_112_1311"/></filter><filter id="r" width="75.777" height="91.979" x="381.468" y="269.719" color-interpolation-filters="sRGB" filterUnits="userSpaceOnUse"><feFlood flood-opacity="0" result="BackgroundImageFix"/><feBlend in="SourceGraphic" in2="BackgroundImageFix" result="shape"/><feColorMatrix in="SourceAlpha" result="hardAlpha" values="0 0 0 0 0 0 0 0 0 0 0 0 0 0 0 0 0 0 127 0"/><feOffset dy="26.205"/><feGaussianBlur stdDeviation="13.103"/><feComposite in2="hardAlpha" k2="-1" k3="1" operator="arithmetic"/><feColorMatrix values="0 0 0 0 1 0 0 0 0 1 0 0 0 0 1 0 0 0 0.07 0"/><feBlend in2="shape" result="effect1_innerShadow_112_1311"/></filter><linearGradient id="b" x1="36.632" x2="7.467" y1="77.225" y2="53.549" gradientUnits="userSpaceOnUse"><stop stop-color="#1c1e20"/><stop offset="1" stop-color="#757e86"/></linearGradient><linearGradient id="e" x1="-16.292" x2="-106.454" y1="-23.395" y2="68.081" gradientUnits="userSpaceOnUse"><stop stop-color="#599f02" stop-opacity="0"/><stop offset=".126" stop-color="#6cb317"/><stop offset=".274" stop-color="#aff45b"/><stop offset=".609" stop-color="#60a50c"/><stop offset=".939" stop-color="#549900" stop-opacity=".02"/></linearGradient><linearGradient id="g" x1="196.292" x2="154.252" y1="145.652" y2="164.384" gradientUnits="userSpaceOnUse"><stop stop-color="#8cff00"/><stop offset="1" stop-color="#549900" stop-opacity="0"/></linearGradient><linearGradient id="i" x1="224.642" x2="281.016" y1="178.423" y2="276.066" gradientUnits="userSpaceOnUse"><stop stop-color="#fff"/><stop offset="1" stop-color="#89f801"/></linearGradient><linearGradient id="k" x1="326.829" x2="215.27" y1="143.616" y2="136.163" gradientUnits="userSpaceOnUse"><stop stop-color="#599f02" stop-opacity="0"/><stop offset=".126" stop-color="#6cb317"/><stop offset=".274" stop-color="#aff45b"/><stop offset=".609" stop-color="#60a50c"/><stop offset=".939" stop-color="#549900" stop-opacity=".02"/></linearGradient><linearGradient id="m" x1="241.86" x2="251.431" y1="146.066" y2="129.046" gradientUnits="userSpaceOnUse"><stop stop-color="#8cff00"/><stop offset="1" stop-color="#549900" stop-opacity="0"/></linearGradient><linearGradient id="o" x1="215.413" x2="213.741" y1="252.867" y2="272.323" gradientUnits="userSpaceOnUse"><stop stop-color="#dbe2d3"/><stop offset="1" stop-color="#dbe2d3" stop-opacity="0"/></linearGradient></defs></svg>