<svg xmlns="http://www.w3.org/2000/svg" width="584" height="535" fill="none" viewBox="0 0 584 535"><g filter="url(#a)"><circle cx="146.525" cy="146.525" r="146.525" fill="url(#b)" transform="matrix(.99478 -.10206 -.409 .91253 205.688 148.664)"/></g><path stroke="#fff" stroke-opacity=".12" stroke-width="1.44" d="M351.154 134.366c80.105-8.219 118.344 44.689 85.409 118.171-32.935 73.483-124.572 139.714-204.677 147.933s-118.345-44.687-85.41-118.17 124.573-139.715 204.678-147.934Z"/><g opacity=".35"><g filter="url(#c)"><circle cx="113.036" cy="113.036" r="113.036" fill="#fff" fill-opacity=".04" transform="matrix(.99478 -.10206 -.409 .91253 225.305 175.805)"/></g><path stroke="#fff" stroke-opacity=".12" stroke-width="1.44" d="M337.457 164.924c61.706-6.331 91.162 34.425 65.792 91.03s-95.96 107.625-157.667 113.956c-61.706 6.331-91.163-34.424-65.793-91.029 25.371-56.605 95.961-107.625 157.668-113.957Z"/></g><g filter="url(#d)"><path fill="url(#e)" d="M182.572 274.098a134 134 0 0 0-2.231 4.727c-16.771 37.418-9.465 67.875 15.331 82.26l-1.077 1.054c-13.348-7.718-21.637-19.986-23.974-35.486s1.366-33.643 10.71-52.479z"/></g><g filter="url(#f)"><path fill="url(#g)" d="m182.572 274.097.626.31.535-1.081-1.204.074zm-2.231 4.728-.638-.286zm15.331 82.26.489.499.657-.642-.795-.461zm-1.078 1.054-.349.605.458.265.379-.371zm-23.973-35.486-.69.105zm10.71-52.479-.043-.697-.404.025-.179.362zm1.241-.077-.626-.31a138 138 0 0 0-2.243 4.752l.638.286.637.285a137 137 0 0 1 2.22-4.703zm-2.231 4.728-.638-.286c-8.427 18.802-10.835 35.921-7.969 50.191 2.869 14.285 11.016 25.666 23.588 32.959l.35-.604.351-.604c-12.225-7.092-20.129-18.132-22.919-32.026-2.794-13.91-.469-30.729 7.874-49.345zm15.331 82.26-.488-.5-1.078 1.054.488.5.488.499 1.079-1.054zm-1.078 1.054.35-.605c-13.16-7.609-21.326-19.691-23.632-34.985l-.691.104-.69.105c2.368 15.705 10.779 28.16 24.314 35.986zm-23.973-35.486.691-.104c-2.31-15.317 1.343-33.314 10.644-52.065l-.625-.31-.626-.31c-9.386 18.92-13.139 37.211-10.774 52.894zm10.71-52.479.043.697 1.241-.076-.043-.698-.043-.697-1.241.077z"/></g><g filter="url(#h)"><circle cx="92.6" cy="92.6" r="92.6" fill="#191b1d" transform="matrix(.99478 -.10206 -.409 .91253 237.633 192.391)"/></g><path stroke="#fff" stroke-opacity=".12" stroke-width=".547" d="M329.637 183.189c50.725-5.204 74.939 28.297 54.084 74.828-20.855 46.53-78.882 88.47-129.606 93.675-50.725 5.204-74.938-28.298-54.083-74.829s78.881-88.469 129.605-93.674Z"/><path fill="url(#i)" fill-opacity=".92" d="m324.051 214.266 7.539 23.741 25.472-12.286-19.449 27.961-4.207-.355 1.796 3.821-25.172 36.189-8.342-.704-10.353 14.884-8.942 2.927 21.064-30.284 18.091-8.504-8.976-.758-14.871 4.372-7.915-6.622 6.696-9.627 21.599 1.822-7.152-5.986-28.582-2.411-14.196 4.186 20.477 1.727-19.449 27.961 9.217.778 6.651 9.282-6.808 9.787 2.297 4.885-30.828 10.092.001-.002-19.105-18.748 10.352-14.884-7.396-.623 24.442-35.906 7.242-3.404-4.657-.392 19.058-27.994 6.505 14.983zm-63.516 90.886 5.736-2.696-7.294-.616zm-7.12-7.695 24.123 2.035-3.157-4.426-11.781-.994zm6.023-31.286-4.853 2.282 4.945 13.383 5.856-2.442 4.821-6.932-7.853-.663zl21.319 1.798-2.317-4.354-11.5-.97zm32.873 2.69 19.074 1.609-1.875-3.989-10.194-.86z"/><g filter="url(#j)"><path fill="url(#k)" d="M229.109 235.31c12.927-13.159 28.278-24.762 44.65-33.748l.348 1.269c-31.497 17.31-59.474 44.675-72.563 73.879h-.001l-1.783.183c6.331-14.126 16.421-28.423 29.349-41.583"/></g><g filter="url(#l)"><path fill="url(#m)" d="m229.108 235.309-.498-.489zm44.651-33.749.674-.185-.234-.853-.776.425zm.348 1.27.337.612.482-.265-.145-.532zm-72.563 73.878.071.695.401-.041.165-.368zm-1.784.183-.637-.285-.495 1.104 1.203-.124zm29.348-41.582.498.49c12.879-13.111 28.176-24.673 44.489-33.627l-.336-.612-.336-.613c-16.431 9.019-31.838 20.663-44.813 33.873zm44.651-33.749-.674.184.348 1.271.674-.185.674-.185-.348-1.27zm.348 1.27-.336-.612c-31.597 17.365-59.699 44.831-72.865 74.205l.638.285.637.286c13.013-29.033 40.865-56.296 72.263-73.552zm-72.563 73.878-.072-.695-1.783.183.071.695.071.695 1.784-.183zm-1.784.183.638.286c6.291-14.037 16.329-28.267 29.208-41.378l-.498-.49-.498-.489c-12.975 13.208-23.116 27.571-29.487 41.786z"/></g><g filter="url(#n)"><path fill="url(#o)" d="m309.625 334.925.315.623zm45.692-32.325.38-.585.742.481-.64.61zm-1.104-.716-.481-.506.399-.38.463.3zM261.82 348.65l-.641-.279.161-.369.401-.046zm-.716 1.643.079.694-1.202.138.483-1.11zm48.521-15.368-.316-.624c16.397-8.3 32.051-19.374 45.526-32.206l.482.505.482.506c-13.574 12.926-29.339 24.079-45.859 32.442zm45.692-32.325-.38.586-1.104-.716.38-.586.381-.586 1.103.717zm-1.104-.716.482.506c-26.124 24.849-60.814 43.309-92.796 46.954l-.079-.694-.079-.694c31.611-3.603 66.032-21.885 91.991-46.578zM261.82 348.65l.64.279-.715 1.643-.641-.279-.64-.278.715-1.644zm-.716 1.643-.079-.694c15.284-1.742 31.886-6.997 48.284-15.298l.316.624.315.623c-16.518 8.362-33.28 13.675-48.757 15.439z"/></g><g filter="url(#p)"><path fill="#1c1e20" d="M146.076 372.539c16.76 23.188 48.212 32.415 85.515 28.588l7.153 9.896c-37.303 3.827-68.756-5.4-85.515-28.588z"/></g><path stroke="#fff" stroke-opacity=".12" stroke-width="1.44" d="M154.472 382.906c17.955 16.03 45.356 22.124 76.778 18.977l6.176 8.545c-36.142 3.438-66.439-5.536-82.954-27.522Z"/><g filter="url(#q)"><path fill="#1c1e20" d="M231.591 401.127c80.501-8.259 172.591-74.819 205.689-148.664l7.152 9.896c-33.097 73.846-125.187 140.405-205.688 148.664z"/></g><path stroke="#fff" stroke-opacity=".12" stroke-width="1.44" d="M232.9 401.709c40.051-4.398 82.816-23.053 119.734-49.736s68.047-61.435 84.788-98.084l6.181 8.553c-16.528 36.642-47.641 71.504-84.66 98.26-37.02 26.757-79.883 45.361-119.861 49.56z"/><g filter="url(#r)"><path fill="#1c1e20" d="M436.963 162.297c16.76 23.188 15.654 55.947.317 90.166l7.152 9.896c15.337-34.219 16.444-66.978-.316-90.166z"/></g><path stroke="#fff" stroke-opacity=".12" stroke-width="1.44" d="M444.173 173.521c15.694 22.579 14.711 54.161.108 87.4l-6.177-8.545c12.846-28.849 15.656-56.777 6.069-78.855Z"/><defs><filter id="a" width="315.28" height="295.315" x="133.879" y="132.863" color-interpolation-filters="sRGB" filterUnits="userSpaceOnUse"><feFlood flood-opacity="0" result="BackgroundImageFix"/><feBlend in="SourceGraphic" in2="BackgroundImageFix" result="shape"/><feColorMatrix in="SourceAlpha" result="hardAlpha" values="0 0 0 0 0 0 0 0 0 0 0 0 0 0 0 0 0 0 127 0"/><feOffset dy="26.205"/><feGaussianBlur stdDeviation="13.103"/><feComposite in2="hardAlpha" k2="-1" k3="1" operator="arithmetic"/><feColorMatrix values="0 0 0 0 1 0 0 0 0 1 0 0 0 0 1 0 0 0 0.07 0"/><feBlend in2="shape" result="effect1_innerShadow_112_1287"/></filter><filter id="c" width="243.222" height="233.809" x="169.908" y="163.615" color-interpolation-filters="sRGB" filterUnits="userSpaceOnUse"><feFlood flood-opacity="0" result="BackgroundImageFix"/><feBlend in="SourceGraphic" in2="BackgroundImageFix" result="shape"/><feColorMatrix in="SourceAlpha" result="hardAlpha" values="0 0 0 0 0 0 0 0 0 0 0 0 0 0 0 0 0 0 127 0"/><feOffset dy="26.205"/><feGaussianBlur stdDeviation="13.103"/><feComposite in2="hardAlpha" k2="-1" k3="1" operator="arithmetic"/><feColorMatrix values="0 0 0 0 1 0 0 0 0 1 0 0 0 0 1 0 0 0 0.07 0"/><feBlend in2="shape" result="effect1_innerShadow_112_1287"/></filter><filter id="d" width="33.159" height="95.468" x="166.227" y="270.384" color-interpolation-filters="sRGB" filterUnits="userSpaceOnUse"><feFlood flood-opacity="0" result="BackgroundImageFix"/><feBlend in="SourceGraphic" in2="BackgroundImageFix" result="shape"/><feGaussianBlur result="effect1_foregroundBlur_112_1287" stdDeviation="1.857"/></filter><filter id="f" width="27.576" height="107.899" x="169.242" y="273.326" color-interpolation-filters="sRGB" filterUnits="userSpaceOnUse"><feFlood flood-opacity="0" result="BackgroundImageFix"/><feBlend in="SourceGraphic" in2="BackgroundImageFix" result="shape"/><feColorMatrix in="SourceAlpha" result="hardAlpha" values="0 0 0 0 0 0 0 0 0 0 0 0 0 0 0 0 0 0 127 0"/><feOffset dy="18.216"/><feGaussianBlur stdDeviation="9.108"/><feComposite in2="hardAlpha" k2="-1" k3="1" operator="arithmetic"/><feColorMatrix values="0 0 0 0 1 0 0 0 0 1 0 0 0 0 1 0 0 0 0.07 0"/><feBlend in2="shape" result="effect1_innerShadow_112_1287"/></filter><filter id="h" width="199.249" height="180.017" x="192.252" y="182.404" color-interpolation-filters="sRGB" filterUnits="userSpaceOnUse"><feFlood flood-opacity="0" result="BackgroundImageFix"/><feBlend in="SourceGraphic" in2="BackgroundImageFix" result="shape"/><feColorMatrix in="SourceAlpha" result="hardAlpha" values="0 0 0 0 0 0 0 0 0 0 0 0 0 0 0 0 0 0 127 0"/><feOffset dy="9.947"/><feGaussianBlur stdDeviation="4.973"/><feComposite in2="hardAlpha" k2="-1" k3="1" operator="arithmetic"/><feColorMatrix values="0 0 0 0 1 0 0 0 0 1 0 0 0 0 1 0 0 0 0.07 0"/><feBlend in2="shape" result="effect1_innerShadow_112_1287"/></filter><filter id="j" width="81.774" height="82.757" x="196.047" y="197.849" color-interpolation-filters="sRGB" filterUnits="userSpaceOnUse"><feFlood flood-opacity="0" result="BackgroundImageFix"/><feBlend in="SourceGraphic" in2="BackgroundImageFix" result="shape"/><feGaussianBlur result="effect1_foregroundBlur_112_1287" stdDeviation="1.857"/></filter><filter id="l" width="76.299" height="95.403" x="198.628" y="200.521" color-interpolation-filters="sRGB" filterUnits="userSpaceOnUse"><feFlood flood-opacity="0" result="BackgroundImageFix"/><feBlend in="SourceGraphic" in2="BackgroundImageFix" result="shape"/><feColorMatrix in="SourceAlpha" result="hardAlpha" values="0 0 0 0 0 0 0 0 0 0 0 0 0 0 0 0 0 0 127 0"/><feOffset dy="18.216"/><feGaussianBlur stdDeviation="9.108"/><feComposite in2="hardAlpha" k2="-1" k3="1" operator="arithmetic"/><feColorMatrix values="0 0 0 0 1 0 0 0 0 1 0 0 0 0 1 0 0 0 0.07 0"/><feBlend in2="shape" result="effect1_innerShadow_112_1287"/></filter><filter id="n" width="96.459" height="68.343" x="259.981" y="300.998" color-interpolation-filters="sRGB" filterUnits="userSpaceOnUse"><feFlood flood-opacity="0" result="BackgroundImageFix"/><feBlend in="SourceGraphic" in2="BackgroundImageFix" result="shape"/><feColorMatrix in="SourceAlpha" result="hardAlpha" values="0 0 0 0 0 0 0 0 0 0 0 0 0 0 0 0 0 0 127 0"/><feOffset dy="18.216"/><feGaussianBlur stdDeviation="9.108"/><feComposite in2="hardAlpha" k2="-1" k3="1" operator="arithmetic"/><feColorMatrix values="0 0 0 0 1 0 0 0 0 1 0 0 0 0 1 0 0 0 0.07 0"/><feBlend in2="shape" result="effect1_innerShadow_112_1287"/></filter><filter id="p" width="92.668" height="40.719" x="146.076" y="372.539" color-interpolation-filters="sRGB" filterUnits="userSpaceOnUse"><feFlood flood-opacity="0" result="BackgroundImageFix"/><feBlend in="SourceGraphic" in2="BackgroundImageFix" result="shape"/><feColorMatrix in="SourceAlpha" result="hardAlpha" values="0 0 0 0 0 0 0 0 0 0 0 0 0 0 0 0 0 0 127 0"/><feOffset dy="1.397"/><feGaussianBlur stdDeviation="3.667"/><feComposite in2="hardAlpha" k2="-1" k3="1" operator="arithmetic"/><feColorMatrix values="0 0 0 0 1 0 0 0 0 1 0 0 0 0 1 0 0 0 0.07 0"/><feBlend in2="shape" result="effect1_innerShadow_112_1287"/></filter><filter id="q" width="212.841" height="159.958" x="231.591" y="252.463" color-interpolation-filters="sRGB" filterUnits="userSpaceOnUse"><feFlood flood-opacity="0" result="BackgroundImageFix"/><feBlend in="SourceGraphic" in2="BackgroundImageFix" result="shape"/><feColorMatrix in="SourceAlpha" result="hardAlpha" values="0 0 0 0 0 0 0 0 0 0 0 0 0 0 0 0 0 0 127 0"/><feOffset dy="1.397"/><feGaussianBlur stdDeviation="3.667"/><feComposite in2="hardAlpha" k2="-1" k3="1" operator="arithmetic"/><feColorMatrix values="0 0 0 0 1 0 0 0 0 1 0 0 0 0 1 0 0 0 0.07 0"/><feBlend in2="shape" result="effect1_innerShadow_112_1287"/></filter><filter id="r" width="19.349" height="126.268" x="436.963" y="162.297" color-interpolation-filters="sRGB" filterUnits="userSpaceOnUse"><feFlood flood-opacity="0" result="BackgroundImageFix"/><feBlend in="SourceGraphic" in2="BackgroundImageFix" result="shape"/><feColorMatrix in="SourceAlpha" result="hardAlpha" values="0 0 0 0 0 0 0 0 0 0 0 0 0 0 0 0 0 0 127 0"/><feOffset dy="26.205"/><feGaussianBlur stdDeviation="13.103"/><feComposite in2="hardAlpha" k2="-1" k3="1" operator="arithmetic"/><feColorMatrix values="0 0 0 0 1 0 0 0 0 1 0 0 0 0 1 0 0 0 0.07 0"/><feBlend in2="shape" result="effect1_innerShadow_112_1287"/></filter><linearGradient id="b" x1="36.632" x2="7.467" y1="77.225" y2="53.549" gradientUnits="userSpaceOnUse"><stop stop-color="#1c1e20"/><stop offset="1" stop-color="#757e86"/></linearGradient><linearGradient id="e" x1="-81.002" x2="-61.518" y1="366.897" y2="493.849" gradientUnits="userSpaceOnUse"><stop stop-color="#599f02" stop-opacity="0"/><stop offset=".126" stop-color="#6cb317"/><stop offset=".274" stop-color="#aff45b"/><stop offset=".609" stop-color="#60a50c"/><stop offset=".939" stop-color="#549900" stop-opacity=".02"/></linearGradient><linearGradient id="g" x1="181.564" x2="171.468" y1="297.427" y2="342.33" gradientUnits="userSpaceOnUse"><stop stop-color="#8cff00"/><stop offset="1" stop-color="#549900" stop-opacity="0"/></linearGradient><linearGradient id="i" x1="324.051" x2="314.574" y1="214.265" y2="326.615" gradientUnits="userSpaceOnUse"><stop stop-color="#fff"/><stop offset="1" stop-color="#89f801"/></linearGradient><linearGradient id="k" x1="257.919" x2="185.289" y1="191.533" y2="276.538" gradientUnits="userSpaceOnUse"><stop stop-color="#599f02" stop-opacity="0"/><stop offset=".126" stop-color="#6cb317"/><stop offset=".274" stop-color="#aff45b"/><stop offset=".609" stop-color="#60a50c"/><stop offset=".939" stop-color="#549900" stop-opacity=".02"/></linearGradient><linearGradient id="m" x1="209.119" x2="201.189" y1="261.132" y2="243.287" gradientUnits="userSpaceOnUse"><stop stop-color="#8cff00"/><stop offset="1" stop-color="#549900" stop-opacity="0"/></linearGradient><linearGradient id="o" x1="278.959" x2="293.56" y1="346.15" y2="359.114" gradientUnits="userSpaceOnUse"><stop stop-color="#dbe2d3"/><stop offset="1" stop-color="#dbe2d3" stop-opacity="0"/></linearGradient></defs></svg>