<svg xmlns="http://www.w3.org/2000/svg" width="499" height="425" fill="none" viewBox="0 0 499 425"><g opacity=".35"><g filter="url(#a)"><circle cx="124.71" cy="124.71" r="124.71" fill="#fff" fill-opacity=".04" transform="matrix(.99961 .02778 -.52386 .8518 189.992 102.764)"/></g><path stroke="#fff" stroke-opacity=".12" stroke-width="1.225" d="M314.334 106.749c68.51 1.904 94.942 50.774 59.038 109.154S252.824 320.066 184.314 318.162c-68.511-1.904-94.944-50.773-59.04-109.153s120.549-104.163 189.06-102.26Z"/></g><g opacity=".35"><g filter="url(#b)"><circle cx="96.207" cy="96.207" r="96.207" fill="#fff" fill-opacity=".04" transform="matrix(.99961 .02778 -.52386 .8518 203.552 127.834)"/></g><path stroke="#fff" stroke-opacity=".12" stroke-width="1.225" d="M299.402 131.028c52.775 1.466 73.136 39.112 45.479 84.083-27.658 44.971-92.862 80.239-145.636 78.773s-73.137-39.112-45.48-84.084c27.658-44.971 92.862-80.239 145.637-78.772Z"/></g><g filter="url(#c)"><path fill="url(#d)" d="M156.643 206.045q-1.246 1.86-2.405 3.745c-18.283 29.727-15.479 56.237 3.86 71.114l-1.025.769c-10.413-7.985-16.054-19.254-16.316-32.593-.262-13.338 4.865-28.242 14.829-43.107z"/></g><g filter="url(#e)"><path fill="url(#f)" d="m156.643 206.045.494.331.572-.854-1.025-.07zm-2.405 3.745-.507-.312zm3.86 71.114.357.475.625-.47-.62-.476zm-1.025.769-.362.472.358.275.361-.271zm-16.316-32.593-.594.012zm14.829-43.107.041-.593-.343-.024-.192.286zm1.057.072-.494-.331a118 118 0 0 0-2.418 3.764l.507.312.506.311a117 117 0 0 1 2.393-3.725zm-2.405 3.745-.507-.312c-9.186 14.938-13.108 29.12-12.264 41.478.844 12.373 6.464 22.877 16.268 30.419l.363-.471.362-.471c-9.534-7.334-14.986-17.524-15.807-29.558-.822-12.047 2.996-25.984 12.091-40.774zm3.86 71.114-.357-.476-1.025.77.357.475.357.476 1.025-.77zm-1.025.769.362-.471c-10.267-7.874-15.825-18.972-16.084-32.134l-.594.012-.594.012c.265 13.516 5.989 24.955 16.548 33.053zm-16.316-32.593.594-.012c-.258-13.181 4.81-27.967 14.729-42.764l-.494-.331-.494-.331c-10.009 14.932-15.194 29.954-14.929 43.45zm14.829-43.107-.04.593 1.057.072.04-.593.041-.593-1.057-.072z"/></g><g filter="url(#g)"><circle cx="78.813" cy="78.813" r="78.813" fill="#0b0c0d" transform="matrix(.99961 .02778 -.52386 .8518 212.126 143.191)"/></g><path stroke="#fff" stroke-opacity=".12" stroke-width=".782" d="M290.704 145.714c43.295 1.203 59.999 32.086 37.31 68.979-22.69 36.892-76.18 65.824-119.474 64.621-43.295-1.203-59.999-32.086-37.31-68.978 22.69-36.893 76.18-65.825 119.474-64.622Z"/><g filter="url(#h)"><path fill="url(#i)" d="M200.196 178.446c12.362-9.679 26.598-17.778 41.406-23.555l.154 1.11c-28.492 11.134-55.123 31.139-69.392 54.341l-1.525-.043c6.902-11.222 16.995-22.174 29.357-31.853"/></g><g filter="url(#j)"><path fill="url(#k)" d="m200.196 178.446-.366-.468zm41.406-23.555.589-.082-.104-.745-.701.273zm.155 1.111.216.554.437-.171-.065-.465zm-69.392 54.34-.017.595.344.009.179-.292zm-1.526-.042-.507-.312-.539.877 1.029.029zm29.357-31.854.367.468c12.315-9.643 26.5-17.713 41.255-23.469l-.216-.554-.216-.554c-14.862 5.798-29.148 13.925-41.556 23.641zm41.406-23.555-.589.082.155 1.111.589-.082.588-.082-.154-1.111zm.155 1.111-.217-.553c-28.582 11.168-55.329 31.245-69.681 54.582l.506.311.506.312c14.187-23.066 40.7-43 69.102-54.098zm-69.392 54.34.017-.594-1.527-.043-.016.595-.017.594 1.526.043zm-1.526-.042.506.311c6.859-11.152 16.901-22.053 29.218-31.697l-.367-.468-.366-.468c-12.407 9.715-22.552 20.717-29.498 32.01z"/></g><path fill="url(#l)" fill-opacity=".92" d="m272.913 198.604 15.367-4.282-13.586 13.586-2.3-.617.617 2.299-17.584 17.584-4.561-1.222-7.232 7.232-5.254.733 14.712-14.713 10.893-2.918-4.909-1.316-8.692.946-3.734-4.466 4.677-4.678 11.81 3.165-3.373-4.036-15.629-4.188-8.298.908 11.197 3.001-13.587 13.586 5.04 1.35 2.768 5.817-4.756 4.755.788 2.94-18.121 2.529-8.739-12.314 7.231-7.231-4.045-1.084 17.15-17.498 4.362-1.168-2.547-.682 13.371-13.642 2.118 8.966 23.027-7.275zm-46.143 30.197 3.454-.925-3.987-1.069zm-3.185-4.983 13.191 3.535-1.313-2.772-6.441-1.726zm6.463-16.769-2.922.783 1.411 7.924 3.494-.772 3.368-3.369-4.293-1.15zl11.656 3.124-.851-2.649-6.289-1.685zm17.983 4.771 10.429 2.794-.643-2.401-5.575-1.494z"/><g filter="url(#m)"><path fill="url(#n)" d="m257.153 271.399.198.561zm42.129-22.236.385-.453.573.488-.608.445zm-.853-.727-.35-.48.379-.276.357.304zm-83.134 29.27-.289-.519.139-.078.16.003zm-.001.001-.51-.306.082-.136.139-.078zm-.785 1.308-.009.595-1.03-.017.529-.884zm42.644-7.616-.197-.56c14.753-5.196 29.186-12.814 41.975-22.156l.351.48.35.48c-12.881 9.41-27.417 17.083-42.281 22.317zm42.129-22.236-.386.452-.852-.726.385-.453.386-.452.852.726zm-.853-.727.351.481c-24.789 18.088-56.102 29.837-83.495 29.384l.01-.595.01-.594c27.075.448 58.141-11.182 82.774-29.156zm-83.134 29.27.289.52-.001.001zl-.289-.52h.001zm-.001.001.51.306-.785 1.308-.51-.306-.51-.306.785-1.308zm-.785 1.308.01-.594c13.091.216 27.682-2.387 42.437-7.582l.197.56.198.561c-14.864 5.234-29.596 7.869-42.851 7.65z"/></g><g opacity=".35"><g filter="url(#o)"><path fill="#fff" fill-opacity=".04" d="M114.979 285.097c11.585 21.418 37.111 32.676 69.014 33.563l4.945 9.141c-31.904-.887-57.429-12.145-69.014-33.563z"/></g><path stroke="#fff" stroke-opacity=".12" stroke-width="1.225" d="M120.921 294.773c13.384 15.51 35.836 23.675 62.701 24.487l4.269 7.893c-30.881-1.087-55.459-12.003-66.97-32.38Z"/></g><g opacity=".35"><g filter="url(#p)"><path fill="#fff" fill-opacity=".04" d="M183.993 318.661c68.849 1.913 153.911-44.096 189.993-102.764l4.944 9.141c-36.081 58.668-121.144 104.677-189.993 102.764z"/></g><path stroke="#fff" stroke-opacity=".12" stroke-width="1.225" d="M378.221 225.016c-17.993 29.1-48.096 55.088-82.291 73.584-34.195 18.495-72.422 29.466-106.624 28.597l-4.273-7.9c34.286.708 72.435-10.316 106.536-28.761 34.1-18.444 64.207-44.338 82.379-73.42z"/></g><g opacity=".35"><g filter="url(#q)"><path fill="#fff" fill-opacity=".04" d="M383.67 139.767c11.585 21.418 7.036 48.943-9.683 76.129l4.944 9.141c16.72-27.186 21.268-54.711 9.683-76.129z"/></g><path stroke="#fff" stroke-opacity=".12" stroke-width="1.225" d="M388.519 150.041c10.749 20.786 6.433 47.328-9.557 73.766l-4.269-7.893c14.023-22.926 19.478-46.184 13.826-65.873Z"/></g><defs><filter id="a" width="281.544" height="234.875" x="108.551" y="106.17" color-interpolation-filters="sRGB" filterUnits="userSpaceOnUse"><feFlood flood-opacity="0" result="BackgroundImageFix"/><feBlend in="SourceGraphic" in2="BackgroundImageFix" result="shape"/><feColorMatrix in="SourceAlpha" result="hardAlpha" values="0 0 0 0 0 0 0 0 0 0 0 0 0 0 0 0 0 0 127 0"/><feOffset dy="22.304"/><feGaussianBlur stdDeviation="11.152"/><feComposite in2="hardAlpha" k2="-1" k3="1" operator="arithmetic"/><feColorMatrix values="0 0 0 0 1 0 0 0 0 1 0 0 0 0 1 0 0 0 0.07 0"/><feBlend in2="shape" result="effect1_innerShadow_101_5"/></filter><filter id="b" width="217.196" height="186.291" x="140.725" y="130.462" color-interpolation-filters="sRGB" filterUnits="userSpaceOnUse"><feFlood flood-opacity="0" result="BackgroundImageFix"/><feBlend in="SourceGraphic" in2="BackgroundImageFix" result="shape"/><feColorMatrix in="SourceAlpha" result="hardAlpha" values="0 0 0 0 0 0 0 0 0 0 0 0 0 0 0 0 0 0 127 0"/><feOffset dy="22.304"/><feGaussianBlur stdDeviation="11.152"/><feComposite in2="hardAlpha" k2="-1" k3="1" operator="arithmetic"/><feColorMatrix values="0 0 0 0 1 0 0 0 0 1 0 0 0 0 1 0 0 0 0.07 0"/><feBlend in2="shape" result="effect1_innerShadow_101_5"/></filter><filter id="c" width="23.671" height="82.022" x="137.587" y="202.812" color-interpolation-filters="sRGB" filterUnits="userSpaceOnUse"><feFlood flood-opacity="0" result="BackgroundImageFix"/><feBlend in="SourceGraphic" in2="BackgroundImageFix" result="shape"/><feGaussianBlur result="effect1_foregroundBlur_101_5" stdDeviation="1.58"/></filter><filter id="e" width="18.927" height="92.567" x="140.153" y="205.356" color-interpolation-filters="sRGB" filterUnits="userSpaceOnUse"><feFlood flood-opacity="0" result="BackgroundImageFix"/><feBlend in="SourceGraphic" in2="BackgroundImageFix" result="shape"/><feColorMatrix in="SourceAlpha" result="hardAlpha" values="0 0 0 0 0 0 0 0 0 0 0 0 0 0 0 0 0 0 127 0"/><feOffset dy="15.504"/><feGaussianBlur stdDeviation="7.752"/><feComposite in2="hardAlpha" k2="-1" k3="1" operator="arithmetic"/><feColorMatrix values="0 0 0 0 1 0 0 0 0 1 0 0 0 0 1 0 0 0 0.07 0"/><feBlend in2="shape" result="effect1_innerShadow_101_5"/></filter><filter id="g" width="177.928" height="148.579" x="160.658" y="145.345" color-interpolation-filters="sRGB" filterUnits="userSpaceOnUse"><feFlood flood-opacity="0" result="BackgroundImageFix"/><feBlend in="SourceGraphic" in2="BackgroundImageFix" result="shape"/><feColorMatrix in="SourceAlpha" result="hardAlpha" values="0 0 0 0 0 0 0 0 0 0 0 0 0 0 0 0 0 0 127 0"/><feOffset dy="14.24"/><feGaussianBlur stdDeviation="7.12"/><feComposite in2="hardAlpha" k2="-1" k3="1" operator="arithmetic"/><feColorMatrix values="0 0 0 0 1 0 0 0 0 1 0 0 0 0 1 0 0 0 0.07 0"/><feBlend in2="shape" result="effect1_innerShadow_101_5"/></filter><filter id="h" width="77.238" height="61.772" x="167.678" y="151.73" color-interpolation-filters="sRGB" filterUnits="userSpaceOnUse"><feFlood flood-opacity="0" result="BackgroundImageFix"/><feBlend in="SourceGraphic" in2="BackgroundImageFix" result="shape"/><feGaussianBlur result="effect1_foregroundBlur_101_5" stdDeviation="1.58"/></filter><filter id="j" width="72.617" height="72.387" x="169.793" y="154.063" color-interpolation-filters="sRGB" filterUnits="userSpaceOnUse"><feFlood flood-opacity="0" result="BackgroundImageFix"/><feBlend in="SourceGraphic" in2="BackgroundImageFix" result="shape"/><feColorMatrix in="SourceAlpha" result="hardAlpha" values="0 0 0 0 0 0 0 0 0 0 0 0 0 0 0 0 0 0 127 0"/><feOffset dy="15.504"/><feGaussianBlur stdDeviation="7.752"/><feComposite in2="hardAlpha" k2="-1" k3="1" operator="arithmetic"/><feColorMatrix values="0 0 0 0 1 0 0 0 0 1 0 0 0 0 1 0 0 0 0.07 0"/><feBlend in2="shape" result="effect1_innerShadow_101_5"/></filter><filter id="m" width="86.771" height="47.446" x="213.47" y="247.68" color-interpolation-filters="sRGB" filterUnits="userSpaceOnUse"><feFlood flood-opacity="0" result="BackgroundImageFix"/><feBlend in="SourceGraphic" in2="BackgroundImageFix" result="shape"/><feColorMatrix in="SourceAlpha" result="hardAlpha" values="0 0 0 0 0 0 0 0 0 0 0 0 0 0 0 0 0 0 127 0"/><feOffset dy="15.504"/><feGaussianBlur stdDeviation="7.752"/><feComposite in2="hardAlpha" k2="-1" k3="1" operator="arithmetic"/><feColorMatrix values="0 0 0 0 1 0 0 0 0 1 0 0 0 0 1 0 0 0 0.07 0"/><feBlend in2="shape" result="effect1_innerShadow_101_5"/></filter><filter id="o" width="73.958" height="65.008" x="114.979" y="285.097" color-interpolation-filters="sRGB" filterUnits="userSpaceOnUse"><feFlood flood-opacity="0" result="BackgroundImageFix"/><feBlend in="SourceGraphic" in2="BackgroundImageFix" result="shape"/><feColorMatrix in="SourceAlpha" result="hardAlpha" values="0 0 0 0 0 0 0 0 0 0 0 0 0 0 0 0 0 0 127 0"/><feOffset dy="22.304"/><feGaussianBlur stdDeviation="11.152"/><feComposite in2="hardAlpha" k2="-1" k3="1" operator="arithmetic"/><feColorMatrix values="0 0 0 0 1 0 0 0 0 1 0 0 0 0 1 0 0 0 0.07 0"/><feBlend in2="shape" result="effect1_innerShadow_101_5"/></filter><filter id="p" width="194.937" height="134.266" x="183.993" y="215.897" color-interpolation-filters="sRGB" filterUnits="userSpaceOnUse"><feFlood flood-opacity="0" result="BackgroundImageFix"/><feBlend in="SourceGraphic" in2="BackgroundImageFix" result="shape"/><feColorMatrix in="SourceAlpha" result="hardAlpha" values="0 0 0 0 0 0 0 0 0 0 0 0 0 0 0 0 0 0 127 0"/><feOffset dy="22.304"/><feGaussianBlur stdDeviation="11.152"/><feComposite in2="hardAlpha" k2="-1" k3="1" operator="arithmetic"/><feColorMatrix values="0 0 0 0 1 0 0 0 0 1 0 0 0 0 1 0 0 0 0.07 0"/><feBlend in2="shape" result="effect1_innerShadow_101_5"/></filter><filter id="q" width="21.063" height="107.574" x="373.987" y="139.767" color-interpolation-filters="sRGB" filterUnits="userSpaceOnUse"><feFlood flood-opacity="0" result="BackgroundImageFix"/><feBlend in="SourceGraphic" in2="BackgroundImageFix" result="shape"/><feColorMatrix in="SourceAlpha" result="hardAlpha" values="0 0 0 0 0 0 0 0 0 0 0 0 0 0 0 0 0 0 127 0"/><feOffset dy="22.304"/><feGaussianBlur stdDeviation="11.152"/><feComposite in2="hardAlpha" k2="-1" k3="1" operator="arithmetic"/><feColorMatrix values="0 0 0 0 1 0 0 0 0 1 0 0 0 0 1 0 0 0 0.07 0"/><feBlend in2="shape" result="effect1_innerShadow_101_5"/></filter><linearGradient id="d" x1="-76.044" x2="-73.609" y1="255.278" y2="364.569" gradientUnits="userSpaceOnUse"><stop stop-color="#599f02" stop-opacity="0"/><stop offset=".126" stop-color="#6cb317"/><stop offset=".274" stop-color="#aff45b"/><stop offset=".609" stop-color="#60a50c"/><stop offset=".939" stop-color="#549900" stop-opacity=".02"/></linearGradient><linearGradient id="f" x1="153.218" x2="139.742" y1="225.622" y2="262.405" gradientUnits="userSpaceOnUse"><stop stop-color="#8cff00"/><stop offset="1" stop-color="#549900" stop-opacity="0"/></linearGradient><linearGradient id="i" x1="229.342" x2="158.667" y1="144.681" y2="208.404" gradientUnits="userSpaceOnUse"><stop stop-color="#599f02" stop-opacity="0"/><stop offset=".126" stop-color="#6cb317"/><stop offset=".274" stop-color="#aff45b"/><stop offset=".609" stop-color="#60a50c"/><stop offset=".939" stop-color="#549900" stop-opacity=".02"/></linearGradient><linearGradient id="k" x1="180.477" x2="175.753" y1="198.033" y2="182.098" gradientUnits="userSpaceOnUse"><stop stop-color="#8cff00"/><stop offset="1" stop-color="#549900" stop-opacity="0"/></linearGradient><linearGradient id="l" x1="271.094" x2="254.633" y1="184.671" y2="246.103" gradientUnits="userSpaceOnUse"><stop stop-color="#fff"/><stop offset="1" stop-color="#89f801"/></linearGradient><linearGradient id="n" x1="230.034" x2="240.927" y1="277.488" y2="290.041" gradientUnits="userSpaceOnUse"><stop stop-color="#dbe2d3"/><stop offset="1" stop-color="#dbe2d3" stop-opacity="0"/></linearGradient></defs></svg>