<svg xmlns="http://www.w3.org/2000/svg" width="24" height="24" fill="none" viewBox="0 0 24 24"><g stroke="#fff" stroke-linecap="round" stroke-linejoin="round" stroke-width="1.2" clip-path="url(#a)"><path d="M1.528 10.975c.105 1.452.9 2.62 1.887 2.782.733.12 1.486.223 2.253.223s1.52-.103 2.254-.223c.987-.162 1.781-1.33 1.887-2.782a45 45 0 0 0 .144-3.295 45 45 0 0 0-.144-3.295c-.106-1.452-.9-2.62-1.887-2.782-.734-.12-1.486-.224-2.254-.224-.767 0-1.52.104-2.253.224-.987.162-1.782 1.33-1.887 2.782a45 45 0 0 0-.144 3.295c0 1.122.066 2.223.144 3.295m20.982 2.119c-.106-1.45-.902-2.618-1.891-2.78-.735-.12-1.49-.223-2.259-.223-.77 0-1.524.103-2.259.223-.989.162-1.785 1.33-1.89 2.78a45 45 0 0 0-.145 3.293c0 1.122.066 2.222.144 3.293.106 1.451.902 2.619 1.891 2.78.735.12 1.49.224 2.259.224.77 0 1.524-.104 2.259-.224.989-.161 1.785-1.329 1.89-2.78a45 45 0 0 0 .145-3.293c0-1.121-.066-2.221-.144-3.293M1.527 21.597c.106.525.9.947 1.888 1.006.733.043 1.486.08 2.253.08s1.52-.037 2.254-.08c.987-.059 1.781-.48 1.887-1.006a6 6 0 0 0 .144-1.19c0-.406-.066-.804-.144-1.191-.106-.525-.9-.947-1.887-1.005a38 38 0 0 0-2.254-.081c-.767 0-1.52.037-2.253.08-.988.06-1.782.481-1.888 1.006a6 6 0 0 0-.143 1.19c0 .406.065.804.143 1.191M22.51 2.466c-.106-.525-.902-.947-1.891-1.006-.735-.043-1.49-.08-2.259-.08-.77 0-1.524.037-2.259.08-.989.059-1.785.48-1.89 1.006a6 6 0 0 0-.145 1.19c0 .406.066.803.144 1.19.106.526.902.948 1.891 1.006.735.044 1.49.081 2.259.081.77 0 1.524-.037 2.259-.08.989-.06 1.785-.481 1.89-1.006a6 6 0 0 0 .145-1.19 6 6 0 0 0-.144-1.191"/></g><defs><clipPath id="a"><path fill="#fff" d="M0 0h24v24H0z"/></clipPath></defs></svg>