<svg xmlns="http://www.w3.org/2000/svg" width="24" height="24" fill="none" viewBox="0 0 24 24"><g clip-path="url(#a)"><path stroke="#fff" stroke-width="1.2" d="M16 7 8 17M.5 20S5 21.5 12 21.5 23.5 20 23.5 20v-5.041a3 3 0 0 1 0-5.918V4S19 2.5 12 2.5.5 4 .5 4v5.041a3 3 0 0 1 0 5.918zM7 7.444v3.112S7.563 11 8.5 11s1.5-.444 1.5-.444V7.444S9.437 7 8.5 7 7 7.444 7 7.444Zm10 9.112v-3.112S16.437 13 15.5 13s-1.5.444-1.5.444v3.112s.563.444 1.5.444 1.5-.444 1.5-.444Z"/></g><defs><clipPath id="a"><path fill="#fff" d="M0 0h24v24H0z"/></clipPath></defs></svg>