<svg xmlns="http://www.w3.org/2000/svg" width="24" height="24" fill="none" viewBox="0 0 24 24"><g clip-path="url(#a)"><path fill="#fff" d="M22.91 4.363h-1.092v17.454H4.364v1.092c0 .602.488 1.09 1.09 1.09H22.91A1.09 1.09 0 0 0 24 22.91V5.454a1.09 1.09 0 0 0-1.09-1.09"/><path fill="#fff" d="M6.545 19.636h12a1.09 1.09 0 0 0 1.091-1.09V1.09a1.09 1.09 0 0 0-1.09-1.091H1.09A1.09 1.09 0 0 0 0 1.09v17.456c0 .602.488 1.09 1.09 1.09z"/><path fill="#b56be0" d="m10 4-4.598 6L10 16l4.598-6z"/></g><defs><clipPath id="a"><path fill="#fff" d="M0 0h24v24H0z"/></clipPath></defs></svg>