<svg xmlns="http://www.w3.org/2000/svg" width="25" height="24" fill="none" viewBox="0 0 25 24"><g stroke="#fff" stroke-linecap="round" stroke-linejoin="round" stroke-width="1.5" clip-path="url(#a)"><path d="m17.19 16.356 2.65 6.894 1.592-2.651 2.652-1.591zm6.893 6.894-2.652-2.652M5.333 12V4.5m0 0h1.5a1.5 1.5 0 0 1 1.5 1.5v.75a1.5 1.5 0 0 1-1.5 1.5h-1.5m0 0h1.5a1.5 1.5 0 0 1 1.5 1.5v.75a1.5 1.5 0 0 1-1.5 1.5h-1.5m6.001-7.5v6a1.5 1.5 0 1 0 3 0v-6m3 0v2.25a1.5 1.5 0 1 0 3 0V4.5m-1.5 3.75V12"/><path d="M13.583 15.75h-9a3 3 0 0 1-3-3v-9a3 3 0 0 1 3-3h16.5a3 3 0 0 1 3 3v9a3 3 0 0 1-1.54 2.622"/></g><defs><clipPath id="a"><path fill="#fff" d="M.833 0h24v24h-24z"/></clipPath></defs></svg>