<svg xmlns="http://www.w3.org/2000/svg" width="24" height="24" fill="none" viewBox="0 0 24 24"><g clip-path="url(#a)"><path stroke="#d8553a" stroke-linecap="round" stroke-linejoin="round" stroke-width="1.2" d="M19.658 7.5c-1.151-1.312-4.119-4.56-7.705-6.5C8.368 2.94 5.401 6.188 4.25 7.5m15.5 9c-1.078 1.241-4.11 4.506-7.797 6.5-3.585-1.94-6.552-5.188-7.703-6.5M14.5 12s-1.03-1.477-2.5-2.5C10.53 10.523 9.5 12 9.5 12s1.03 1.477 2.5 2.5c1.47-1.023 2.5-2.5 2.5-2.5m8.5 0s-1.03-1.477-2.5-2.5C19.03 10.523 18 12 18 12s1.03 1.477 2.5 2.5C21.97 13.477 23 12 23 12M1 12s1.03-1.477 2.5-2.5C4.97 10.523 6 12 6 12s-1.03 1.477-2.5 2.5C2.03 13.477 1 12 1 12"/></g><defs><clipPath id="a"><path fill="#fff" d="M0 0h24v24H0z"/></clipPath></defs></svg>