<svg xmlns="http://www.w3.org/2000/svg" width="25" height="24" fill="none" viewBox="0 0 25 24"><g clip-path="url(#a)"><path stroke="#87c141" stroke-linecap="round" stroke-linejoin="round" stroke-width="1.2" d="M19.991 7.5c-1.15-1.312-4.119-4.56-7.705-6.5-3.585 1.94-6.552 5.188-7.703 6.5m15.5 9c-1.078 1.241-4.11 4.506-7.797 6.5-3.585-1.94-6.552-5.188-7.703-6.5m10.25-4.5s-1.03-1.477-2.5-2.5c-1.47 1.023-2.5 2.5-2.5 2.5s1.03 1.477 2.5 2.5c1.47-1.023 2.5-2.5 2.5-2.5m8.5 0s-1.03-1.477-2.5-2.5c-1.47 1.023-2.5 2.5-2.5 2.5s1.03 1.477 2.5 2.5c1.47-1.023 2.5-2.5 2.5-2.5m-22 0s1.03-1.477 2.5-2.5c1.47 1.023 2.5 2.5 2.5 2.5s-1.03 1.477-2.5 2.5c-1.47-1.023-2.5-2.5-2.5-2.5"/></g><defs><clipPath id="a"><path fill="#fff" d="M.333 0h24v24h-24z"/></clipPath></defs></svg>