<svg xmlns="http://www.w3.org/2000/svg" width="32" height="32" fill="none" viewBox="0 0 32 32"><g clip-path="url(#a)"><path fill="#5f7edd" d="M16 32c8.837 0 16-7.163 16-16S24.837 0 16 0 0 7.163 0 16s7.163 16 16 16"/><path fill="#fff" d="m15.998 20.359-5.376-3.176 5.376 7.577 5.381-7.577z"/><path fill="#fff" d="m21.376 16.163-5.378 3.178-5.377-3.178 5.377-8.923z"/><path fill="#c1ccf7" d="m21.376 16.163-5.378-2.444V7.24zm.004 1.02-5.382 7.577v-4.4zm-5.382-3.464v5.622l-5.376-3.178z"/><path fill="#8198ee" d="m21.376 16.164-5.378 3.177V13.72z"/></g><defs><clipPath id="a"><path fill="#fff" d="M0 0h32v32H0z"/></clipPath></defs></svg>