<svg xmlns="http://www.w3.org/2000/svg" width="65" height="64" fill="none" viewBox="0 0 65 64"><path fill="#d9d9d9" fill-opacity=".16" d="M2.5 56a6 6 0 0 0 6 6h6v2h-6a8 8 0 0 1-8-8v-5.5h2zm62 0a8 8 0 0 1-8 8h-6v-2h6a6 6 0 0 0 6-6v-5.5h2zm-8-56a8 8 0 0 1 8 8v6.5h-2V8a6 6 0 0 0-6-6h-6V0zm-42 2h-6a6 6 0 0 0-6 6v6.5h-2V8a8 8 0 0 1 8-8h6z"/><g fill="#fff" clip-path="url(#a)"><path d="M40.5 27.313c-4.653 0-8.437 3.784-8.437 8.437s3.784 8.437 8.437 8.437S49 40.403 49 35.75s-3.847-8.437-8.5-8.437m.962 12.955-.025.004v1.103a.937.937 0 1 1-1.875 0v-1.109c-.617-.209-1.209-.605-1.715-1.207a.936.936 0 0 1 .116-1.32.935.935 0 0 1 1.32.115c.496.59 1.057.825 1.537.653a.938.938 0 0 0-.32-1.82 2.816 2.816 0 0 1-2.813-2.812c0-1.133.674-2.15 1.717-2.59.052-.023.106-.022.158-.04v-1.12a.937.937 0 1 1 1.875 0v1.122c.486.163.96.424 1.382.834a.937.937 0 1 1-1.306 1.345c-.456-.442-.96-.594-1.378-.415a.937.937 0 0 0 .365 1.801 2.816 2.816 0 0 1 2.812 2.813 2.82 2.82 0 0 1-1.85 2.643m-23.524-3.58a.937.937 0 0 0-.938.937v9.438c0 .518.42.937.938.937h2.812V36.688z"/><path d="m39.235 21.852-6.563-5.625a.934.934 0 0 0-1.22 0l-6.562 5.625a.936.936 0 0 0 .61 1.649h2.813V48h6.562c.518 0 .938-.42.938-.938v-2.139c-3.334-1.71-5.625-5.176-5.625-9.174s2.29-7.463 5.625-9.174V23.5h2.812a.936.936 0 0 0 .61-1.648"/><path d="M23.625 29.188a.937.937 0 0 0-.937.937V48h3.75V29.188z"/></g><defs><clipPath id="a"><path fill="#fff" d="M17 16h32v32H17z"/></clipPath></defs></svg>