<svg xmlns="http://www.w3.org/2000/svg" width="120" height="120" fill="none" viewBox="0 0 120 120"><path fill="url(#a)" stroke="#c02d2d" stroke-width=".621" d="M60 1.512c32.25 0 58.489 26.239 58.489 58.489S92.25 118.49 59.999 118.49c-32.25 0-58.488-26.238-58.488-58.489S27.75 1.511 60 1.511ZM48.064 82.306a2.57 2.57 0 0 0-2.22 1.285l-4.29 7.35a2.57 2.57 0 0 0-.217 2.113l.05.137 5.578 14.046a2.57 2.57 0 0 0 1.816 1.56 50.2 50.2 0 0 0 22.472 0l-.001-.001a2.6 2.6 0 0 0 1.11-.554v-.001a2.6 2.6 0 0 0 .656-.865l.063-.145 5.538-14.041-.001-.001a2.57 2.57 0 0 0-.1-2.12l-.07-.129-4.291-7.35h-.001a2.6 2.6 0 0 0-.794-.849l-.143-.089-.149-.08a2.6 2.6 0 0 0-1.135-.266zM25.612 54.317a2.57 2.57 0 0 0-2.502.48v.002L11.341 64.925a2.57 2.57 0 0 0-.867 2.332 49.7 49.7 0 0 0 6.908 18.969v-.001a2.58 2.58 0 0 0 2.192 1.225h12.784a2.57 2.57 0 0 0 2.22-1.287l4.562-7.8.001.001a2.58 2.58 0 0 0 .277-1.93l-4.2-16.937a2.57 2.57 0 0 0-1.496-1.752L25.78 54.38v-.001zm70.009-.132a2.6 2.6 0 0 0-1.233.109l-.169.064-7.943 3.364a2.57 2.57 0 0 0-1.494 1.752l-4.201 16.938a2.57 2.57 0 0 0 .276 1.929v-.001l4.562 7.823v.001a2.58 2.58 0 0 0 2.053 1.28l.17.006h12.784a2.58 2.58 0 0 0 2.202-1.248l.001.001a49.7 49.7 0 0 0 6.906-18.966c.066-.43.02-.87-.131-1.279v-.001l-.061-.15a2.6 2.6 0 0 0-.552-.794l-.12-.11-11.77-10.127h.001a2.57 2.57 0 0 0-1.282-.591ZM41.34 13.87a2.6 2.6 0 0 0-1.25.196l-.002.001a50.3 50.3 0 0 0-18.203 13.504 2.57 2.57 0 0 0-.534 2.378l.051.162 5.108 14.524a2.57 2.57 0 0 0 1.424 1.517l8.374 3.551c.382.162.797.228 1.208.195l.176-.02c.468-.07.908-.27 1.27-.574h.002l15.904-13.34c.288-.24.52-.542.679-.883h-.001c.159-.341.242-.712.242-1.088V24.5a2.57 2.57 0 0 0-1.145-2.138l-12.111-8.068h-.001a2.6 2.6 0 0 0-1.191-.424Zm37.329.001a2.6 2.6 0 0 0-1.068.338l-.136.085-12.108 8.068a2.57 2.57 0 0 0-1.145 2.138v9.496a2.57 2.57 0 0 0 .932 1.961l15.904 13.339c.317.267.694.452 1.096.54l.175.033c.469.07.947.01 1.384-.175l8.362-3.542h.002a2.57 2.57 0 0 0 1.411-1.522l5.109-14.523h-.001a2.57 2.57 0 0 0-.364-2.403l-.105-.132a50.3 50.3 0 0 0-18.19-13.494h-.002a2.6 2.6 0 0 0-1.256-.207Z" opacity=".1"/><defs><linearGradient id="a" x1="62.978" x2="-2.205" y1="-12.648" y2="83.263" gradientUnits="userSpaceOnUse"><stop stop-color="#7b0f0f"/><stop offset=".98" stop-color="#7b0f0f" stop-opacity=".02"/></linearGradient></defs></svg>