<svg xmlns="http://www.w3.org/2000/svg" width="22" height="22" fill="none" viewBox="0 0 22 22"><path fill="#aea79e" d="M10.9 0C4.89 0 0 4.89 0 10.9s4.89 10.9 10.9 10.9 10.9-4.89 10.9-10.9S16.91 0 10.9 0m7.494 15.93h-2.37a.42.42 0 0 1-.362-.209l-.846-1.45a.42.42 0 0 1-.045-.315l.779-3.14a.42.42 0 0 1 .243-.285l1.473-.624a.42.42 0 0 1 .437.068l2.182 1.877a.42.42 0 0 1 .14.38 9.2 9.2 0 0 1-1.272 3.495.42.42 0 0 1-.36.204M4.534 9.912l1.473.624a.42.42 0 0 1 .243.285l.779 3.14a.42.42 0 0 1-.045.315l-.846 1.446a.42.42 0 0 1-.362.21h-2.37a.42.42 0 0 1-.357-.2 9.2 9.2 0 0 1-1.273-3.494.42.42 0 0 1 .141-.38L4.1 9.978a.42.42 0 0 1 .435-.068m13.464-4.57-.947 2.693a.42.42 0 0 1-.23.248l-1.55.656a.42.42 0 0 1-.433-.065L11.89 6.4a.42.42 0 0 1-.152-.32V4.32a.42.42 0 0 1 .187-.348l2.244-1.496a.42.42 0 0 1 .402-.035 9.3 9.3 0 0 1 3.351 2.486.42.42 0 0 1 .077.413M7.63 2.475l2.245 1.496a.42.42 0 0 1 .187.348v1.76a.42.42 0 0 1-.15.321L6.963 8.873a.42.42 0 0 1-.432.065L4.978 8.28a.42.42 0 0 1-.232-.248L3.8 5.34a.42.42 0 0 1 .079-.414 9.3 9.3 0 0 1 3.354-2.488.42.42 0 0 1 .398.037m.907 17.16-1.034-2.604a.42.42 0 0 1 .027-.367l.795-1.362a.42.42 0 0 1 .363-.21h4.425a.42.42 0 0 1 .362.21l.795 1.362a.42.42 0 0 1 .028.367l-1.027 2.603a.42.42 0 0 1-.298.255 9.26 9.26 0 0 1-4.14 0 .42.42 0 0 1-.296-.254"/></svg>