<svg xmlns="http://www.w3.org/2000/svg" width="390" height="196" fill="none" viewBox="0 0 390 196"><path fill="#89f801" d="M5 32h2v6H5zm-5 6h12v119H0zm5 119h2v6H5zm28-51h2v6h-2zm-5 6h12v45H28zm5 45h2v6h-2z"/><path fill="#dc5741" d="M61 47h2v6h-2zm-5 6h12v104H56zm5 104h2v6h-2z"/><path fill="#89f801" d="M89 88h2v6h-2zm-5 6h12v83H84zm5 83h2v6h-2z"/><path fill="#dc5741" d="M117 15h2v6h-2zm-5 6h12v156h-12zm5 156h2v6h-2z"/><path fill="#89f801" d="M145 124h2v6h-2zm-5 6h12v47h-12zm5 47h2v6h-2zm28-124h2v6h-2zm-5 6h12v118h-12zm5 118h2v6h-2z"/><path fill="#dc5741" d="M201 53h2v6h-2zm-5 6h12v118h-12zm5 118h2v6h-2z"/><path fill="#89f801" d="M229 9h2v6h-2zm-5 6h12v120h-12zm5 120h2v6h-2z"/><path fill="#dc5741" d="M257 72h2v6h-2zm-5 6h12v57h-12zm5 57h2v6h-2z"/><path fill="#89f801" d="M285 88h2v6h-2zm-5 6h12v73h-12zm5 73h2v6h-2zm28-79h2v6h-2zm-5 6h12v73h-12zm5 73h2v6h-2z"/><path fill="#dc5741" d="M341 15h2v6h-2zm-5 6h12v146h-12zm5 146h2v6h-2zm28-152h2v6h-2zm-5 6h12v83h-12zm5 83h2v6h-2z"/></svg>