<svg xmlns="http://www.w3.org/2000/svg" width="64" height="64" fill="none" viewBox="0 0 64 64"><rect width="63" height="63" x=".5" y=".5" fill="#fff" rx="31.5"/><rect width="63" height="63" x=".5" y=".5" stroke="#d8553a" rx="31.5"/><path fill="#000" d="m38.968 36.99-3.65-5.54 3.37-4.42a3.52 3.52 0 0 0 .69-2.07v-1.69a1.27 1.27 0 0 0-.38-.9 1.25 1.25 0 0 0-.9-.37h-12.17a1.26 1.26 0 0 0-1.27 1.27v1.67a3.45 3.45 0 0 0 .69 2.06l3.36 4.58-3.67 5.41a3.36 3.36 0 0 0-.56 2.13l.11 1.7a1.28 1.28 0 0 0 1.26 1.18h12.41a1.25 1.25 0 0 0 .78-.37 1.3 1.3 0 0 0 .37-.81l.11-1.68a3.32 3.32 0 0 0-.55-2.15m-4.31 2.2h-5.23a1 1 0 1 1 0-2h5.28a1 1 0 0 1 0 2z"/></svg>