<svg xmlns="http://www.w3.org/2000/svg" width="619" height="549" fill="none" viewBox="0 0 619 549"><circle cx="310" cy="274.5" r="274" fill="url(#a)"/><g filter="url(#b)"><circle cx="310" cy="274.5" r="267" fill="url(#c)"/></g><circle cx="310" cy="274.5" r="266.604" stroke="#fff" stroke-width=".793"/><path fill="url(#d)" d="M309.5 14.5c143.594 0 260 116.406 260 260s-116.406 260-260 260-260-116.406-260-260 116.406-260 260-260m2.5 50c-115.98 0-210 94.02-210 210s94.02 210 210 210 210-94.02 210-210-94.02-210-210-210"/><path fill="url(#e)" d="M430.135 43.919A260 260 0 0 1 570 274.5h-49.001l.001-.5c0-81.116-46.1-151.49-113.588-186.47z"/><path fill="#899485" d="M248.371 253.5v-16.968h3.624l4.92 8.952 4.824-8.952h3.528V253.5h-2.52v-13.968l-5.352 9.744h-1.104l-5.376-9.744V253.5zm23.955.144a6.5 6.5 0 0 1-1.68-.216q-.792-.24-1.416-.696a3.8 3.8 0 0 1-1.008-1.176q-.36-.72-.36-1.68 0-1.152.432-1.896a3.13 3.13 0 0 1 1.2-1.176 5.1 5.1 0 0 1 1.704-.6 10.6 10.6 0 0 1 2.04-.192h3.096q0-.936-.288-1.632a2.23 2.23 0 0 0-.912-1.104q-.6-.408-1.608-.408-.6 0-1.152.144-.528.12-.912.408a1.46 1.46 0 0 0-.528.768h-2.592q.144-.912.648-1.56a4.1 4.1 0 0 1 1.248-1.104 5.6 5.6 0 0 1 1.584-.624 7.2 7.2 0 0 1 1.752-.216q2.736 0 3.936 1.608 1.224 1.584 1.224 4.368v6.84h-2.136l-.096-1.608a3.7 3.7 0 0 1-1.32 1.128 5 5 0 0 1-1.488.504 8.6 8.6 0 0 1-1.368.12m.384-2.088q1.08 0 1.896-.36a3 3 0 0 0 1.272-1.08q.456-.72.456-1.68v-.528h-2.256q-.696 0-1.368.048-.648.024-1.2.192a1.8 1.8 0 0 0-.864.504q-.312.36-.312 1.032 0 .648.336 1.056t.888.624q.552.192 1.152.192m7.262 1.944 4.488-6.456-4.272-6.192h2.952l2.976 4.536 2.88-4.536h2.856l-4.248 6.264 4.56 6.384h-2.928l-3.264-4.608-3.216 4.608zm26.296.192a10 10 0 0 1-3.12-.48q-1.464-.48-2.472-1.56t-1.344-2.856h2.616q.312 1.008 1.008 1.584.696.552 1.608.768a8.3 8.3 0 0 0 1.872.216q.888 0 1.656-.24a2.8 2.8 0 0 0 1.296-.792q.504-.552.504-1.44 0-.672-.264-1.104a1.95 1.95 0 0 0-.744-.696 3.9 3.9 0 0 0-1.104-.456 14 14 0 0 0-1.608-.408 32 32 0 0 1-1.68-.384 9 9 0 0 1-1.536-.552q-.6-.24-1.176-.576a4.4 4.4 0 0 1-.96-.84 4.4 4.4 0 0 1-.672-1.176q-.24-.672-.24-1.536 0-1.152.36-1.968.384-.816.984-1.368a4.7 4.7 0 0 1 1.416-.864 7.7 7.7 0 0 1 1.704-.48 11 11 0 0 1 1.728-.144q1.536 0 2.832.48t2.136 1.536q.864 1.032.936 2.736h-2.472q-.096-.912-.624-1.44a2.66 2.66 0 0 0-1.272-.768 5.4 5.4 0 0 0-1.632-.24q-.624 0-1.248.12-.624.096-1.152.384a2.2 2.2 0 0 0-.816.72q-.288.456-.288 1.128 0 .576.24 1.032.24.432.672.744.456.288 1.008.504 1.008.384 2.208.6 1.2.192 2.256.552.768.24 1.44.6.672.336 1.152.84.48.48.744 1.152.264.648.264 1.512 0 1.416-.504 2.424a4.25 4.25 0 0 1-1.368 1.584q-.864.6-1.992.888a10.3 10.3 0 0 1-2.352.264m13.975-.048q-2.664 0-4.08-1.392-1.392-1.416-1.392-4.296v-7.104h2.472v6.96q0 1.128.312 1.944.336.816 1.008 1.248t1.704.432q1.08 0 1.728-.432a2.5 2.5 0 0 0 .96-1.272q.312-.816.312-1.92v-6.96h2.472v7.104q0 2.928-1.44 4.32-1.416 1.368-4.056 1.368m7.994 4.464v-17.256h2.352l.12 1.8a4.1 4.1 0 0 1 1.752-1.464 5.5 5.5 0 0 1 2.352-.504q1.896 0 3.12.864 1.224.84 1.824 2.328.6 1.464.6 3.288 0 1.872-.624 3.336-.6 1.464-1.872 2.304-1.248.84-3.168.84a7 7 0 0 1-1.68-.192 4.7 4.7 0 0 1-1.32-.552 5.2 5.2 0 0 1-.984-.888v6.096zm6.144-6.672q1.296 0 2.064-.576.768-.6 1.104-1.56a6.3 6.3 0 0 0 .336-2.088q0-1.176-.36-2.136-.336-.984-1.128-1.56-.768-.6-2.064-.6-1.176 0-1.992.6-.816.576-1.248 1.56a5.5 5.5 0 0 0-.408 2.136q0 1.176.384 2.16.408.96 1.224 1.512.84.552 2.088.552m8.048 6.672v-17.256h2.352l.12 1.8a4.1 4.1 0 0 1 1.752-1.464 5.5 5.5 0 0 1 2.352-.504q1.896 0 3.12.864 1.224.84 1.824 2.328.6 1.464.6 3.288 0 1.872-.624 3.336-.6 1.464-1.872 2.304-1.248.84-3.168.84a7 7 0 0 1-1.68-.192 4.7 4.7 0 0 1-1.32-.552 5.2 5.2 0 0 1-.984-.888v6.096zm6.144-6.672q1.296 0 2.064-.576.768-.6 1.104-1.56a6.3 6.3 0 0 0 .336-2.088q0-1.176-.36-2.136-.336-.984-1.128-1.56-.768-.6-2.064-.6-1.176 0-1.992.6-.816.576-1.248 1.56a5.5 5.5 0 0 0-.408 2.136q0 1.176.384 2.16.408.96 1.224 1.512.84.552 2.088.552m8.048 2.064v-16.968h2.472V253.5zm10.619 5.712q-1.464 0-2.832-.408a6.4 6.4 0 0 1-2.496-1.368l.984-1.968a7.3 7.3 0 0 0 1.896 1.104 6.1 6.1 0 0 0 2.232.408q1.944 0 2.808-1.056t.864-2.76v-1.224q-.432.6-1.08 1.008-.624.384-1.392.552a6.4 6.4 0 0 1-1.56.192q-1.848 0-2.952-.744-1.08-.768-1.56-2.088-.456-1.32-.456-3.048v-6.96h2.496v6.36q0 .768.096 1.536t.408 1.392q.312.6.912.984.6.36 1.632.36 1.296 0 2.04-.624.744-.648 1.056-1.68a8 8 0 0 0 .312-2.28v-6.048h2.472V252.9q0 1.488-.36 2.664-.336 1.176-1.08 1.992-.72.816-1.824 1.224-1.08.432-2.616.432"/><path fill="url(#f)" d="M151.024 300.5v-17.12h-4.48v-2.912a14.3 14.3 0 0 0 2.336-.288 5.2 5.2 0 0 0 1.824-.768q.832-.545 1.472-1.536h2.848V300.5zm16.476.256q-2.464 0-4.192-.864a7.3 7.3 0 0 1-2.784-2.496q-1.056-1.6-1.568-3.68-.48-2.08-.48-4.48 0-2.432.48-4.544.512-2.112 1.568-3.68a7.55 7.55 0 0 1 2.816-2.496q1.728-.928 4.192-.928 2.528 0 4.256.96 1.76.96 2.784 2.592 1.056 1.632 1.504 3.712.48 2.08.48 4.352 0 2.24-.48 4.32-.448 2.08-1.504 3.712a7.7 7.7 0 0 1-2.816 2.592q-1.728.928-4.256.928m0-3.648q1.631 0 2.624-.768a4.8 4.8 0 0 0 1.536-1.952 9.5 9.5 0 0 0 .672-2.592q.192-1.375.192-2.592 0-1.216-.16-2.56a9.5 9.5 0 0 0-.672-2.592 4.83 4.83 0 0 0-1.504-1.984q-.993-.768-2.656-.768-1.665 0-2.688.768a4.8 4.8 0 0 0-1.504 1.984 9.8 9.8 0 0 0-.704 2.56q-.16 1.375-.16 2.592 0 1.216.16 2.592.16 1.344.64 2.56a4.8 4.8 0 0 0 1.504 1.984q1.023.768 2.72.768m11.948 7.968-1.12-1.696q.48-.256.992-.736a6 6 0 0 0 .928-1.024q.448-.544.608-.992a2.85 2.85 0 0 1-1.6-.672q-.64-.608-.64-1.696 0-1.12.768-1.76a2.63 2.63 0 0 1 1.728-.64q1.217 0 1.92.928.704.896.704 2.368 0 1.312-.64 2.528a7.1 7.1 0 0 1-1.6 2.112q-.96.896-2.048 1.28m15.148-4.32q-2.464 0-4.192-.864a7.3 7.3 0 0 1-2.784-2.496q-1.056-1.6-1.568-3.68-.48-2.08-.48-4.48 0-2.432.48-4.544.512-2.112 1.568-3.68a7.55 7.55 0 0 1 2.816-2.496q1.728-.928 4.192-.928 2.528 0 4.256.96 1.76.96 2.784 2.592 1.056 1.632 1.504 3.712.48 2.08.48 4.352 0 2.24-.48 4.32-.448 2.08-1.504 3.712a7.7 7.7 0 0 1-2.816 2.592q-1.728.928-4.256.928m0-3.648q1.631 0 2.624-.768a4.8 4.8 0 0 0 1.536-1.952 9.5 9.5 0 0 0 .672-2.592q.192-1.375.192-2.592 0-1.216-.16-2.56a9.5 9.5 0 0 0-.672-2.592 4.83 4.83 0 0 0-1.504-1.984q-.993-.768-2.656-.768-1.665 0-2.688.768a4.8 4.8 0 0 0-1.504 1.984 9.8 9.8 0 0 0-.704 2.56q-.16 1.375-.16 2.592 0 1.216.16 2.592.16 1.344.64 2.56a4.8 4.8 0 0 0 1.504 1.984q1.023.768 2.72.768m19.907 3.648q-2.463 0-4.192-.864a7.3 7.3 0 0 1-2.784-2.496q-1.055-1.6-1.568-3.68-.48-2.08-.48-4.48 0-2.432.48-4.544.512-2.112 1.568-3.68a7.56 7.56 0 0 1 2.816-2.496q1.728-.928 4.192-.928 2.529 0 4.256.96 1.761.96 2.784 2.592 1.057 1.632 1.504 3.712.48 2.08.48 4.352 0 2.24-.48 4.32-.447 2.08-1.504 3.712a7.66 7.66 0 0 1-2.816 2.592q-1.727.928-4.256.928m0-3.648q1.632 0 2.624-.768a4.76 4.76 0 0 0 1.536-1.952 9.4 9.4 0 0 0 .672-2.592q.192-1.375.192-2.592 0-1.216-.16-2.56a9.4 9.4 0 0 0-.672-2.592 4.8 4.8 0 0 0-1.504-1.984q-.991-.768-2.656-.768-1.663 0-2.688.768a4.83 4.83 0 0 0-1.504 1.984 10 10 0 0 0-.704 2.56 23 23 0 0 0-.16 2.592q0 1.216.16 2.592.16 1.344.64 2.56a4.83 4.83 0 0 0 1.504 1.984q1.025.768 2.72.768m19.908 3.648q-2.464 0-4.192-.864a7.3 7.3 0 0 1-2.784-2.496q-1.056-1.6-1.568-3.68-.48-2.08-.48-4.48 0-2.432.48-4.544.512-2.112 1.568-3.68a7.55 7.55 0 0 1 2.816-2.496q1.728-.928 4.192-.928 2.528 0 4.256.96 1.76.96 2.784 2.592 1.056 1.632 1.504 3.712.48 2.08.48 4.352 0 2.24-.48 4.32-.448 2.08-1.504 3.712a7.7 7.7 0 0 1-2.816 2.592q-1.728.928-4.256.928m0-3.648q1.631 0 2.624-.768a4.8 4.8 0 0 0 1.536-1.952 9.5 9.5 0 0 0 .672-2.592q.192-1.375.192-2.592 0-1.216-.16-2.56a9.5 9.5 0 0 0-.672-2.592 4.83 4.83 0 0 0-1.504-1.984q-.993-.768-2.656-.768-1.665 0-2.688.768a4.8 4.8 0 0 0-1.504 1.984 9.8 9.8 0 0 0-.704 2.56q-.16 1.375-.16 2.592 0 1.216.16 2.592.16 1.344.64 2.56a4.8 4.8 0 0 0 1.504 1.984q1.023.768 2.72.768m11.948 7.968-1.12-1.696q.48-.256.992-.736.513-.448.928-1.024.449-.544.608-.992a2.85 2.85 0 0 1-1.6-.672q-.64-.608-.64-1.696 0-1.12.768-1.76a2.63 2.63 0 0 1 1.728-.64q1.216 0 1.92.928.704.896.704 2.368 0 1.312-.64 2.528a7.1 7.1 0 0 1-1.6 2.112q-.96.896-2.048 1.28m15.148-4.32q-2.464 0-4.192-.864a7.3 7.3 0 0 1-2.784-2.496q-1.056-1.6-1.568-3.68-.48-2.08-.48-4.48 0-2.432.48-4.544.512-2.112 1.568-3.68a7.55 7.55 0 0 1 2.816-2.496q1.728-.928 4.192-.928 2.528 0 4.256.96 1.76.96 2.784 2.592 1.056 1.632 1.504 3.712.48 2.08.48 4.352 0 2.24-.48 4.32-.448 2.08-1.504 3.712a7.7 7.7 0 0 1-2.816 2.592q-1.728.928-4.256.928m0-3.648q1.632 0 2.624-.768a4.76 4.76 0 0 0 1.536-1.952 9.5 9.5 0 0 0 .672-2.592q.192-1.375.192-2.592 0-1.216-.16-2.56a9.5 9.5 0 0 0-.672-2.592 4.8 4.8 0 0 0-1.504-1.984q-.992-.768-2.656-.768-1.663 0-2.688.768a4.8 4.8 0 0 0-1.504 1.984 10 10 0 0 0-.704 2.56q-.16 1.375-.16 2.592 0 1.216.16 2.592.16 1.344.64 2.56a4.8 4.8 0 0 0 1.504 1.984q1.024.768 2.72.768m19.908 3.648q-2.464 0-4.192-.864a7.3 7.3 0 0 1-2.784-2.496q-1.056-1.6-1.568-3.68-.48-2.08-.48-4.48 0-2.432.48-4.544.512-2.112 1.568-3.68a7.55 7.55 0 0 1 2.816-2.496q1.728-.928 4.192-.928 2.528 0 4.256.96 1.76.96 2.784 2.592 1.056 1.632 1.504 3.712.48 2.08.48 4.352 0 2.24-.48 4.32-.448 2.08-1.504 3.712a7.7 7.7 0 0 1-2.816 2.592q-1.728.928-4.256.928m0-3.648q1.632 0 2.624-.768a4.8 4.8 0 0 0 1.536-1.952 9.5 9.5 0 0 0 .672-2.592q.192-1.375.192-2.592 0-1.216-.16-2.56a9.5 9.5 0 0 0-.672-2.592 4.83 4.83 0 0 0-1.504-1.984q-.993-.768-2.656-.768-1.665 0-2.688.768a4.8 4.8 0 0 0-1.504 1.984 9.8 9.8 0 0 0-.704 2.56q-.16 1.375-.16 2.592 0 1.216.16 2.592.16 1.344.64 2.56a4.8 4.8 0 0 0 1.504 1.984q1.023.768 2.72.768m19.907 3.648q-2.464 0-4.192-.864a7.3 7.3 0 0 1-2.784-2.496q-1.056-1.6-1.568-3.68-.48-2.08-.48-4.48 0-2.432.48-4.544.512-2.112 1.568-3.68a7.55 7.55 0 0 1 2.816-2.496q1.728-.928 4.192-.928 2.528 0 4.256.96 1.76.96 2.784 2.592 1.056 1.632 1.504 3.712.48 2.08.48 4.352 0 2.24-.48 4.32-.448 2.08-1.504 3.712a7.7 7.7 0 0 1-2.816 2.592q-1.728.928-4.256.928m0-3.648q1.632 0 2.624-.768a4.76 4.76 0 0 0 1.536-1.952 9.5 9.5 0 0 0 .672-2.592q.192-1.375.192-2.592 0-1.216-.16-2.56a9.5 9.5 0 0 0-.672-2.592 4.8 4.8 0 0 0-1.504-1.984q-.992-.768-2.656-.768-1.663 0-2.688.768a4.8 4.8 0 0 0-1.504 1.984 10 10 0 0 0-.704 2.56q-.16 1.375-.16 2.592 0 1.216.16 2.592.16 1.344.64 2.56a4.8 4.8 0 0 0 1.504 1.984q1.024.768 2.72.768m25.774 7.872v-4.448a10.8 10.8 0 0 1-3.328-1.024 7.1 7.1 0 0 1-2.56-2.144q-.993-1.408-1.312-3.488h4.064q.384 1.248 1.216 1.952.864.704 1.984.992a9.7 9.7 0 0 0 2.368.288 6.9 6.9 0 0 0 2.048-.288q.96-.288 1.536-.928.608-.64.608-1.632 0-.832-.384-1.344a2.6 2.6 0 0 0-.992-.832 7 7 0 0 0-1.44-.544 24 24 0 0 0-2.496-.608 51 51 0 0 1-2.272-.544 12.6 12.6 0 0 1-2.016-.736q-1.568-.768-2.528-2.048-.928-1.28-.928-3.52 0-2.016.928-3.36a6.13 6.13 0 0 1 2.432-2.112 8.4 8.4 0 0 1 3.232-.896v-4.384H331v4.448q1.727.192 3.104.992a6.2 6.2 0 0 1 2.208 2.176q.831 1.344.864 3.264h-3.904q-.097-1.056-.736-1.728-.608-.672-1.568-.96a6.7 6.7 0 0 0-2.112-.32 8 8 0 0 0-1.984.256q-.96.224-1.6.832-.608.576-.608 1.664 0 .672.32 1.216.32.512.864.864.543.353 1.248.576 1.184.448 2.624.736t2.688.672q1.632.448 2.816 1.12 1.215.64 1.856 1.76.672 1.088.672 2.848 0 2.24-.928 3.68a6.34 6.34 0 0 1-2.496 2.24q-1.568.8-3.488.96v4.352zm17.06-4.48-5.76-22.624h4.48l4.352 18.464 4.288-18.464h5.44l4.288 18.464 4.288-18.464h4.256L364.06 300.5h-5.632l-4.256-18.112-4.288 18.112zm23.77 0 8.672-22.624h4.768l8.64 22.624h-4.32l-1.504-4.192H373.75l-1.536 4.192zm7.104-7.808h7.84l-3.904-10.784zm25.175 8.064q-3.456 0-5.856-1.44-2.4-1.472-3.648-4.064-1.216-2.623-1.216-6.048 0-2.592.672-4.704.704-2.112 2.048-3.648a9.1 9.1 0 0 1 3.36-2.4q1.984-.864 4.576-.864 2.528 0 4.512.832 2.016.8 3.296 2.368 1.312 1.567 1.76 3.84h-4.128q-.256-1.088-.992-1.824-.704-.736-1.792-1.12t-2.496-.384q-1.824 0-3.104.64a5.6 5.6 0 0 0-2.08 1.76q-.8 1.088-1.184 2.528a12.4 12.4 0 0 0-.352 3.008q0 2.08.672 3.872.704 1.792 2.176 2.88 1.504 1.056 3.904 1.056 1.696 0 2.976-.576 1.312-.576 2.048-1.664.768-1.12.832-2.752h-6.592v-3.456h10.624v1.472q0 3.296-1.152 5.696t-3.392 3.712q-2.208 1.28-5.472 1.28m12.529-.256v-22.624h15.968v3.648h-11.968v5.952h10.4v3.584h-10.4v5.792h11.968v3.648zm18.501 0v-22.624h8.928q1.728 0 3.264.352 1.536.32 2.72 1.152 1.185.8 1.856 2.208.672 1.408.672 3.488 0 1.728-.608 3.04a6.2 6.2 0 0 1-1.696 2.208q-1.055.896-2.528 1.376l4.96 8.8h-4.48l-4.448-8.16h-4.64v8.16zm4-11.712h4.384q1.089 0 1.984-.16.928-.192 1.6-.608a2.66 2.66 0 0 0 1.056-1.12q.384-.736.416-1.856 0-1.344-.576-2.112-.544-.768-1.6-1.088-1.024-.32-2.464-.32h-4.8zm16.439 11.712v-22.624h8.352q3.552 0 6.016 1.376 2.464 1.344 3.744 3.904 1.312 2.528 1.312 6.08 0 3.488-1.28 6.016a8.87 8.87 0 0 1-3.712 3.904q-2.463 1.344-6.048 1.344zm4-3.648h4.288q2.529 0 4.064-.96a5.7 5.7 0 0 0 2.272-2.688q.736-1.728.736-4 0-2.208-.704-3.936a5.67 5.67 0 0 0-2.272-2.72q-1.536-1.024-4.064-1.024h-4.32z"/><path fill="#222" d="M151.024 300.5v-17.12h-4.48v-2.912a14.3 14.3 0 0 0 2.336-.288 5.2 5.2 0 0 0 1.824-.768q.832-.545 1.472-1.536h2.848V300.5zm16.476.256q-2.464 0-4.192-.864a7.3 7.3 0 0 1-2.784-2.496q-1.056-1.6-1.568-3.68-.48-2.08-.48-4.48 0-2.432.48-4.544.512-2.112 1.568-3.68a7.55 7.55 0 0 1 2.816-2.496q1.728-.928 4.192-.928 2.528 0 4.256.96 1.76.96 2.784 2.592 1.056 1.632 1.504 3.712.48 2.08.48 4.352 0 2.24-.48 4.32-.448 2.08-1.504 3.712a7.7 7.7 0 0 1-2.816 2.592q-1.728.928-4.256.928m0-3.648q1.631 0 2.624-.768a4.8 4.8 0 0 0 1.536-1.952 9.5 9.5 0 0 0 .672-2.592q.192-1.375.192-2.592 0-1.216-.16-2.56a9.5 9.5 0 0 0-.672-2.592 4.83 4.83 0 0 0-1.504-1.984q-.993-.768-2.656-.768-1.665 0-2.688.768a4.8 4.8 0 0 0-1.504 1.984 9.8 9.8 0 0 0-.704 2.56q-.16 1.375-.16 2.592 0 1.216.16 2.592.16 1.344.64 2.56a4.8 4.8 0 0 0 1.504 1.984q1.023.768 2.72.768m11.948 7.968-1.12-1.696q.48-.256.992-.736a6 6 0 0 0 .928-1.024q.448-.544.608-.992a2.85 2.85 0 0 1-1.6-.672q-.64-.608-.64-1.696 0-1.12.768-1.76a2.63 2.63 0 0 1 1.728-.64q1.217 0 1.92.928.704.896.704 2.368 0 1.312-.64 2.528a7.1 7.1 0 0 1-1.6 2.112q-.96.896-2.048 1.28m15.148-4.32q-2.464 0-4.192-.864a7.3 7.3 0 0 1-2.784-2.496q-1.056-1.6-1.568-3.68-.48-2.08-.48-4.48 0-2.432.48-4.544.512-2.112 1.568-3.68a7.55 7.55 0 0 1 2.816-2.496q1.728-.928 4.192-.928 2.528 0 4.256.96 1.76.96 2.784 2.592 1.056 1.632 1.504 3.712.48 2.08.48 4.352 0 2.24-.48 4.32-.448 2.08-1.504 3.712a7.7 7.7 0 0 1-2.816 2.592q-1.728.928-4.256.928m0-3.648q1.631 0 2.624-.768a4.8 4.8 0 0 0 1.536-1.952 9.5 9.5 0 0 0 .672-2.592q.192-1.375.192-2.592 0-1.216-.16-2.56a9.5 9.5 0 0 0-.672-2.592 4.83 4.83 0 0 0-1.504-1.984q-.993-.768-2.656-.768-1.665 0-2.688.768a4.8 4.8 0 0 0-1.504 1.984 9.8 9.8 0 0 0-.704 2.56q-.16 1.375-.16 2.592 0 1.216.16 2.592.16 1.344.64 2.56a4.8 4.8 0 0 0 1.504 1.984q1.023.768 2.72.768m19.907 3.648q-2.463 0-4.192-.864a7.3 7.3 0 0 1-2.784-2.496q-1.055-1.6-1.568-3.68-.48-2.08-.48-4.48 0-2.432.48-4.544.512-2.112 1.568-3.68a7.56 7.56 0 0 1 2.816-2.496q1.728-.928 4.192-.928 2.529 0 4.256.96 1.761.96 2.784 2.592 1.057 1.632 1.504 3.712.48 2.08.48 4.352 0 2.24-.48 4.32-.447 2.08-1.504 3.712a7.66 7.66 0 0 1-2.816 2.592q-1.727.928-4.256.928m0-3.648q1.632 0 2.624-.768a4.76 4.76 0 0 0 1.536-1.952 9.4 9.4 0 0 0 .672-2.592q.192-1.375.192-2.592 0-1.216-.16-2.56a9.4 9.4 0 0 0-.672-2.592 4.8 4.8 0 0 0-1.504-1.984q-.991-.768-2.656-.768-1.663 0-2.688.768a4.83 4.83 0 0 0-1.504 1.984 10 10 0 0 0-.704 2.56 23 23 0 0 0-.16 2.592q0 1.216.16 2.592.16 1.344.64 2.56a4.83 4.83 0 0 0 1.504 1.984q1.025.768 2.72.768m19.908 3.648q-2.464 0-4.192-.864a7.3 7.3 0 0 1-2.784-2.496q-1.056-1.6-1.568-3.68-.48-2.08-.48-4.48 0-2.432.48-4.544.512-2.112 1.568-3.68a7.55 7.55 0 0 1 2.816-2.496q1.728-.928 4.192-.928 2.528 0 4.256.96 1.76.96 2.784 2.592 1.056 1.632 1.504 3.712.48 2.08.48 4.352 0 2.24-.48 4.32-.448 2.08-1.504 3.712a7.7 7.7 0 0 1-2.816 2.592q-1.728.928-4.256.928m0-3.648q1.631 0 2.624-.768a4.8 4.8 0 0 0 1.536-1.952 9.5 9.5 0 0 0 .672-2.592q.192-1.375.192-2.592 0-1.216-.16-2.56a9.5 9.5 0 0 0-.672-2.592 4.83 4.83 0 0 0-1.504-1.984q-.993-.768-2.656-.768-1.665 0-2.688.768a4.8 4.8 0 0 0-1.504 1.984 9.8 9.8 0 0 0-.704 2.56q-.16 1.375-.16 2.592 0 1.216.16 2.592.16 1.344.64 2.56a4.8 4.8 0 0 0 1.504 1.984q1.023.768 2.72.768m11.948 7.968-1.12-1.696q.48-.256.992-.736.513-.448.928-1.024.449-.544.608-.992a2.85 2.85 0 0 1-1.6-.672q-.64-.608-.64-1.696 0-1.12.768-1.76a2.63 2.63 0 0 1 1.728-.64q1.216 0 1.92.928.704.896.704 2.368 0 1.312-.64 2.528a7.1 7.1 0 0 1-1.6 2.112q-.96.896-2.048 1.28m15.148-4.32q-2.464 0-4.192-.864a7.3 7.3 0 0 1-2.784-2.496q-1.056-1.6-1.568-3.68-.48-2.08-.48-4.48 0-2.432.48-4.544.512-2.112 1.568-3.68a7.55 7.55 0 0 1 2.816-2.496q1.728-.928 4.192-.928 2.528 0 4.256.96 1.76.96 2.784 2.592 1.056 1.632 1.504 3.712.48 2.08.48 4.352 0 2.24-.48 4.32-.448 2.08-1.504 3.712a7.7 7.7 0 0 1-2.816 2.592q-1.728.928-4.256.928m0-3.648q1.632 0 2.624-.768a4.76 4.76 0 0 0 1.536-1.952 9.5 9.5 0 0 0 .672-2.592q.192-1.375.192-2.592 0-1.216-.16-2.56a9.5 9.5 0 0 0-.672-2.592 4.8 4.8 0 0 0-1.504-1.984q-.992-.768-2.656-.768-1.663 0-2.688.768a4.8 4.8 0 0 0-1.504 1.984 10 10 0 0 0-.704 2.56q-.16 1.375-.16 2.592 0 1.216.16 2.592.16 1.344.64 2.56a4.8 4.8 0 0 0 1.504 1.984q1.024.768 2.72.768m19.908 3.648q-2.464 0-4.192-.864a7.3 7.3 0 0 1-2.784-2.496q-1.056-1.6-1.568-3.68-.48-2.08-.48-4.48 0-2.432.48-4.544.512-2.112 1.568-3.68a7.55 7.55 0 0 1 2.816-2.496q1.728-.928 4.192-.928 2.528 0 4.256.96 1.76.96 2.784 2.592 1.056 1.632 1.504 3.712.48 2.08.48 4.352 0 2.24-.48 4.32-.448 2.08-1.504 3.712a7.7 7.7 0 0 1-2.816 2.592q-1.728.928-4.256.928m0-3.648q1.632 0 2.624-.768a4.8 4.8 0 0 0 1.536-1.952 9.5 9.5 0 0 0 .672-2.592q.192-1.375.192-2.592 0-1.216-.16-2.56a9.5 9.5 0 0 0-.672-2.592 4.83 4.83 0 0 0-1.504-1.984q-.993-.768-2.656-.768-1.665 0-2.688.768a4.8 4.8 0 0 0-1.504 1.984 9.8 9.8 0 0 0-.704 2.56q-.16 1.375-.16 2.592 0 1.216.16 2.592.16 1.344.64 2.56a4.8 4.8 0 0 0 1.504 1.984q1.023.768 2.72.768m19.907 3.648q-2.464 0-4.192-.864a7.3 7.3 0 0 1-2.784-2.496q-1.056-1.6-1.568-3.68-.48-2.08-.48-4.48 0-2.432.48-4.544.512-2.112 1.568-3.68a7.55 7.55 0 0 1 2.816-2.496q1.728-.928 4.192-.928 2.528 0 4.256.96 1.76.96 2.784 2.592 1.056 1.632 1.504 3.712.48 2.08.48 4.352 0 2.24-.48 4.32-.448 2.08-1.504 3.712a7.7 7.7 0 0 1-2.816 2.592q-1.728.928-4.256.928m0-3.648q1.632 0 2.624-.768a4.76 4.76 0 0 0 1.536-1.952 9.5 9.5 0 0 0 .672-2.592q.192-1.375.192-2.592 0-1.216-.16-2.56a9.5 9.5 0 0 0-.672-2.592 4.8 4.8 0 0 0-1.504-1.984q-.992-.768-2.656-.768-1.663 0-2.688.768a4.8 4.8 0 0 0-1.504 1.984 10 10 0 0 0-.704 2.56q-.16 1.375-.16 2.592 0 1.216.16 2.592.16 1.344.64 2.56a4.8 4.8 0 0 0 1.504 1.984q1.024.768 2.72.768m25.774 7.872v-4.448a10.8 10.8 0 0 1-3.328-1.024 7.1 7.1 0 0 1-2.56-2.144q-.993-1.408-1.312-3.488h4.064q.384 1.248 1.216 1.952.864.704 1.984.992a9.7 9.7 0 0 0 2.368.288 6.9 6.9 0 0 0 2.048-.288q.96-.288 1.536-.928.608-.64.608-1.632 0-.832-.384-1.344a2.6 2.6 0 0 0-.992-.832 7 7 0 0 0-1.44-.544 24 24 0 0 0-2.496-.608 51 51 0 0 1-2.272-.544 12.6 12.6 0 0 1-2.016-.736q-1.568-.768-2.528-2.048-.928-1.28-.928-3.52 0-2.016.928-3.36a6.13 6.13 0 0 1 2.432-2.112 8.4 8.4 0 0 1 3.232-.896v-4.384H331v4.448q1.727.192 3.104.992a6.2 6.2 0 0 1 2.208 2.176q.831 1.344.864 3.264h-3.904q-.097-1.056-.736-1.728-.608-.672-1.568-.96a6.7 6.7 0 0 0-2.112-.32 8 8 0 0 0-1.984.256q-.96.224-1.6.832-.608.576-.608 1.664 0 .672.32 1.216.32.512.864.864.543.353 1.248.576 1.184.448 2.624.736t2.688.672q1.632.448 2.816 1.12 1.215.64 1.856 1.76.672 1.088.672 2.848 0 2.24-.928 3.68a6.34 6.34 0 0 1-2.496 2.24q-1.568.8-3.488.96v4.352zm17.06-4.48-5.76-22.624h4.48l4.352 18.464 4.288-18.464h5.44l4.288 18.464 4.288-18.464h4.256L364.06 300.5h-5.632l-4.256-18.112-4.288 18.112zm23.77 0 8.672-22.624h4.768l8.64 22.624h-4.32l-1.504-4.192H373.75l-1.536 4.192zm7.104-7.808h7.84l-3.904-10.784zm25.175 8.064q-3.456 0-5.856-1.44-2.4-1.472-3.648-4.064-1.216-2.623-1.216-6.048 0-2.592.672-4.704.704-2.112 2.048-3.648a9.1 9.1 0 0 1 3.36-2.4q1.984-.864 4.576-.864 2.528 0 4.512.832 2.016.8 3.296 2.368 1.312 1.567 1.76 3.84h-4.128q-.256-1.088-.992-1.824-.704-.736-1.792-1.12t-2.496-.384q-1.824 0-3.104.64a5.6 5.6 0 0 0-2.08 1.76q-.8 1.088-1.184 2.528a12.4 12.4 0 0 0-.352 3.008q0 2.08.672 3.872.704 1.792 2.176 2.88 1.504 1.056 3.904 1.056 1.696 0 2.976-.576 1.312-.576 2.048-1.664.768-1.12.832-2.752h-6.592v-3.456h10.624v1.472q0 3.296-1.152 5.696t-3.392 3.712q-2.208 1.28-5.472 1.28m12.529-.256v-22.624h15.968v3.648h-11.968v5.952h10.4v3.584h-10.4v5.792h11.968v3.648zm18.501 0v-22.624h8.928q1.728 0 3.264.352 1.536.32 2.72 1.152 1.185.8 1.856 2.208.672 1.408.672 3.488 0 1.728-.608 3.04a6.2 6.2 0 0 1-1.696 2.208q-1.055.896-2.528 1.376l4.96 8.8h-4.48l-4.448-8.16h-4.64v8.16zm4-11.712h4.384q1.089 0 1.984-.16.928-.192 1.6-.608a2.66 2.66 0 0 0 1.056-1.12q.384-.736.416-1.856 0-1.344-.576-2.112-.544-.768-1.6-1.088-1.024-.32-2.464-.32h-4.8zm16.439 11.712v-22.624h8.352q3.552 0 6.016 1.376 2.464 1.344 3.744 3.904 1.312 2.528 1.312 6.08 0 3.488-1.28 6.016a8.87 8.87 0 0 1-3.712 3.904q-2.463 1.344-6.048 1.344zm4-3.648h4.288q2.529 0 4.064-.96a5.7 5.7 0 0 0 2.272-2.688q.736-1.728.736-4 0-2.208-.704-3.936a5.67 5.67 0 0 0-2.272-2.72q-1.536-1.024-4.064-1.024h-4.32z"/><defs><linearGradient id="a" x1="310" x2="310" y1=".5" y2="548.5" gradientUnits="userSpaceOnUse"><stop stop-color="#e3ddd6" stop-opacity=".21"/><stop offset="1" stop-color="#e3ddd6"/></linearGradient><linearGradient id="c" x1="81.938" x2="494.983" y1="327.9" y2="79.472" gradientUnits="userSpaceOnUse"><stop stop-color="#ede8e1"/><stop offset=".598" stop-color="#f8f6f3"/><stop offset="1" stop-color="#ede8e1"/></linearGradient><linearGradient id="d" x1="309.5" x2="309.5" y1="14.5" y2="534.5" gradientUnits="userSpaceOnUse"><stop stop-color="#549900"/><stop offset="1" stop-color="#549900"/></linearGradient><linearGradient id="e" x1="412" x2="570" y1="56.5" y2="306.5" gradientUnits="userSpaceOnUse"><stop stop-color="#d8553a"/><stop offset="1" stop-color="#ef6363"/></linearGradient><linearGradient id="f" x1="377.232" x2="447.869" y1="273.5" y2="311.725" gradientUnits="userSpaceOnUse"><stop stop-color="#010101"/><stop offset="1" stop-color="#adadad"/></linearGradient><filter id="b" width="537.171" height="546.683" x="43" y="7.5" color-interpolation-filters="sRGB" filterUnits="userSpaceOnUse"><feFlood flood-opacity="0" result="BackgroundImageFix"/><feBlend in="SourceGraphic" in2="BackgroundImageFix" result="shape"/><feColorMatrix in="SourceAlpha" result="hardAlpha" values="0 0 0 0 0 0 0 0 0 0 0 0 0 0 0 0 0 0 127 0"/><feOffset dx="3.171" dy="12.683"/><feGaussianBlur stdDeviation="6.341"/><feComposite in2="hardAlpha" k2="-1" k3="1" operator="arithmetic"/><feColorMatrix values="0 0 0 0 1 0 0 0 0 1 0 0 0 0 1 0 0 0 0.6 0"/><feBlend in2="shape" result="effect1_innerShadow_982_678"/><feColorMatrix in="SourceAlpha" result="hardAlpha" values="0 0 0 0 0 0 0 0 0 0 0 0 0 0 0 0 0 0 127 0"/><feOffset dy="1.585"/><feGaussianBlur stdDeviation=".793"/><feComposite in2="hardAlpha" k2="-1" k3="1" operator="arithmetic"/><feColorMatrix values="0 0 0 0 1 0 0 0 0 1 0 0 0 0 1 0 0 0 1 0"/><feBlend in2="effect1_innerShadow_982_678" result="effect2_innerShadow_982_678"/></filter></defs></svg>