<svg xmlns="http://www.w3.org/2000/svg" width="64" height="64" fill="none" viewBox="0 0 64 64"><rect width="63" height="63" x=".5" y=".5" fill="#fff" rx="31.5"/><rect width="63" height="63" x=".5" y=".5" stroke="#559705" rx="31.5"/><path fill="#000" d="m40.003 18.482 5.633-5.83v11.957h-1.482l1.482 1.482v15.473h-2.94v6.364L40.4 49.415V36.466l4.05-4.051h-3.161l-3.937 2.273-4.166-2.406v-4.116h7.608l-3.764-2.174H26.96l-3.754 2.174h7.213v11.957h3.247l4.36 3.522v4.185l1.895 1.893L32 54.85l-10.698-6.922v-6.364h-2.605L18.52 26.23l1.622-1.621h-1.64l-.138-11.957 5.632 5.83L32 9.15zm-8.102 29.54 1.284-1.284h-2.57zm-4.15-2.865h8.497l-2.075-1.68h-4.15zm-5.238-12.841-1.087 1.087 4.743 5.237 1.384-1.185V34.49h-2.766zh7.51l-1.778-1.68h-4.051zm11.562-.034h6.718l-1.546-1.547h-3.591z"/><path fill="#fff" d="m32.011 22.384-1.79-3.102 1.79-3.101 1.791 3.101z"/></svg>