<svg xmlns="http://www.w3.org/2000/svg" width="387" height="420" fill="none" viewBox="0 0 387 420"><rect width="16" height="16" x=".333" y="4" fill="#89f801" rx="4"/><path fill="#717171" d="M23.662 17V5.688h4.08q1.263 0 2.175.4a2.96 2.96 0 0 1 1.424 1.248q.496.833.496 2.16 0 1.28-.575 2.144a3.55 3.55 0 0 1-1.537 1.312q-.976.432-2.224.432h-2.143V17zm1.696-5.152h2.08q1.214 0 1.952-.56.735-.576.735-1.84 0-1.104-.608-1.648-.607-.56-1.84-.56h-2.32zm11.483 5.248q-1.776 0-2.72-.928-.928-.945-.928-2.864V8.568h1.648v4.64q0 .752.208 1.296.224.544.672.832.447.288 1.136.288.72 0 1.152-.288a1.66 1.66 0 0 0 .64-.848q.207-.545.208-1.28v-4.64h1.648v4.736q0 1.952-.96 2.88-.945.912-2.704.912M42.17 17V8.568h1.551l.08 1.216q.32-.495.736-.784.417-.288.912-.416t1.04-.128h.512v1.584h-.512q-.912 0-1.52.368a2.23 2.23 0 0 0-.88 1.024q-.272.656-.272 1.504V17zm9.265.096q-1.327 0-2.224-.544a3.44 3.44 0 0 1-1.328-1.504q-.432-.975-.432-2.24 0-1.248.448-2.224a3.54 3.54 0 0 1 1.376-1.552q.928-.576 2.288-.576.928 0 1.648.32.72.304 1.168.912.465.592.608 1.488H53.34q-.208-.656-.704-.944-.48-.288-1.136-.288-.88 0-1.408.416a2.4 2.4 0 0 0-.752 1.072q-.24.656-.24 1.376 0 .752.24 1.392.256.64.768 1.04.527.384 1.376.384.64 0 1.184-.272.545-.288.704-.96h1.696q-.144.928-.672 1.536-.529.592-1.312.88a4.7 4.7 0 0 1-1.648.288M56.343 17V5.688h1.648v4.064q.336-.432.768-.72.447-.288.96-.432a3.8 3.8 0 0 1 1.024-.144q1.215 0 1.904.528.687.511.976 1.392t.288 1.984V17h-1.664v-4.256q0-.511-.08-1.008a2.9 2.9 0 0 0-.256-.896 1.47 1.47 0 0 0-.592-.656q-.384-.255-1.04-.256-.625 0-1.072.272a2.1 2.1 0 0 0-.704.736q-.256.449-.384.992a4.5 4.5 0 0 0-.128 1.056V17zm11.899.096q-.576 0-1.12-.144a3.1 3.1 0 0 1-.944-.464 2.5 2.5 0 0 1-.672-.784q-.24-.48-.24-1.12 0-.768.288-1.264a2.1 2.1 0 0 1 .8-.784q.496-.288 1.136-.4a7 7 0 0 1 1.36-.128h2.064q0-.624-.192-1.088a1.5 1.5 0 0 0-.608-.736q-.4-.272-1.072-.272a3 3 0 0 0-.768.096 1.6 1.6 0 0 0-.608.272.97.97 0 0 0-.352.512h-1.728q.096-.608.432-1.04a2.8 2.8 0 0 1 .832-.736 3.8 3.8 0 0 1 1.056-.416 4.8 4.8 0 0 1 1.168-.144q1.824 0 2.624 1.072.816 1.056.816 2.912V17H71.09l-.064-1.072a2.46 2.46 0 0 1-.88.752q-.495.256-.992.336-.496.08-.912.08m.256-1.392q.72 0 1.264-.24.544-.255.848-.72.304-.48.304-1.12v-.352H69.41q-.464 0-.912.032-.432.015-.8.128a1.2 1.2 0 0 0-.576.336q-.208.24-.208.688 0 .432.224.704.225.272.592.416.368.128.768.128m8.825 1.392q-.591 0-1.183-.112a3.6 3.6 0 0 1-1.105-.4 2.7 2.7 0 0 1-.864-.768q-.352-.496-.448-1.216h1.68q.129.384.448.624.337.24.737.352.416.112.816.112.24 0 .528-.032.303-.032.575-.144.273-.112.448-.32.177-.225.177-.592a.72.72 0 0 0-.16-.48.96.96 0 0 0-.416-.304 2.3 2.3 0 0 0-.624-.192q-.72-.16-1.553-.304a4.3 4.3 0 0 1-1.44-.544 2.4 2.4 0 0 1-.4-.32 2.1 2.1 0 0 1-.496-.944 2.6 2.6 0 0 1-.064-.592q0-.655.257-1.12.27-.465.736-.752.463-.304 1.056-.448.591-.144 1.247-.144.849 0 1.536.272a2.8 2.8 0 0 1 1.136.8q.45.528.528 1.328h-1.551q-.097-.432-.56-.688-.45-.272-1.136-.272-.24 0-.528.032a1.9 1.9 0 0 0-.529.144 1.04 1.04 0 0 0-.416.32q-.16.192-.16.512 0 .304.145.512.16.208.448.336.303.128.688.208.543.127 1.167.24.64.113 1.04.24.529.144.897.416.383.271.575.688.209.416.208 1.008 0 .768-.303 1.264a2.26 2.26 0 0 1-.816.768q-.497.288-1.12.4a6.6 6.6 0 0 1-1.2.112m8.397 0q-1.329 0-2.224-.544a3.5 3.5 0 0 1-1.36-1.504q-.448-.975-.448-2.24 0-1.28.464-2.256.48-.976 1.376-1.536.912-.56 2.192-.56.975 0 1.696.368.72.353 1.184.96.48.608.704 1.36.224.736.192 1.536 0 .176-.016.336t-.032.336h-6.096q.048.64.32 1.168.287.528.8.848.511.304 1.264.304.416 0 .8-.096.4-.113.704-.336.32-.24.448-.608h1.664q-.209.848-.752 1.408a3.2 3.2 0 0 1-1.296.8 4.9 4.9 0 0 1-1.584.256m-2.336-5.056h4.48a2.3 2.3 0 0 0-.288-1.104 1.93 1.93 0 0 0-.752-.768q-.48-.288-1.152-.288-.736 0-1.232.304-.48.305-.752.8-.256.48-.304 1.056"/><rect width="16" height="16" x="130.334" y="4" fill="#7736d2" rx="4"/><path fill="#717171" d="M153.662 17V5.688h4.352q.912 0 1.664.192.752.176 1.312.592.56.4.864 1.088t.304 1.696q0 .912-.32 1.568a3 3 0 0 1-.88 1.088 4.1 4.1 0 0 1-1.264.656L162.11 17h-1.872l-2.24-4.16h-2.64V17zm1.696-5.68h2.304a7 7 0 0 0 1.072-.08q.512-.096.896-.32a1.63 1.63 0 0 0 .592-.64q.224-.416.224-1.056.016-.736-.288-1.168-.288-.448-.864-.624-.576-.192-1.392-.192h-2.544zm11.907 5.776q-1.327 0-2.224-.544a3.5 3.5 0 0 1-1.36-1.504q-.448-.975-.448-2.24 0-1.28.464-2.256.48-.976 1.376-1.536.912-.56 2.192-.56.976 0 1.696.368.72.353 1.184.96.48.608.704 1.36.225.736.192 1.536 0 .176-.016.336l-.032.336h-6.096q.048.64.32 1.168.288.528.8.848.513.304 1.264.304.416 0 .8-.096.4-.113.704-.336a1.26 1.26 0 0 0 .448-.608h1.664q-.207.848-.752 1.408a3.2 3.2 0 0 1-1.296.8 4.9 4.9 0 0 1-1.584.256m-2.336-5.056h4.48a2.3 2.3 0 0 0-.288-1.104 1.93 1.93 0 0 0-.752-.768q-.48-.288-1.152-.288-.735 0-1.232.304-.48.305-.752.8-.255.48-.304 1.056m8.119 4.96v-6.96h-1.344V8.568h1.344V7.72q0-.96.272-1.552.288-.608.88-.896.609-.288 1.584-.288h1.104V6.44h-.912q-.496 0-.784.176a.87.87 0 0 0-.384.496 2.4 2.4 0 0 0-.112.784v.672h2.192v1.472h-2.192V17zm8.405.096q-1.327 0-2.224-.544a3.5 3.5 0 0 1-1.36-1.504q-.448-.975-.448-2.24 0-1.28.464-2.256.48-.976 1.376-1.536.912-.56 2.192-.56.976 0 1.696.368.72.353 1.184.96.48.608.704 1.36.225.736.192 1.536 0 .176-.016.336l-.032.336h-6.096q.048.64.32 1.168.288.528.8.848.513.304 1.264.304.416 0 .8-.096.4-.113.704-.336a1.26 1.26 0 0 0 .448-.608h1.664q-.207.848-.752 1.408a3.2 3.2 0 0 1-1.296.8 4.9 4.9 0 0 1-1.584.256m-2.336-5.056h4.48a2.3 2.3 0 0 0-.288-1.104 1.93 1.93 0 0 0-.752-.768q-.48-.288-1.152-.288-.735 0-1.232.304-.48.305-.752.8-.255.48-.304 1.056m7.492 4.96V8.568h1.552l.08 1.216q.32-.495.736-.784.415-.288.912-.416a4.2 4.2 0 0 1 1.04-.128h.512v1.584h-.512q-.912 0-1.52.368a2.23 2.23 0 0 0-.88 1.024q-.272.656-.272 1.504V17zm5.758 0V8.568h1.552l.08 1.216q.32-.495.736-.784.415-.288.912-.416a4.2 4.2 0 0 1 1.04-.128h.512v1.584h-.512q-.912 0-1.52.368a2.23 2.23 0 0 0-.88 1.024q-.272.656-.272 1.504V17zm8.446.096a4.4 4.4 0 0 1-1.12-.144 3.1 3.1 0 0 1-.944-.464 2.5 2.5 0 0 1-.672-.784q-.24-.48-.24-1.12 0-.768.288-1.264a2.1 2.1 0 0 1 .8-.784 3.4 3.4 0 0 1 1.136-.4 7 7 0 0 1 1.36-.128h2.064q0-.624-.192-1.088a1.5 1.5 0 0 0-.608-.736q-.4-.272-1.072-.272-.4 0-.768.096a1.6 1.6 0 0 0-.608.272.97.97 0 0 0-.352.512h-1.728q.096-.608.432-1.04.336-.448.832-.736.496-.287 1.056-.416a4.8 4.8 0 0 1 1.168-.144q1.824 0 2.624 1.072.816 1.056.816 2.912V17h-1.424l-.064-1.072a2.46 2.46 0 0 1-.88.752q-.496.256-.992.336a6 6 0 0 1-.912.08m.256-1.392q.72 0 1.264-.24.544-.255.848-.72.304-.48.304-1.12v-.352h-1.504q-.463 0-.912.032-.432.015-.8.128a1.2 1.2 0 0 0-.576.336q-.208.24-.208.688 0 .432.224.704t.592.416q.368.128.768.128M206.743 17V5.688h1.648V17zm6.519.096q-.592 0-1.184-.112a3.6 3.6 0 0 1-1.104-.4 2.7 2.7 0 0 1-.864-.768q-.352-.496-.448-1.216h1.68q.128.384.448.624.336.24.736.352.416.112.816.112.24 0 .528-.032.305-.032.576-.144.272-.112.448-.32.176-.225.176-.592a.72.72 0 0 0-.16-.48.96.96 0 0 0-.416-.304 2.3 2.3 0 0 0-.624-.192q-.72-.16-1.552-.304a4.3 4.3 0 0 1-1.44-.544 2.4 2.4 0 0 1-.4-.32 2.1 2.1 0 0 1-.496-.944 2.6 2.6 0 0 1-.064-.592q0-.655.256-1.12.272-.465.736-.752a3.4 3.4 0 0 1 1.056-.448 5.3 5.3 0 0 1 1.248-.144q.848 0 1.536.272a2.8 2.8 0 0 1 1.136.8q.449.528.528 1.328h-1.552q-.096-.432-.56-.688-.448-.272-1.136-.272-.24 0-.528.032-.272.032-.528.144a1.04 1.04 0 0 0-.416.32q-.16.192-.16.512 0 .304.144.512.16.208.448.336.304.128.688.208.544.127 1.168.24.64.113 1.04.24.528.144.896.416.384.271.576.688.208.416.208 1.008 0 .768-.304 1.264-.304.48-.816.768a3.4 3.4 0 0 1-1.12.4 6.6 6.6 0 0 1-1.2.112"/><rect width="16" height="16" x="257.334" y="4" fill="#ef6363" rx="4"/><path fill="#717171" d="M280.646 17V5.688h4.304q.816 0 1.488.144.688.128 1.184.464.496.32.752.88.272.544.272 1.376a2.96 2.96 0 0 1-.368 1.472q-.368.64-1.12.96 1.008.224 1.52.912.528.688.528 1.808 0 .96-.352 1.6a2.6 2.6 0 0 1-.976 1.008 4.5 4.5 0 0 1-1.44.528 9 9 0 0 1-1.744.16zm1.696-1.552h2.416q.48 0 .96-.048.48-.064.88-.24.416-.175.656-.528.256-.353.256-.944 0-.496-.192-.816a1.43 1.43 0 0 0-.512-.528 2.2 2.2 0 0 0-.752-.272 4.6 4.6 0 0 0-.864-.08h-2.848zm0-4.912h2.144q.544 0 .992-.096.464-.095.8-.32t.512-.56q.192-.352.192-.848.017-.655-.288-.96-.288-.32-.784-.416a5 5 0 0 0-1.088-.112h-2.48zm12.034 6.56q-1.312 0-2.224-.528a3.56 3.56 0 0 1-1.392-1.52q-.465-.976-.464-2.256 0-1.296.48-2.256.48-.975 1.392-1.52.912-.56 2.224-.56 1.311 0 2.224.56a3.46 3.46 0 0 1 1.376 1.52q.464.975.464 2.272 0 1.265-.48 2.24a3.46 3.46 0 0 1-1.376 1.52q-.897.528-2.224.528m0-1.472q.864 0 1.392-.384a2.25 2.25 0 0 0 .8-1.024q.255-.656.256-1.424 0-.768-.256-1.408a2.25 2.25 0 0 0-.8-1.024q-.528-.4-1.392-.4-.849 0-1.392.4-.545.384-.8 1.024-.24.64-.24 1.408 0 .784.24 1.424.255.64.8 1.024.543.384 1.392.384M299.827 17V8.568h1.568l.08 1.184a2.5 2.5 0 0 1 .768-.736q.449-.287.96-.416.512-.144.992-.144 1.216 0 1.904.528.704.511.992 1.392.304.864.304 1.968V17h-1.664v-4.32a8 8 0 0 0-.064-1.008 2.5 2.5 0 0 0-.272-.88 1.45 1.45 0 0 0-.56-.624q-.368-.24-.992-.24-.768 0-1.296.416-.528.415-.8 1.12-.272.704-.272 1.584V17zm12.827.096q-1.776 0-2.72-.928-.928-.945-.928-2.864V8.568h1.648v4.64q0 .752.208 1.296.225.544.672.832.449.288 1.136.288.72 0 1.152-.288.448-.304.64-.848.208-.545.208-1.28v-4.64h1.648v4.736q0 1.952-.96 2.88-.943.912-2.704.912m8.482 0q-.592 0-1.184-.112a3.6 3.6 0 0 1-1.104-.4 2.7 2.7 0 0 1-.864-.768q-.352-.496-.448-1.216h1.68q.128.384.448.624.336.24.736.352.415.112.816.112.24 0 .528-.032.304-.032.576-.144t.448-.32q.176-.225.176-.592a.72.72 0 0 0-.16-.48.96.96 0 0 0-.416-.304 2.3 2.3 0 0 0-.624-.192q-.72-.16-1.552-.304a4.3 4.3 0 0 1-1.44-.544 2.4 2.4 0 0 1-.4-.32 2.1 2.1 0 0 1-.496-.944 2.6 2.6 0 0 1-.064-.592q0-.655.256-1.12.272-.465.736-.752a3.4 3.4 0 0 1 1.056-.448 5.3 5.3 0 0 1 1.248-.144q.848 0 1.536.272a2.8 2.8 0 0 1 1.136.8q.448.528.528 1.328h-1.552q-.096-.432-.56-.688-.448-.272-1.136-.272-.24 0-.528.032-.272.032-.528.144a1.04 1.04 0 0 0-.416.32q-.16.192-.16.512 0 .304.144.512.16.208.448.336.304.128.688.208.544.127 1.168.24.64.113 1.04.24.528.144.896.416.384.271.576.688.208.416.208 1.008 0 .768-.304 1.264-.305.48-.816.768a3.4 3.4 0 0 1-1.12.4 6.6 6.6 0 0 1-1.2.112"/><circle cx="174.333" cy="246" r="174" fill="#7736d2"/><path fill="#89f801" d="M348.333 246a173.99 173.99 0 0 0-63.305-134.249A174 174 0 0 0 12.971 311.1L174.333 246z"/><path fill="#89f801" d="M348.333 246a173.99 173.99 0 0 0-63.305-134.249A174 174 0 0 0 12.971 311.1L174.333 246z"/><path fill="#ef6363" d="M348.333 246a174 174 0 0 0-50.963-123.037A174 174 0 0 0 174.333 72v174z"/><circle cx="174.333" cy="246" r="105" fill="#f3e9db"/><path fill="#000" d="m174.334 191.001 19.368 22.583 13.631-14.108v28.934h-3.587l3.587 3.587v37.445h-7.112v15.402l-5.56 3.596v-31.335l9.804-9.804h-7.652l-9.526 5.5-10.083-5.822v-9.96h18.413l-9.112-5.261H162.14l-9.087 5.261h17.456v28.934h7.858l10.555 8.525v10.126l4.584 4.584-19.172 12.406v.001l-25.888-16.751v-15.402h-6.305l-.429-37.106 3.927-3.926h-3.971l-.334-28.934 13.63 14.108L174.334 191zm-.238 94.071 3.109-3.108h-6.218zm-10.043-6.934h20.564l-5.021-4.066h-10.043zm-12.675-31.076-2.63 2.631 11.478 12.673 3.347-2.869v-7.174h-6.695zh18.174l-4.304-4.065h-9.805zm27.978-.083h16.261l-3.744-3.744h-8.69z"/><path fill="#fff" d="m174.362 223.028-4.334-7.506 4.334-7.506 4.334 7.506z"/><path fill="url(#a)" d="M41.91 169v-2.472l4.728-3.984 1.272-1.056q.696-.576 1.32-1.248a8 8 0 0 0 1.08-1.44 3.06 3.06 0 0 0 .431-1.56q0-1.224-.743-1.92-.72-.696-2.064-.696-1.176 0-1.92.504a2.17 2.17 0 0 0-.937 1.368h-2.951q.167-1.608 1.032-2.616a5.4 5.4 0 0 1 2.184-1.536 7.1 7.1 0 0 1 2.712-.528q1.608 0 2.88.6 1.272.576 2.016 1.728.767 1.128.767 2.76 0 1.464-.575 2.64a7.9 7.9 0 0 1-1.513 2.16 27 27 0 0 1-2.063 1.896l-3.24 2.664h7.44V169zm19.284.192a8.4 8.4 0 0 1-2.136-.264 6 6 0 0 1-1.824-.864q-.816-.576-1.368-1.464-.528-.912-.72-2.136h2.952q.192.528.624.984.456.456 1.08.72.648.264 1.392.264 1.008 0 1.728-.336a2.76 2.76 0 0 0 1.128-1.008q.408-.672.408-1.608 0-1.392-.864-2.184-.84-.792-2.304-.792-.864 0-1.608.312-.744.288-1.392.816h-2.664l.456-9.6h10.824v2.736h-8.064l-.288 4.056a5 5 0 0 1 1.656-.744 7 7 0 0 1 2.04-.24q1.632.024 2.808.72a4.47 4.47 0 0 1 1.824 1.872q.624 1.2.624 2.832 0 1.896-.84 3.216a5.3 5.3 0 0 1-2.256 2.016q-1.416.696-3.216.696m9.798-.192 10.872-16.968h3L74.064 169zm12.192.168q-1.2 0-2.088-.504a3.8 3.8 0 0 1-1.368-1.44q-.48-.912-.48-2.088 0-1.224.48-2.136.504-.912 1.392-1.416t2.088-.504q1.176 0 2.016.504a3.3 3.3 0 0 1 1.344 1.392q.48.888.48 2.112t-.504 2.136a3.64 3.64 0 0 1-1.344 1.44q-.864.504-2.016.504m-.024-2.256q.576 0 .912-.24.36-.264.504-.672t.144-.864-.168-.864a1.3 1.3 0 0 0-.48-.648q-.336-.264-.912-.264-.864 0-1.248.552a2 2 0 0 0-.36 1.248q0 .696.384 1.224t1.224.528m-10.392-7.008q-1.2 0-2.088-.504a3.64 3.64 0 0 1-1.344-1.44q-.456-.912-.456-2.088 0-1.224.48-2.136t1.368-1.416 2.088-.504q1.176 0 2.04.504.864.48 1.32 1.392.48.888.48 2.112 0 1.2-.48 2.136a3.64 3.64 0 0 1-1.344 1.44q-.864.504-2.064.504m0-2.256q.576 0 .912-.24.336-.264.504-.672.168-.432.168-.864 0-.456-.168-.864a1.46 1.46 0 0 0-.504-.648q-.336-.264-.912-.264-.864 0-1.248.552a2.1 2.1 0 0 0-.384 1.224q.024.696.384 1.248.384.528 1.248.528"/><path fill="#222" d="M41.91 169v-2.472l4.728-3.984 1.272-1.056q.696-.576 1.32-1.248a8 8 0 0 0 1.08-1.44 3.06 3.06 0 0 0 .431-1.56q0-1.224-.743-1.92-.72-.696-2.064-.696-1.176 0-1.92.504a2.17 2.17 0 0 0-.937 1.368h-2.951q.167-1.608 1.032-2.616a5.4 5.4 0 0 1 2.184-1.536 7.1 7.1 0 0 1 2.712-.528q1.608 0 2.88.6 1.272.576 2.016 1.728.767 1.128.767 2.76 0 1.464-.575 2.64a7.9 7.9 0 0 1-1.513 2.16 27 27 0 0 1-2.063 1.896l-3.24 2.664h7.44V169zm19.284.192a8.4 8.4 0 0 1-2.136-.264 6 6 0 0 1-1.824-.864q-.816-.576-1.368-1.464-.528-.912-.72-2.136h2.952q.192.528.624.984.456.456 1.08.72.648.264 1.392.264 1.008 0 1.728-.336a2.76 2.76 0 0 0 1.128-1.008q.408-.672.408-1.608 0-1.392-.864-2.184-.84-.792-2.304-.792-.864 0-1.608.312-.744.288-1.392.816h-2.664l.456-9.6h10.824v2.736h-8.064l-.288 4.056a5 5 0 0 1 1.656-.744 7 7 0 0 1 2.04-.24q1.632.024 2.808.72a4.47 4.47 0 0 1 1.824 1.872q.624 1.2.624 2.832 0 1.896-.84 3.216a5.3 5.3 0 0 1-2.256 2.016q-1.416.696-3.216.696m9.798-.192 10.872-16.968h3L74.064 169zm12.192.168q-1.2 0-2.088-.504a3.8 3.8 0 0 1-1.368-1.44q-.48-.912-.48-2.088 0-1.224.48-2.136.504-.912 1.392-1.416t2.088-.504q1.176 0 2.016.504a3.3 3.3 0 0 1 1.344 1.392q.48.888.48 2.112t-.504 2.136a3.64 3.64 0 0 1-1.344 1.44q-.864.504-2.016.504m-.024-2.256q.576 0 .912-.24.36-.264.504-.672t.144-.864-.168-.864a1.3 1.3 0 0 0-.48-.648q-.336-.264-.912-.264-.864 0-1.248.552a2 2 0 0 0-.36 1.248q0 .696.384 1.224t1.224.528m-10.392-7.008q-1.2 0-2.088-.504a3.64 3.64 0 0 1-1.344-1.44q-.456-.912-.456-2.088 0-1.224.48-2.136t1.368-1.416 2.088-.504q1.176 0 2.04.504.864.48 1.32 1.392.48.888.48 2.112 0 1.2-.48 2.136a3.64 3.64 0 0 1-1.344 1.44q-.864.504-2.064.504m0-2.256q.576 0 .912-.24.336-.264.504-.672.168-.432.168-.864 0-.456-.168-.864a1.46 1.46 0 0 0-.504-.648q-.336-.264-.912-.264-.864 0-1.248.552a2.1 2.1 0 0 0-.384 1.224q.024.696.384 1.248.384.528 1.248.528"/><path fill="url(#b)" d="M238.91 149v-2.472l4.728-3.984 1.272-1.056q.696-.576 1.32-1.248a8 8 0 0 0 1.08-1.44 3.06 3.06 0 0 0 .432-1.56q0-1.224-.744-1.92-.72-.696-2.064-.696-1.176 0-1.92.504a2.17 2.17 0 0 0-.936 1.368h-2.952q.168-1.608 1.032-2.616a5.4 5.4 0 0 1 2.184-1.536 7.1 7.1 0 0 1 2.712-.528q1.608 0 2.88.6 1.272.576 2.016 1.728.768 1.128.768 2.76 0 1.464-.576 2.64a7.9 7.9 0 0 1-1.512 2.16 27 27 0 0 1-2.064 1.896l-3.24 2.664h7.44V149zm19.285.192a8.4 8.4 0 0 1-2.136-.264 6 6 0 0 1-1.824-.864q-.816-.576-1.368-1.464-.528-.912-.72-2.136h2.952q.192.528.624.984.456.456 1.08.72.648.264 1.392.264 1.008 0 1.728-.336a2.76 2.76 0 0 0 1.128-1.008q.408-.672.408-1.608 0-1.392-.864-2.184-.84-.792-2.304-.792-.864 0-1.608.312-.744.288-1.392.816h-2.664l.456-9.6h10.824v2.736h-8.064l-.288 4.056a5 5 0 0 1 1.656-.744 7 7 0 0 1 2.04-.24q1.632.024 2.808.72a4.47 4.47 0 0 1 1.824 1.872q.624 1.2.624 2.832 0 1.896-.84 3.216a5.3 5.3 0 0 1-2.256 2.016q-1.416.696-3.216.696m9.797-.192 10.872-16.968h3L271.064 149zm12.192.168q-1.2 0-2.088-.504a3.8 3.8 0 0 1-1.368-1.44q-.48-.912-.48-2.088 0-1.224.48-2.136.504-.912 1.392-1.416t2.088-.504q1.176 0 2.016.504a3.3 3.3 0 0 1 1.344 1.392q.48.888.48 2.112t-.504 2.136a3.64 3.64 0 0 1-1.344 1.44q-.864.504-2.016.504m-.024-2.256q.576 0 .912-.24.36-.264.504-.672t.144-.864-.168-.864a1.3 1.3 0 0 0-.48-.648q-.336-.264-.912-.264-.864 0-1.248.552a2 2 0 0 0-.36 1.248q0 .696.384 1.224t1.224.528m-10.392-7.008q-1.2 0-2.088-.504a3.64 3.64 0 0 1-1.344-1.44q-.456-.912-.456-2.088 0-1.224.48-2.136t1.368-1.416 2.088-.504q1.176 0 2.04.504.864.48 1.32 1.392.48.888.48 2.112 0 1.2-.48 2.136a3.64 3.64 0 0 1-1.344 1.44q-.864.504-2.064.504m0-2.256q.576 0 .912-.24.336-.264.504-.672.168-.432.168-.864 0-.456-.168-.864a1.46 1.46 0 0 0-.504-.648q-.336-.264-.912-.264-.864 0-1.248.552a2.1 2.1 0 0 0-.384 1.224q.024.696.384 1.248.384.528 1.248.528"/><path fill="#fff" d="M238.91 149v-2.472l4.728-3.984 1.272-1.056q.696-.576 1.32-1.248a8 8 0 0 0 1.08-1.44 3.06 3.06 0 0 0 .432-1.56q0-1.224-.744-1.92-.72-.696-2.064-.696-1.176 0-1.92.504a2.17 2.17 0 0 0-.936 1.368h-2.952q.168-1.608 1.032-2.616a5.4 5.4 0 0 1 2.184-1.536 7.1 7.1 0 0 1 2.712-.528q1.608 0 2.88.6 1.272.576 2.016 1.728.768 1.128.768 2.76 0 1.464-.576 2.64a7.9 7.9 0 0 1-1.512 2.16 27 27 0 0 1-2.064 1.896l-3.24 2.664h7.44V149zm19.285.192a8.4 8.4 0 0 1-2.136-.264 6 6 0 0 1-1.824-.864q-.816-.576-1.368-1.464-.528-.912-.72-2.136h2.952q.192.528.624.984.456.456 1.08.72.648.264 1.392.264 1.008 0 1.728-.336a2.76 2.76 0 0 0 1.128-1.008q.408-.672.408-1.608 0-1.392-.864-2.184-.84-.792-2.304-.792-.864 0-1.608.312-.744.288-1.392.816h-2.664l.456-9.6h10.824v2.736h-8.064l-.288 4.056a5 5 0 0 1 1.656-.744 7 7 0 0 1 2.04-.24q1.632.024 2.808.72a4.47 4.47 0 0 1 1.824 1.872q.624 1.2.624 2.832 0 1.896-.84 3.216a5.3 5.3 0 0 1-2.256 2.016q-1.416.696-3.216.696m9.797-.192 10.872-16.968h3L271.064 149zm12.192.168q-1.2 0-2.088-.504a3.8 3.8 0 0 1-1.368-1.44q-.48-.912-.48-2.088 0-1.224.48-2.136.504-.912 1.392-1.416t2.088-.504q1.176 0 2.016.504a3.3 3.3 0 0 1 1.344 1.392q.48.888.48 2.112t-.504 2.136a3.64 3.64 0 0 1-1.344 1.44q-.864.504-2.016.504m-.024-2.256q.576 0 .912-.24.36-.264.504-.672t.144-.864-.168-.864a1.3 1.3 0 0 0-.48-.648q-.336-.264-.912-.264-.864 0-1.248.552a2 2 0 0 0-.36 1.248q0 .696.384 1.224t1.224.528m-10.392-7.008q-1.2 0-2.088-.504a3.64 3.64 0 0 1-1.344-1.44q-.456-.912-.456-2.088 0-1.224.48-2.136t1.368-1.416 2.088-.504q1.176 0 2.04.504.864.48 1.32 1.392.48.888.48 2.112 0 1.2-.48 2.136a3.64 3.64 0 0 1-1.344 1.44q-.864.504-2.064.504m0-2.256q.576 0 .912-.24.336-.264.504-.672.168-.432.168-.864 0-.456-.168-.864a1.46 1.46 0 0 0-.504-.648q-.336-.264-.912-.264-.864 0-1.248.552a2.1 2.1 0 0 0-.384 1.224q.024.696.384 1.248.384.528 1.248.528"/><path fill="url(#c)" d="M159.982 390v-3.216h-8.832v-2.256l8.016-11.496h3.768v11.04h1.944v2.712h-1.944V390zm-5.376-5.928h5.376v-7.896zm17.346 6.12a8.4 8.4 0 0 1-2.136-.264 6 6 0 0 1-1.824-.864q-.816-.576-1.368-1.464-.528-.912-.72-2.136h2.952q.192.528.624.984.456.456 1.08.72.648.264 1.392.264 1.008 0 1.728-.336a2.76 2.76 0 0 0 1.128-1.008q.408-.672.408-1.608 0-1.392-.864-2.184-.84-.792-2.304-.792-.864 0-1.608.312-.744.288-1.392.816h-2.664l.456-9.6h10.824v2.736H169.6l-.288 4.056a5 5 0 0 1 1.656-.744 7 7 0 0 1 2.04-.24q1.632.024 2.808.72a4.47 4.47 0 0 1 1.824 1.872q.624 1.2.624 2.832 0 1.896-.84 3.216a5.3 5.3 0 0 1-2.256 2.016q-1.416.696-3.216.696m9.798-.192 10.872-16.968h3L184.822 390zm12.192.168q-1.2 0-2.088-.504a3.8 3.8 0 0 1-1.368-1.44q-.48-.912-.48-2.088 0-1.224.48-2.136.504-.912 1.392-1.416t2.088-.504q1.176 0 2.016.504a3.3 3.3 0 0 1 1.344 1.392q.48.888.48 2.112t-.504 2.136a3.64 3.64 0 0 1-1.344 1.44q-.864.504-2.016.504m-.024-2.256q.576 0 .912-.24.36-.264.504-.672t.144-.864-.168-.864a1.3 1.3 0 0 0-.48-.648q-.336-.264-.912-.264-.864 0-1.248.552a2 2 0 0 0-.36 1.248q0 .696.384 1.224t1.224.528m-10.392-7.008q-1.2 0-2.088-.504a3.64 3.64 0 0 1-1.344-1.44q-.456-.912-.456-2.088 0-1.224.48-2.136t1.368-1.416 2.088-.504q1.176 0 2.04.504.864.48 1.32 1.392.48.888.48 2.112 0 1.2-.48 2.136a3.64 3.64 0 0 1-1.344 1.44q-.864.504-2.064.504m0-2.256q.576 0 .912-.24.336-.264.504-.672.168-.432.168-.864 0-.456-.168-.864a1.46 1.46 0 0 0-.504-.648q-.336-.264-.912-.264-.864 0-1.248.552a2.1 2.1 0 0 0-.384 1.224q.024.696.384 1.248.384.528 1.248.528"/><path fill="#fff" d="M159.982 390v-3.216h-8.832v-2.256l8.016-11.496h3.768v11.04h1.944v2.712h-1.944V390zm-5.376-5.928h5.376v-7.896zm17.346 6.12a8.4 8.4 0 0 1-2.136-.264 6 6 0 0 1-1.824-.864q-.816-.576-1.368-1.464-.528-.912-.72-2.136h2.952q.192.528.624.984.456.456 1.08.72.648.264 1.392.264 1.008 0 1.728-.336a2.76 2.76 0 0 0 1.128-1.008q.408-.672.408-1.608 0-1.392-.864-2.184-.84-.792-2.304-.792-.864 0-1.608.312-.744.288-1.392.816h-2.664l.456-9.6h10.824v2.736H169.6l-.288 4.056a5 5 0 0 1 1.656-.744 7 7 0 0 1 2.04-.24q1.632.024 2.808.72a4.47 4.47 0 0 1 1.824 1.872q.624 1.2.624 2.832 0 1.896-.84 3.216a5.3 5.3 0 0 1-2.256 2.016q-1.416.696-3.216.696m9.798-.192 10.872-16.968h3L184.822 390zm12.192.168q-1.2 0-2.088-.504a3.8 3.8 0 0 1-1.368-1.44q-.48-.912-.48-2.088 0-1.224.48-2.136.504-.912 1.392-1.416t2.088-.504q1.176 0 2.016.504a3.3 3.3 0 0 1 1.344 1.392q.48.888.48 2.112t-.504 2.136a3.64 3.64 0 0 1-1.344 1.44q-.864.504-2.016.504m-.024-2.256q.576 0 .912-.24.36-.264.504-.672t.144-.864-.168-.864a1.3 1.3 0 0 0-.48-.648q-.336-.264-.912-.264-.864 0-1.248.552a2 2 0 0 0-.36 1.248q0 .696.384 1.224t1.224.528m-10.392-7.008q-1.2 0-2.088-.504a3.64 3.64 0 0 1-1.344-1.44q-.456-.912-.456-2.088 0-1.224.48-2.136t1.368-1.416 2.088-.504q1.176 0 2.04.504.864.48 1.32 1.392.48.888.48 2.112 0 1.2-.48 2.136a3.64 3.64 0 0 1-1.344 1.44q-.864.504-2.064.504m0-2.256q.576 0 .912-.24.336-.264.504-.672.168-.432.168-.864 0-.456-.168-.864a1.46 1.46 0 0 0-.504-.648q-.336-.264-.912-.264-.864 0-1.248.552a2.1 2.1 0 0 0-.384 1.224q.024.696.384 1.248.384.528 1.248.528"/><defs><linearGradient id="a" x1="74.569" x2="87.555" y1="149" y2="150.347" gradientUnits="userSpaceOnUse"><stop stop-color="#010101"/><stop offset="1" stop-color="#adadad"/></linearGradient><linearGradient id="b" x1="271.569" x2="284.555" y1="129" y2="130.347" gradientUnits="userSpaceOnUse"><stop stop-color="#010101"/><stop offset="1" stop-color="#adadad"/></linearGradient><linearGradient id="c" x1="184.983" x2="198.51" y1="370" y2="371.462" gradientUnits="userSpaceOnUse"><stop stop-color="#010101"/><stop offset="1" stop-color="#adadad"/></linearGradient></defs></svg>