<svg xmlns="http://www.w3.org/2000/svg" width="28" height="28" fill="none" viewBox="0 0 28 28"><path fill="#fff" d="M18.359 1.259A8.07 8.07 0 0 0 14.019 0a8.07 8.07 0 0 0-5.784 2.432h11.569a8 8 0 0 0-1.445-1.173M9.29 14.414l.004-.004.015.02a7.32 7.32 0 0 0 4.71 1.754c1.74 0 3.43-.658 4.71-1.754l.015-.02.006.004a6.7 6.7 0 0 0 1.45-1.754H7.838c.376.66.87 1.252 1.451 1.753M5.33 4.073v6.948h17.38V4.073zm13.265 4.294H9.444v-1.64h9.151z"/><path fill="#fff" d="m14.02 23.754-5.984-8.256c-3.515 1.634-5.958 5.197-5.958 9.321V28h23.883v-3.18c0-4.124-2.443-7.687-5.957-9.321z"/><path fill="#fff" d="m11.492 17.452 2.528 3.5 2.527-3.5a8.8 8.8 0 0 1-2.527.372 8.8 8.8 0 0 1-2.528-.372"/></svg>