<svg xmlns="http://www.w3.org/2000/svg" width="184" height="67" fill="none" viewBox="0 0 184 67"><g fill="#c0ac9d" clip-path="url(#a)"><path d="M45.26 45.132q0 9.3-5.564 14.817-6.252 6.57-16.441 6.57-9.751 0-16.504-6.695Q.001 53.13 0 43.335q0-9.794 6.751-16.49t16.504-6.695q4.938 0 9.314 1.736t7.19 4.897l-4.126 4.092Q33.57 28.394 30.288 27q-3.283-1.395-7.033-1.395-7.314 0-12.377 5.021-5.001 5.083-5.001 12.709t5 12.708q5.064 5.022 12.378 5.021 6.69 0 11.128-3.72 4.438-3.719 5.125-10.228H23.255v-5.332h21.692q.313 1.737.313 3.348m18.051-10.846q6.883 0 10.956 4.415 4.073 4.414 4.073 12.367l-.064.626h-24.31q.126 4.509 3.03 7.264t6.947 2.755q5.556 0 8.714-5.51l5.178 2.505q-2.085 3.882-5.778 6.074-3.694 2.192-8.367 2.192-6.82 0-11.24-4.635-4.42-4.633-4.42-11.71 0-7.013 4.294-11.678t10.987-4.665m-.126 5.26q-3.284 0-5.652 2.004-2.367 2.003-3.125 5.385H72.15q-.252-3.194-2.62-5.291t-6.346-2.098m24.681 26.329h-5.792v-30.59h5.54v4.245h.252q1.322-2.248 4.06-3.745 2.739-1.5 5.446-1.499 3.4 0 5.98 1.561 2.582 1.56 3.777 4.307 3.841-5.868 10.64-5.868 5.35 0 8.246 3.247t2.896 9.239v19.103h-5.791V47.646q0-4.308-1.574-6.212t-5.288-1.904q-3.337 0-5.603 2.81-2.266 2.808-2.266 6.617v16.918h-5.792V47.646q0-4.308-1.574-6.212t-5.288-1.904q-3.337 0-5.603 2.81-2.266 2.808-2.266 6.617zm53.464-41.208q0 1.688-1.198 2.876-1.198 1.19-2.901 1.189t-2.9-1.188q-1.198-1.189-1.198-2.877 0-1.689 1.198-2.876 1.197-1.189 2.9-1.189t2.901 1.189 1.198 2.876m-1.198 10.567v30.64h-5.801v-30.64zM184 24.667q0 1.688-1.198 2.876-1.199 1.19-2.9 1.189-1.704 0-2.901-1.188-1.198-1.189-1.198-2.877 0-1.689 1.198-2.876 1.198-1.189 2.9-1.189t2.901 1.189T184 24.667m-1.198 10.567v30.64h-5.801v-30.64zm-37.613.051h5.54v4.245h.251q1.323-2.248 4.061-3.745 2.739-1.5 5.697-1.499 5.666 0 8.719 3.215 3.054 3.215 3.053 9.146v19.228h-5.791V47.022q-.189-7.491-7.618-7.492-3.462 0-5.791 2.778t-2.329 6.649v16.918h-5.792zm-19.992-9.355c-1.023-6.695-6.322-11.95-13.074-12.965 6.752-1.014 12.051-6.27 13.074-12.965 1.023 6.695 6.322 11.95 13.074 12.965-6.752 1.015-12.051 6.27-13.074 12.965"/></g><defs><clipPath id="a"><path fill="#fff" d="M0 0h184v67H0z"/></clipPath></defs></svg>