<svg xmlns="http://www.w3.org/2000/svg" width="1382" height="902" fill="none" viewBox="0 0 1382 902"><g opacity=".35"><g filter="url(#a)"><circle cx="1091" cy="674" r="628" fill="#fff" fill-opacity=".04" transform="rotate(49.029 1091 674)"/></g><circle cx="1091" cy="674" r="626.969" stroke="#fff" stroke-opacity=".12" stroke-width="2.061" transform="rotate(49.029 1091 674)"/></g><g filter="url(#b)"><path fill="url(#c)" d="M1461.95 173.312c-149.4-110.905-339.16-147.32-515.445-105.453l-1.13-4.742A628 628 0 0 1 1464.85 169.4z"/></g><path fill="url(#d)" d="M1463.74 170.902c-150.12-111.44-340.8-148.03-517.93-105.961l-.435-1.824A628 628 0 0 1 1464.85 169.4z"/><g opacity=".5"><g filter="url(#e)"><circle cx="1090.97" cy="674.465" r="528" fill="#fff" fill-opacity=".04" transform="rotate(49.029 1090.97 674.465)"/></g><circle cx="1090.97" cy="674.465" r="526.969" stroke="#fff" stroke-opacity=".12" stroke-width="2.063" transform="rotate(49.029 1090.97 674.465)"/></g><g opacity=".35"><g filter="url(#f)"><circle cx="1090.98" cy="674.454" r="527.686" fill="#fff" fill-opacity=".04" transform="rotate(49.029 1090.98 674.454)"/></g><circle cx="1090.98" cy="674.454" r="526.656" stroke="#fff" stroke-opacity=".12" stroke-width="2.061" transform="rotate(49.029 1090.98 674.454)"/></g><g filter="url(#g)"><path fill="url(#h)" d="M962.688 162.308a527.67 527.67 0 0 1 500.622 137.34l-3.11 3.134c-133.28-132.603-323.09-179.837-496.529-136.565z"/></g><path fill="url(#i)" d="M962.688 162.308a527.69 527.69 0 0 1 500.632 137.34l-1.39 1.394c-133.9-133.225-324.61-180.68-498.857-137.204z"/><g opacity=".35"><g filter="url(#j)"><circle cx="1091.03" cy="673.53" r="428" fill="#fff" fill-opacity=".04" transform="rotate(49.029 1091.03 673.53)"/></g><circle cx="1091.03" cy="673.53" r="426.969" stroke="#fff" stroke-opacity=".12" stroke-width="2.061" transform="rotate(49.029 1091.03 673.53)"/></g><g filter="url(#k)"><path fill="url(#l)" d="M1217.72 264.709a428 428 0 0 1 204.16 137.297l-3.35 2.749a406 406 0 0 0-7.72-9.146c-111.8-128.746-284.26-173.643-437.941-129.1l-1.164-4.009a428 428 0 0 1 246.015 2.209"/></g><path fill="url(#m)" d="M1217.72 264.71a428 428 0 0 1 204.16 137.297l-2.19 1.797a407 407 0 0 0-7.75-9.179c-112.2-129.202-285.27-174.258-439.49-129.557l-.745-2.567a428 428 0 0 1 246.015 2.209"/><g opacity=".35"><g filter="url(#n)"><circle cx="1091" cy="674" r="328" fill="#fff" fill-opacity=".04" transform="rotate(49.029 1091 674)"/></g><circle cx="1091" cy="674" r="326.969" stroke="#fff" stroke-opacity=".12" stroke-width="2.061" transform="rotate(49.029 1091 674)"/></g><g filter="url(#o)"><circle cx="1091" cy="674" r="228" fill="#191b1d" transform="rotate(49.029 1091 674)"/><circle cx="1091" cy="674" r="226.5" stroke="url(#p)" stroke-width="3" transform="rotate(49.029 1091 674)"/></g><g filter="url(#q)"><circle cx="1091" cy="674" r="228" fill="#191b1d" transform="rotate(49.029 1091 674)"/></g><circle cx="1091" cy="674" r="227" stroke="url(#r)" stroke-width="2" transform="rotate(49.029 1091 674)"/><g filter="url(#s)"><path fill="url(#t)" d="M1282.53 413.825c-89.93-66.328-207.83-80.784-310.267-40.305l-1.805-4.567a327.99 327.99 0 0 1 314.992 40.902z"/></g><g filter="url(#u)"><circle cx="1091" cy="674" r="151" fill="#fff" fill-opacity=".04" transform="rotate(49.029 1091 674)"/></g><circle cx="1091" cy="674" r="150.609" stroke="#fff" stroke-opacity=".12" stroke-width=".782" transform="rotate(49.029 1091 674)"/><g filter="url(#v)"><circle cx="1090.77" cy="673.793" r="133.118" fill="#191b1d" transform="rotate(49.029 1090.77 673.793)"/></g><circle cx="1090.77" cy="673.793" r="132.727" stroke="#fff" stroke-opacity=".12" stroke-width=".782" transform="rotate(49.029 1090.77 673.793)"/><path fill="url(#w)" fill-opacity=".92" d="m1091 617.002 19.37 22.584 13.63-14.109v28.935h-3.59l3.59 3.586v37.448h-7.11v15.403l-5.56 3.597v-31.338l9.8-9.804h-7.65l-9.53 5.501-10.08-5.822v-9.962h18.41l-9.11-5.26h-24.37l-9.08 5.26h17.45v28.936h7.86l10.56 8.524v10.128l4.58 4.584-19.17 12.406v.001l-25.89-16.751v-15.403h-6.3l-.43-37.108 3.92-3.926h-3.97l-.33-28.935 13.63 14.109zm-.24 94.073 3.11-3.109h-6.22zm-10.04-6.935h20.56l-5.02-4.066h-10.04zm-12.68-31.075-2.63 2.631 11.48 12.674 3.35-2.869v-7.174h-6.7zh18.18l-4.31-4.064h-9.8zm27.98-.082h16.26l-3.74-3.744h-8.69z"/><path fill="#191b1d" d="m1091.03 649.03-4.33-7.507 4.33-7.506 4.33 7.506z"/><defs><filter id="a" width="1256.02" height="1293.54" x="462.99" y="45.99" color-interpolation-filters="sRGB" filterUnits="userSpaceOnUse"><feFlood flood-opacity="0" result="BackgroundImageFix"/><feBlend in="SourceGraphic" in2="BackgroundImageFix" result="shape"/><feColorMatrix in="SourceAlpha" result="hardAlpha" values="0 0 0 0 0 0 0 0 0 0 0 0 0 0 0 0 0 0 127 0"/><feOffset dy="37.516"/><feGaussianBlur stdDeviation="18.758"/><feComposite in2="hardAlpha" k2="-1" k3="1" operator="arithmetic"/><feColorMatrix values="0 0 0 0 1 0 0 0 0 1 0 0 0 0 1 0 0 0 0.07 0"/><feBlend in2="shape" result="effect1_innerShadow_55_648"/></filter><filter id="b" width="529.547" height="137.385" x="940.339" y="40.964" color-interpolation-filters="sRGB" filterUnits="userSpaceOnUse"><feFlood flood-opacity="0" result="BackgroundImageFix"/><feBlend in="SourceGraphic" in2="BackgroundImageFix" result="shape"/><feGaussianBlur result="effect1_foregroundBlur_55_648" stdDeviation="2.518"/></filter><filter id="e" width="1056.02" height="1093.55" x="562.959" y="146.457" color-interpolation-filters="sRGB" filterUnits="userSpaceOnUse"><feFlood flood-opacity="0" result="BackgroundImageFix"/><feBlend in="SourceGraphic" in2="BackgroundImageFix" result="shape"/><feColorMatrix in="SourceAlpha" result="hardAlpha" values="0 0 0 0 0 0 0 0 0 0 0 0 0 0 0 0 0 0 127 0"/><feOffset dy="37.538"/><feGaussianBlur stdDeviation="18.769"/><feComposite in2="hardAlpha" k2="-1" k3="1" operator="arithmetic"/><feColorMatrix values="0 0 0 0 1 0 0 0 0 1 0 0 0 0 1 0 0 0 0.07 0"/><feBlend in2="shape" result="effect1_innerShadow_55_648"/></filter><filter id="f" width="1055.39" height="1092.9" x="563.286" y="146.76" color-interpolation-filters="sRGB" filterUnits="userSpaceOnUse"><feFlood flood-opacity="0" result="BackgroundImageFix"/><feBlend in="SourceGraphic" in2="BackgroundImageFix" result="shape"/><feColorMatrix in="SourceAlpha" result="hardAlpha" values="0 0 0 0 0 0 0 0 0 0 0 0 0 0 0 0 0 0 127 0"/><feOffset dy="37.516"/><feGaussianBlur stdDeviation="18.758"/><feComposite in2="hardAlpha" k2="-1" k3="1" operator="arithmetic"/><feColorMatrix values="0 0 0 0 1 0 0 0 0 1 0 0 0 0 1 0 0 0 0.07 0"/><feBlend in2="shape" result="effect1_innerShadow_55_648"/></filter><filter id="g" width="510.699" height="166.498" x="957.652" y="141.32" color-interpolation-filters="sRGB" filterUnits="userSpaceOnUse"><feFlood flood-opacity="0" result="BackgroundImageFix"/><feBlend in="SourceGraphic" in2="BackgroundImageFix" result="shape"/><feGaussianBlur result="effect1_foregroundBlur_55_648" stdDeviation="2.518"/></filter><filter id="j" width="856.013" height="893.529" x="663.028" y="245.523" color-interpolation-filters="sRGB" filterUnits="userSpaceOnUse"><feFlood flood-opacity="0" result="BackgroundImageFix"/><feBlend in="SourceGraphic" in2="BackgroundImageFix" result="shape"/><feColorMatrix in="SourceAlpha" result="hardAlpha" values="0 0 0 0 0 0 0 0 0 0 0 0 0 0 0 0 0 0 127 0"/><feOffset dy="37.516"/><feGaussianBlur stdDeviation="18.758"/><feComposite in2="hardAlpha" k2="-1" k3="1" operator="arithmetic"/><feColorMatrix values="0 0 0 0 1 0 0 0 0 1 0 0 0 0 1 0 0 0 0.07 0"/><feBlend in2="shape" result="effect1_innerShadow_55_648"/></filter><filter id="k" width="460.808" height="169.857" x="966.389" y="240.213" color-interpolation-filters="sRGB" filterUnits="userSpaceOnUse"><feFlood flood-opacity="0" result="BackgroundImageFix"/><feBlend in="SourceGraphic" in2="BackgroundImageFix" result="shape"/><feGaussianBlur result="effect1_foregroundBlur_55_648" stdDeviation="2.658"/></filter><filter id="n" width="656.01" height="693.526" x="762.995" y="345.995" color-interpolation-filters="sRGB" filterUnits="userSpaceOnUse"><feFlood flood-opacity="0" result="BackgroundImageFix"/><feBlend in="SourceGraphic" in2="BackgroundImageFix" result="shape"/><feColorMatrix in="SourceAlpha" result="hardAlpha" values="0 0 0 0 0 0 0 0 0 0 0 0 0 0 0 0 0 0 127 0"/><feOffset dy="37.516"/><feGaussianBlur stdDeviation="18.758"/><feComposite in2="hardAlpha" k2="-1" k3="1" operator="arithmetic"/><feColorMatrix values="0 0 0 0 1 0 0 0 0 1 0 0 0 0 1 0 0 0 0.07 0"/><feBlend in2="shape" result="effect1_innerShadow_55_648"/></filter><filter id="o" width="483.007" height="495.585" x="849.497" y="432.497" color-interpolation-filters="sRGB" filterUnits="userSpaceOnUse"><feFlood flood-opacity="0" result="BackgroundImageFix"/><feBlend in="SourceGraphic" in2="BackgroundImageFix" result="shape"/><feColorMatrix in="SourceAlpha" result="hardAlpha" values="0 0 0 0 0 0 0 0 0 0 0 0 0 0 0 0 0 0 127 0"/><feOffset dy="26.078"/><feGaussianBlur stdDeviation="13.039"/><feComposite in2="hardAlpha" k2="-1" k3="1" operator="arithmetic"/><feColorMatrix values="0 0 0 0 1 0 0 0 0 1 0 0 0 0 1 0 0 0 0.07 0"/><feBlend in2="shape" result="effect1_innerShadow_55_648"/><feGaussianBlur result="effect2_foregroundBlur_55_648" stdDeviation="6.75"/></filter><filter id="q" width="456.007" height="482.085" x="862.997" y="445.997" color-interpolation-filters="sRGB" filterUnits="userSpaceOnUse"><feFlood flood-opacity="0" result="BackgroundImageFix"/><feBlend in="SourceGraphic" in2="BackgroundImageFix" result="shape"/><feColorMatrix in="SourceAlpha" result="hardAlpha" values="0 0 0 0 0 0 0 0 0 0 0 0 0 0 0 0 0 0 127 0"/><feOffset dy="26.078"/><feGaussianBlur stdDeviation="13.039"/><feComposite in2="hardAlpha" k2="-1" k3="1" operator="arithmetic"/><feColorMatrix values="0 0 0 0 1 0 0 0 0 1 0 0 0 0 1 0 0 0 0.07 0"/><feBlend in2="shape" result="effect1_innerShadow_55_648"/></filter><filter id="s" width="325.625" height="78.456" x="965.142" y="340.684" color-interpolation-filters="sRGB" filterUnits="userSpaceOnUse"><feFlood flood-opacity="0" result="BackgroundImageFix"/><feBlend in="SourceGraphic" in2="BackgroundImageFix" result="shape"/><feGaussianBlur result="effect1_foregroundBlur_55_648" stdDeviation="2.658"/></filter><filter id="u" width="302.005" height="316.244" x="939.998" y="522.998" color-interpolation-filters="sRGB" filterUnits="userSpaceOnUse"><feFlood flood-opacity="0" result="BackgroundImageFix"/><feBlend in="SourceGraphic" in2="BackgroundImageFix" result="shape"/><feColorMatrix in="SourceAlpha" result="hardAlpha" values="0 0 0 0 0 0 0 0 0 0 0 0 0 0 0 0 0 0 127 0"/><feOffset dy="14.24"/><feGaussianBlur stdDeviation="7.12"/><feComposite in2="hardAlpha" k2="-1" k3="1" operator="arithmetic"/><feColorMatrix values="0 0 0 0 1 0 0 0 0 1 0 0 0 0 1 0 0 0 0.07 0"/><feBlend in2="shape" result="effect1_innerShadow_55_648"/></filter><filter id="v" width="266.241" height="280.481" x="957.653" y="540.672" color-interpolation-filters="sRGB" filterUnits="userSpaceOnUse"><feFlood flood-opacity="0" result="BackgroundImageFix"/><feBlend in="SourceGraphic" in2="BackgroundImageFix" result="shape"/><feColorMatrix in="SourceAlpha" result="hardAlpha" values="0 0 0 0 0 0 0 0 0 0 0 0 0 0 0 0 0 0 127 0"/><feOffset dy="14.24"/><feGaussianBlur stdDeviation="7.12"/><feComposite in2="hardAlpha" k2="-1" k3="1" operator="arithmetic"/><feColorMatrix values="0 0 0 0 1 0 0 0 0 1 0 0 0 0 1 0 0 0 0.07 0"/><feBlend in2="shape" result="effect1_innerShadow_55_648"/></filter><linearGradient id="c" x1="1465.32" x2="1090" y1="170.138" y2="-77.832" gradientUnits="userSpaceOnUse"><stop stop-color="#e7ffca" stop-opacity=".6"/><stop offset=".126" stop-color="#6cb317"/><stop offset=".274" stop-color="#aff45b"/><stop offset=".609" stop-color="#60a50c"/><stop offset=".939" stop-color="#549900" stop-opacity=".02"/></linearGradient><linearGradient id="d" x1="1465.32" x2="1090" y1="170.138" y2="-77.832" gradientUnits="userSpaceOnUse"><stop stop-color="#e7ffca" stop-opacity=".6"/><stop offset=".126" stop-color="#6cb317"/><stop offset=".274" stop-color="#aff45b"/><stop offset=".609" stop-color="#60a50c"/><stop offset=".939" stop-color="#549900" stop-opacity=".02"/></linearGradient><linearGradient id="h" x1="1380.57" x2="1036.74" y1="218.488" y2="199.908" gradientUnits="userSpaceOnUse"><stop stop-color="#599f02" stop-opacity="0"/><stop offset=".126" stop-color="#6cb317"/><stop offset=".274" stop-color="#aff45b"/><stop offset=".609" stop-color="#60a50c"/><stop offset=".939" stop-color="#549900" stop-opacity=".02"/></linearGradient><linearGradient id="i" x1="1380.57" x2="1036.75" y1="218.487" y2="199.907" gradientUnits="userSpaceOnUse"><stop stop-color="#599f02" stop-opacity="0"/><stop offset=".126" stop-color="#6cb317"/><stop offset=".274" stop-color="#aff45b"/><stop offset=".609" stop-color="#60a50c"/><stop offset=".939" stop-color="#549900" stop-opacity=".02"/></linearGradient><linearGradient id="l" x1="1323.18" x2="935.34" y1="269.728" y2="84.762" gradientUnits="userSpaceOnUse"><stop stop-color="#599f02" stop-opacity="0"/><stop offset=".126" stop-color="#6cb317"/><stop offset=".274" stop-color="#aff45b"/><stop offset=".609" stop-color="#60a50c"/><stop offset=".939" stop-color="#549900" stop-opacity=".02"/></linearGradient><linearGradient id="m" x1="1323.18" x2="1004.36" y1="269.728" y2="136.727" gradientUnits="userSpaceOnUse"><stop stop-color="#599f02" stop-opacity="0"/><stop offset=".126" stop-color="#6cb317"/><stop offset=".274" stop-color="#aff45b"/><stop offset=".609" stop-color="#60a50c"/><stop offset=".939" stop-color="#549900" stop-opacity=".02"/></linearGradient><linearGradient id="p" x1="1308" x2="1065" y1="577" y2="832" gradientUnits="userSpaceOnUse"><stop stop-color="#8cff00"/><stop offset="1" stop-color="#549900" stop-opacity="0"/></linearGradient><linearGradient id="r" x1="1297" x2="1031" y1="586" y2="752" gradientUnits="userSpaceOnUse"><stop stop-color="#8cff00"/><stop offset="1" stop-color="#549900" stop-opacity="0"/></linearGradient><linearGradient id="t" x1="1230.72" x2="1044.79" y1="391.082" y2="206.444" gradientUnits="userSpaceOnUse"><stop stop-color="#599f02" stop-opacity="0"/><stop offset=".126" stop-color="#6cb317"/><stop offset=".274" stop-color="#aff45b"/><stop offset=".609" stop-color="#60a50c"/><stop offset=".939" stop-color="#549900" stop-opacity=".02"/></linearGradient><linearGradient id="w" x1="1091" x2="1091" y1="617.001" y2="727.6" gradientUnits="userSpaceOnUse"><stop stop-color="#fff"/><stop offset="1" stop-color="#89f801"/></linearGradient></defs></svg>