<svg xmlns="http://www.w3.org/2000/svg" width="137" height="31" fill="none" viewBox="0 0 137 31"><path fill="#fff" d="m14.614 6.303 3.804-3.938v8.075h-1.001l1.001 1v10.45h-1.985v4.297l-1.552 1.004v-8.744l2.735-2.736h-2.135l-2.658 1.535-2.813-1.625v-2.78h5.138l-2.543-1.467h-6.8L3.27 12.842h4.87v8.074h2.194l2.945 2.379v2.826l1.279 1.278-5.349 3.463-7.225-4.674V21.89H.226l-.12-10.356L1.2 10.44H.094L0 2.365l3.804 3.938L9.209 0zM9.142 26.25l.868-.867H8.274zm-2.803-1.936h5.74l-1.402-1.133H7.874zm-3.536-8.67-.735.733 3.203 3.537.935-.8v-2.003h-1.87zh5.071L6.673 14.51H3.938zm7.807-.024h4.538l-1.046-1.044h-2.424z"/><path fill="#fff" d="m9.217 8.937-1.21-2.094 1.21-2.095 1.21 2.095z"/><path stroke="#fff" stroke-width=".279" d="m7.96 6.843 1.257.725 1.257-.725"/><path fill="#fff" d="M32.103 24.541 27.587 11.23h3.198l2.674 8.565q.078.194.155.542.098.33.194.698.097.368.155.659h.116q.039-.233.097-.504.078-.27.136-.543.057-.27.116-.484.058-.233.097-.368l2.48-8.565h4.05l2.5 8.565q.058.194.136.542.096.33.174.698.097.368.136.659h.116q.059-.213.116-.465.078-.272.155-.524.078-.27.136-.503a6 6 0 0 1 .116-.407l2.694-8.565h2.887l-4.534 13.31h-3.605l-2.654-8.72q-.078-.27-.175-.62a19 19 0 0 1-.174-.717 44 44 0 0 1-.097-.64h-.097q-.039.29-.136.679-.096.367-.194.717a6 6 0 0 1-.154.581l-2.558 8.72zm17.669 0 6.666-13.312h3.333l6.666 13.312H63.2l-1.26-2.577h-7.887l-1.26 2.577zm5.445-4.96h5.561l-1.55-3.256a41 41 0 0 0-.29-.62 24 24 0 0 0-.369-.853 9 9 0 0 0-.33-.755 3 3 0 0 0-.154-.35h-.155q-.174.389-.407.892-.213.504-.426.97-.195.465-.33.735zm20.273 5.193q-4.032 0-6.046-1.705-2.016-1.706-2.016-5.174 0-2.268 1.027-3.798 1.027-1.55 2.965-2.326 1.958-.775 4.67-.775 1.764 0 3.217.31 1.453.291 2.5.91 1.066.602 1.627 1.532.582.93.582 2.19h-2.868q0-.699-.407-1.183T79.636 14a6.2 6.2 0 0 0-1.589-.407 12 12 0 0 0-1.84-.136q-1.24 0-2.306.252-1.047.232-1.822.756a3.5 3.5 0 0 0-1.201 1.298q-.427.795-.427 1.88v.465q0 1.512.66 2.441.657.911 1.86 1.338 1.22.426 2.867.426 1.822 0 2.985-.33 1.182-.33 1.744-.95.58-.62.58-1.452v-.155h-5.386V17.1h8.274v7.441h-1.821l-.31-1.744a5.8 5.8 0 0 1-1.725 1.144 9.2 9.2 0 0 1-2.19.62q-1.182.213-2.5.213m12.145-.233V11.23H101.1v2.46H90.579v2.85h9.36V19h-9.36v3.081h10.677v2.461zm16.785 0V11.23h10.542q1.414 0 2.306.581a3.5 3.5 0 0 1 1.356 1.511q.446.93.446 2.074 0 1.181-.62 2.228-.601 1.027-1.88 1.609l2.829 5.31h-3.313l-2.442-4.748h-6.278v4.747zm2.946-7.189h6.782q.91 0 1.395-.523.504-.542.504-1.376 0-.562-.213-.95a1.32 1.32 0 0 0-.64-.6q-.426-.213-1.046-.213h-6.782z"/><path fill="#fff" fill-rule="evenodd" d="m129.403 24.793-5.99.036c-.633.004-.791.075-.801-.272-.004-.126.012-.308.032-.57a5.2 5.2 0 0 1 .308-1.41c.985-3.275 3.768-4.394 5.604-4.728-1.809-.328-4.538-1.42-5.559-4.585a5.2 5.2 0 0 1-.353-1.521c-.021-.276-.038-.463-.031-.59l-.001-.011h.001c.019-.311.187-.245.8-.24q2.996.017 5.99.036c1.365.008 2.035.029 3.327.655 5.128 2.487 5.128 10.057 0 12.544-1.292.627-1.962.647-3.327.656m-1.357-6.375-.059.04-.14.105c-.419.326-.758.754-.892 1.291-.266 1.067.164 1.725 1.159 2.134l.043.017.013.005.033.011.015.006.032.01.015.005.041.013.007.002q.022.008.048.013l.015.005.034.008.019.005.052.012.039.009.012.002.052.01.018.004.036.006.02.003.035.006.021.003.038.005.018.003.074.008.036.004.026.002.032.003.026.002.059.005.054.003.029.001.061.002.029.001h.032l.026.001h.149l.037-.001h.023l.038-.002h.021l.141-.008.014-.001.043-.004.018-.001.044-.004.013-.001.209-.024.013-.002.05-.006.005-.001a6 6 0 0 0 .221-.037h.004l.053-.01.004-.002q.14-.027.278-.062c.278-.071.549-.165.798-.28.729-.374 1.449-.986 2.08-1.988.412-.726 1.11-1.598 1.899-1.884-.789-.286-1.487-1.158-1.899-1.883-.871-1.384-1.912-2.024-2.911-2.318-.894-.218-1.863-.205-2.465.043-.995.408-1.425 1.066-1.158 2.133.171.685.674 1.193 1.253 1.538q.08.048.163.092c.392.19 1.112.397 1.098.414-.254.059-1.093.313-1.444.534" clip-rule="evenodd"/></svg>