<svg xmlns="http://www.w3.org/2000/svg" width="813" height="727" fill="none" viewBox="0 0 813 727"><g opacity=".35"><g filter="url(#a)"><circle cx="209.768" cy="209.768" r="209.768" fill="#fff" fill-opacity=".04" transform="matrix(.5 .86603 -1 0 524.419 181.664)"/></g><path stroke="#fff" stroke-opacity=".12" stroke-width="2.061" d="M628.273 363.328C685.914 463.165 639.186 544.1 523.904 544.1s-255.465-80.934-313.106-180.772-10.913-180.772 104.369-180.772 255.465 80.935 313.106 180.772Z"/></g><g opacity=".35"><g filter="url(#b)"><circle cx="161.825" cy="161.825" r="161.825" fill="#fff" fill-opacity=".04" transform="matrix(.5 .86603 -1 0 500.448 223.184)"/></g><path stroke="#fff" stroke-opacity=".12" stroke-width="2.061" d="M580.33 363.328c44.402 76.907 8.406 139.252-80.398 139.252s-196.788-62.345-241.191-139.252c-44.402-76.906-8.407-139.252 80.397-139.252s196.79 62.346 241.192 139.252Z"/></g><g filter="url(#c)"><path fill="url(#d)" d="M347.018 224.913a196 196 0 0 0-7.483-.149c-58.703 0-94.214 27.379-98.487 68.196l-2.008-.792c2.266-21.956 13.441-39.968 32.321-52.097 18.881-12.129 44.752-17.915 74.829-16.737z"/></g><g filter="url(#e)"><path fill="url(#f)" d="m347.017 224.911-.039.999 1.726.067-.801-1.53zm-7.482-.147v-1zm-98.489 68.195-.367.931 1.225.482.137-1.309zm-2.007-.791-.995-.103-.078.755.706.278zm32.322-52.097-.54-.841zm74.829-16.738.886-.464-.269-.513-.578-.022zm.827 1.578.038-.999a194 194 0 0 0-7.52-.148v2q3.7.001 7.443.146zm-7.482-.147v-1c-29.498 0-53.272 6.878-70.236 18.977-16.983 12.113-27.081 29.42-29.247 50.114l.994.104.995.104c2.106-20.122 11.902-36.913 28.419-48.694 16.537-11.794 39.87-18.605 69.075-18.605zm-98.489 68.195.367-.93-2.007-.791-.367.93-.367.93 2.007.792zm-2.007-.791.995.103c2.234-21.648 13.238-39.391 31.868-51.358l-.541-.842-.54-.841c-19.131 12.29-30.478 30.571-32.777 52.835zm32.322-52.097.541.842c18.658-11.986 44.307-17.754 74.249-16.581l.039-.999.039-.999c-30.214-1.184-56.306 4.624-75.408 16.896zm74.829-16.738-.886.464.827 1.578.886-.464.886-.464-.827-1.578z"/></g><g filter="url(#g)"><circle cx="132.568" cy="132.568" r="132.568" fill="#0b0c0d" transform="matrix(.5 .86603 -1 0 486 249)"/></g><path stroke="#fff" stroke-opacity=".12" stroke-width=".782" d="M551.893 363.808c36.499 63.218 6.91 114.467-66.089 114.467S324.04 427.026 287.54 363.808c-36.5-63.219-6.911-114.469 66.087-114.469 73 0 161.766 51.249 198.266 114.469Z"/><g filter="url(#h)"><path fill="url(#i)" d="M424.939 262.993c24.762 9.183 48.91 22.445 70.235 38.571l-1.454 1.198c-41.058-31.012-93.188-51.539-139.004-51.539L353.432 249c22.161 0 46.746 4.811 71.507 13.993"/></g><g filter="url(#j)"><path fill="url(#k)" d="m424.939 262.994.348-.938zm70.235 38.57.636.772.977-.806-1.01-.764zm-1.454 1.199-.603.798.63.476.609-.502zm-139.004-51.54-.5.866.232.134h.268zm-.001 0-.866.5.134.232.232.134zM353.432 249v-1H351.7l.866 1.5zm71.507 13.994-.347.938c24.668 9.148 48.731 22.361 69.979 38.43l.603-.798.603-.798c-21.402-16.184-45.636-29.493-70.49-38.71zm70.235 38.57-.636-.772-1.454 1.199.636.772.636.772 1.454-1.199zm-1.454 1.199.602-.798c-41.187-31.11-93.523-51.742-139.606-51.742v2c45.549 0 97.473 20.423 138.401 51.338zm-139.004-51.54.5-.866h-.001zl-.5.866h.001zm-.001 0 .866-.5-1.283-2.223-.866.5-.866.5 1.283 2.223zM353.432 249v1c22.022 0 46.489 4.783 71.16 13.932l.347-.938.348-.938C400.435 252.84 375.732 248 353.432 248z"/></g><g filter="url(#l)"><path fill="url(#m)" d="m341.947 426.507-.63.777zm68.983 40.767.988.154-.195 1.251-1.172-.48zm.29-1.863.379-.925.731.299-.122.78zM296.027 372.09l.49-.872.234.132.136.23zm-.001 0-.011-1 .268-.003.233.131zm-2.566.028-.861.51-.883-1.49 1.732-.02zm48.487 54.389.629-.777c20.445 16.56 44.078 30.527 68.733 40.618l-.379.926-.379.925c-24.833-10.164-48.635-24.23-69.234-40.915zm68.983 40.767-.988-.154.29-1.863.988.154.988.154-.29 1.863zm.29-1.863-.379.925c-47.759-19.578-92.186-54.089-115.675-93.736l.861-.51.86-.51c23.217 39.188 67.254 73.451 114.712 92.906zM296.027 372.09l-.49.872-.001-.001zl.49-.872h.001zm-.001 0 .011.999-2.566.029-.011-1-.012-1 2.567-.028zm-2.566.028.86-.509c11.225 18.946 27.81 37.558 48.256 54.121l-.629.777-.63.777c-20.596-16.684-37.351-35.47-48.718-54.656z"/></g><path fill="#000" fill-opacity=".12" d="m387.441 358.734 11.307-11.703v24.001h-2.975l2.975 2.974v31.065h-5.899v12.777l-4.614 2.984v-25.995l8.134-8.134h-6.348l-7.902 4.563-8.364-4.828v-8.264h15.274l-7.558-4.364h-20.213l-7.537 4.364h14.48v24.002h6.519l8.755 7.071v8.401l3.802 3.803-15.903 10.292-21.475-13.895v-12.777h-5.23l-.356-30.783 3.258-3.257h-3.295l-.276-24 11.307 11.703L371.374 340zm-16.264 59.302 2.578-2.579h-5.157zm-8.332-5.753h17.059l-4.165-3.372h-8.332zm-12.696-23.595 9.522 10.512 2.777-2.38v-5.951h-5.554l-4.562-4.364h15.075l-3.57-3.372h-8.133zm25.391-2.25h13.489l-3.105-3.107h-7.21z"/><g opacity=".35"><g filter="url(#n)"><path fill="#fff" fill-opacity=".04" d="M197.043 234.873c-20.48 35.472-14.117 81.964 12.725 128.456l-8.741 15.139c-26.842-46.492-33.204-92.984-12.724-128.456z"/></g><path stroke="#fff" stroke-opacity=".12" stroke-width="2.061" d="M188.415 251.909c-10.429 32.843-2.345 72.208 20.165 111.416l-7.547 13.072c-25.654-45.204-31.671-90.039-12.618-124.488Z"/></g><g opacity=".35"><g filter="url(#o)"><path fill="#fff" fill-opacity=".04" d="M209.768 363.329c57.926 100.33 198.8 181.664 314.651 181.664l-8.74 15.139c-115.851 0-256.726-81.334-314.652-181.664z"/></g><path stroke="#fff" stroke-opacity=".12" stroke-width="2.061" d="M515.086 559.097c-57.547-.138-121.309-20.37-177.94-53.066S231.113 428.232 202.22 378.463l7.553-13.083c29.196 49.748 78.609 94.692 135.083 127.297s120.104 52.926 177.784 53.337z"/></g><g opacity=".35"><g filter="url(#p)"><path fill="#fff" fill-opacity=".04" d="M642.028 491.785c-20.48 35.472-63.924 53.208-117.609 53.208l-8.74 15.139c53.684 0 97.129-17.736 117.609-53.208z"/></g><path stroke="#fff" stroke-opacity=".12" stroke-width="2.061" d="M631.588 507.775c-20.307 33.724-62.144 50.931-114.119 51.317l7.547-13.071c45.21-.111 83.343-12.793 106.572-38.246Z"/></g><path fill="url(#q)" fill-opacity=".92" d="m375.874 320.178 41.235 11.509 3.214-16.015 24.885 23.255-4.039 1.23 7.125 1.653 32.207 30.098-8.009 2.44 13.247 12.379-3.168 4.799-26.953-25.187 2.608-11.243-8.617 2.625-5.997 7.687-16.36-1.22-8.568-8.006 20.735-6.316-14.786-1.103-27.439 8.357-5.708 7.345 19.658-5.987 24.886 23.256 8.848-2.695 19.218 3.231 8.711 8.14 9.106 2.113-10.919 16.546-.001-.001-43.557-4.584-13.247-12.379-7.1 2.163-32.401-29.68 1.045-4.501-4.471 1.362-25.26-23.141 27.484 6.665zm80.639 75.692.827-3.564-7.002 2.133zm-17.274-2.128 23.159-7.054-9.152-1.545-11.31 3.444zm-41-20.631-.699 3.016 23.825 6.249 1.302-3.454-6.17-5.766-7.54 2.297zl20.466-6.234-8.344-1.791-11.04 3.363zm31.436-9.661 18.312-5.577-7.438-1.726-9.786 2.981z"/><defs><filter id="a" width="469.158" height="400.844" x="184.957" y="181.664" color-interpolation-filters="sRGB" filterUnits="userSpaceOnUse"><feFlood flood-opacity="0" result="BackgroundImageFix"/><feBlend in="SourceGraphic" in2="BackgroundImageFix" result="shape"/><feColorMatrix in="SourceAlpha" result="hardAlpha" values="0 0 0 0 0 0 0 0 0 0 0 0 0 0 0 0 0 0 127 0"/><feOffset dy="37.516"/><feGaussianBlur stdDeviation="18.758"/><feComposite in2="hardAlpha" k2="-1" k3="1" operator="arithmetic"/><feColorMatrix values="0 0 0 0 1 0 0 0 0 1 0 0 0 0 1 0 0 0 0.07 0"/><feBlend in2="shape" result="effect1_innerShadow_922_971"/></filter><filter id="b" width="361.931" height="317.805" x="238.57" y="223.184" color-interpolation-filters="sRGB" filterUnits="userSpaceOnUse"><feFlood flood-opacity="0" result="BackgroundImageFix"/><feBlend in="SourceGraphic" in2="BackgroundImageFix" result="shape"/><feColorMatrix in="SourceAlpha" result="hardAlpha" values="0 0 0 0 0 0 0 0 0 0 0 0 0 0 0 0 0 0 127 0"/><feOffset dy="37.516"/><feGaussianBlur stdDeviation="18.758"/><feComposite in2="hardAlpha" k2="-1" k3="1" operator="arithmetic"/><feColorMatrix values="0 0 0 0 1 0 0 0 0 1 0 0 0 0 1 0 0 0 0.07 0"/><feBlend in2="shape" result="effect1_innerShadow_922_971"/></filter><filter id="c" width="118.609" height="80.407" x="233.724" y="217.869" color-interpolation-filters="sRGB" filterUnits="userSpaceOnUse"><feFlood flood-opacity="0" result="BackgroundImageFix"/><feBlend in="SourceGraphic" in2="BackgroundImageFix" result="shape"/><feGaussianBlur result="effect1_foregroundBlur_922_971" stdDeviation="2.658"/></filter><filter id="e" width="110.738" height="98.267" x="237.966" y="222.184" color-interpolation-filters="sRGB" filterUnits="userSpaceOnUse"><feFlood flood-opacity="0" result="BackgroundImageFix"/><feBlend in="SourceGraphic" in2="BackgroundImageFix" result="shape"/><feColorMatrix in="SourceAlpha" result="hardAlpha" values="0 0 0 0 0 0 0 0 0 0 0 0 0 0 0 0 0 0 127 0"/><feOffset dy="26.078"/><feGaussianBlur stdDeviation="13.039"/><feComposite in2="hardAlpha" k2="-1" k3="1" operator="arithmetic"/><feColorMatrix values="0 0 0 0 1 0 0 0 0 1 0 0 0 0 1 0 0 0 0.07 0"/><feBlend in2="shape" result="effect1_innerShadow_922_971"/></filter><filter id="g" width="296.496" height="243.854" x="271.468" y="249" color-interpolation-filters="sRGB" filterUnits="userSpaceOnUse"><feFlood flood-opacity="0" result="BackgroundImageFix"/><feBlend in="SourceGraphic" in2="BackgroundImageFix" result="shape"/><feColorMatrix in="SourceAlpha" result="hardAlpha" values="0 0 0 0 0 0 0 0 0 0 0 0 0 0 0 0 0 0 127 0"/><feOffset dy="14.24"/><feGaussianBlur stdDeviation="7.12"/><feComposite in2="hardAlpha" k2="-1" k3="1" operator="arithmetic"/><feColorMatrix values="0 0 0 0 1 0 0 0 0 1 0 0 0 0 1 0 0 0 0.07 0"/><feBlend in2="shape" result="effect1_innerShadow_922_971"/></filter><filter id="h" width="152.374" height="64.394" x="348.116" y="243.684" color-interpolation-filters="sRGB" filterUnits="userSpaceOnUse"><feFlood flood-opacity="0" result="BackgroundImageFix"/><feBlend in="SourceGraphic" in2="BackgroundImageFix" result="shape"/><feGaussianBlur result="effect1_foregroundBlur_922_971" stdDeviation="2.658"/></filter><filter id="j" width="145.087" height="82.115" x="351.7" y="248" color-interpolation-filters="sRGB" filterUnits="userSpaceOnUse"><feFlood flood-opacity="0" result="BackgroundImageFix"/><feBlend in="SourceGraphic" in2="BackgroundImageFix" result="shape"/><feColorMatrix in="SourceAlpha" result="hardAlpha" values="0 0 0 0 0 0 0 0 0 0 0 0 0 0 0 0 0 0 127 0"/><feOffset dy="26.078"/><feGaussianBlur stdDeviation="13.039"/><feComposite in2="hardAlpha" k2="-1" k3="1" operator="arithmetic"/><feColorMatrix values="0 0 0 0 1 0 0 0 0 1 0 0 0 0 1 0 0 0 0.07 0"/><feBlend in2="shape" result="effect1_innerShadow_922_971"/></filter><filter id="l" width="120.613" height="123.67" x="291.716" y="371.087" color-interpolation-filters="sRGB" filterUnits="userSpaceOnUse"><feFlood flood-opacity="0" result="BackgroundImageFix"/><feBlend in="SourceGraphic" in2="BackgroundImageFix" result="shape"/><feColorMatrix in="SourceAlpha" result="hardAlpha" values="0 0 0 0 0 0 0 0 0 0 0 0 0 0 0 0 0 0 127 0"/><feOffset dy="26.078"/><feGaussianBlur stdDeviation="13.039"/><feComposite in2="hardAlpha" k2="-1" k3="1" operator="arithmetic"/><feColorMatrix values="0 0 0 0 1 0 0 0 0 1 0 0 0 0 1 0 0 0 0.07 0"/><feBlend in2="shape" result="effect1_innerShadow_922_971"/></filter><filter id="n" width="33.564" height="181.111" x="176.204" y="234.873" color-interpolation-filters="sRGB" filterUnits="userSpaceOnUse"><feFlood flood-opacity="0" result="BackgroundImageFix"/><feBlend in="SourceGraphic" in2="BackgroundImageFix" result="shape"/><feColorMatrix in="SourceAlpha" result="hardAlpha" values="0 0 0 0 0 0 0 0 0 0 0 0 0 0 0 0 0 0 127 0"/><feOffset dy="37.516"/><feGaussianBlur stdDeviation="18.758"/><feComposite in2="hardAlpha" k2="-1" k3="1" operator="arithmetic"/><feColorMatrix values="0 0 0 0 1 0 0 0 0 1 0 0 0 0 1 0 0 0 0.07 0"/><feBlend in2="shape" result="effect1_innerShadow_922_971"/></filter><filter id="o" width="323.392" height="234.319" x="201.027" y="363.329" color-interpolation-filters="sRGB" filterUnits="userSpaceOnUse"><feFlood flood-opacity="0" result="BackgroundImageFix"/><feBlend in="SourceGraphic" in2="BackgroundImageFix" result="shape"/><feColorMatrix in="SourceAlpha" result="hardAlpha" values="0 0 0 0 0 0 0 0 0 0 0 0 0 0 0 0 0 0 127 0"/><feOffset dy="37.516"/><feGaussianBlur stdDeviation="18.758"/><feComposite in2="hardAlpha" k2="-1" k3="1" operator="arithmetic"/><feColorMatrix values="0 0 0 0 1 0 0 0 0 1 0 0 0 0 1 0 0 0 0.07 0"/><feBlend in2="shape" result="effect1_innerShadow_922_971"/></filter><filter id="p" width="126.349" height="105.863" x="515.679" y="491.785" color-interpolation-filters="sRGB" filterUnits="userSpaceOnUse"><feFlood flood-opacity="0" result="BackgroundImageFix"/><feBlend in="SourceGraphic" in2="BackgroundImageFix" result="shape"/><feColorMatrix in="SourceAlpha" result="hardAlpha" values="0 0 0 0 0 0 0 0 0 0 0 0 0 0 0 0 0 0 127 0"/><feOffset dy="37.516"/><feGaussianBlur stdDeviation="18.758"/><feComposite in2="hardAlpha" k2="-1" k3="1" operator="arithmetic"/><feColorMatrix values="0 0 0 0 1 0 0 0 0 1 0 0 0 0 1 0 0 0 0.07 0"/><feBlend in2="shape" result="effect1_innerShadow_922_971"/></filter><linearGradient id="d" x1="71.447" x2="-82.995" y1="-65.091" y2="34.7" gradientUnits="userSpaceOnUse"><stop stop-color="#599f02" stop-opacity="0"/><stop offset=".126" stop-color="#6cb317"/><stop offset=".274" stop-color="#aff45b"/><stop offset=".609" stop-color="#60a50c"/><stop offset=".939" stop-color="#549900" stop-opacity=".02"/></linearGradient><linearGradient id="f" x1="315.95" x2="251.376" y1="237.253" y2="250.356" gradientUnits="userSpaceOnUse"><stop stop-color="#8cff00"/><stop offset="1" stop-color="#549900" stop-opacity="0"/></linearGradient><linearGradient id="i" x1="499" x2="345.422" y1="275" y2="229.89" gradientUnits="userSpaceOnUse"><stop stop-color="#599f02" stop-opacity="0"/><stop offset=".126" stop-color="#6cb317"/><stop offset=".274" stop-color="#aff45b"/><stop offset=".609" stop-color="#60a50c"/><stop offset=".939" stop-color="#549900" stop-opacity=".02"/></linearGradient><linearGradient id="k" x1="379.5" x2="398.169" y1="252" y2="231.191" gradientUnits="userSpaceOnUse"><stop stop-color="#8cff00"/><stop offset="1" stop-color="#549900" stop-opacity="0"/></linearGradient><linearGradient id="m" x1="309.327" x2="300.94" y1="393.017" y2="419.685" gradientUnits="userSpaceOnUse"><stop stop-color="#dbe2d3"/><stop offset="1" stop-color="#dbe2d3" stop-opacity="0"/></linearGradient><linearGradient id="q" x1="375.873" x2="408.723" y1="320.178" y2="428.035" gradientUnits="userSpaceOnUse"><stop stop-color="#fff"/><stop offset="1" stop-color="#89f801"/></linearGradient></defs></svg>