<svg xmlns="http://www.w3.org/2000/svg" width="65" height="64" fill="none" viewBox="0 0 65 64"><path fill="#d4ccc0" d="M2.17 56a6 6 0 0 0 6 6h6v2h-6a8 8 0 0 1-8-8v-5.5h2zm62 0a8 8 0 0 1-8 8h-6v-2h6a6 6 0 0 0 6-6v-5.5h2zm-8-56a8 8 0 0 1 8 8v6.5h-2V8a6 6 0 0 0-6-6h-6V0zm-42 2h-6a6 6 0 0 0-6 6v6.5h-2V8a8 8 0 0 1 8-8h6z"/><g filter="url(#a)"><rect width="56" height="56" x="3.669" y="4" fill="url(#b)" rx="6"/></g><rect width="55" height="55" x="4.169" y="4.5" stroke="#fff" rx="5.5"/><path fill="url(#c)" d="M48.64 31.505a3.37 3.37 0 0 0-4.398.113L42.31 33.38c-1.18 1.076-3.184.71-4.78.71h-4.4a4.5 4.5 0 0 1-1.591-.28c-1.243-.462-3.7-1.08-6.169-.062a5.6 5.6 0 0 0-1.394.865l-2.53 2.116c-1.06.887-2.914.765-3.892 1.742l-1.962 1.968a1.75 1.75 0 0 0 0 2.48l6.562 6.562c.68.68 1.794.68 2.48 0l1.962-1.968a1.75 1.75 0 0 0 0-2.48.087.087 0 0 1 0-.123l.41-.411c.895-.894 2.098-1.366 3.307-1.282a31 31 0 0 0 8.744-.692 5.46 5.46 0 0 0 2.677-1.473l7.029-7.029a1.706 1.706 0 0 0-.124-2.519m-.67 1.72-7.028 7.035c-.59.585-1.322.99-2.126 1.17-2.8.624-5.634.849-8.429.663-1.53-.1-3.053.49-4.172 1.609a.67.67 0 0 1-.948-.001c-3.283-3.308-4.328-4.358-4.616-4.652l-.042-.04-.025-.027a.05.05 0 0 1 .003-.07l4.11-3.431c.365-.31.736-.54 1.102-.692 2.12-.872 4.262-.326 5.347.079.63.23 1.3.349 1.985.349h4.398c1.158 0 2.063.939 2.052 2.063a.63.63 0 0 1-.635.619H29.06a.564.564 0 0 0-.562.562.56.56 0 0 0 .562.562h9.885c.962 0 1.755-.776 1.76-1.732 0-.52.14-1.056.525-1.407l3.772-3.434a2.24 2.24 0 0 1 2.923-.073.57.57 0 0 1 .046.849"/><path fill="#000" d="M34.427 31.898c4.301 0 7.802-3.5 7.803-7.8a.563.563 0 0 0-.563-.563h-6.675V16.86a.564.564 0 0 0-.565-.563c-4.3 0-7.798 3.498-7.798 7.798 0 4.303 3.499 7.803 7.798 7.803m-.56-14.453v6.652c0 .311.252.563.562.563h6.652a6.687 6.687 0 0 1-6.654 6.113c-3.68 0-6.673-2.995-6.673-6.678a6.683 6.683 0 0 1 6.113-6.65"/><path fill="#000" d="M44.518 21.805a.56.56 0 0 1-.562.562h-7.237a.564.564 0 0 1-.562-.562v-7.237c0-.31.253-.562.562-.562 4.301 0 7.799 3.497 7.799 7.799"/><defs><linearGradient id="b" x1="7.753" x2="51.068" y1="37.6" y2="11.548" gradientUnits="userSpaceOnUse"><stop stop-color="#ede8e1"/><stop offset=".598" stop-color="#f8f6f3"/><stop offset="1" stop-color="#ede8e1"/></linearGradient><linearGradient id="c" x1="24.645" x2="52.282" y1="90.895" y2="89.705" gradientUnits="userSpaceOnUse"><stop stop-color="#549900"/><stop offset=".66" stop-color="#62a214"/><stop offset=".75" stop-color="#92d541"/><stop offset=".841" stop-color="#62a214"/><stop offset="1" stop-color="#549900"/></linearGradient><filter id="a" width="60" height="72" x="3.669" y="4" color-interpolation-filters="sRGB" filterUnits="userSpaceOnUse"><feFlood flood-opacity="0" result="BackgroundImageFix"/><feBlend in="SourceGraphic" in2="BackgroundImageFix" result="shape"/><feColorMatrix in="SourceAlpha" result="hardAlpha" values="0 0 0 0 0 0 0 0 0 0 0 0 0 0 0 0 0 0 127 0"/><feOffset dx="4" dy="16"/><feGaussianBlur stdDeviation="8"/><feComposite in2="hardAlpha" k2="-1" k3="1" operator="arithmetic"/><feColorMatrix values="0 0 0 0 1 0 0 0 0 1 0 0 0 0 1 0 0 0 0.6 0"/><feBlend in2="shape" result="effect1_innerShadow_112_923"/><feColorMatrix in="SourceAlpha" result="hardAlpha" values="0 0 0 0 0 0 0 0 0 0 0 0 0 0 0 0 0 0 127 0"/><feOffset dy="2"/><feGaussianBlur stdDeviation="1"/><feComposite in2="hardAlpha" k2="-1" k3="1" operator="arithmetic"/><feColorMatrix values="0 0 0 0 1 0 0 0 0 1 0 0 0 0 1 0 0 0 1 0"/><feBlend in2="effect1_innerShadow_112_923" result="effect2_innerShadow_112_923"/></filter></defs></svg>