<svg xmlns="http://www.w3.org/2000/svg" width="29" height="48" fill="none" viewBox="0 0 29 48"><path fill="#fff" d="M14.322 17.69H9.028l-3.943 2.283h7.576V32.53h1.661v3.524h-2.076L9.86 37.818h4.463v1.66H12.87l1.35 1.35.103-.104V48L3.087 40.73v-6.685H.35L.164 17.939l1.704-1.703H.145L0 3.68l5.916 6.123L14.322 0zm6.33 18.54v4.396l1.99 1.99L14.324 48v-7.277l1.244-1.245h-1.244v-1.66h4.462l-2.18-1.764h-2.282V32.53h1.748zM22.73 9.802l5.915-6.123v12.557h-1.557l1.557 1.558v16.25H25.56v6.686l-2.415 1.562V28.69l4.254-4.254h-3.32l-4.135 2.386-4.376-2.526v-4.323h7.992l-3.956-2.283h-5.28V0zM3.217 25.474l4.981 5.5 1.453-1.245v-3.114H6.746l-2.388-2.283h7.888l-1.868-1.765H6.123zM16.5 24.296h7.058l-1.625-1.625h-3.772z"/><path fill="#1b380e" d="m14.335 13.9-1.88-3.257 1.88-3.258 1.881 3.258z"/><path stroke="#fff" stroke-width=".434" d="m12.38 10.643 1.955 1.128 1.954-1.128"/></svg>