<svg xmlns="http://www.w3.org/2000/svg" width="65" height="64" fill="none" viewBox="0 0 65 64"><path fill="#d4ccc0" d="M2.17 56a6 6 0 0 0 6 6h6v2h-6a8 8 0 0 1-8-8v-5.5h2zm62 0a8 8 0 0 1-8 8h-6v-2h6a6 6 0 0 0 6-6v-5.5h2zm-8-56a8 8 0 0 1 8 8v6.5h-2V8a6 6 0 0 0-6-6h-6V0zm-42 2h-6a6 6 0 0 0-6 6v6.5h-2V8a8 8 0 0 1 8-8h6z"/><g filter="url(#a)"><rect width="56" height="56" x="3.669" y="4" fill="url(#b)" rx="6"/></g><rect width="55" height="55" x="4.169" y="4.5" stroke="#fff" rx="5.5"/><g clip-path="url(#c)"><path fill="#000" d="M41.16 36.231h8.582v-6.899H41.16zm3.893-4.774c.625 0 1.132.594 1.132 1.324 0 .732-.507 1.323-1.132 1.323-.626 0-1.133-.591-1.133-1.323.001-.73.507-1.323 1.133-1.323"/><path fill="#000" d="M40.523 28.059h9.219v-5.113c0-1.24-.875-2.251-1.95-2.251h-1.913l-.78-4.355c-.158-.888-.63-1.627-1.292-2.03a2.03 2.03 0 0 0-1.676-.219L21.163 20.59c-.548.169-1.033.573-1.365 1.137l.017.01c-.195.35-.312.764-.312 1.21v10.561a9.6 9.6 0 0 1 2.678-.383c5.198 0 9.427 4.122 9.427 9.189a9 9 0 0 1-.329 2.402h16.512c1.076 0 1.95-1.01 1.95-2.251v-4.96h-9.218a.637.637 0 0 1-.637-.636v-8.173c0-.352.286-.637.637-.637m-15.4-7.364 17.386-5.388a.76.76 0 0 1 .639.09c.344.21.607.647.7 1.168l.74 4.13z"/><path fill="#559a01" d="M22.182 34.627c-4.37 0-7.923 3.448-7.923 7.687 0 4.238 3.553 7.687 7.923 7.687 3.28 0 6.261-2 7.418-4.975a7.4 7.4 0 0 0 .507-2.712c0-4.239-3.555-7.687-7.925-7.687m4.297 6.06-4.318 4.317a.75.75 0 0 1-.987.065L17.96 42.61a.752.752 0 0 1 .913-1.193l2.69 2.06 3.854-3.853a.75.75 0 1 1 1.061 1.062"/></g><defs><linearGradient id="b" x1="7.753" x2="51.068" y1="37.6" y2="11.548" gradientUnits="userSpaceOnUse"><stop stop-color="#ede8e1"/><stop offset=".598" stop-color="#f8f6f3"/><stop offset="1" stop-color="#ede8e1"/></linearGradient><clipPath id="c"><path fill="#fff" d="M14 14h36v36H14z"/></clipPath><filter id="a" width="60" height="72" x="3.669" y="4" color-interpolation-filters="sRGB" filterUnits="userSpaceOnUse"><feFlood flood-opacity="0" result="BackgroundImageFix"/><feBlend in="SourceGraphic" in2="BackgroundImageFix" result="shape"/><feColorMatrix in="SourceAlpha" result="hardAlpha" values="0 0 0 0 0 0 0 0 0 0 0 0 0 0 0 0 0 0 127 0"/><feOffset dx="4" dy="16"/><feGaussianBlur stdDeviation="8"/><feComposite in2="hardAlpha" k2="-1" k3="1" operator="arithmetic"/><feColorMatrix values="0 0 0 0 1 0 0 0 0 1 0 0 0 0 1 0 0 0 0.6 0"/><feBlend in2="shape" result="effect1_innerShadow_112_897"/><feColorMatrix in="SourceAlpha" result="hardAlpha" values="0 0 0 0 0 0 0 0 0 0 0 0 0 0 0 0 0 0 127 0"/><feOffset dy="2"/><feGaussianBlur stdDeviation="1"/><feComposite in2="hardAlpha" k2="-1" k3="1" operator="arithmetic"/><feColorMatrix values="0 0 0 0 1 0 0 0 0 1 0 0 0 0 1 0 0 0 1 0"/><feBlend in2="effect1_innerShadow_112_897" result="effect2_innerShadow_112_897"/></filter></defs></svg>