<svg xmlns="http://www.w3.org/2000/svg" width="297" height="248" fill="none" viewBox="0 0 297 248"><rect width="296.339" height="248" fill="url(#a)" rx="18"/><g filter="url(#b)"><rect width="282" height="236" x="7.169" y="6" fill="url(#c)" rx="14"/></g><mask id="e" width="283" height="236" x="7" y="6" maskUnits="userSpaceOnUse" style="mask-type:alpha"><rect width="282" height="236" x="7.169" y="6" fill="url(#d)" rx="14"/></mask><g mask="url(#e)"><path fill="url(#f)" d="M200.923 108V94.738h-3.418v-1.806q.963-.072 1.733-.216a4.2 4.2 0 0 0 1.372-.554q.603-.41 1.06-1.18h1.805V108zm12.061.193q-1.83 0-3.105-.65a5.6 5.6 0 0 1-2.07-1.854q-.795-1.203-1.179-2.768a15.4 15.4 0 0 1-.361-3.418q0-1.829.361-3.394.36-1.588 1.155-2.767a5.75 5.75 0 0 1 2.094-1.878q1.3-.674 3.105-.674 1.926 0 3.201.722a5.55 5.55 0 0 1 2.07 1.974q.795 1.227 1.107 2.792.337 1.564.337 3.225t-.337 3.226q-.336 1.564-1.107 2.792a5.6 5.6 0 0 1-2.07 1.949q-1.299.723-3.201.723m0-2.335q1.325 0 2.142-.578a3.9 3.9 0 0 0 1.252-1.564 7.3 7.3 0 0 0 .578-2.07q.168-1.108.168-2.143 0-1.011-.168-2.118a7.4 7.4 0 0 0-.578-2.094 3.9 3.9 0 0 0-1.252-1.564q-.793-.602-2.118-.602-1.349 0-2.19.602a3.9 3.9 0 0 0-1.252 1.564 7.3 7.3 0 0 0-.578 2.07 17 17 0 0 0-.144 2.142q0 1.035.144 2.143a8 8 0 0 0 .554 2.07 3.9 3.9 0 0 0 1.252 1.564q.841.578 2.19.578m14.998 2.335q-1.83 0-3.105-.65a5.6 5.6 0 0 1-2.07-1.854q-.795-1.203-1.18-2.768a15.4 15.4 0 0 1-.361-3.418q0-1.829.361-3.394.361-1.588 1.155-2.767a5.74 5.74 0 0 1 2.095-1.878q1.299-.674 3.105-.674 1.924 0 3.201.722a5.57 5.57 0 0 1 2.07 1.974q.793 1.227 1.107 2.792.337 1.564.337 3.225t-.337 3.226q-.338 1.564-1.107 2.792a5.6 5.6 0 0 1-2.07 1.949q-1.3.723-3.201.723m0-2.335q1.323 0 2.142-.578a3.9 3.9 0 0 0 1.251-1.564 7.3 7.3 0 0 0 .578-2.07q.168-1.108.169-2.143 0-1.011-.169-2.118a7.3 7.3 0 0 0-.578-2.094 3.9 3.9 0 0 0-1.251-1.564q-.795-.602-2.118-.602-1.348 0-2.191.602a3.9 3.9 0 0 0-1.251 1.564 7.3 7.3 0 0 0-.578 2.07 17 17 0 0 0-.144 2.142q0 1.035.144 2.143t.554 2.07a3.9 3.9 0 0 0 1.251 1.564q.843.578 2.191.578M238.334 108l10.687-17.017h2.551L240.933 108zm11.673.144q-1.18 0-2.021-.505a3.5 3.5 0 0 1-1.276-1.372q-.433-.891-.433-2.022 0-1.179.433-2.046a3.3 3.3 0 0 1 1.3-1.348q.842-.505 1.997-.505t1.974.481 1.252 1.372q.433.867.433 2.022 0 1.131-.457 2.022a3.3 3.3 0 0 1-1.252 1.396q-.818.505-1.95.505m-.024-1.973q.601 0 .963-.265a1.4 1.4 0 0 0 .506-.722q.168-.458.168-.939a2.5 2.5 0 0 0-.168-.915 1.4 1.4 0 0 0-.506-.722q-.362-.264-.963-.264-.914 0-1.299.601a2.3 2.3 0 0 0-.386 1.3q0 .77.386 1.348.409.578 1.299.578m-9.965-7.582q-1.18 0-2.021-.506a3.33 3.33 0 0 1-1.252-1.372q-.433-.89-.433-2.022 0-1.18.433-2.045a3.13 3.13 0 0 1 1.276-1.348q.842-.506 2.022-.506 1.155 0 1.973.481.819.483 1.252 1.373.433.866.433 2.021 0 1.131-.433 2.022a3.25 3.25 0 0 1-1.276 1.396q-.817.506-1.974.506m0-1.974q.603 0 .939-.265a1.7 1.7 0 0 0 .53-.722q.168-.457.168-.939 0-.505-.168-.938a1.54 1.54 0 0 0-.53-.698q-.336-.29-.939-.29-.914 0-1.323.603a2.33 2.33 0 0 0-.385 1.323q0 .77.385 1.348.409.578 1.323.578m19.667 7.75v-3.778h-3.611v-2.263h3.611v-3.779h2.262v3.779h3.635v2.263h-3.635v3.778z" opacity=".16"/><path fill="url(#g)" d="M152.298 42.126q-.644 0-1.218-.154a3.7 3.7 0 0 1-1.05-.462 3 3 0 0 1-.784-.798 3.3 3.3 0 0 1-.434-1.162h1.484a1.5 1.5 0 0 0 .42.63q.308.265.7.42.406.154.826.154.63 0 1.106-.21.49-.225.77-.644t.28-1.078q0-.91-.56-1.414t-1.47-.504q-.546 0-1.022.196a3 3 0 0 0-.854.518h-1.4l.35-5.516h6.132v1.358H150.8l-.224 2.744q.392-.308.938-.476a4.2 4.2 0 0 1 1.274-.154q.952 0 1.652.392.714.392 1.092 1.106.392.7.392 1.652 0 1.078-.49 1.834a3.14 3.14 0 0 1-1.302 1.162q-.812.405-1.834.406m8.417-.014q-1.064 0-1.806-.378a3.3 3.3 0 0 1-1.204-1.078 5.1 5.1 0 0 1-.686-1.61 9 9 0 0 1-.21-1.988q0-1.064.21-1.974.21-.924.672-1.61.476-.7 1.218-1.092.756-.392 1.806-.392 1.12 0 1.862.42.756.42 1.204 1.148.462.714.644 1.624.196.91.196 1.876 0 .967-.196 1.876a5 5 0 0 1-.644 1.624q-.448.714-1.204 1.134t-1.862.42m0-1.358q.77 0 1.246-.336a2.26 2.26 0 0 0 .728-.91q.252-.56.336-1.204.098-.645.098-1.246a8 8 0 0 0-.098-1.232 4.3 4.3 0 0 0-.336-1.218 2.26 2.26 0 0 0-.728-.91q-.462-.35-1.232-.35-.784 0-1.274.35a2.26 2.26 0 0 0-.728.91q-.252.56-.336 1.204-.084.645-.084 1.246 0 .602.084 1.246t.322 1.204q.252.56.728.91.49.336 1.274.336M165.672 42v-9.898h1.442v5.586h1.19l2.072-3.066H172l-2.422 3.514L172.21 42h-1.694l-2.1-3.038h-1.302V42zm9.313-2.114v-2.198h-2.1v-1.316h2.1v-2.198h1.316v2.198h2.114v1.316h-2.114v2.198z" opacity=".16"/><path fill="url(#h)" d="M216.378 216v-1.232l2.786-2.38q.35-.294.77-.658.434-.364.826-.784.406-.42.658-.896.266-.476.266-.994 0-.798-.49-1.246-.475-.448-1.302-.448-.7 0-1.19.294a1.4 1.4 0 0 0-.63.826h-1.512q.126-.854.63-1.4a3.1 3.1 0 0 1 1.232-.812q.728-.28 1.526-.28.924 0 1.652.336t1.148.994q.42.644.42 1.582 0 .882-.336 1.568a4.7 4.7 0 0 1-.896 1.246q-.546.56-1.19 1.092l-2.198 1.834h4.69V216zm11.262.126q-.644 0-1.218-.154a3.7 3.7 0 0 1-1.05-.462 3 3 0 0 1-.784-.798 3.3 3.3 0 0 1-.434-1.162h1.484q.126.364.42.63.309.265.7.42.406.154.826.154.63 0 1.106-.21.49-.224.77-.644t.28-1.078q0-.91-.56-1.414t-1.47-.504q-.546 0-1.022.196a3 3 0 0 0-.854.518h-1.4l.35-5.516h6.132v1.358h-4.774l-.224 2.744q.393-.308.938-.476a4.2 4.2 0 0 1 1.274-.154q.953 0 1.652.392.714.392 1.092 1.106.393.7.392 1.652 0 1.078-.49 1.834a3.14 3.14 0 0 1-1.302 1.162q-.811.406-1.834.406m4.651-.126v-9.898h1.442v5.586h1.19l2.072-3.066h1.624l-2.422 3.514 2.632 3.864h-1.694l-2.1-3.038h-1.302V216zm9.313-2.114v-2.198h-2.1v-1.316h2.1v-2.198h1.316v2.198h2.114v1.316h-2.114v2.198z" opacity=".16"/><path fill="url(#i)" d="M152.13 121.112q-.63 0-1.246-.14a4.3 4.3 0 0 1-1.148-.434 2.8 2.8 0 0 1-.882-.784q-.35-.49-.448-1.19h1.498q.154.449.504.714.364.252.812.364a3.9 3.9 0 0 0 1.582.056q.364-.056.672-.224.322-.168.518-.49t.196-.826q0-.49-.182-.784a1.27 1.27 0 0 0-.49-.476 1.9 1.9 0 0 0-.672-.224 5.4 5.4 0 0 0-.784-.056h-1.008v-1.288h.63a4 4 0 0 0 .84-.084 2.5 2.5 0 0 0 .672-.266q.294-.182.462-.462.168-.294.168-.714 0-.588-.252-.896a1.3 1.3 0 0 0-.658-.448 3 3 0 0 0-.882-.126 2.6 2.6 0 0 0-.784.126 1.8 1.8 0 0 0-.672.364 1.2 1.2 0 0 0-.392.644h-1.456q.084-.658.392-1.12.322-.476.784-.784.476-.308 1.05-.434.574-.14 1.19-.14.63 0 1.19.14.575.126 1.008.434t.686.812q.266.49.266 1.204 0 .49-.168.91-.154.42-.476.742a2.6 2.6 0 0 1-.756.518 2.3 2.3 0 0 1 1.008.462q.406.336.602.826.21.476.21 1.064 0 .924-.336 1.512a2.43 2.43 0 0 1-.882.91 3.8 3.8 0 0 1-1.162.462 6 6 0 0 1-1.204.126m8.057.014q-.644 0-1.218-.154a3.7 3.7 0 0 1-1.05-.462 3 3 0 0 1-.784-.798 3.3 3.3 0 0 1-.434-1.162h1.484q.126.364.42.63.309.265.7.42.406.154.826.154.63 0 1.106-.21.49-.224.77-.644t.28-1.078q0-.91-.56-1.414t-1.47-.504q-.546 0-1.022.196a3 3 0 0 0-.854.518h-1.4l.35-5.516h6.132v1.358h-4.774l-.224 2.744q.393-.308.938-.476a4.2 4.2 0 0 1 1.274-.154q.953 0 1.652.392.714.392 1.092 1.106.392.7.392 1.652 0 1.078-.49 1.834a3.14 3.14 0 0 1-1.302 1.162q-.811.406-1.834.406m4.651-.126v-9.898h1.442v5.586h1.19l2.072-3.066h1.624l-2.422 3.514 2.632 3.864h-1.694l-2.1-3.038h-1.302V121zm9.313-2.114v-2.198h-2.1v-1.316h2.1v-2.198h1.316v2.198h2.114v1.316h-2.114v2.198z" opacity=".16"/><g filter="url(#j)"><circle cx="81.5" cy="243.5" r="60.5" fill="#949494" fill-opacity=".53"/></g><g filter="url(#k)"><circle cx="98" cy="229" r="2" fill="#f8f8f8"/></g><g filter="url(#l)" style="mix-blend-mode:plus-lighter"><circle cx="117" cy="98" r="1" fill="#9a9a9a"/></g><g filter="url(#m)" style="mix-blend-mode:plus-lighter"><circle cx="32.5" cy="225.5" r=".5" fill="#9a9a9a"/></g><g filter="url(#n)" opacity=".49" style="mix-blend-mode:plus-lighter"><circle cx="94" cy="25" r="2" fill="#9a9a9a"/></g><path fill="#d4ccc0" fill-opacity=".28" d="M29 82a6 6 0 0 0 6 6h6v2h-6a8 8 0 0 1-8-8v-5.5h2zm62 0a8 8 0 0 1-8 8h-6v-2h6a6 6 0 0 0 6-6v-5.5h2zm-8-56a8 8 0 0 1 8 8v6.5h-2V34a6 6 0 0 0-6-6h-6v-2zm-42 2h-6a6 6 0 0 0-6 6v6.5h-2V34a8 8 0 0 1 8-8h6z"/><g opacity=".12"><g filter="url(#o)"><rect width="56" height="56" x="30.5" y="30" fill="url(#p)" rx="8"/></g><rect width="55" height="55" x="31" y="30.5" stroke="#fff" rx="7.5"/></g><path fill="#fff" fill-rule="evenodd" d="M71.197 59.623h-3.012a.564.564 0 0 0-.562.563v14.126c0 .31.252.563.562.563h3.012c.31 0 .563-.253.563-.563V60.186a.564.564 0 0 0-.563-.563m-8.486-8.182a8.235 8.235 0 1 1-8.236-8.235v8.235zm-6.155-10.316v8.235h8.236a8.235 8.235 0 0 0-8.236-8.235m-3.202 23.61a.56.56 0 1 1-.369-1.059c6.108-2.127 11.727-5.247 16.587-9.535l-1.06.058a.56.56 0 1 1-.057-1.12l2.613-.143a.562.562 0 0 1 .584.64l-.377 2.59a.561.561 0 1 1-1.111-.159l.148-1.022c-4.967 4.382-10.714 7.576-16.958 9.75m-.533 3.389h3.012c.31 0 .563.252.563.562v5.626c0 .31-.253.563-.563.563h-3.012a.564.564 0 0 1-.562-.563v-5.626c0-.31.252-.562.562-.562m10.695-4.159h-3.013a.564.564 0 0 0-.562.563v9.784c0 .31.252.563.562.563h3.013c.31 0 .562-.253.562-.563v-9.784a.564.564 0 0 0-.562-.563" clip-rule="evenodd"/></g><path fill="#fff" d="M28.58 144v-14.14H32l3.92 7.14 3.88-7.14h3.32V144h-2.5v-10.98l-4.22 7.64h-1.06l-4.26-7.64V144zm19.855.14q-.74 0-1.4-.2a3.9 3.9 0 0 1-1.18-.58 3.1 3.1 0 0 1-.84-.98q-.3-.6-.3-1.4 0-1.02.4-1.66.4-.66 1.08-1 .7-.34 1.58-.46.88-.14 1.84-.14h2.06q0-.7-.22-1.2a1.75 1.75 0 0 0-.7-.82q-.459-.3-1.2-.3-.48 0-.9.12-.4.1-.7.34-.28.22-.4.58h-2.5q.14-.82.56-1.4.44-.6 1.06-.98.64-.38 1.4-.56.76-.2 1.54-.2 2.3 0 3.34 1.32 1.06 1.32 1.06 3.7V144h-2.16l-.06-1.36q-.46.68-1.1 1t-1.24.4q-.6.1-1.02.1m.48-1.98q.8 0 1.42-.3t.98-.84a2.1 2.1 0 0 0 .38-1.24v-.34h-1.92q-.48 0-.96.04a2.8 2.8 0 0 0-.84.16 1.4 1.4 0 0 0-.62.38q-.22.26-.22.74t.24.78q.261.3.66.46.42.16.88.16m5.61 1.84 3.72-5.38-3.52-5.16h2.84l2.28 3.54 2.22-3.54h2.78l-3.52 5.22 3.78 5.32h-2.86l-2.5-3.64-2.5 3.64zm11.118 0v-10.54h2.44V144zm1.22-11.76q-.7 0-1.12-.42t-.42-1.1q0-.66.44-1.08.44-.44 1.1-.44.64 0 1.1.42t.46 1.1-.44 1.1-1.12.42M69.648 144v-10.54h2.24l.16 1.2q.4-.54.86-.82.48-.3.98-.42.52-.12.98-.12 1 0 1.7.4.72.4 1.12 1.2.4-.56.9-.9.5-.36 1.06-.52.56-.18 1.18-.18 1.22 0 1.96.52.74.5 1.08 1.4.34.88.34 2.02V144h-2.44v-5.98q0-.4-.04-.84a2.4 2.4 0 0 0-.22-.82 1.5 1.5 0 0 0-.48-.62q-.32-.24-.9-.24t-.96.26q-.36.24-.6.66a3.1 3.1 0 0 0-.32.9q-.08.48-.08.96V144h-2.44v-6q0-.38-.06-.8a2.7 2.7 0 0 0-.2-.82 1.3 1.3 0 0 0-.48-.64q-.32-.24-.9-.24-.84 0-1.28.46-.42.46-.58 1.12-.14.66-.14 1.26V144zm16.016 0v-10.54h2.44V144zm1.22-11.76q-.7 0-1.12-.42t-.42-1.1q0-.66.44-1.08.44-.44 1.1-.44.64 0 1.1.42t.46 1.1-.44 1.1-1.12.42M89.27 144v-1.88l5.56-6.5h-5.56v-2.16h8.7v1.86l-5.6 6.52h5.6V144zm14.574.14q-1.64 0-2.8-.68a4.47 4.47 0 0 1-1.74-1.88q-.58-1.22-.58-2.82t.6-2.82a4.7 4.7 0 0 1 1.76-1.94q1.16-.7 2.78-.7 1.2 0 2.1.44.9.42 1.5 1.16.62.74.92 1.68t.28 1.98l-.04.48a7 7 0 0 1-.06.48h-7.4q.06.7.36 1.28.32.58.88.92.58.34 1.44.34.5 0 .96-.12.46-.14.8-.4.36-.26.48-.66h2.44q-.26 1.14-.96 1.86a4.26 4.26 0 0 1-1.68 1.06q-.96.34-2.04.34m-2.64-6.44h5.08q0-.66-.3-1.2t-.86-.84q-.54-.32-1.32-.32-.84 0-1.4.34a2.37 2.37 0 0 0-.86.88q-.3.54-.34 1.14m17.531 6.3v-5.28l-5.18-8.86h2.9l3.56 6.48 3.56-6.48h2.84l-5.18 8.84v5.3zm11.637.14q-1.62 0-2.8-.66a4.54 4.54 0 0 1-1.8-1.88q-.62-1.22-.62-2.86 0-1.66.64-2.86a4.67 4.67 0 0 1 1.8-1.9q1.16-.68 2.78-.68 1.6 0 2.76.68a4.5 4.5 0 0 1 1.78 1.92q.62 1.22.62 2.88 0 1.62-.62 2.84-.6 1.2-1.76 1.86t-2.78.66m-.02-2.22q1 0 1.6-.44.62-.44.9-1.16t.28-1.56-.28-1.58a2.5 2.5 0 0 0-.9-1.18q-.6-.46-1.6-.46t-1.62.46a2.5 2.5 0 0 0-.9 1.18 4.3 4.3 0 0 0-.28 1.58q0 .84.28 1.58.3.72.9 1.16.62.42 1.62.42m10.994 2.22q-2.28 0-3.5-1.18-1.2-1.18-1.2-3.6v-5.9h2.44v5.74q0 .84.22 1.46.24.62.74.96.52.32 1.3.32.84 0 1.32-.34a1.9 1.9 0 0 0 .7-.98q.2-.62.2-1.42v-5.74h2.44v5.9q0 2.48-1.24 3.64-1.221 1.14-3.42 1.14m6.18-.14v-10.54h2.22l.14 1.38q.4-.6.9-.92a3.5 3.5 0 0 1 1.1-.48q.6-.14 1.2-.14h.4q.2 0 .32.02v2.32h-.64q-1.04 0-1.76.4t-1.08 1.14-.36 1.82v5zM34.52 168.16q-2.2 0-3.7-.9a5.8 5.8 0 0 1-2.26-2.54q-.76-1.62-.76-3.76t.78-3.78 2.28-2.56q1.5-.94 3.66-.94 1.6 0 2.82.54a4.95 4.95 0 0 1 1.98 1.54q.78.98 1 2.42H37.9a2.74 2.74 0 0 0-1.14-1.6q-.86-.58-2.24-.58-1.5 0-2.42.7a4 4 0 0 0-1.34 1.8q-.4 1.1-.4 2.36 0 1.3.42 2.44.44 1.14 1.38 1.84t2.42.7q.92 0 1.6-.26.7-.26 1.16-.74.48-.5.66-1.16h2.54q-.24 1.42-1.08 2.42-.82 1-2.1 1.54-1.26.52-2.84.52m7.079-.16v-10.54h2.22l.14 1.38q.399-.6.9-.92a3.5 3.5 0 0 1 1.1-.48q.6-.14 1.2-.14h.4q.2 0 .32.02v2.32h-.64q-1.04 0-1.76.4t-1.08 1.14-.36 1.82v5zm11.575 4.82a8.4 8.4 0 0 1-2.38-.34 6 6 0 0 1-2.12-1.1l.88-1.96q.68.54 1.52.84.84.32 1.84.32 1.58 0 2.3-.8.74-.8.74-2.18v-.78q-.36.46-.88.76t-1.12.44-1.22.14q-1.54 0-2.46-.62-.9-.64-1.3-1.74-.4-1.12-.4-2.54v-5.8h2.42v5.26q0 .56.08 1.14t.32 1.06.7.78q.48.28 1.26.28 1.02 0 1.58-.5t.76-1.3q.22-.8.22-1.7v-5.02h2.44V167q0 1.34-.28 2.4-.28 1.08-.9 1.84a3.95 3.95 0 0 1-1.6 1.16q-.981.42-2.4.42m6.747-.94v-14.42h2.28l.12 1.42q.62-.82 1.48-1.2a4.7 4.7 0 0 1 1.9-.38q1.56 0 2.58.72t1.52 1.94.5 2.76-.52 2.78a4.35 4.35 0 0 1-1.58 1.94q-1.04.7-2.62.7-.74 0-1.36-.16-.6-.16-1.08-.46a3.5 3.5 0 0 1-.78-.68v5.04zm5.28-5.94q1.02 0 1.6-.44.579-.46.84-1.18.26-.74.26-1.56 0-.86-.28-1.6a2.54 2.54 0 0 0-.86-1.2q-.6-.46-1.6-.46-.921 0-1.56.46a2.75 2.75 0 0 0-.94 1.18 4 4 0 0 0-.32 1.6q0 .88.3 1.62.3.72.94 1.16.639.42 1.62.42m10.463 2.18q-1.74 0-2.54-.96t-.8-2.66v-4.88h-1.62v-2.16h1.62v-2.96h2.44v2.96h3.2v2.16h-3.2v4.42q0 .52.12.94t.44.66.88.26q.48 0 .82-.16t.56-.36l.82 1.86a3.3 3.3 0 0 1-.86.52 4 4 0 0 1-.94.28 6 6 0 0 1-.94.08m8.082.02q-1.62 0-2.8-.66a4.54 4.54 0 0 1-1.8-1.88q-.62-1.22-.62-2.86 0-1.66.64-2.86a4.67 4.67 0 0 1 1.8-1.9q1.16-.68 2.78-.68 1.6 0 2.76.68a4.5 4.5 0 0 1 1.78 1.92q.62 1.22.62 2.88 0 1.62-.62 2.84-.6 1.2-1.76 1.86t-2.78.66m-.02-2.22q1 0 1.6-.44.62-.44.9-1.16t.28-1.56-.28-1.58a2.5 2.5 0 0 0-.9-1.18q-.6-.46-1.6-.46t-1.62.46a2.5 2.5 0 0 0-.9 1.18 4.3 4.3 0 0 0-.28 1.58q0 .84.28 1.58.3.72.9 1.16.62.42 1.62.42m11.5 2.08v-14.14h5.32q1.6 0 2.76.5 1.18.48 1.82 1.54.66 1.06.66 2.78 0 1.64-.72 2.74a4.5 4.5 0 0 1-1.96 1.66q-1.24.54-2.84.54h-2.54V168zm2.5-6.62h2.5q1.38 0 2.22-.66t.84-2.08q0-1.24-.7-1.86-.7-.64-2.16-.64h-2.7zm9.23 6.62v-10.54h2.22l.14 1.38q.399-.6.9-.92a3.5 3.5 0 0 1 1.1-.48q.6-.14 1.2-.14h.4q.2 0 .32.02v2.32h-.64q-1.04 0-1.76.4t-1.08 1.14-.36 1.82v5zm11.539.14q-1.62 0-2.8-.66a4.54 4.54 0 0 1-1.8-1.88q-.62-1.22-.62-2.86 0-1.66.64-2.86a4.67 4.67 0 0 1 1.8-1.9q1.16-.68 2.78-.68 1.6 0 2.76.68a4.5 4.5 0 0 1 1.78 1.92q.62 1.22.62 2.88 0 1.62-.62 2.84-.6 1.2-1.76 1.86t-2.78.66m-.02-2.22q1 0 1.6-.44.621-.44.9-1.16.28-.72.28-1.56t-.28-1.58a2.5 2.5 0 0 0-.9-1.18q-.6-.46-1.6-.46-.999 0-1.62.46a2.5 2.5 0 0 0-.9 1.18 4.3 4.3 0 0 0-.28 1.58q0 .84.28 1.58.3.72.9 1.16.621.42 1.62.42m7.079 2.08v-8.38h-1.64v-2.16h1.64v-1q0-1.2.36-1.96.36-.78 1.14-1.14.8-.36 2.04-.36h1.56v2.16h-1.28q-.54 0-.84.18t-.44.54q-.12.34-.12.84v.74h2.68v2.16h-2.68V168zm5.818 0v-10.54h2.44V168zm1.22-11.76q-.7 0-1.12-.42t-.42-1.1q0-.66.44-1.08.44-.44 1.1-.44.64 0 1.1.42t.46 1.1-.44 1.1-1.12.42m6.985 11.88q-1.74 0-2.54-.96t-.8-2.66v-4.88h-1.62v-2.16h1.62v-2.96h2.44v2.96h3.2v2.16h-3.2v4.42q0 .52.12.94t.44.66.88.26q.48 0 .82-.16t.56-.36l.82 1.86q-.38.32-.86.52-.46.2-.94.28t-.94.08m7.302.02a7.3 7.3 0 0 1-1.52-.16 5.2 5.2 0 0 1-1.4-.52 3.34 3.34 0 0 1-1.1-1.02q-.44-.64-.58-1.6h2.46q.16.44.5.72.36.26.82.4.48.12.94.12.279 0 .6-.04.34-.04.62-.16.3-.12.48-.34.18-.24.18-.62 0-.36-.2-.56a1.3 1.3 0 0 0-.54-.34 3.8 3.8 0 0 0-.82-.22 362 362 0 0 0-1.84-.38q-.98-.22-1.7-.68-.3-.18-.52-.42a2.8 2.8 0 0 1-.38-.52 3.2 3.2 0 0 1-.22-.64 4.3 4.3 0 0 1-.06-.74q0-.84.34-1.42.36-.6.94-.96.6-.38 1.36-.56a6.7 6.7 0 0 1 1.56-.18q1.08 0 1.96.34a3.5 3.5 0 0 1 1.46 1.04q.6.7.72 1.78h-2.32q-.1-.5-.62-.8-.5-.3-1.28-.3-.28 0-.58.06-.3.04-.58.16a1.04 1.04 0 0 0-.44.32.9.9 0 0 0-.16.54q0 .3.14.52.16.22.46.38.32.14.74.24.68.14 1.42.28t1.28.28q.64.18 1.16.52.52.32.8.86.3.52.3 1.34 0 .96-.4 1.6-.381.64-1.02 1-.64.36-1.42.52a7.6 7.6 0 0 1-1.54.16M30.76 192l-3.6-14.14h2.8l2.72 11.54 2.68-11.54h3.4l2.68 11.54 2.68-11.54h2.66L43.2 192h-3.52l-2.66-11.32L34.34 192zm16.561 0v-10.54h2.44V192zm1.22-11.76q-.7 0-1.12-.42t-.42-1.1q0-.66.44-1.08.44-.44 1.1-.44.64 0 1.1.42t.46 1.1-.44 1.1-1.12.42M55.926 192q-1.28 0-2.12-.34a2.44 2.44 0 0 1-1.24-1.1q-.4-.76-.4-2.04v-4.9h-1.62v-2.16h1.62v-2.94h2.44v2.94h2.46v2.16h-2.46v4.58q0 .8.28 1.22t1.26.42h.84V192zm1.963 0v-14.14h2.44v4.96q.42-.54.98-.88a3.9 3.9 0 0 1 1.18-.48q.62-.16 1.18-.16 1.5 0 2.36.66.861.66 1.2 1.76.36 1.1.36 2.48v5.8h-2.44v-5.38q0-.54-.08-1.1a3 3 0 0 0-.32-1 1.73 1.73 0 0 0-.68-.74q-.44-.28-1.18-.28-.699 0-1.2.3-.5.28-.8.78-.279.5-.42 1.1t-.14 1.2V192zm17.919 0v-10.7h-2.8v-1.82a9 9 0 0 0 1.46-.18 3.2 3.2 0 0 0 1.14-.48 3.2 3.2 0 0 0 .92-.96h1.78V192zm10.297.16q-1.54 0-2.62-.54a4.56 4.56 0 0 1-1.74-1.56 7.3 7.3 0 0 1-.98-2.3q-.3-1.3-.3-2.8 0-1.52.3-2.84.32-1.32.98-2.3a4.7 4.7 0 0 1 1.76-1.56q1.08-.58 2.62-.58 1.58 0 2.66.6 1.101.6 1.74 1.62.66 1.02.94 2.32.3 1.3.3 2.72 0 1.4-.3 2.7-.28 1.3-.94 2.32a4.8 4.8 0 0 1-1.76 1.62q-1.08.58-2.66.58m0-2.28q1.02 0 1.64-.48.64-.48.96-1.22a6 6 0 0 0 .42-1.62q.12-.86.12-1.62t-.1-1.6a6 6 0 0 0-.42-1.62 3 3 0 0 0-.94-1.24q-.62-.48-1.66-.48t-1.68.48q-.62.48-.94 1.24a6.2 6.2 0 0 0-.44 1.6q-.1.86-.1 1.62t.1 1.62q.1.84.4 1.6.32.76.94 1.24.64.48 1.7.48m12.442 2.28q-1.54 0-2.62-.54a4.56 4.56 0 0 1-1.74-1.56 7.3 7.3 0 0 1-.98-2.3q-.3-1.3-.3-2.8 0-1.52.3-2.84.32-1.32.98-2.3a4.7 4.7 0 0 1 1.76-1.56q1.08-.58 2.62-.58 1.58 0 2.66.6 1.101.6 1.74 1.62.66 1.02.94 2.32.3 1.3.3 2.72 0 1.4-.3 2.7-.28 1.3-.94 2.32a4.8 4.8 0 0 1-1.76 1.62q-1.08.58-2.66.58m0-2.28q1.02 0 1.64-.48.64-.48.96-1.22a5.9 5.9 0 0 0 .42-1.62q.12-.86.12-1.62t-.1-1.6a5.9 5.9 0 0 0-.42-1.62 3 3 0 0 0-.94-1.24q-.62-.48-1.66-.48t-1.68.48q-.62.48-.94 1.24a6.2 6.2 0 0 0-.44 1.6q-.1.86-.1 1.62t.1 1.62q.1.84.4 1.6.32.76.94 1.24.64.48 1.7.48m12.443 2.28q-1.54 0-2.62-.54a4.56 4.56 0 0 1-1.74-1.56 7.3 7.3 0 0 1-.98-2.3q-.3-1.3-.3-2.8 0-1.52.3-2.84.32-1.32.98-2.3a4.7 4.7 0 0 1 1.76-1.56q1.08-.58 2.62-.58 1.58 0 2.66.6 1.1.6 1.74 1.62.66 1.02.94 2.32.3 1.3.3 2.72 0 1.4-.3 2.7-.28 1.3-.94 2.32a4.8 4.8 0 0 1-1.76 1.62q-1.08.58-2.66.58m0-2.28q1.02 0 1.64-.48.639-.48.96-1.22a6 6 0 0 0 .42-1.62q.12-.86.12-1.62t-.1-1.6a6 6 0 0 0-.42-1.62 3 3 0 0 0-.94-1.24q-.62-.48-1.66-.48t-1.68.48q-.62.48-.94 1.24a6 6 0 0 0-.44 1.6q-.1.86-.1 1.62t.1 1.62q.1.84.4 1.6.32.76.94 1.24.64.48 1.7.48m5.982 2.12 3.72-5.38-3.52-5.16h2.84l2.28 3.54 2.22-3.54h2.78l-3.52 5.22 3.78 5.32h-2.86l-2.5-3.64-2.5 3.64zM28.58 216v-14.14h2.5v11.86h7.36V216zm15.454.14q-1.64 0-2.8-.68a4.47 4.47 0 0 1-1.74-1.88q-.58-1.22-.58-2.82t.6-2.82a4.7 4.7 0 0 1 1.76-1.94q1.16-.7 2.78-.7 1.2 0 2.1.44.9.42 1.5 1.16a4.9 4.9 0 0 1 .92 1.68q.3.94.28 1.98l-.04.48a8 8 0 0 1-.06.48h-7.4q.06.7.36 1.28.32.58.88.92.579.34 1.44.34.5 0 .96-.12.46-.14.8-.4.36-.26.48-.66h2.44q-.261 1.14-.96 1.86a4.25 4.25 0 0 1-1.68 1.06q-.96.34-2.04.34m-2.64-6.44h5.08q0-.66-.3-1.2a2.1 2.1 0 0 0-.86-.84q-.54-.32-1.32-.32-.84 0-1.4.34t-.86.88-.34 1.14m11.284 6.3-3.82-10.54h2.7l2.78 8.46 2.76-8.46h2.68L55.958 216zm12.236.14q-1.64 0-2.8-.68a4.47 4.47 0 0 1-1.74-1.88q-.58-1.22-.58-2.82t.6-2.82a4.7 4.7 0 0 1 1.76-1.94q1.16-.7 2.78-.7 1.2 0 2.1.44.9.42 1.5 1.16a4.9 4.9 0 0 1 .92 1.68q.3.94.28 1.98l-.04.48a8 8 0 0 1-.06.48h-7.4q.06.7.36 1.28.32.58.88.92.58.34 1.44.34.5 0 .96-.12.46-.14.8-.4.36-.26.48-.66h2.44q-.26 1.14-.96 1.86a4.25 4.25 0 0 1-1.68 1.06q-.96.34-2.04.34m-2.64-6.44h5.08q0-.66-.3-1.2a2.1 2.1 0 0 0-.86-.84q-.54-.32-1.32-.32-.84 0-1.4.34t-.86.88-.34 1.14m8.604 6.3v-10.54h2.22l.14 1.38q.4-.6.9-.92a3.5 3.5 0 0 1 1.1-.48q.6-.14 1.2-.14h.4q.2 0 .32.02v2.32h-.64q-1.04 0-1.76.4t-1.08 1.14-.36 1.82v5zm10.275.14q-.74 0-1.4-.2a3.9 3.9 0 0 1-1.18-.58 3.1 3.1 0 0 1-.84-.98q-.3-.6-.3-1.4 0-1.02.4-1.66.4-.66 1.08-1 .7-.34 1.58-.46.88-.14 1.84-.14h2.06q0-.7-.22-1.2a1.75 1.75 0 0 0-.7-.82q-.459-.3-1.2-.3-.48 0-.9.12-.4.1-.7.34-.28.22-.4.58h-2.5q.14-.82.56-1.4.44-.6 1.06-.98.64-.38 1.4-.56.76-.2 1.54-.2 2.3 0 3.34 1.32 1.06 1.32 1.06 3.7V216h-2.16l-.06-1.36q-.46.68-1.1 1t-1.24.4q-.6.1-1.02.1m.48-1.98q.8 0 1.42-.3t.98-.84a2.1 2.1 0 0 0 .38-1.24v-.34h-1.92q-.48 0-.96.04a2.8 2.8 0 0 0-.84.16q-.38.12-.62.38-.22.26-.22.74t.24.78q.261.3.66.46.42.16.88.16m11.53 6.66q-1.16 0-2.18-.38a4.05 4.05 0 0 1-1.7-1.16q-.68-.78-.92-2.02h2.5q.12.48.48.78t.84.42q.5.14 1.02.14.98 0 1.54-.4.58-.4.82-1.1.24-.68.24-1.5v-1a2.76 2.76 0 0 1-.92.92 3.7 3.7 0 0 1-1.16.48q-.6.12-1.2.12-1.64 0-2.68-.72a4.2 4.2 0 0 1-1.5-1.92q-.48-1.22-.48-2.68 0-1.52.52-2.76.54-1.26 1.6-2 1.08-.74 2.7-.74.94 0 1.76.34.84.32 1.4.98l.16-1.16h2.26v9.62q0 1.78-.52 3.06-.5 1.3-1.62 1.98-1.12.7-2.96.7m-.14-6.86q.94 0 1.56-.44.62-.46.94-1.2.32-.76.32-1.64 0-.9-.32-1.62-.3-.72-.92-1.14-.6-.42-1.56-.42-1.02 0-1.62.46t-.88 1.22a4.7 4.7 0 0 0-.26 1.58q0 .88.28 1.62.28.72.88 1.16.6.42 1.58.42m11.523 2.18q-1.64 0-2.8-.68a4.47 4.47 0 0 1-1.74-1.88q-.58-1.22-.58-2.82t.6-2.82q.62-1.24 1.76-1.94 1.16-.7 2.78-.7 1.2 0 2.1.44.9.42 1.5 1.16.62.74.92 1.68t.28 1.98l-.04.48a7 7 0 0 1-.06.48h-7.4q.06.7.36 1.28.32.58.88.92.58.34 1.44.34.5 0 .96-.12.46-.14.8-.4.36-.26.48-.66h2.44q-.26 1.14-.96 1.86a4.26 4.26 0 0 1-1.68 1.06q-.96.34-2.04.34m-2.64-6.44h5.08q0-.66-.3-1.2t-.86-.84q-.54-.32-1.32-.32-.84 0-1.4.34a2.37 2.37 0 0 0-.86.88q-.3.54-.34 1.14"/><path fill="url(#q)" d="M189 154h10v29h-10z"/><path fill="#61a113" d="M193 151h2v36h-2z"/><path fill="url(#r)" d="M203 145h10v20h-10z"/><path fill="#61a113" d="M207 142h2v26h-2z"/><path fill="url(#s)" d="M216 129h10v29h-10z"/><path fill="#dd2323" d="M220 126h2v36h-2z"/><path fill="url(#t)" d="M229 140h10v20h-10z"/><path fill="#61a113" d="M233 137h2v26h-2z"/><path fill="url(#u)" d="M243 159h10v29h-10z"/><path fill="#dd2323" d="M247 156h2v36h-2z"/><path fill="url(#v)" d="M256 164.871h10.396V202H256z"/><path fill="#61a113" d="M260 162h2v42h-2z"/><path fill="url(#w)" d="M176 163.871h10.396V201H176z"/><path fill="#61a113" d="M180 161h2v42h-2z"/><defs><linearGradient id="a" x1="148.169" x2="148.169" y1="0" y2="248" gradientUnits="userSpaceOnUse"><stop stop-color="#e3ddd6" stop-opacity=".21"/><stop offset="1" stop-color="#e3ddd6"/></linearGradient><linearGradient id="c" x1="-17" x2="215.5" y1="0" y2="44.5" gradientUnits="userSpaceOnUse"><stop stop-color="#818181"/><stop offset=".163" stop-color="#818181"/><stop offset=".225" stop-color="#999"/><stop offset=".31" stop-color="#818181"/><stop offset=".876" stop-color="#141414"/><stop offset="1" stop-color="#1b1b1b"/></linearGradient><linearGradient id="d" x1="289" x2="7" y1="113.5" y2="-7" gradientUnits="userSpaceOnUse"><stop stop-color="#818181"/><stop offset=".163" stop-color="#818181"/><stop offset=".225" stop-color="#999"/><stop offset=".31" stop-color="#818181"/><stop offset=".876" stop-color="#818181"/><stop offset="1" stop-color="#1b1b1b"/></linearGradient><linearGradient id="f" x1="197" x2="268" y1="100" y2="100" gradientUnits="userSpaceOnUse"><stop offset=".354" stop-color="#fff"/><stop offset="1" stop-color="#fff" stop-opacity="0"/></linearGradient><linearGradient id="g" x1="148" x2="180" y1="37" y2="37" gradientUnits="userSpaceOnUse"><stop offset=".354" stop-color="#fff"/><stop offset="1" stop-color="#fff" stop-opacity="0"/></linearGradient><linearGradient id="h" x1="216" x2="247" y1="211" y2="211" gradientUnits="userSpaceOnUse"><stop offset=".354" stop-color="#fff"/><stop offset="1" stop-color="#fff" stop-opacity="0"/></linearGradient><linearGradient id="i" x1="148" x2="179" y1="116" y2="116" gradientUnits="userSpaceOnUse"><stop offset=".354" stop-color="#fff"/><stop offset="1" stop-color="#fff" stop-opacity="0"/></linearGradient><linearGradient id="p" x1="34.583" x2="77.899" y1="63.6" y2="37.548" gradientUnits="userSpaceOnUse"><stop stop-color="#ede8e1"/><stop offset=".598" stop-color="#f8f6f3"/><stop offset="1" stop-color="#ede8e1"/></linearGradient><linearGradient id="q" x1="155.333" x2="213.428" y1="164.645" y2="160.506" gradientUnits="userSpaceOnUse"><stop stop-color="#549900"/><stop offset=".66" stop-color="#62a214"/><stop offset=".75" stop-color="#92d541"/><stop offset=".841" stop-color="#62a214"/><stop offset="1" stop-color="#549900"/></linearGradient><linearGradient id="r" x1="169.333" x2="227.107" y1="152.341" y2="146.373" gradientUnits="userSpaceOnUse"><stop stop-color="#549900"/><stop offset=".66" stop-color="#62a214"/><stop offset=".75" stop-color="#92d541"/><stop offset=".841" stop-color="#62a214"/><stop offset="1" stop-color="#549900"/></linearGradient><linearGradient id="s" x1="182.333" x2="240.428" y1="139.645" y2="135.506" gradientUnits="userSpaceOnUse"><stop stop-color="#dd2323"/><stop offset=".66" stop-color="#dd2323"/><stop offset=".75" stop-color="#ff6565"/><stop offset=".841" stop-color="#dd2323"/><stop offset="1" stop-color="#dd2323"/></linearGradient><linearGradient id="t" x1="195.333" x2="253.107" y1="147.341" y2="141.373" gradientUnits="userSpaceOnUse"><stop stop-color="#549900"/><stop offset=".66" stop-color="#62a214"/><stop offset=".75" stop-color="#92d541"/><stop offset=".841" stop-color="#62a214"/><stop offset="1" stop-color="#549900"/></linearGradient><linearGradient id="u" x1="209.333" x2="267.428" y1="169.645" y2="165.506" gradientUnits="userSpaceOnUse"><stop stop-color="#dd2323"/><stop offset=".66" stop-color="#dd2323"/><stop offset=".75" stop-color="#ff6565"/><stop offset=".841" stop-color="#dd2323"/><stop offset="1" stop-color="#dd2323"/></linearGradient><linearGradient id="v" x1="221" x2="281.5" y1="178.5" y2="175" gradientUnits="userSpaceOnUse"><stop stop-color="#549900"/><stop offset=".66" stop-color="#62a214"/><stop offset=".75" stop-color="#92d541"/><stop offset=".841" stop-color="#62a214"/><stop offset="1" stop-color="#549900"/></linearGradient><linearGradient id="w" x1="141" x2="201.5" y1="177.5" y2="174" gradientUnits="userSpaceOnUse"><stop stop-color="#549900"/><stop offset=".66" stop-color="#62a214"/><stop offset=".75" stop-color="#92d541"/><stop offset=".841" stop-color="#62a214"/><stop offset="1" stop-color="#549900"/></linearGradient><filter id="b" width="282" height="241" x="7.169" y="1" color-interpolation-filters="sRGB" filterUnits="userSpaceOnUse"><feFlood flood-opacity="0" result="BackgroundImageFix"/><feBlend in="SourceGraphic" in2="BackgroundImageFix" result="shape"/><feColorMatrix in="SourceAlpha" result="hardAlpha" values="0 0 0 0 0 0 0 0 0 0 0 0 0 0 0 0 0 0 127 0"/><feOffset dy="-5"/><feGaussianBlur stdDeviation="5.35"/><feComposite in2="hardAlpha" k2="-1" k3="1" operator="arithmetic"/><feColorMatrix values="0 0 0 0 0.365385 0 0 0 0 0.365385 0 0 0 0 0.365385 0 0 0 0.71 0"/><feBlend in2="shape" mode="lighten" result="effect1_innerShadow_55_500"/></filter><filter id="j" width="165.8" height="165.8" x="-1.4" y="160.6" color-interpolation-filters="sRGB" filterUnits="userSpaceOnUse"><feFlood flood-opacity="0" result="BackgroundImageFix"/><feBlend in="SourceGraphic" in2="BackgroundImageFix" result="shape"/><feGaussianBlur result="effect1_foregroundBlur_55_500" stdDeviation="11.2"/></filter><filter id="k" width="11.8" height="11.8" x="92.1" y="223.1" color-interpolation-filters="sRGB" filterUnits="userSpaceOnUse"><feFlood flood-opacity="0" result="BackgroundImageFix"/><feBlend in="SourceGraphic" in2="BackgroundImageFix" result="shape"/><feGaussianBlur result="effect1_foregroundBlur_55_500" stdDeviation="1.95"/></filter><filter id="l" width="5.9" height="5.9" x="114.05" y="95.05" color-interpolation-filters="sRGB" filterUnits="userSpaceOnUse"><feFlood flood-opacity="0" result="BackgroundImageFix"/><feBlend in="SourceGraphic" in2="BackgroundImageFix" result="shape"/><feGaussianBlur result="effect1_foregroundBlur_55_500" stdDeviation=".975"/></filter><filter id="m" width="2.95" height="2.95" x="31.025" y="224.025" color-interpolation-filters="sRGB" filterUnits="userSpaceOnUse"><feFlood flood-opacity="0" result="BackgroundImageFix"/><feBlend in="SourceGraphic" in2="BackgroundImageFix" result="shape"/><feGaussianBlur result="effect1_foregroundBlur_55_500" stdDeviation=".487"/></filter><filter id="n" width="11.8" height="11.8" x="88.1" y="19.1" color-interpolation-filters="sRGB" filterUnits="userSpaceOnUse"><feFlood flood-opacity="0" result="BackgroundImageFix"/><feBlend in="SourceGraphic" in2="BackgroundImageFix" result="shape"/><feGaussianBlur result="effect1_foregroundBlur_55_500" stdDeviation="1.95"/></filter><filter id="o" width="60" height="72" x="30.5" y="30" color-interpolation-filters="sRGB" filterUnits="userSpaceOnUse"><feFlood flood-opacity="0" result="BackgroundImageFix"/><feBlend in="SourceGraphic" in2="BackgroundImageFix" result="shape"/><feColorMatrix in="SourceAlpha" result="hardAlpha" values="0 0 0 0 0 0 0 0 0 0 0 0 0 0 0 0 0 0 127 0"/><feOffset dx="4" dy="16"/><feGaussianBlur stdDeviation="8"/><feComposite in2="hardAlpha" k2="-1" k3="1" operator="arithmetic"/><feColorMatrix values="0 0 0 0 1 0 0 0 0 1 0 0 0 0 1 0 0 0 0.6 0"/><feBlend in2="shape" result="effect1_innerShadow_55_500"/><feColorMatrix in="SourceAlpha" result="hardAlpha" values="0 0 0 0 0 0 0 0 0 0 0 0 0 0 0 0 0 0 127 0"/><feOffset dy="2"/><feGaussianBlur stdDeviation="1"/><feComposite in2="hardAlpha" k2="-1" k3="1" operator="arithmetic"/><feColorMatrix values="0 0 0 0 1 0 0 0 0 1 0 0 0 0 1 0 0 0 1 0"/><feBlend in2="effect1_innerShadow_55_500" result="effect2_innerShadow_55_500"/></filter></defs></svg>