<svg xmlns="http://www.w3.org/2000/svg" width="392" height="608" fill="none" viewBox="0 0 392 608"><g opacity=".35"><g filter="url(#a)"><circle cx="307.687" cy="570.436" r="328.45" fill="#fff" fill-opacity=".04" transform="rotate(49.029 307.687 570.436)"/></g><circle cx="307.687" cy="570.436" r="327.911" stroke="#fff" stroke-opacity=".12" stroke-width="1.078" transform="rotate(49.029 307.687 570.436)"/></g><g filter="url(#b)"><path fill="url(#c)" d="M501.698 308.572c-78.136-58.005-177.384-77.051-269.583-55.154l-.591-2.48a328.46 328.46 0 0 1 271.69 55.587z"/></g><path fill="url(#d)" d="M502.632 307.31c-78.512-58.283-178.238-77.42-270.881-55.418l-.227-.954a328.46 328.46 0 0 1 271.69 55.587z"/><g opacity=".5"><g filter="url(#e)"><circle cx="307.67" cy="570.679" r="276.149" fill="#fff" fill-opacity=".04" transform="rotate(49.029 307.67 570.679)"/></g><circle cx="307.67" cy="570.679" r="275.61" stroke="#fff" stroke-opacity=".12" stroke-width="1.079" transform="rotate(49.029 307.67 570.679)"/></g><g opacity=".35"><g filter="url(#f)"><circle cx="307.676" cy="570.673" r="275.985" fill="#fff" fill-opacity=".04" transform="rotate(49.029 307.676 570.673)"/></g><circle cx="307.676" cy="570.673" r="275.446" stroke="#fff" stroke-opacity=".12" stroke-width="1.078" transform="rotate(49.029 307.676 570.673)"/></g><g filter="url(#g)"><path fill="url(#h)" d="M240.578 302.816a276 276 0 0 1 261.833 71.83l-1.628 1.639c-69.707-69.353-168.981-94.057-259.691-71.425z"/></g><path fill="url(#i)" d="M240.579 302.816a275.98 275.98 0 0 1 261.833 71.83l-.725.729c-70.034-69.678-169.773-94.497-260.908-71.759z"/><g opacity=".35"><g filter="url(#j)"><circle cx="307.705" cy="570.189" r="223.848" fill="#fff" fill-opacity=".04" transform="rotate(49.029 307.705 570.189)"/></g><circle cx="307.705" cy="570.189" r="223.309" stroke="#fff" stroke-opacity=".12" stroke-width="1.078" transform="rotate(49.029 307.705 570.189)"/></g><g filter="url(#k)"><path fill="url(#l)" d="M373.965 356.372a223.85 223.85 0 0 1 106.776 71.808l-1.752 1.438a226 226 0 0 0-4.038-4.784c-58.475-67.336-148.673-90.818-229.049-67.521l-.608-2.096a223.85 223.85 0 0 1 128.671 1.155"/></g><path fill="url(#m)" d="M373.964 356.373A223.84 223.84 0 0 1 480.74 428.18l-1.144.939a227 227 0 0 0-4.053-4.799c-58.681-67.574-149.199-91.139-229.859-67.76l-.39-1.342a223.84 223.84 0 0 1 128.67 1.155"/><g opacity=".35"><g filter="url(#n)"><circle cx="307.687" cy="570.437" r="171.547" fill="#fff" fill-opacity=".04" transform="rotate(49.029 307.687 570.437)"/></g><circle cx="307.687" cy="570.437" r="171.008" stroke="#fff" stroke-opacity=".12" stroke-width="1.078" transform="rotate(49.029 307.687 570.437)"/></g><g filter="url(#o)"><circle cx="307.687" cy="570.436" r="119.246" fill="#191b1d" transform="rotate(49.029 307.687 570.436)"/><circle cx="307.687" cy="570.436" r="118.462" stroke="url(#p)" stroke-width="1.569" transform="rotate(49.029 307.687 570.436)"/></g><g filter="url(#q)"><circle cx="307.687" cy="570.436" r="119.246" fill="#191b1d" transform="rotate(49.029 307.687 570.436)"/></g><circle cx="307.687" cy="570.436" r="118.723" stroke="url(#r)" stroke-width="1.046" transform="rotate(49.029 307.687 570.436)"/><g filter="url(#s)"><path fill="url(#t)" d="M407.856 434.364c-47.032-34.69-108.695-42.252-162.27-21.081l-.944-2.389a171.55 171.55 0 0 1 164.745 21.392z"/></g><g filter="url(#u)"><circle cx="307.153" cy="570.411" r="78.975" fill="#fff" fill-opacity=".04" transform="rotate(49.029 307.153 570.411)"/></g><circle cx="307.153" cy="570.411" r="78.77" stroke="#fff" stroke-opacity=".12" stroke-width=".409" transform="rotate(49.029 307.153 570.411)"/><path fill="url(#v)" fill-opacity=".92" d="m308.001 515.001 19.369 22.584 13.631-14.109v28.935h-3.587l3.587 3.586v37.448h-7.112v15.403l-5.562 3.597v-31.338l9.805-9.804h-7.653l-9.526 5.501-10.083-5.822v-9.961h18.414l-9.112-5.261h-24.367l-9.087 5.261h17.457v28.935h7.858l10.555 8.524v10.128l4.584 4.584-19.171 12.406H308l-25.888-16.75v-15.403h-6.305l-.429-37.108 3.927-3.926h-3.971L275 523.476l13.631 14.109zm-.239 94.073 3.108-3.109h-6.217zm-10.044-6.935h20.565l-5.021-4.066h-10.044zm-12.674-31.075-2.631 2.631 11.479 12.674 3.348-2.869v-7.174h-6.696zh18.174L298.914 567h-9.805zm27.978-.082h16.262l-3.744-3.744h-8.691z"/><path fill="#191b1d" d="m308.029 547.029-4.334-7.507 4.334-7.506 4.334 7.506z"/><defs><filter id="a" width="656.911" height="676.532" x="-20.768" y="241.98" color-interpolation-filters="sRGB" filterUnits="userSpaceOnUse"><feFlood flood-opacity="0" result="BackgroundImageFix"/><feBlend in="SourceGraphic" in2="BackgroundImageFix" result="shape"/><feColorMatrix in="SourceAlpha" result="hardAlpha" values="0 0 0 0 0 0 0 0 0 0 0 0 0 0 0 0 0 0 127 0"/><feOffset dy="19.621"/><feGaussianBlur stdDeviation="9.811"/><feComposite in2="hardAlpha" k2="-1" k3="1" operator="arithmetic"/><feColorMatrix values="0 0 0 0 1 0 0 0 0 1 0 0 0 0 1 0 0 0 0.07 0"/><feBlend in2="shape" result="effect1_innerShadow_402_726"/></filter><filter id="b" width="276.958" height="71.854" x="228.89" y="239.351" color-interpolation-filters="sRGB" filterUnits="userSpaceOnUse"><feFlood flood-opacity="0" result="BackgroundImageFix"/><feBlend in="SourceGraphic" in2="BackgroundImageFix" result="shape"/><feGaussianBlur result="effect1_foregroundBlur_402_726" stdDeviation="1.317"/></filter><filter id="e" width="552.307" height="571.941" x="31.516" y="294.525" color-interpolation-filters="sRGB" filterUnits="userSpaceOnUse"><feFlood flood-opacity="0" result="BackgroundImageFix"/><feBlend in="SourceGraphic" in2="BackgroundImageFix" result="shape"/><feColorMatrix in="SourceAlpha" result="hardAlpha" values="0 0 0 0 0 0 0 0 0 0 0 0 0 0 0 0 0 0 127 0"/><feOffset dy="19.633"/><feGaussianBlur stdDeviation="9.816"/><feComposite in2="hardAlpha" k2="-1" k3="1" operator="arithmetic"/><feColorMatrix values="0 0 0 0 1 0 0 0 0 1 0 0 0 0 1 0 0 0 0.07 0"/><feBlend in2="shape" result="effect1_innerShadow_402_726"/></filter><filter id="f" width="551.979" height="571.601" x="31.687" y="294.684" color-interpolation-filters="sRGB" filterUnits="userSpaceOnUse"><feFlood flood-opacity="0" result="BackgroundImageFix"/><feBlend in="SourceGraphic" in2="BackgroundImageFix" result="shape"/><feColorMatrix in="SourceAlpha" result="hardAlpha" values="0 0 0 0 0 0 0 0 0 0 0 0 0 0 0 0 0 0 127 0"/><feOffset dy="19.621"/><feGaussianBlur stdDeviation="9.811"/><feComposite in2="hardAlpha" k2="-1" k3="1" operator="arithmetic"/><feColorMatrix values="0 0 0 0 1 0 0 0 0 1 0 0 0 0 1 0 0 0 0.07 0"/><feBlend in2="shape" result="effect1_innerShadow_402_726"/></filter><filter id="g" width="267.101" height="87.079" x="237.944" y="291.84" color-interpolation-filters="sRGB" filterUnits="userSpaceOnUse"><feFlood flood-opacity="0" result="BackgroundImageFix"/><feBlend in="SourceGraphic" in2="BackgroundImageFix" result="shape"/><feGaussianBlur result="effect1_foregroundBlur_402_726" stdDeviation="1.317"/></filter><filter id="j" width="447.703" height="467.324" x="83.853" y="346.338" color-interpolation-filters="sRGB" filterUnits="userSpaceOnUse"><feFlood flood-opacity="0" result="BackgroundImageFix"/><feBlend in="SourceGraphic" in2="BackgroundImageFix" result="shape"/><feColorMatrix in="SourceAlpha" result="hardAlpha" values="0 0 0 0 0 0 0 0 0 0 0 0 0 0 0 0 0 0 127 0"/><feOffset dy="19.621"/><feGaussianBlur stdDeviation="9.811"/><feComposite in2="hardAlpha" k2="-1" k3="1" operator="arithmetic"/><feColorMatrix values="0 0 0 0 1 0 0 0 0 1 0 0 0 0 1 0 0 0 0.07 0"/><feBlend in2="shape" result="effect1_innerShadow_402_726"/></filter><filter id="k" width="241.008" height="88.838" x="242.514" y="343.561" color-interpolation-filters="sRGB" filterUnits="userSpaceOnUse"><feFlood flood-opacity="0" result="BackgroundImageFix"/><feBlend in="SourceGraphic" in2="BackgroundImageFix" result="shape"/><feGaussianBlur result="effect1_foregroundBlur_402_726" stdDeviation="1.39"/></filter><filter id="n" width="343.1" height="362.721" x="136.137" y="398.887" color-interpolation-filters="sRGB" filterUnits="userSpaceOnUse"><feFlood flood-opacity="0" result="BackgroundImageFix"/><feBlend in="SourceGraphic" in2="BackgroundImageFix" result="shape"/><feColorMatrix in="SourceAlpha" result="hardAlpha" values="0 0 0 0 0 0 0 0 0 0 0 0 0 0 0 0 0 0 127 0"/><feOffset dy="19.621"/><feGaussianBlur stdDeviation="9.811"/><feComposite in2="hardAlpha" k2="-1" k3="1" operator="arithmetic"/><feColorMatrix values="0 0 0 0 1 0 0 0 0 1 0 0 0 0 1 0 0 0 0.07 0"/><feBlend in2="shape" result="effect1_innerShadow_402_726"/></filter><filter id="o" width="252.617" height="259.196" x="181.378" y="444.127" color-interpolation-filters="sRGB" filterUnits="userSpaceOnUse"><feFlood flood-opacity="0" result="BackgroundImageFix"/><feBlend in="SourceGraphic" in2="BackgroundImageFix" result="shape"/><feColorMatrix in="SourceAlpha" result="hardAlpha" values="0 0 0 0 0 0 0 0 0 0 0 0 0 0 0 0 0 0 127 0"/><feOffset dy="13.639"/><feGaussianBlur stdDeviation="6.82"/><feComposite in2="hardAlpha" k2="-1" k3="1" operator="arithmetic"/><feColorMatrix values="0 0 0 0 1 0 0 0 0 1 0 0 0 0 1 0 0 0 0.07 0"/><feBlend in2="shape" result="effect1_innerShadow_402_726"/><feGaussianBlur result="effect2_foregroundBlur_402_726" stdDeviation="3.53"/></filter><filter id="q" width="238.496" height="252.135" x="188.439" y="451.188" color-interpolation-filters="sRGB" filterUnits="userSpaceOnUse"><feFlood flood-opacity="0" result="BackgroundImageFix"/><feBlend in="SourceGraphic" in2="BackgroundImageFix" result="shape"/><feColorMatrix in="SourceAlpha" result="hardAlpha" values="0 0 0 0 0 0 0 0 0 0 0 0 0 0 0 0 0 0 127 0"/><feOffset dy="13.639"/><feGaussianBlur stdDeviation="6.82"/><feComposite in2="hardAlpha" k2="-1" k3="1" operator="arithmetic"/><feColorMatrix values="0 0 0 0 1 0 0 0 0 1 0 0 0 0 1 0 0 0 0.07 0"/><feBlend in2="shape" result="effect1_innerShadow_402_726"/></filter><filter id="s" width="170.305" height="41.036" x="241.862" y="396.108" color-interpolation-filters="sRGB" filterUnits="userSpaceOnUse"><feFlood flood-opacity="0" result="BackgroundImageFix"/><feBlend in="SourceGraphic" in2="BackgroundImageFix" result="shape"/><feGaussianBlur result="effect1_foregroundBlur_402_726" stdDeviation="1.39"/></filter><filter id="u" width="157.951" height="165.399" x="228.177" y="491.436" color-interpolation-filters="sRGB" filterUnits="userSpaceOnUse"><feFlood flood-opacity="0" result="BackgroundImageFix"/><feBlend in="SourceGraphic" in2="BackgroundImageFix" result="shape"/><feColorMatrix in="SourceAlpha" result="hardAlpha" values="0 0 0 0 0 0 0 0 0 0 0 0 0 0 0 0 0 0 127 0"/><feOffset dy="7.447"/><feGaussianBlur stdDeviation="3.724"/><feComposite in2="hardAlpha" k2="-1" k3="1" operator="arithmetic"/><feColorMatrix values="0 0 0 0 1 0 0 0 0 1 0 0 0 0 1 0 0 0 0.07 0"/><feBlend in2="shape" result="effect1_innerShadow_402_726"/></filter><linearGradient id="c" x1="503.461" x2="307.162" y1="306.912" y2="177.221" gradientUnits="userSpaceOnUse"><stop stop-color="#e7ffca" stop-opacity=".6"/><stop offset=".126" stop-color="#6cb317"/><stop offset=".274" stop-color="#aff45b"/><stop offset=".609" stop-color="#60a50c"/><stop offset=".939" stop-color="#549900" stop-opacity=".02"/></linearGradient><linearGradient id="d" x1="503.461" x2="307.162" y1="306.911" y2="177.22" gradientUnits="userSpaceOnUse"><stop stop-color="#e7ffca" stop-opacity=".6"/><stop offset=".126" stop-color="#6cb317"/><stop offset=".274" stop-color="#aff45b"/><stop offset=".609" stop-color="#60a50c"/><stop offset=".939" stop-color="#549900" stop-opacity=".02"/></linearGradient><linearGradient id="h" x1="459.134" x2="279.311" y1="332.198" y2="322.481" gradientUnits="userSpaceOnUse"><stop stop-color="#599f02" stop-opacity="0"/><stop offset=".126" stop-color="#6cb317"/><stop offset=".274" stop-color="#aff45b"/><stop offset=".609" stop-color="#60a50c"/><stop offset=".939" stop-color="#549900" stop-opacity=".02"/></linearGradient><linearGradient id="i" x1="459.135" x2="279.311" y1="332.198" y2="322.48" gradientUnits="userSpaceOnUse"><stop stop-color="#599f02" stop-opacity="0"/><stop offset=".126" stop-color="#6cb317"/><stop offset=".274" stop-color="#aff45b"/><stop offset=".609" stop-color="#60a50c"/><stop offset=".939" stop-color="#549900" stop-opacity=".02"/></linearGradient><linearGradient id="l" x1="429.12" x2="226.275" y1="358.997" y2="262.258" gradientUnits="userSpaceOnUse"><stop stop-color="#599f02" stop-opacity="0"/><stop offset=".126" stop-color="#6cb317"/><stop offset=".274" stop-color="#aff45b"/><stop offset=".609" stop-color="#60a50c"/><stop offset=".939" stop-color="#549900" stop-opacity=".02"/></linearGradient><linearGradient id="m" x1="429.119" x2="262.375" y1="358.997" y2="289.437" gradientUnits="userSpaceOnUse"><stop stop-color="#599f02" stop-opacity="0"/><stop offset=".126" stop-color="#6cb317"/><stop offset=".274" stop-color="#aff45b"/><stop offset=".609" stop-color="#60a50c"/><stop offset=".939" stop-color="#549900" stop-opacity=".02"/></linearGradient><linearGradient id="p" x1="421.18" x2="294.089" y1="519.704" y2="653.071" gradientUnits="userSpaceOnUse"><stop stop-color="#8cff00"/><stop offset="1" stop-color="#549900" stop-opacity="0"/></linearGradient><linearGradient id="r" x1="415.427" x2="276.306" y1="524.411" y2="611.231" gradientUnits="userSpaceOnUse"><stop stop-color="#8cff00"/><stop offset="1" stop-color="#549900" stop-opacity="0"/></linearGradient><linearGradient id="t" x1="380.764" x2="283.52" y1="422.468" y2="325.9" gradientUnits="userSpaceOnUse"><stop stop-color="#599f02" stop-opacity="0"/><stop offset=".126" stop-color="#6cb317"/><stop offset=".274" stop-color="#aff45b"/><stop offset=".609" stop-color="#60a50c"/><stop offset=".939" stop-color="#549900" stop-opacity=".02"/></linearGradient><linearGradient id="v" x1="308" x2="308" y1="515" y2="625.598" gradientUnits="userSpaceOnUse"><stop stop-color="#fff"/><stop offset="1" stop-color="#89f801"/></linearGradient></defs></svg>