<svg xmlns="http://www.w3.org/2000/svg" width="440" height="363" fill="none" viewBox="0 0 440 363"><g filter="url(#a)"><path fill="url(#b)" d="M95.397 283.675 3.4 74.971C1.8 71.34 4.46 67.26 8.428 67.26h461.821c4.34 0 6.967 4.794 4.632 8.452L332.052 299.407a5.5 5.5 0 0 1-3.503 2.421l-142.513 29.89a5.5 5.5 0 0 1-3.706-.525l-84.483-44.882a5.5 5.5 0 0 1-2.45-2.636"/></g><g filter="url(#c)"><path fill="url(#d)" d="M115.27 222.088 35.904 42.04c-1.382-3.134.913-6.653 4.337-6.653h398.414c3.744 0 6.011 4.136 3.996 7.292L319.432 235.66a4.74 4.74 0 0 1-3.022 2.089l-122.945 25.786a4.75 4.75 0 0 1-3.198-.453l-72.883-38.719a4.75 4.75 0 0 1-2.114-2.275"/></g><g filter="url(#e)"><path fill="url(#f)" d="M134.15 204.302 66.783 51.475c-1.173-2.66.775-5.647 3.682-5.647H408.64c3.178 0 5.102 3.511 3.391 6.19L307.444 215.822a4.03 4.03 0 0 1-2.566 1.772l-104.357 21.888a4.02 4.02 0 0 1-2.713-.385l-61.864-32.865a4.02 4.02 0 0 1-1.794-1.93"/></g><g filter="url(#g)" style="mix-blend-mode:plus-lighter"><path fill="url(#h)" d="M158.86 141.381 107.988 25.643c-1.169-2.66.779-5.643 3.683-5.643h255.767c3.176 0 5.1 3.506 3.395 6.185l-78.951 124.004a4.03 4.03 0 0 1-2.567 1.777l-79.17 16.652a4.02 4.02 0 0 1-2.72-.386l-46.773-24.919a4.03 4.03 0 0 1-1.792-1.932"/></g><g filter="url(#i)" style="mix-blend-mode:plus-lighter"><path fill="url(#j)" d="M158.86 141.381 107.988 25.643c-1.169-2.66.779-5.643 3.683-5.643h255.767c3.176 0 5.1 3.506 3.395 6.185l-78.951 124.004a4.03 4.03 0 0 1-2.567 1.777l-79.17 16.652a4.02 4.02 0 0 1-2.72-.386l-46.773-24.919a4.03 4.03 0 0 1-1.792-1.932"/></g><g filter="url(#k)" style="mix-blend-mode:plus-lighter"><path fill="url(#l)" d="m158.86 289.201-50.872-115.738c-1.169-2.659.779-5.643 3.683-5.643h255.767c3.176 0 5.1 3.507 3.395 6.185l-78.951 124.004a4.02 4.02 0 0 1-2.567 1.777l-79.17 16.652a4.02 4.02 0 0 1-2.72-.386l-46.773-24.919a4.02 4.02 0 0 1-1.792-1.932"/></g><g filter="url(#m)" style="mix-blend-mode:plus-lighter"><path fill="url(#n)" d="m158.86 279.311-50.872-115.738c-1.169-2.659.779-5.643 3.683-5.643h255.767c3.176 0 5.1 3.506 3.395 6.185l-78.951 124.004a4.02 4.02 0 0 1-2.567 1.776l-79.17 16.653a4.03 4.03 0 0 1-2.72-.387l-46.773-24.918a4.03 4.03 0 0 1-1.792-1.932"/></g><g filter="url(#o)" opacity=".68"><path fill="url(#p)" d="M115.948 293.66c55.133 31.831 144.522 31.831 199.655 0v4.111c-55.133 31.831-144.522 32.93-199.655 1.099z"/></g><g filter="url(#q)"><path fill="url(#r)" d="M115.948 160.643c55.133-31.832 144.522-31.832 199.655 0v-4.111c-55.133-31.831-144.522-32.93-199.655-1.099z"/></g><g filter="url(#s)"><circle cx="115.271" cy="115.271" r="115.271" fill="url(#t)" transform="matrix(.86603 .5 -.86603 .5 216.141 107.924)"/></g><path stroke="#fff" stroke-opacity=".12" stroke-width="1.133" d="M315.477 165.842c54.862 31.675 54.863 83.03.001 114.705s-143.813 31.675-198.675 0-54.861-83.03.001-114.705 143.811-31.674 198.673 0Z"/><g opacity=".25" style="mix-blend-mode:color-dodge"><mask id="w" fill="#fff"><path d="M283.178 151.461c-16.316-5.082-34.207-8.26-52.65-9.351s-37.078-.073-54.84 2.994-34.305 8.124-48.682 14.882-26.308 15.085-35.112 24.505c-8.803 9.42-14.306 19.749-16.196 30.397s-.127 21.407 5.185 31.662 14.071 19.806 25.776 28.106 26.128 15.19 42.444 20.272l67.038-71.733z"/></mask><g filter="url(#u)"><path fill="url(#v)" d="M283.178 151.461c-16.316-5.082-34.207-8.26-52.65-9.351s-37.078-.073-54.84 2.994-34.305 8.124-48.682 14.882-26.308 15.085-35.112 24.505c-8.803 9.42-14.306 19.749-16.196 30.397s-.127 21.407 5.185 31.662 14.071 19.806 25.776 28.106 26.128 15.19 42.444 20.272l67.038-71.733z"/></g><path stroke="#fff" stroke-opacity=".12" stroke-width="2.265" d="M283.178 151.461c-16.316-5.082-34.207-8.26-52.65-9.351s-37.078-.073-54.84 2.994-34.305 8.124-48.682 14.882-26.308 15.085-35.112 24.505c-8.803 9.42-14.306 19.749-16.196 30.397s-.127 21.407 5.185 31.662 14.071 19.806 25.776 28.106 26.128 15.19 42.444 20.272l67.038-71.733z" mask="url(#w)"/></g><g style="mix-blend-mode:color-dodge"><mask id="z" fill="#fff"><path d="M252.68 144.463c-36.167-5.595-74.702-2.666-107.128 8.143s-56.087 28.612-65.778 49.493-4.618 43.129 14.103 61.85c18.722 18.721 49.557 32.382 85.724 37.977l36.54-78.731z"/></mask><g filter="url(#x)"><path fill="url(#y)" d="M252.68 144.463c-36.167-5.595-74.702-2.666-107.128 8.143s-56.087 28.612-65.778 49.493-4.618 43.129 14.103 61.85c18.722 18.721 49.557 32.382 85.724 37.977l36.54-78.731z"/></g><path stroke="#fff" stroke-opacity=".12" stroke-width="2.265" d="M252.68 144.463c-36.167-5.595-74.702-2.666-107.128 8.143s-56.087 28.612-65.778 49.493-4.618 43.129 14.103 61.85c18.722 18.721 49.557 32.382 85.724 37.977l36.54-78.731z" mask="url(#z)"/></g><g opacity=".25" style="mix-blend-mode:color-dodge"><mask id="C" fill="#fff"><path d="M203.836 141.996c-37.3 1.884-71.776 12.246-95.844 28.806S72.237 208.763 75.5 230.299c3.264 21.535 21.21 41.44 49.893 55.335s65.752 20.643 103.052 18.759l-12.304-81.198z"/></mask><g filter="url(#A)"><path fill="url(#B)" d="M203.836 141.996c-37.3 1.884-71.776 12.246-95.844 28.806S72.237 208.763 75.5 230.299c3.264 21.535 21.21 41.44 49.893 55.335s65.752 20.643 103.052 18.759l-12.304-81.198z"/></g><path stroke="#fff" stroke-opacity=".12" stroke-width="2.265" d="M203.836 141.996c-37.3 1.884-71.776 12.246-95.844 28.806S72.237 208.763 75.5 230.299c3.264 21.535 21.21 41.44 49.893 55.335s65.752 20.643 103.052 18.759l-12.304-81.198z" mask="url(#C)"/></g><g filter="url(#D)"><circle cx="307.18" cy="182.108" r=".55" fill="#cdd9e3"/></g><g filter="url(#E)"><circle cx="319.819" cy="183.208" r=".55" fill="#cdd9e3"/></g><g filter="url(#F)"><circle cx="109.903" cy="182.108" r=".55" fill="#cdd9e3"/></g><g filter="url(#G)"><circle cx="107.98" cy="197.769" r=".275" fill="#fff"/></g><g filter="url(#H)"><circle cx="107.705" cy="197.495" r=".55" fill="#cdd9e3"/></g><g filter="url(#I)"><circle cx="140.127" cy="167.271" r=".275" fill="#cdd9e3"/></g><g filter="url(#J)"><circle cx="95.891" cy="188.427" r=".275" fill="#cdd9e3"/></g><g filter="url(#K)"><circle cx="120.894" cy="273.878" r=".55" fill="#cdd9e3"/></g><g filter="url(#L)"><circle cx="141.226" cy="271.678" r=".55" fill="#cdd9e3"/></g><g opacity=".35"><g filter="url(#M)"><circle cx="88.925" cy="88.925" r="88.925" fill="#fff" fill-opacity=".04" transform="matrix(.86603 .5 -.86603 .5 216.141 134.27)"/></g><path stroke="#fff" stroke-opacity=".12" stroke-width="1.133" d="M292.662 179.016c42.261 24.399 42.261 63.959-.001 88.359s-110.78 24.399-153.041 0-42.262-63.96-.001-88.359c42.262-24.4 110.781-24.4 153.043 0Z"/></g><g filter="url(#N)"><path fill="url(#O)" d="M143.597 177.247q-1.83.964-3.6 1.985c-27.937 16.13-37.314 38.916-28.133 59.515l-1.173.176c-4.954-11.072-4.585-22.714 1.068-33.673 5.652-10.96 16.375-20.822 31.012-28.525z"/></g><g filter="url(#P)"><path fill="url(#Q)" d="m143.597 177.247.256.486.839-.442-.802-.508zm-3.6 1.985-.275-.475zm-28.133 59.515.082.544.714-.108-.294-.66zm-1.173.176-.501.224.17.381.413-.062zm1.068-33.673-.489-.252zm31.012-28.525.294-.465-.268-.17-.282.148zm.826.522-.257-.486a107 107 0 0 0-3.618 1.996l.275.475.275.476a107 107 0 0 1 3.581-1.975zm-3.6 1.985-.275-.475c-14.038 8.104-23.462 17.91-28.211 28.329-4.754 10.43-4.804 21.441-.149 31.885l.502-.224.502-.224c-4.526-10.155-4.478-20.837.145-30.981 4.629-10.157 13.862-19.809 27.761-27.834zm-28.133 59.515-.081-.543-1.173.175.081.544.082.543 1.173-.175zm-1.173.176.502-.225c-4.885-10.916-4.523-22.382 1.054-33.196l-.488-.252-.489-.252c-5.727 11.105-6.104 22.922-1.08 34.149zm1.068-33.673.488.252c5.586-10.831 16.209-20.623 30.78-28.291l-.256-.486-.256-.487c-14.703 7.739-25.526 17.671-31.245 28.76zm31.012-28.525-.294.464.826.522.294-.464.293-.464-.825-.523z"/></g><g filter="url(#R)"><circle cx="72.848" cy="72.848" r="72.848" fill="#0b0c0d" transform="matrix(.86603 .5 -.86603 .5 216 151)"/></g><path stroke="#fff" stroke-opacity=".12" stroke-width=".43" d="M278.903 187.532c34.739 20.057 34.739 52.576-.001 72.633s-91.064 20.057-125.804 0-34.74-52.576-.001-72.633 91.066-20.057 125.806 0Z"/><g filter="url(#S)"><path fill="url(#T)" d="M191.145 173.961c14.306-2.433 29.442-2.757 44.021-.942l-.363.969c-28.06-3.477-58.509 1.077-80.313 13.666l-1.22-.706c10.546-6.088 23.568-10.553 37.875-12.987"/></g><g filter="url(#U)"><path fill="url(#V)" d="m191.145 173.961-.093-.542zm44.021-.942.515.193.244-.653-.691-.086zm-.363.97-.068.545.43.053.152-.406zm-80.313 13.665-.275.475.275.159.275-.159zm-1.22-.706-.275-.475-.824.475.824.476zm37.875-12.987.092.542c14.253-2.424 29.334-2.748 43.861-.939l.068-.545.068-.546c-14.632-1.821-29.821-1.496-44.182.946zm44.021-.942-.515-.193-.363.97.515.193.514.192.364-.969zm-.363.97.067-.546c-28.148-3.488-58.724 1.073-80.654 13.735l.274.476.275.475c21.676-12.514 51.999-17.062 79.97-13.595zm-80.313 13.665.275-.476-1.221-.705-.274.475-.275.476 1.22.705zm-1.22-.706.274.476c10.48-6.05 23.438-10.497 37.693-12.921l-.092-.542-.093-.542c-14.359 2.443-27.445 6.927-38.057 13.054z"/></g><path fill="url(#W)" fill-opacity=".92" d="m242.566 196.78 1.854 14.196 15.658-4.363-13.842 13.842-2.346-.629.629 2.346-17.916 17.916-4.648-1.245-7.368 7.368-5.357.747 14.993-14.994 11.099-2.973-5.001-1.341-8.858.964-3.805-4.551 4.766-4.766 12.035 3.225-3.439-4.113-15.924-4.267-8.456.926 11.408 3.057-13.843 13.843 5.137 1.376 2.82 5.927-4.846 4.845.803 2.997-18.465 2.579.001-.002-8.905-12.546 7.369-7.369-4.122-1.104 17.476-17.831 4.442-1.189-2.594-.695 13.624-13.901 2.159 9.137 23.463-7.413zm-45.163 44.964 3.519-.943-4.064-1.089zm-3.247-5.077 13.441 3.602-1.338-2.825-6.563-1.759zm3.609-16.29 1.437 8.074 3.561-.787 3.432-3.432-4.376-1.172-1.078-3.481 11.878 3.183-.867-2.699-6.408-1.717zm21.3 4.063 10.628 2.848-.657-2.447-5.679-1.522z"/><g filter="url(#X)"><path fill="#0c0c0d" d="M74.963 223.193c0 22.508 15.802 42.886 41.35 57.636v9.606c-25.548-14.75-41.35-35.128-41.35-57.636z"/></g><path stroke="#fff" stroke-opacity=".12" stroke-width="1.133" d="M75.54 233.677c4.062 18.493 18.724 35.003 40.206 47.476v8.294c-24.626-14.462-39.806-34.144-40.207-55.77Z"/><g filter="url(#Y)"><path fill="#0b0b0c" d="M116.313 280.83c55.133 31.831 144.522 31.831 199.655 0v9.606c-55.133 31.831-144.522 31.831-199.655 0z"/></g><path stroke="#fff" stroke-opacity=".12" stroke-width="1.133" d="M315.402 290.106c-27.425 15.746-63.328 23.637-99.262 23.637s-71.836-7.891-99.26-23.637v-8.302c27.562 15.653 63.426 23.465 99.26 23.466 35.835 0 71.699-7.813 99.262-23.466z"/><g filter="url(#Z)"><path fill="#0b0b0c" d="M357.318 223.193c0 22.508-15.802 42.886-41.35 57.636v9.606c25.548-14.75 41.35-35.128 41.35-57.636z"/></g><path stroke="#fff" stroke-opacity=".12" stroke-width="1.133" d="M356.742 233.673c-.399 21.628-15.58 41.311-40.207 55.774v-8.294c21.484-12.474 36.145-28.985 40.207-47.48Z"/><g filter="url(#aa)"><circle cx="219.807" cy="104.626" r=".55" fill="#f8f8f8"/></g><g filter="url(#ab)"><circle cx="141.226" cy="127.706" r=".55" fill="#f8f8f8"/></g><g filter="url(#ac)"><circle cx="250.03" cy="82.095" r="1.099" fill="#f8f8f8"/></g><g filter="url(#ad)"><circle cx="279.704" cy="117.265" r="1.099" fill="#89f801"/></g><g filter="url(#ae)"><circle cx="250.03" cy="126.057" r=".55" fill="#89f801"/></g><g filter="url(#af)"><circle cx="173.098" cy="102.977" r=".55" fill="#89f801"/></g><g filter="url(#ag)" style="mix-blend-mode:plus-lighter"><circle cx="183.539" cy="133.751" r=".55" fill="#89f801"/></g><g filter="url(#ah)" style="mix-blend-mode:plus-lighter"><circle cx="240.688" cy="134.3" r=".55" fill="#89f801"/></g><g filter="url(#ai)" style="mix-blend-mode:plus-lighter"><circle cx="215.411" cy="134.3" r=".55" fill="#89f801"/></g><g filter="url(#aj)"><circle cx="196.727" cy="127.157" r=".55" fill="#fff"/></g><g filter="url(#ak)" style="mix-blend-mode:plus-lighter"><circle cx="196.727" cy="127.156" r="1.099" fill="#89f801"/></g><g filter="url(#al)"><circle cx="89.022" cy="188.153" r=".55" fill="#fff"/></g><g filter="url(#am)" style="mix-blend-mode:plus-lighter"><circle cx="89.022" cy="188.152" r="1.099" fill="#98a9a9"/></g><defs><filter id="a" width="533.274" height="325.023" x="-27.297" y="37.036" color-interpolation-filters="sRGB" filterUnits="userSpaceOnUse"><feFlood flood-opacity="0" result="BackgroundImageFix"/><feBlend in="SourceGraphic" in2="BackgroundImageFix" result="shape"/><feGaussianBlur result="effect1_foregroundBlur_402_2049" stdDeviation="15.112"/></filter><filter id="c" width="460.055" height="280.398" x="9.422" y="9.313" color-interpolation-filters="sRGB" filterUnits="userSpaceOnUse"><feFlood flood-opacity="0" result="BackgroundImageFix"/><feBlend in="SourceGraphic" in2="BackgroundImageFix" result="shape"/><feGaussianBlur result="effect1_foregroundBlur_402_2049" stdDeviation="13.037"/></filter><filter id="e" width="390.498" height="238.003" x="44.305" y="23.697" color-interpolation-filters="sRGB" filterUnits="userSpaceOnUse"><feFlood flood-opacity="0" result="BackgroundImageFix"/><feBlend in="SourceGraphic" in2="BackgroundImageFix" result="shape"/><feGaussianBlur result="effect1_foregroundBlur_402_2049" stdDeviation="11.066"/></filter><filter id="g" width="301.962" height="186.842" x="88.575" y=".932" color-interpolation-filters="sRGB" filterUnits="userSpaceOnUse"><feFlood flood-opacity="0" result="BackgroundImageFix"/><feBlend in="SourceGraphic" in2="BackgroundImageFix" result="shape"/><feGaussianBlur result="effect1_foregroundBlur_402_2049" stdDeviation="9.534"/></filter><filter id="i" width="301.962" height="186.842" x="88.575" y=".932" color-interpolation-filters="sRGB" filterUnits="userSpaceOnUse"><feFlood flood-opacity="0" result="BackgroundImageFix"/><feBlend in="SourceGraphic" in2="BackgroundImageFix" result="shape"/><feGaussianBlur result="effect1_foregroundBlur_402_2049" stdDeviation="9.534"/></filter><filter id="k" width="301.962" height="186.842" x="88.575" y="148.752" color-interpolation-filters="sRGB" filterUnits="userSpaceOnUse"><feFlood flood-opacity="0" result="BackgroundImageFix"/><feBlend in="SourceGraphic" in2="BackgroundImageFix" result="shape"/><feGaussianBlur result="effect1_foregroundBlur_402_2049" stdDeviation="9.534"/></filter><filter id="m" width="301.962" height="186.842" x="88.575" y="138.861" color-interpolation-filters="sRGB" filterUnits="userSpaceOnUse"><feFlood flood-opacity="0" result="BackgroundImageFix"/><feBlend in="SourceGraphic" in2="BackgroundImageFix" result="shape"/><feGaussianBlur result="effect1_foregroundBlur_402_2049" stdDeviation="9.534"/></filter><filter id="o" width="207.898" height="36.784" x="111.827" y="289.539" color-interpolation-filters="sRGB" filterUnits="userSpaceOnUse"><feFlood flood-opacity="0" result="BackgroundImageFix"/><feBlend in="SourceGraphic" in2="BackgroundImageFix" result="shape"/><feGaussianBlur result="effect1_foregroundBlur_402_2049" stdDeviation="2.061"/></filter><filter id="q" width="211.195" height="40.081" x="110.178" y="126.332" color-interpolation-filters="sRGB" filterUnits="userSpaceOnUse"><feFlood flood-opacity="0" result="BackgroundImageFix"/><feBlend in="SourceGraphic" in2="BackgroundImageFix" result="shape"/><feGaussianBlur result="effect1_foregroundBlur_402_2049" stdDeviation="2.885"/></filter><filter id="s" width="282.355" height="183.633" x="74.963" y="141.686" color-interpolation-filters="sRGB" filterUnits="userSpaceOnUse"><feFlood flood-opacity="0" result="BackgroundImageFix"/><feBlend in="SourceGraphic" in2="BackgroundImageFix" result="shape"/><feColorMatrix in="SourceAlpha" result="hardAlpha" values="0 0 0 0 0 0 0 0 0 0 0 0 0 0 0 0 0 0 127 0"/><feOffset dy="20.616"/><feGaussianBlur stdDeviation="10.308"/><feComposite in2="hardAlpha" k2="-1" k3="1" operator="arithmetic"/><feColorMatrix values="0 0 0 0 1 0 0 0 0 1 0 0 0 0 1 0 0 0 0.07 0"/><feBlend in2="shape" result="effect1_innerShadow_402_2049"/></filter><filter id="u" width="208.215" height="173.858" x="74.963" y="141.686" color-interpolation-filters="sRGB" filterUnits="userSpaceOnUse"><feFlood flood-opacity="0" result="BackgroundImageFix"/><feBlend in="SourceGraphic" in2="BackgroundImageFix" result="shape"/><feColorMatrix in="SourceAlpha" result="hardAlpha" values="0 0 0 0 0 0 0 0 0 0 0 0 0 0 0 0 0 0 127 0"/><feOffset dy="20.616"/><feGaussianBlur stdDeviation="10.308"/><feComposite in2="hardAlpha" k2="-1" k3="1" operator="arithmetic"/><feColorMatrix values="0 0 0 0 1 0 0 0 0 1 0 0 0 0 1 0 0 0 0.07 0"/><feBlend in2="shape" result="effect1_innerShadow_402_2049"/></filter><filter id="x" width="177.717" height="180.856" x="74.963" y="141.686" color-interpolation-filters="sRGB" filterUnits="userSpaceOnUse"><feFlood flood-opacity="0" result="BackgroundImageFix"/><feBlend in="SourceGraphic" in2="BackgroundImageFix" result="shape"/><feColorMatrix in="SourceAlpha" result="hardAlpha" values="0 0 0 0 0 0 0 0 0 0 0 0 0 0 0 0 0 0 127 0"/><feOffset dy="20.616"/><feGaussianBlur stdDeviation="10.308"/><feComposite in2="hardAlpha" k2="-1" k3="1" operator="arithmetic"/><feColorMatrix values="0 0 0 0 1 0 0 0 0 1 0 0 0 0 1 0 0 0 0.07 0"/><feBlend in2="shape" result="effect1_innerShadow_402_2049"/></filter><filter id="A" width="153.482" height="183.323" x="74.963" y="141.996" color-interpolation-filters="sRGB" filterUnits="userSpaceOnUse"><feFlood flood-opacity="0" result="BackgroundImageFix"/><feBlend in="SourceGraphic" in2="BackgroundImageFix" result="shape"/><feColorMatrix in="SourceAlpha" result="hardAlpha" values="0 0 0 0 0 0 0 0 0 0 0 0 0 0 0 0 0 0 127 0"/><feOffset dy="20.616"/><feGaussianBlur stdDeviation="10.308"/><feComposite in2="hardAlpha" k2="-1" k3="1" operator="arithmetic"/><feColorMatrix values="0 0 0 0 1 0 0 0 0 1 0 0 0 0 1 0 0 0 0.07 0"/><feBlend in2="shape" result="effect1_innerShadow_402_2049"/></filter><filter id="D" width="3.242" height="3.243" x="305.559" y="180.487" color-interpolation-filters="sRGB" filterUnits="userSpaceOnUse"><feFlood flood-opacity="0" result="BackgroundImageFix"/><feBlend in="SourceGraphic" in2="BackgroundImageFix" result="shape"/><feGaussianBlur result="effect1_foregroundBlur_402_2049" stdDeviation=".536"/></filter><filter id="E" width="3.242" height="3.243" x="318.198" y="181.587" color-interpolation-filters="sRGB" filterUnits="userSpaceOnUse"><feFlood flood-opacity="0" result="BackgroundImageFix"/><feBlend in="SourceGraphic" in2="BackgroundImageFix" result="shape"/><feGaussianBlur result="effect1_foregroundBlur_402_2049" stdDeviation=".536"/></filter><filter id="F" width="3.242" height="3.243" x="108.282" y="180.487" color-interpolation-filters="sRGB" filterUnits="userSpaceOnUse"><feFlood flood-opacity="0" result="BackgroundImageFix"/><feBlend in="SourceGraphic" in2="BackgroundImageFix" result="shape"/><feGaussianBlur result="effect1_foregroundBlur_402_2049" stdDeviation=".536"/></filter><filter id="G" width=".824" height=".824" x="107.568" y="197.357" color-interpolation-filters="sRGB" filterUnits="userSpaceOnUse"><feFlood flood-opacity="0" result="BackgroundImageFix"/><feBlend in="SourceGraphic" in2="BackgroundImageFix" result="shape"/><feGaussianBlur result="effect1_foregroundBlur_402_2049" stdDeviation=".069"/></filter><filter id="H" width="3.242" height="3.243" x="106.084" y="195.874" color-interpolation-filters="sRGB" filterUnits="userSpaceOnUse"><feFlood flood-opacity="0" result="BackgroundImageFix"/><feBlend in="SourceGraphic" in2="BackgroundImageFix" result="shape"/><feGaussianBlur result="effect1_foregroundBlur_402_2049" stdDeviation=".536"/></filter><filter id="I" width="1.621" height="1.62" x="139.316" y="166.46" color-interpolation-filters="sRGB" filterUnits="userSpaceOnUse"><feFlood flood-opacity="0" result="BackgroundImageFix"/><feBlend in="SourceGraphic" in2="BackgroundImageFix" result="shape"/><feGaussianBlur result="effect1_foregroundBlur_402_2049" stdDeviation=".268"/></filter><filter id="J" width="1.621" height="1.62" x="95.08" y="187.617" color-interpolation-filters="sRGB" filterUnits="userSpaceOnUse"><feFlood flood-opacity="0" result="BackgroundImageFix"/><feBlend in="SourceGraphic" in2="BackgroundImageFix" result="shape"/><feGaussianBlur result="effect1_foregroundBlur_402_2049" stdDeviation=".268"/></filter><filter id="K" width="3.242" height="3.243" x="119.273" y="272.257" color-interpolation-filters="sRGB" filterUnits="userSpaceOnUse"><feFlood flood-opacity="0" result="BackgroundImageFix"/><feBlend in="SourceGraphic" in2="BackgroundImageFix" result="shape"/><feGaussianBlur result="effect1_foregroundBlur_402_2049" stdDeviation=".536"/></filter><filter id="L" width="3.242" height="3.243" x="139.605" y="270.057" color-interpolation-filters="sRGB" filterUnits="userSpaceOnUse"><feFlood flood-opacity="0" result="BackgroundImageFix"/><feBlend in="SourceGraphic" in2="BackgroundImageFix" result="shape"/><feGaussianBlur result="effect1_foregroundBlur_402_2049" stdDeviation=".536"/></filter><filter id="M" width="217.822" height="146.375" x="107.229" y="160.314" color-interpolation-filters="sRGB" filterUnits="userSpaceOnUse"><feFlood flood-opacity="0" result="BackgroundImageFix"/><feBlend in="SourceGraphic" in2="BackgroundImageFix" result="shape"/><feColorMatrix in="SourceAlpha" result="hardAlpha" values="0 0 0 0 0 0 0 0 0 0 0 0 0 0 0 0 0 0 127 0"/><feOffset dy="20.616"/><feGaussianBlur stdDeviation="10.308"/><feComposite in2="hardAlpha" k2="-1" k3="1" operator="arithmetic"/><feColorMatrix values="0 0 0 0 1 0 0 0 0 1 0 0 0 0 1 0 0 0 0.07 0"/><feBlend in2="shape" result="effect1_innerShadow_402_2049"/></filter><filter id="N" width="42.21" height="68.04" x="104.308" y="173.803" color-interpolation-filters="sRGB" filterUnits="userSpaceOnUse"><feFlood flood-opacity="0" result="BackgroundImageFix"/><feBlend in="SourceGraphic" in2="BackgroundImageFix" result="shape"/><feGaussianBlur result="effect1_foregroundBlur_402_2049" stdDeviation="1.461"/></filter><filter id="P" width="38.013" height="77.768" x="106.68" y="176.09" color-interpolation-filters="sRGB" filterUnits="userSpaceOnUse"><feFlood flood-opacity="0" result="BackgroundImageFix"/><feBlend in="SourceGraphic" in2="BackgroundImageFix" result="shape"/><feColorMatrix in="SourceAlpha" result="hardAlpha" values="0 0 0 0 0 0 0 0 0 0 0 0 0 0 0 0 0 0 127 0"/><feOffset dy="14.33"/><feGaussianBlur stdDeviation="7.165"/><feComposite in2="hardAlpha" k2="-1" k3="1" operator="arithmetic"/><feColorMatrix values="0 0 0 0 1 0 0 0 0 1 0 0 0 0 1 0 0 0 0.07 0"/><feBlend in2="shape" result="effect1_innerShadow_402_2049"/></filter><filter id="R" width="178.441" height="110.848" x="126.779" y="172.336" color-interpolation-filters="sRGB" filterUnits="userSpaceOnUse"><feFlood flood-opacity="0" result="BackgroundImageFix"/><feBlend in="SourceGraphic" in2="BackgroundImageFix" result="shape"/><feColorMatrix in="SourceAlpha" result="hardAlpha" values="0 0 0 0 0 0 0 0 0 0 0 0 0 0 0 0 0 0 127 0"/><feOffset dy="7.825"/><feGaussianBlur stdDeviation="3.912"/><feComposite in2="hardAlpha" k2="-1" k3="1" operator="arithmetic"/><feColorMatrix values="0 0 0 0 1 0 0 0 0 1 0 0 0 0 1 0 0 0 0.07 0"/><feBlend in2="shape" result="effect1_innerShadow_402_2049"/></filter><filter id="S" width="87.739" height="21.635" x="150.348" y="168.94" color-interpolation-filters="sRGB" filterUnits="userSpaceOnUse"><feFlood flood-opacity="0" result="BackgroundImageFix"/><feBlend in="SourceGraphic" in2="BackgroundImageFix" result="shape"/><feGaussianBlur result="effect1_foregroundBlur_402_2049" stdDeviation="1.461"/></filter><filter id="U" width="83.754" height="31.307" x="152.171" y="171.312" color-interpolation-filters="sRGB" filterUnits="userSpaceOnUse"><feFlood flood-opacity="0" result="BackgroundImageFix"/><feBlend in="SourceGraphic" in2="BackgroundImageFix" result="shape"/><feColorMatrix in="SourceAlpha" result="hardAlpha" values="0 0 0 0 0 0 0 0 0 0 0 0 0 0 0 0 0 0 127 0"/><feOffset dy="14.33"/><feGaussianBlur stdDeviation="7.165"/><feComposite in2="hardAlpha" k2="-1" k3="1" operator="arithmetic"/><feColorMatrix values="0 0 0 0 1 0 0 0 0 1 0 0 0 0 1 0 0 0 0.07 0"/><feBlend in2="shape" result="effect1_innerShadow_402_2049"/></filter><filter id="X" width="41.35" height="68.341" x="74.963" y="223.193" color-interpolation-filters="sRGB" filterUnits="userSpaceOnUse"><feFlood flood-opacity="0" result="BackgroundImageFix"/><feBlend in="SourceGraphic" in2="BackgroundImageFix" result="shape"/><feColorMatrix in="SourceAlpha" result="hardAlpha" values="0 0 0 0 0 0 0 0 0 0 0 0 0 0 0 0 0 0 127 0"/><feOffset dy="1.099"/><feGaussianBlur stdDeviation="2.885"/><feComposite in2="hardAlpha" k2="-1" k3="1" operator="arithmetic"/><feColorMatrix values="0 0 0 0 1 0 0 0 0 1 0 0 0 0 1 0 0 0 0.07 0"/><feBlend in2="shape" result="effect1_innerShadow_402_2049"/></filter><filter id="Y" width="199.655" height="34.578" x="116.313" y="280.83" color-interpolation-filters="sRGB" filterUnits="userSpaceOnUse"><feFlood flood-opacity="0" result="BackgroundImageFix"/><feBlend in="SourceGraphic" in2="BackgroundImageFix" result="shape"/><feColorMatrix in="SourceAlpha" result="hardAlpha" values="0 0 0 0 0 0 0 0 0 0 0 0 0 0 0 0 0 0 127 0"/><feOffset dy="1.099"/><feGaussianBlur stdDeviation="2.885"/><feComposite in2="hardAlpha" k2="-1" k3="1" operator="arithmetic"/><feColorMatrix values="0 0 0 0 1 0 0 0 0 1 0 0 0 0 1 0 0 0 0.07 0"/><feBlend in2="shape" result="effect1_innerShadow_402_2049"/></filter><filter id="Z" width="41.35" height="68.341" x="315.968" y="223.193" color-interpolation-filters="sRGB" filterUnits="userSpaceOnUse"><feFlood flood-opacity="0" result="BackgroundImageFix"/><feBlend in="SourceGraphic" in2="BackgroundImageFix" result="shape"/><feColorMatrix in="SourceAlpha" result="hardAlpha" values="0 0 0 0 0 0 0 0 0 0 0 0 0 0 0 0 0 0 127 0"/><feOffset dy="1.099"/><feGaussianBlur stdDeviation="2.885"/><feComposite in2="hardAlpha" k2="-1" k3="1" operator="arithmetic"/><feColorMatrix values="0 0 0 0 1 0 0 0 0 1 0 0 0 0 1 0 0 0 0.07 0"/><feBlend in2="shape" result="effect1_innerShadow_402_2049"/></filter><filter id="aa" width="3.242" height="3.243" x="218.186" y="103.005" color-interpolation-filters="sRGB" filterUnits="userSpaceOnUse"><feFlood flood-opacity="0" result="BackgroundImageFix"/><feBlend in="SourceGraphic" in2="BackgroundImageFix" result="shape"/><feGaussianBlur result="effect1_foregroundBlur_402_2049" stdDeviation=".536"/></filter><filter id="ab" width="3.242" height="3.243" x="139.605" y="126.085" color-interpolation-filters="sRGB" filterUnits="userSpaceOnUse"><feFlood flood-opacity="0" result="BackgroundImageFix"/><feBlend in="SourceGraphic" in2="BackgroundImageFix" result="shape"/><feGaussianBlur result="effect1_foregroundBlur_402_2049" stdDeviation=".536"/></filter><filter id="ac" width="6.484" height="6.484" x="246.788" y="78.853" color-interpolation-filters="sRGB" filterUnits="userSpaceOnUse"><feFlood flood-opacity="0" result="BackgroundImageFix"/><feBlend in="SourceGraphic" in2="BackgroundImageFix" result="shape"/><feGaussianBlur result="effect1_foregroundBlur_402_2049" stdDeviation="1.072"/></filter><filter id="ad" width="6.484" height="6.484" x="276.462" y="114.023" color-interpolation-filters="sRGB" filterUnits="userSpaceOnUse"><feFlood flood-opacity="0" result="BackgroundImageFix"/><feBlend in="SourceGraphic" in2="BackgroundImageFix" result="shape"/><feGaussianBlur result="effect1_foregroundBlur_402_2049" stdDeviation="1.072"/></filter><filter id="ae" width="3.242" height="3.243" x="248.409" y="124.436" color-interpolation-filters="sRGB" filterUnits="userSpaceOnUse"><feFlood flood-opacity="0" result="BackgroundImageFix"/><feBlend in="SourceGraphic" in2="BackgroundImageFix" result="shape"/><feGaussianBlur result="effect1_foregroundBlur_402_2049" stdDeviation=".536"/></filter><filter id="af" width="3.242" height="3.243" x="171.477" y="101.356" color-interpolation-filters="sRGB" filterUnits="userSpaceOnUse"><feFlood flood-opacity="0" result="BackgroundImageFix"/><feBlend in="SourceGraphic" in2="BackgroundImageFix" result="shape"/><feGaussianBlur result="effect1_foregroundBlur_402_2049" stdDeviation=".536"/></filter><filter id="ag" width="3.242" height="3.243" x="181.918" y="132.13" color-interpolation-filters="sRGB" filterUnits="userSpaceOnUse"><feFlood flood-opacity="0" result="BackgroundImageFix"/><feBlend in="SourceGraphic" in2="BackgroundImageFix" result="shape"/><feGaussianBlur result="effect1_foregroundBlur_402_2049" stdDeviation=".536"/></filter><filter id="ah" width="3.242" height="3.243" x="239.067" y="132.678" color-interpolation-filters="sRGB" filterUnits="userSpaceOnUse"><feFlood flood-opacity="0" result="BackgroundImageFix"/><feBlend in="SourceGraphic" in2="BackgroundImageFix" result="shape"/><feGaussianBlur result="effect1_foregroundBlur_402_2049" stdDeviation=".536"/></filter><filter id="ai" width="3.242" height="3.243" x="213.79" y="132.678" color-interpolation-filters="sRGB" filterUnits="userSpaceOnUse"><feFlood flood-opacity="0" result="BackgroundImageFix"/><feBlend in="SourceGraphic" in2="BackgroundImageFix" result="shape"/><feGaussianBlur result="effect1_foregroundBlur_402_2049" stdDeviation=".536"/></filter><filter id="aj" width="3.242" height="3.243" x="195.106" y="125.536" color-interpolation-filters="sRGB" filterUnits="userSpaceOnUse"><feFlood flood-opacity="0" result="BackgroundImageFix"/><feBlend in="SourceGraphic" in2="BackgroundImageFix" result="shape"/><feGaussianBlur result="effect1_foregroundBlur_402_2049" stdDeviation=".536"/></filter><filter id="ak" width="6.484" height="6.484" x="193.485" y="123.914" color-interpolation-filters="sRGB" filterUnits="userSpaceOnUse"><feFlood flood-opacity="0" result="BackgroundImageFix"/><feBlend in="SourceGraphic" in2="BackgroundImageFix" result="shape"/><feGaussianBlur result="effect1_foregroundBlur_402_2049" stdDeviation="1.072"/></filter><filter id="al" width="3.242" height="3.243" x="87.401" y="186.532" color-interpolation-filters="sRGB" filterUnits="userSpaceOnUse"><feFlood flood-opacity="0" result="BackgroundImageFix"/><feBlend in="SourceGraphic" in2="BackgroundImageFix" result="shape"/><feGaussianBlur result="effect1_foregroundBlur_402_2049" stdDeviation=".536"/></filter><filter id="am" width="6.484" height="6.484" x="85.78" y="184.91" color-interpolation-filters="sRGB" filterUnits="userSpaceOnUse"><feFlood flood-opacity="0" result="BackgroundImageFix"/><feBlend in="SourceGraphic" in2="BackgroundImageFix" result="shape"/><feGaussianBlur result="effect1_foregroundBlur_402_2049" stdDeviation="1.072"/></filter><linearGradient id="b" x1="240.139" x2="240.139" y1="67.26" y2="332.127" gradientUnits="userSpaceOnUse"><stop stop-color="#519201" stop-opacity="0"/><stop offset="1" stop-color="#89f801" stop-opacity=".26"/></linearGradient><linearGradient id="d" x1="240.139" x2="240.139" y1="35.387" y2="263.888" gradientUnits="userSpaceOnUse"><stop stop-color="#519201" stop-opacity="0"/><stop offset="1" stop-color="#89f801" stop-opacity=".26"/></linearGradient><linearGradient id="f" x1="240.139" x2="240.139" y1="45.828" y2="239.781" gradientUnits="userSpaceOnUse"><stop stop-color="#519201" stop-opacity="0"/><stop offset="1" stop-color="#89f801" stop-opacity=".26"/></linearGradient><linearGradient id="h" x1="240.139" x2="240.139" y1="20" y2="168.919" gradientUnits="userSpaceOnUse"><stop stop-color="#519201" stop-opacity="0"/><stop offset="1" stop-color="#c9fb8c" stop-opacity=".26"/></linearGradient><linearGradient id="j" x1="240.139" x2="240.139" y1="20" y2="168.919" gradientUnits="userSpaceOnUse"><stop stop-color="#519201" stop-opacity="0"/><stop offset="1" stop-color="#c9fb8c" stop-opacity=".26"/></linearGradient><linearGradient id="l" x1="240.139" x2="240.139" y1="167.82" y2="316.739" gradientUnits="userSpaceOnUse"><stop stop-color="#519201" stop-opacity="0"/><stop offset="1" stop-color="#c9fb8c" stop-opacity=".26"/></linearGradient><linearGradient id="n" x1="240.139" x2="240.139" y1="157.93" y2="306.849" gradientUnits="userSpaceOnUse"><stop stop-color="#519201" stop-opacity="0"/><stop offset="1" stop-color="#c9fb8c" stop-opacity=".26"/></linearGradient><linearGradient id="p" x1="115.948" x2="315.603" y1="307.931" y2="307.931" gradientUnits="userSpaceOnUse"><stop stop-opacity="0"/><stop offset=".486"/><stop offset=".976" stop-opacity="0"/></linearGradient><linearGradient id="r" x1="115.948" x2="315.603" y1="146.372" y2="146.372" gradientUnits="userSpaceOnUse"><stop stop-color="#b6ff5d" stop-opacity="0"/><stop offset=".486" stop-color="#b6ff5d"/><stop offset=".976" stop-color="#b6ff5d" stop-opacity="0"/></linearGradient><linearGradient id="t" x1="228.774" x2="1.962" y1="159.185" y2="148.237" gradientUnits="userSpaceOnUse"><stop stop-color="#0b0c0c"/><stop offset=".404" stop-color="#0b0c0c"/><stop offset=".476" stop-color="#181a1c"/><stop offset=".587" stop-color="#0b0c0c"/><stop offset=".959" stop-color="#0b0c0c"/><stop offset="1" stop-color="#23282c"/></linearGradient><linearGradient id="v" x1="231.896" x2="110.468" y1="233.214" y2="284.637" gradientUnits="userSpaceOnUse"><stop stop-color="#1b1d1f"/><stop offset="1" stop-color="#757d85"/></linearGradient><linearGradient id="y" x1="229.148" x2="120.965" y1="207.386" y2="276.99" gradientUnits="userSpaceOnUse"><stop stop-color="#1b1d1f"/><stop offset="1" stop-color="#757d85"/></linearGradient><linearGradient id="B" x1="229.148" x2="120.965" y1="207.386" y2="276.99" gradientUnits="userSpaceOnUse"><stop stop-color="#1b1d1f"/><stop offset="1" stop-color="#757d85"/></linearGradient><linearGradient id="O" x1="-67.216" x2="-113.297" y1="114.953" y2="204.875" gradientUnits="userSpaceOnUse"><stop stop-color="#599f02" stop-opacity="0"/><stop offset=".126" stop-color="#6cb317"/><stop offset=".274" stop-color="#aff45b"/><stop offset=".609" stop-color="#60a50c"/><stop offset=".939" stop-color="#549900" stop-opacity=".02"/></linearGradient><linearGradient id="Q" x1="132.203" x2="105.074" y1="191.658" y2="215.635" gradientUnits="userSpaceOnUse"><stop stop-color="#8cff00"/><stop offset="1" stop-color="#549900" stop-opacity="0"/></linearGradient><linearGradient id="T" x1="229.688" x2="144.207" y1="159.326" y2="180.055" gradientUnits="userSpaceOnUse"><stop stop-color="#599f02" stop-opacity="0"/><stop offset=".126" stop-color="#6cb317"/><stop offset=".274" stop-color="#aff45b"/><stop offset=".609" stop-color="#60a50c"/><stop offset=".939" stop-color="#549900" stop-opacity=".02"/></linearGradient><linearGradient id="V" x1="166.499" x2="169.666" y1="181.214" y2="166.182" gradientUnits="userSpaceOnUse"><stop stop-color="#8cff00"/><stop offset="1" stop-color="#549900" stop-opacity="0"/></linearGradient><linearGradient id="W" x1="242.567" x2="225.794" y1="196.779" y2="259.375" gradientUnits="userSpaceOnUse"><stop stop-color="#fff"/><stop offset="1" stop-color="#89f801"/></linearGradient></defs></svg>