<svg xmlns="http://www.w3.org/2000/svg" width="203" height="47" fill="none" viewBox="0 0 203 47"><path fill="#000" d="m22.066 9.732 5.633-5.83v11.957h-1.483l1.482 1.482v15.473H24.76v6.364l-2.298 1.487V27.716l4.051-4.051H23.35l-3.937 2.273-4.166-2.406v-4.116h7.609l-3.765-2.174H9.023l-3.755 2.174h7.213v11.957h3.247l4.361 3.522v4.185l1.895 1.893-7.922 5.127-10.697-6.922v-6.364H.758L.582 17.48l1.622-1.621H.564L.426 3.902l5.632 5.83L14.062.4zm-8.103 29.54 1.284-1.284h-2.569zm-4.15-2.865h8.498l-2.075-1.68h-4.15zM4.575 23.566 3.49 24.653l4.743 5.237 1.383-1.185V25.74H6.85zh7.51l-1.778-1.68h-4.05zm11.562-.034h6.719l-1.547-1.547h-3.591z"/><path fill="#fff" d="m14.074 13.634-1.79-3.101 1.79-3.102 1.79 3.102z"/><path stroke="#000" stroke-width=".414" d="m12.213 10.533 1.861 1.074 1.861-1.074"/><path fill="#000" d="M180.633 36.795V17.08h10.502q3.615 0 6.198 1.148 2.611 1.12 3.989 3.329 1.406 2.181 1.406 5.394 0 3.186-1.406 5.395-1.378 2.18-3.989 3.328-2.583 1.12-6.198 1.12zm-132.67-.229-6.686-19.713h4.734l3.96 12.683q.115.288.23.804.143.488.287 1.033.143.545.23.975h.171q.058-.344.144-.746.114-.402.2-.803.087-.402.173-.718.086-.344.143-.545l3.673-12.683h5.997l3.702 12.683q.086.288.2.804.145.488.26 1.033.143.545.2.975h.172q.087-.316.172-.688.115-.402.23-.775a23 23 0 0 0 .2-.746q.087-.344.173-.603l3.988-12.683h4.276l-6.715 19.713H62.74l-3.93-12.912q-.115-.402-.26-.918a28 28 0 0 1-.257-1.062q-.087-.546-.144-.947h-.143a9 9 0 0 1-.201 1.004q-.143.546-.287 1.062a9 9 0 0 1-.23.86l-3.787 12.913zm26.163 0 9.871-19.713h4.936l9.87 19.713h-4.791l-1.865-3.816H80.468l-1.865 3.816zm8.064-7.345h8.235L88.129 24.4q-.143-.315-.43-.918-.258-.632-.545-1.263-.258-.66-.488-1.119-.2-.488-.23-.516h-.23q-.257.573-.602 1.32-.315.746-.631 1.434-.287.69-.488 1.09zm30.019 7.69q-5.968 0-8.953-2.525t-2.984-7.662q0-3.357 1.521-5.624 1.52-2.295 4.39-3.443 2.898-1.148 6.915-1.148 2.611 0 4.764.46 2.151.43 3.701 1.348 1.579.889 2.41 2.267.861 1.377.861 3.242h-4.247q0-1.033-.602-1.75-.603-.718-1.636-1.12-1.032-.43-2.353-.602-1.29-.2-2.726-.2-1.836 0-3.414.372-1.55.345-2.698 1.12a5.2 5.2 0 0 0-1.779 1.922q-.63 1.176-.631 2.783v.689q0 2.238.976 3.615.975 1.35 2.754 1.98 1.808.632 4.247.632 2.697 0 4.419-.488 1.75-.489 2.583-1.406.86-.918.86-2.152v-.23h-7.977v-3.443h12.253v11.018h-2.697l-.459-2.582q-1.062 1.033-2.554 1.693-1.464.63-3.243.918-1.75.316-3.701.316m17.982-.345V16.853h19.943v3.644h-15.581v4.219h13.859v3.644h-13.859v4.562h15.811v3.644zm24.856 0V16.853h15.61q2.094 0 3.414.861a5.16 5.16 0 0 1 2.009 2.238q.66 1.378.66 3.07a6.37 6.37 0 0 1-.918 3.3q-.89 1.521-2.784 2.382l4.19 7.862h-4.907l-3.616-7.03h-9.297v7.03zm4.361-10.645h10.043q1.349 0 2.066-.775.746-.804.746-2.037 0-.833-.315-1.406a1.95 1.95 0 0 0-.947-.89q-.632-.316-1.55-.316h-10.043z"/><path fill="#fff" d="M189.531 33.9c-2.132 0-3.108-1.817-3.109-3.072 0-1.4.642-2.459 1.166-3.088-1.734.083-2.973.488-3.948 2.308v-5.945c.975 1.82 2.214 2.225 3.948 2.308-.524-.63-1.167-1.688-1.166-3.088 0-1.254.977-3.072 3.109-3.072 3.896 0 2.836 2.712 9.411 6.824-6.575 4.113-5.515 6.824-9.411 6.824"/></svg>