<svg xmlns="http://www.w3.org/2000/svg" width="64" height="64" fill="none" viewBox="0 0 64 64"><path fill="#d4ccc0" d="M2 56a6 6 0 0 0 6 6h6v2H8a8 8 0 0 1-8-8v-5.5h2zm62 0a8 8 0 0 1-8 8h-6v-2h6a6 6 0 0 0 6-6v-5.5h2zM56 0a8 8 0 0 1 8 8v6.5h-2V8a6 6 0 0 0-6-6h-6V0zM14 2H8a6 6 0 0 0-6 6v6.5H0V8a8 8 0 0 1 8-8h6z"/><g filter="url(#a)"><rect width="56" height="56" x="3" y="4" fill="url(#b)" rx="6"/></g><rect width="55" height="55" x="3.5" y="4.5" stroke="#fff" rx="5.5"/><path fill="#8e754f" d="m22.963 25.91 2.928 9.587h.108l2.928-9.588h3.541L28.051 39H23.84l-4.417-13.09zm17.63 3.924q-.064-.703-.568-1.093-.5-.396-1.426-.396-.613 0-1.023.16-.408.16-.613.44a1.06 1.06 0 0 0-.211.633.94.94 0 0 0 .115.518q.135.223.383.396.255.167.614.294.358.128.806.224l1.124.256q.973.21 1.714.562.747.352 1.252.838.512.485.774 1.118t.268 1.42q-.006 1.239-.626 2.128-.62.888-1.784 1.361-1.156.474-2.793.473-1.643 0-2.863-.492-1.221-.492-1.899-1.496t-.697-2.537h3.03q.039.633.339 1.054.3.423.825.64.53.216 1.227.217.639 0 1.087-.173.453-.172.696-.48.243-.306.25-.702a.97.97 0 0 0-.23-.633q-.225-.27-.691-.46a7 7 0 0 0-1.176-.365l-1.368-.32q-1.7-.39-2.678-1.258-.978-.876-.972-2.366-.006-1.215.652-2.128.658-.915 1.822-1.426 1.163-.51 2.653-.51 1.521 0 2.64.517 1.125.51 1.744 1.438.621.927.633 2.148zm6.205 9.351q-.69 0-1.182-.485a1.58 1.58 0 0 1-.48-1.177 1.54 1.54 0 0 1 .48-1.157 1.62 1.62 0 0 1 1.182-.485q.652 0 1.15.486a1.56 1.56 0 0 1 .27 1.994 1.74 1.74 0 0 1-.608.6q-.37.224-.812.224"/><defs><linearGradient id="b" x1="7.083" x2="50.399" y1="37.6" y2="11.548" gradientUnits="userSpaceOnUse"><stop stop-color="#ede8e1"/><stop offset=".598" stop-color="#f8f6f3"/><stop offset="1" stop-color="#ede8e1"/></linearGradient><filter id="a" width="60" height="72" x="3" y="4" color-interpolation-filters="sRGB" filterUnits="userSpaceOnUse"><feFlood flood-opacity="0" result="BackgroundImageFix"/><feBlend in="SourceGraphic" in2="BackgroundImageFix" result="shape"/><feColorMatrix in="SourceAlpha" result="hardAlpha" values="0 0 0 0 0 0 0 0 0 0 0 0 0 0 0 0 0 0 127 0"/><feOffset dx="4" dy="16"/><feGaussianBlur stdDeviation="8"/><feComposite in2="hardAlpha" k2="-1" k3="1" operator="arithmetic"/><feColorMatrix values="0 0 0 0 1 0 0 0 0 1 0 0 0 0 1 0 0 0 0.6 0"/><feBlend in2="shape" result="effect1_innerShadow_327_125"/><feColorMatrix in="SourceAlpha" result="hardAlpha" values="0 0 0 0 0 0 0 0 0 0 0 0 0 0 0 0 0 0 127 0"/><feOffset dy="2"/><feGaussianBlur stdDeviation="1"/><feComposite in2="hardAlpha" k2="-1" k3="1" operator="arithmetic"/><feColorMatrix values="0 0 0 0 1 0 0 0 0 1 0 0 0 0 1 0 0 0 1 0"/><feBlend in2="effect1_innerShadow_327_125" result="effect2_innerShadow_327_125"/></filter></defs></svg>