<svg xmlns="http://www.w3.org/2000/svg" width="392" height="608" fill="none" viewBox="0 0 392 608"><g opacity=".35"><g filter="url(#a)"><circle cx="307.687" cy="570.44" r="328.45" fill="#fff" fill-opacity=".04" transform="rotate(49.029 307.687 570.44)"/></g><circle cx="307.687" cy="570.44" r="327.911" stroke="#fff" stroke-opacity=".12" stroke-width="1.078" transform="rotate(49.029 307.687 570.44)"/></g><g filter="url(#b)"><path fill="url(#c)" d="M501.698 308.575c-78.136-58.004-177.384-77.05-269.583-55.153l-.591-2.48a328.46 328.46 0 0 1 271.69 55.587z"/></g><path fill="url(#d)" d="M502.632 307.314c-78.512-58.284-178.238-77.421-270.881-55.419l-.227-.953a328.46 328.46 0 0 1 271.69 55.587z"/><g opacity=".5"><g filter="url(#e)"><circle cx="307.67" cy="570.683" r="276.149" fill="#fff" fill-opacity=".04" transform="rotate(49.029 307.67 570.683)"/></g><circle cx="307.67" cy="570.683" r="275.61" stroke="#fff" stroke-opacity=".12" stroke-width="1.079" transform="rotate(49.029 307.67 570.683)"/></g><g opacity=".35"><g filter="url(#f)"><circle cx="307.676" cy="570.677" r="275.985" fill="#fff" fill-opacity=".04" transform="rotate(49.029 307.676 570.677)"/></g><circle cx="307.676" cy="570.677" r="275.446" stroke="#fff" stroke-opacity=".12" stroke-width="1.078" transform="rotate(49.029 307.676 570.677)"/></g><g filter="url(#g)"><path fill="url(#h)" d="M240.578 302.82a275.99 275.99 0 0 1 261.833 71.83l-1.628 1.639c-69.707-69.353-168.981-94.057-259.691-71.425z"/></g><path fill="url(#i)" d="M240.579 302.82a275.98 275.98 0 0 1 261.833 71.83l-.725.729c-70.034-69.678-169.773-94.498-260.908-71.759z"/><g opacity=".35"><g filter="url(#j)"><circle cx="307.705" cy="570.193" r="223.848" fill="#fff" fill-opacity=".04" transform="rotate(49.029 307.705 570.193)"/></g><circle cx="307.705" cy="570.193" r="223.309" stroke="#fff" stroke-opacity=".12" stroke-width="1.078" transform="rotate(49.029 307.705 570.193)"/></g><g filter="url(#k)"><path fill="url(#l)" d="M373.965 356.376a223.85 223.85 0 0 1 106.776 71.808l-1.752 1.438a226 226 0 0 0-4.038-4.784c-58.475-67.336-148.673-90.818-229.049-67.521l-.608-2.096a223.85 223.85 0 0 1 128.671 1.155"/></g><path fill="url(#m)" d="M373.964 356.376a223.85 223.85 0 0 1 106.776 71.808l-1.144.939a225 225 0 0 0-4.053-4.799c-58.681-67.574-149.199-91.14-229.859-67.761l-.39-1.342a223.86 223.86 0 0 1 128.67 1.155"/><g opacity=".35"><g filter="url(#n)"><circle cx="307.687" cy="570.44" r="171.547" fill="#fff" fill-opacity=".04" transform="rotate(49.029 307.687 570.44)"/></g><circle cx="307.687" cy="570.44" r="171.008" stroke="#fff" stroke-opacity=".12" stroke-width="1.078" transform="rotate(49.029 307.687 570.44)"/></g><g filter="url(#o)"><circle cx="307.687" cy="570.44" r="119.246" fill="#191b1d" transform="rotate(49.029 307.687 570.44)"/><circle cx="307.687" cy="570.44" r="118.462" stroke="url(#p)" stroke-width="1.569" transform="rotate(49.029 307.687 570.44)"/></g><g filter="url(#q)"><circle cx="307.687" cy="570.44" r="119.246" fill="#191b1d" transform="rotate(49.029 307.687 570.44)"/></g><circle cx="307.687" cy="570.44" r="118.723" stroke="url(#r)" stroke-width="1.046" transform="rotate(49.029 307.687 570.44)"/><g filter="url(#s)"><path fill="url(#t)" d="M407.856 434.368c-47.032-34.69-108.695-42.252-162.27-21.082l-.944-2.389a171.55 171.55 0 0 1 164.745 21.393z"/></g><g filter="url(#u)"><circle cx="307.687" cy="570.44" r="78.975" fill="#fff" fill-opacity=".04" transform="rotate(49.029 307.687 570.44)"/></g><circle cx="307.687" cy="570.44" r="78.77" stroke="#fff" stroke-opacity=".12" stroke-width=".409" transform="rotate(49.029 307.687 570.44)"/><g filter="url(#v)"><circle cx="307.687" cy="570.441" r="69.622" fill="#191b1d" transform="rotate(49.029 307.687 570.441)"/></g><circle cx="307.687" cy="570.441" r="69.418" stroke="#fff" stroke-opacity=".12" stroke-width=".409" transform="rotate(49.029 307.687 570.441)"/><path fill="#7d7f83" d="m272.017 576.607-2.258-3.859-2.258 3.859h-4.593l3.84-6.465-3.724-6.464h4.612l2.123 3.782 2.142-3.782h4.593l-3.725 6.464 3.86 6.465zm14.029-5.538 3.994.772c-.54 3.107-3.087 5.056-6.735 5.056-3.917 0-6.986-2.972-6.986-6.755s3.069-6.754 6.986-6.754c3.3 0 6.137 1.911 6.716 4.921l-3.995.772c-.328-1.331-1.293-2.123-2.721-2.123-1.66 0-2.991 1.37-2.991 3.184s1.331 3.185 2.991 3.185c1.409 0 2.374-.83 2.741-2.258m18.535 5.538h-4.265l-.617-1.756h-4.96l-.617 1.756h-4.265l5.114-12.929h4.496zm-6.059-5.056-1.293-3.686-1.313 3.686zm11.875-8.163c3.107 0 5.23 1.332 5.693 3.763l-3.879.791c-.29-1.235-1.197-1.524-1.814-1.524-.695 0-1.197.328-1.197.888 0 .308.116.598.637.714l2.567.656c2.451.617 3.782 1.756 3.782 3.859 0 3.146-3.029 4.362-5.615 4.362-3.243 0-5.655-1.602-6.021-4.033l4.052-.753c.29 1.139 1.004 1.621 2.026 1.621.734 0 1.332-.289 1.332-.888 0-.309-.154-.579-.733-.733l-2.663-.656c-2.316-.56-3.59-1.718-3.59-3.783 0-2.817 2.393-4.284 5.423-4.284m11.064 13.219h-3.995v-12.929h3.995zm14.474-12.929v12.929h-3.261l-5.635-6.233v6.233h-3.995v-12.929h3.281l5.635 6.484v-6.484zm8.337-.29c3.918 0 7.006 2.972 7.006 6.754 0 3.783-3.088 6.755-7.006 6.755-3.937 0-7.005-2.972-7.005-6.755s3.068-6.754 7.005-6.754m0 9.939c1.756 0 2.992-1.37 2.992-3.185s-1.236-3.184-2.992-3.184-3.01 1.37-3.01 3.184 1.254 3.185 3.01 3.185"/><defs><filter id="a" width="656.911" height="676.532" x="-20.768" y="241.984" color-interpolation-filters="sRGB" filterUnits="userSpaceOnUse"><feFlood flood-opacity="0" result="BackgroundImageFix"/><feBlend in="SourceGraphic" in2="BackgroundImageFix" result="shape"/><feColorMatrix in="SourceAlpha" result="hardAlpha" values="0 0 0 0 0 0 0 0 0 0 0 0 0 0 0 0 0 0 127 0"/><feOffset dy="19.621"/><feGaussianBlur stdDeviation="9.811"/><feComposite in2="hardAlpha" k2="-1" k3="1" operator="arithmetic"/><feColorMatrix values="0 0 0 0 1 0 0 0 0 1 0 0 0 0 1 0 0 0 0.07 0"/><feBlend in2="shape" result="effect1_innerShadow_402_726"/></filter><filter id="b" width="276.958" height="71.854" x="228.89" y="239.355" color-interpolation-filters="sRGB" filterUnits="userSpaceOnUse"><feFlood flood-opacity="0" result="BackgroundImageFix"/><feBlend in="SourceGraphic" in2="BackgroundImageFix" result="shape"/><feGaussianBlur result="effect1_foregroundBlur_402_726" stdDeviation="1.317"/></filter><filter id="e" width="552.307" height="571.941" x="31.516" y="294.529" color-interpolation-filters="sRGB" filterUnits="userSpaceOnUse"><feFlood flood-opacity="0" result="BackgroundImageFix"/><feBlend in="SourceGraphic" in2="BackgroundImageFix" result="shape"/><feColorMatrix in="SourceAlpha" result="hardAlpha" values="0 0 0 0 0 0 0 0 0 0 0 0 0 0 0 0 0 0 127 0"/><feOffset dy="19.633"/><feGaussianBlur stdDeviation="9.816"/><feComposite in2="hardAlpha" k2="-1" k3="1" operator="arithmetic"/><feColorMatrix values="0 0 0 0 1 0 0 0 0 1 0 0 0 0 1 0 0 0 0.07 0"/><feBlend in2="shape" result="effect1_innerShadow_402_726"/></filter><filter id="f" width="551.979" height="571.601" x="31.687" y="294.688" color-interpolation-filters="sRGB" filterUnits="userSpaceOnUse"><feFlood flood-opacity="0" result="BackgroundImageFix"/><feBlend in="SourceGraphic" in2="BackgroundImageFix" result="shape"/><feColorMatrix in="SourceAlpha" result="hardAlpha" values="0 0 0 0 0 0 0 0 0 0 0 0 0 0 0 0 0 0 127 0"/><feOffset dy="19.621"/><feGaussianBlur stdDeviation="9.811"/><feComposite in2="hardAlpha" k2="-1" k3="1" operator="arithmetic"/><feColorMatrix values="0 0 0 0 1 0 0 0 0 1 0 0 0 0 1 0 0 0 0.07 0"/><feBlend in2="shape" result="effect1_innerShadow_402_726"/></filter><filter id="g" width="267.101" height="87.079" x="237.944" y="291.844" color-interpolation-filters="sRGB" filterUnits="userSpaceOnUse"><feFlood flood-opacity="0" result="BackgroundImageFix"/><feBlend in="SourceGraphic" in2="BackgroundImageFix" result="shape"/><feGaussianBlur result="effect1_foregroundBlur_402_726" stdDeviation="1.317"/></filter><filter id="j" width="447.703" height="467.324" x="83.853" y="346.342" color-interpolation-filters="sRGB" filterUnits="userSpaceOnUse"><feFlood flood-opacity="0" result="BackgroundImageFix"/><feBlend in="SourceGraphic" in2="BackgroundImageFix" result="shape"/><feColorMatrix in="SourceAlpha" result="hardAlpha" values="0 0 0 0 0 0 0 0 0 0 0 0 0 0 0 0 0 0 127 0"/><feOffset dy="19.621"/><feGaussianBlur stdDeviation="9.811"/><feComposite in2="hardAlpha" k2="-1" k3="1" operator="arithmetic"/><feColorMatrix values="0 0 0 0 1 0 0 0 0 1 0 0 0 0 1 0 0 0 0.07 0"/><feBlend in2="shape" result="effect1_innerShadow_402_726"/></filter><filter id="k" width="241.008" height="88.838" x="242.514" y="343.564" color-interpolation-filters="sRGB" filterUnits="userSpaceOnUse"><feFlood flood-opacity="0" result="BackgroundImageFix"/><feBlend in="SourceGraphic" in2="BackgroundImageFix" result="shape"/><feGaussianBlur result="effect1_foregroundBlur_402_726" stdDeviation="1.39"/></filter><filter id="n" width="343.1" height="362.721" x="136.137" y="398.891" color-interpolation-filters="sRGB" filterUnits="userSpaceOnUse"><feFlood flood-opacity="0" result="BackgroundImageFix"/><feBlend in="SourceGraphic" in2="BackgroundImageFix" result="shape"/><feColorMatrix in="SourceAlpha" result="hardAlpha" values="0 0 0 0 0 0 0 0 0 0 0 0 0 0 0 0 0 0 127 0"/><feOffset dy="19.621"/><feGaussianBlur stdDeviation="9.811"/><feComposite in2="hardAlpha" k2="-1" k3="1" operator="arithmetic"/><feColorMatrix values="0 0 0 0 1 0 0 0 0 1 0 0 0 0 1 0 0 0 0.07 0"/><feBlend in2="shape" result="effect1_innerShadow_402_726"/></filter><filter id="o" width="252.617" height="259.196" x="181.378" y="444.131" color-interpolation-filters="sRGB" filterUnits="userSpaceOnUse"><feFlood flood-opacity="0" result="BackgroundImageFix"/><feBlend in="SourceGraphic" in2="BackgroundImageFix" result="shape"/><feColorMatrix in="SourceAlpha" result="hardAlpha" values="0 0 0 0 0 0 0 0 0 0 0 0 0 0 0 0 0 0 127 0"/><feOffset dy="13.639"/><feGaussianBlur stdDeviation="6.82"/><feComposite in2="hardAlpha" k2="-1" k3="1" operator="arithmetic"/><feColorMatrix values="0 0 0 0 1 0 0 0 0 1 0 0 0 0 1 0 0 0 0.07 0"/><feBlend in2="shape" result="effect1_innerShadow_402_726"/><feGaussianBlur result="effect2_foregroundBlur_402_726" stdDeviation="3.53"/></filter><filter id="q" width="238.496" height="252.135" x="188.439" y="451.191" color-interpolation-filters="sRGB" filterUnits="userSpaceOnUse"><feFlood flood-opacity="0" result="BackgroundImageFix"/><feBlend in="SourceGraphic" in2="BackgroundImageFix" result="shape"/><feColorMatrix in="SourceAlpha" result="hardAlpha" values="0 0 0 0 0 0 0 0 0 0 0 0 0 0 0 0 0 0 127 0"/><feOffset dy="13.639"/><feGaussianBlur stdDeviation="6.82"/><feComposite in2="hardAlpha" k2="-1" k3="1" operator="arithmetic"/><feColorMatrix values="0 0 0 0 1 0 0 0 0 1 0 0 0 0 1 0 0 0 0.07 0"/><feBlend in2="shape" result="effect1_innerShadow_402_726"/></filter><filter id="s" width="170.305" height="41.036" x="241.862" y="396.112" color-interpolation-filters="sRGB" filterUnits="userSpaceOnUse"><feFlood flood-opacity="0" result="BackgroundImageFix"/><feBlend in="SourceGraphic" in2="BackgroundImageFix" result="shape"/><feGaussianBlur result="effect1_foregroundBlur_402_726" stdDeviation="1.39"/></filter><filter id="u" width="157.951" height="165.399" x="228.711" y="491.465" color-interpolation-filters="sRGB" filterUnits="userSpaceOnUse"><feFlood flood-opacity="0" result="BackgroundImageFix"/><feBlend in="SourceGraphic" in2="BackgroundImageFix" result="shape"/><feColorMatrix in="SourceAlpha" result="hardAlpha" values="0 0 0 0 0 0 0 0 0 0 0 0 0 0 0 0 0 0 127 0"/><feOffset dy="7.447"/><feGaussianBlur stdDeviation="3.724"/><feComposite in2="hardAlpha" k2="-1" k3="1" operator="arithmetic"/><feColorMatrix values="0 0 0 0 1 0 0 0 0 1 0 0 0 0 1 0 0 0 0.07 0"/><feBlend in2="shape" result="effect1_innerShadow_402_726"/></filter><filter id="v" width="139.247" height="146.695" x="238.063" y="500.817" color-interpolation-filters="sRGB" filterUnits="userSpaceOnUse"><feFlood flood-opacity="0" result="BackgroundImageFix"/><feBlend in="SourceGraphic" in2="BackgroundImageFix" result="shape"/><feColorMatrix in="SourceAlpha" result="hardAlpha" values="0 0 0 0 0 0 0 0 0 0 0 0 0 0 0 0 0 0 127 0"/><feOffset dy="7.447"/><feGaussianBlur stdDeviation="3.724"/><feComposite in2="hardAlpha" k2="-1" k3="1" operator="arithmetic"/><feColorMatrix values="0 0 0 0 1 0 0 0 0 1 0 0 0 0 1 0 0 0 0.07 0"/><feBlend in2="shape" result="effect1_innerShadow_402_726"/></filter><linearGradient id="c" x1="503.461" x2="307.162" y1="306.916" y2="177.225" gradientUnits="userSpaceOnUse"><stop stop-color="#e7ffca" stop-opacity=".6"/><stop offset=".126" stop-color="#6cb317"/><stop offset=".274" stop-color="#aff45b"/><stop offset=".609" stop-color="#60a50c"/><stop offset=".939" stop-color="#549900" stop-opacity=".02"/></linearGradient><linearGradient id="d" x1="503.461" x2="307.162" y1="306.915" y2="177.224" gradientUnits="userSpaceOnUse"><stop stop-color="#e7ffca" stop-opacity=".6"/><stop offset=".126" stop-color="#6cb317"/><stop offset=".274" stop-color="#aff45b"/><stop offset=".609" stop-color="#60a50c"/><stop offset=".939" stop-color="#549900" stop-opacity=".02"/></linearGradient><linearGradient id="h" x1="459.134" x2="279.311" y1="332.202" y2="322.485" gradientUnits="userSpaceOnUse"><stop stop-color="#599f02" stop-opacity="0"/><stop offset=".126" stop-color="#6cb317"/><stop offset=".274" stop-color="#aff45b"/><stop offset=".609" stop-color="#60a50c"/><stop offset=".939" stop-color="#549900" stop-opacity=".02"/></linearGradient><linearGradient id="i" x1="459.135" x2="279.311" y1="332.202" y2="322.484" gradientUnits="userSpaceOnUse"><stop stop-color="#599f02" stop-opacity="0"/><stop offset=".126" stop-color="#6cb317"/><stop offset=".274" stop-color="#aff45b"/><stop offset=".609" stop-color="#60a50c"/><stop offset=".939" stop-color="#549900" stop-opacity=".02"/></linearGradient><linearGradient id="l" x1="429.12" x2="226.275" y1="359.001" y2="262.262" gradientUnits="userSpaceOnUse"><stop stop-color="#599f02" stop-opacity="0"/><stop offset=".126" stop-color="#6cb317"/><stop offset=".274" stop-color="#aff45b"/><stop offset=".609" stop-color="#60a50c"/><stop offset=".939" stop-color="#549900" stop-opacity=".02"/></linearGradient><linearGradient id="m" x1="429.119" x2="262.375" y1="359.001" y2="289.441" gradientUnits="userSpaceOnUse"><stop stop-color="#599f02" stop-opacity="0"/><stop offset=".126" stop-color="#6cb317"/><stop offset=".274" stop-color="#aff45b"/><stop offset=".609" stop-color="#60a50c"/><stop offset=".939" stop-color="#549900" stop-opacity=".02"/></linearGradient><linearGradient id="p" x1="421.18" x2="294.089" y1="519.708" y2="653.075" gradientUnits="userSpaceOnUse"><stop stop-color="#8cff00"/><stop offset="1" stop-color="#549900" stop-opacity="0"/></linearGradient><linearGradient id="r" x1="415.427" x2="276.306" y1="524.415" y2="611.235" gradientUnits="userSpaceOnUse"><stop stop-color="#8cff00"/><stop offset="1" stop-color="#549900" stop-opacity="0"/></linearGradient><linearGradient id="t" x1="380.764" x2="283.52" y1="422.472" y2="325.904" gradientUnits="userSpaceOnUse"><stop stop-color="#599f02" stop-opacity="0"/><stop offset=".126" stop-color="#6cb317"/><stop offset=".274" stop-color="#aff45b"/><stop offset=".609" stop-color="#60a50c"/><stop offset=".939" stop-color="#549900" stop-opacity=".02"/></linearGradient></defs></svg>