<svg xmlns="http://www.w3.org/2000/svg" width="24" height="41" fill="none" viewBox="0 0 24 41"><path fill="url(#a)" fill-opacity=".92" d="m19.042 8.804 4.956-5.131v10.52h-1.304l1.304 1.304v13.617h-2.586v5.6l-2.021 1.309V24.629l3.564-3.565h-2.782l-3.464 2-3.666-2.118v-3.622h6.695l-3.313-1.912h-8.86L4.26 17.324h6.347v10.522h2.858l3.838 3.1v3.682l1.666 1.666-6.971 4.512-9.413-6.091v-5.6H.293L.137 15.621l1.428-1.428H.121L0 3.673l4.956 5.13L12 .593zm-7.13 25.993 1.131-1.13h-2.26zm-3.651-2.522h7.477l-1.826-1.477h-3.651zM3.652 20.978l-.957.956 4.174 4.608 1.218-1.043v-2.608H5.652zh6.609l-1.566-1.479H5.13zm10.173-.032h5.913l-1.361-1.361h-3.16z"/><path fill="#191b1d" d="m12.01 12.237-1.576-2.73 1.576-2.729 1.576 2.73z"/><defs><linearGradient id="a" x1="11.999" x2="11.999" y1=".592" y2="40.806" gradientUnits="userSpaceOnUse"><stop stop-color="#fff"/><stop offset="1" stop-color="#89f801"/></linearGradient></defs></svg>