<svg xmlns="http://www.w3.org/2000/svg" width="440" height="789" fill="none" viewBox="0 0 440 789"><mask id="a" width="1720" height="789" x="-640" y="0" maskUnits="userSpaceOnUse" style="mask-type:alpha"><rect width="1720" height="789" x="-640" fill="#d9d9d9" rx="24"/></mask><g mask="url(#a)"><path fill="url(#b)" stroke="#c02d2d" stroke-width=".621" d="M105.282 678.736c13.156 19.17 8.859 44.253-9.88 57.114-11.437 7.848-25.49 9.717-43.053 8.023-15.372-1.482-33.392-5.689-54.645-10.97l-9.308-2.324-14.038-3.486 1.797-14.352c3.197-25.943 5.859-47.453 10.596-64.455C-8.512 631.289-1.714 618.848 9.722 611c18.74-12.86 43.69-7.848 56.846 11.323 7.433 10.831 9.65 24.605 6.598 36.68l-.087.342.35.042c12.365 1.494 24.42 8.517 31.853 19.349Z" opacity=".1"/><g opacity=".5"><g filter="url(#c)"><path fill="url(#d)" d="M-201 73.541h102.35v1063H-201z" transform="rotate(-28.95 -201 73.541)"/></g><g filter="url(#e)"><path fill="url(#f)" d="M-201 73.541h102.35v1063H-201z" transform="rotate(-28.95 -201 73.541)"/></g><g filter="url(#g)"><path fill="url(#h)" d="M-201 73.541h102.35v1063H-201z" transform="rotate(-28.95 -201 73.541)"/></g><g opacity=".4"><g filter="url(#i)"><path fill="url(#j)" d="M-392 9.541h102.35v1063H-392z" transform="rotate(-28.95 -392 9.541)"/></g><g filter="url(#k)"><path fill="url(#l)" d="M-392 9.541h102.35v1063H-392z" transform="rotate(-28.95 -392 9.541)"/></g><g filter="url(#m)"><path fill="url(#n)" d="M-392 9.541h102.35v1063H-392z" transform="rotate(-28.95 -392 9.541)"/></g></g><g opacity=".4"><g filter="url(#o)"><path fill="url(#p)" d="M-96-71.459H6.35v1063H-96z" transform="rotate(-28.95 -96 -71.459)"/></g><g filter="url(#q)"><path fill="url(#r)" d="M-96-71.459H6.35v1063H-96z" transform="rotate(-28.95 -96 -71.459)"/></g><g filter="url(#s)"><path fill="url(#t)" d="M-96-71.459H6.35v1063H-96z" transform="rotate(-28.95 -96 -71.459)"/></g></g></g><path stroke="#d4ccc0" stroke-miterlimit="10" stroke-width="2" d="M875 788.5c0 291.77-292.278 530.5-649.5 530.5S-424 1080.27-424 788.5C-424 496.729-131.722 258 225.5 258S875 496.729 875 788.5Z"/><path stroke="#d4ccc0" stroke-miterlimit="10" stroke-width="2" d="M977 788.5c0 291.77-338.178 530.5-751.5 530.5S-526 1080.27-526 788.5C-526 496.729-187.822 258 225.5 258S977 496.729 977 788.5Zm-751.667 530.81V258.03"/><path stroke="#d4ccc0" stroke-miterlimit="10" stroke-width="2" d="M489.552 788.669c0 291.851-118.295 530.641-264.218 530.641-145.924 0-264.219-238.79-264.219-530.641 0-291.847 118.295-530.639 264.219-530.639s264.218 238.792 264.218 530.639Z"/><path stroke="#d4ccc0" stroke-miterlimit="10" stroke-width="2" d="M656 788.5c0 291.77-192.742 530.5-430.5 530.5S-205 1080.27-205 788.5C-205 496.729-12.258 258 225.5 258S656 496.729 656 788.5Z"/><g filter="url(#u)"><path stroke="url(#v)" stroke-miterlimit="10" stroke-width="4" d="M225.5 258c147.569 0 277.797 91.966 355.362 231.5"/></g><path stroke="url(#w)" stroke-miterlimit="10" stroke-width="2" d="M225.5 258c147.569 0 277.797 91.966 355.362 231.5"/><path stroke="#d4ccc0" stroke-miterlimit="10" stroke-width="2" d="M789 788.5c0 291.77-252.288 530.5-563.5 530.5S-338 1080.27-338 788.5C-338 496.729-85.712 258 225.5 258S789 496.729 789 788.5Zm-33.027.17H-305.306M849 491H-396M970 716H-520"/><g filter="url(#x)"><path stroke="url(#y)" stroke-miterlimit="10" stroke-width="4" d="M225.5 258c-226.357 0-426.637 95.855-543 240.321"/></g><path stroke="url(#z)" stroke-miterlimit="10" stroke-width="2" d="M225.5 258c-226.357 0-426.637 95.855-543 240.321"/><g filter="url(#A)"><path stroke="url(#B)" stroke-miterlimit="10" stroke-width="4" d="M225.5 258c268.748 0 493.555 178.026 549.9 414.5"/></g><path stroke="url(#C)" stroke-miterlimit="10" stroke-width="2" d="M225.5 258c268.748 0 493.555 178.026 549.9 414.5"/><g filter="url(#D)"><path stroke="url(#E)" stroke-miterlimit="10" stroke-width="4" d="M225.5 258c-284.625 0-519.965 199.683-558.097 457"/></g><path stroke="url(#F)" stroke-miterlimit="10" stroke-width="2" d="M225.5 258c-284.625 0-519.965 199.683-558.097 457"/></g><defs><linearGradient id="b" x1="101.569" x2="-36.804" y1="644.463" y2="652.096" gradientUnits="userSpaceOnUse"><stop stop-color="#7b0f0f"/><stop offset=".98" stop-color="#7b0f0f" stop-opacity=".02"/></linearGradient><linearGradient id="d" x1="-149.825" x2="-149.825" y1="73.541" y2="1136.54" gradientUnits="userSpaceOnUse"><stop stop-color="#fff" stop-opacity="0"/><stop offset=".683" stop-color="#fff"/><stop offset="1" stop-color="#fff" stop-opacity="0"/></linearGradient><linearGradient id="f" x1="-149.825" x2="-149.825" y1="73.541" y2="1136.54" gradientUnits="userSpaceOnUse"><stop stop-color="#fff" stop-opacity="0"/><stop offset=".683" stop-color="#fff"/><stop offset="1" stop-color="#fff" stop-opacity="0"/></linearGradient><linearGradient id="h" x1="-149.825" x2="-149.825" y1="73.541" y2="1136.54" gradientUnits="userSpaceOnUse"><stop stop-color="#fff" stop-opacity="0"/><stop offset=".683" stop-color="#fff"/><stop offset="1" stop-color="#fff" stop-opacity="0"/></linearGradient><linearGradient id="j" x1="-340.825" x2="-340.825" y1="9.541" y2="1072.54" gradientUnits="userSpaceOnUse"><stop stop-color="#fbe7cc" stop-opacity="0"/><stop offset=".683" stop-color="#cccdfb"/><stop offset="1" stop-color="#fbe7cc" stop-opacity="0"/></linearGradient><linearGradient id="l" x1="-340.825" x2="-340.825" y1="9.541" y2="1072.54" gradientUnits="userSpaceOnUse"><stop stop-color="#fbe7cc" stop-opacity="0"/><stop offset=".683" stop-color="#cccdfb"/><stop offset="1" stop-color="#fbe7cc" stop-opacity="0"/></linearGradient><linearGradient id="n" x1="-340.825" x2="-340.825" y1="9.541" y2="1072.54" gradientUnits="userSpaceOnUse"><stop stop-color="#fbe7cc" stop-opacity="0"/><stop offset=".683" stop-color="#cccdfb"/><stop offset="1" stop-color="#fbe7cc" stop-opacity="0"/></linearGradient><linearGradient id="p" x1="-44.825" x2="-44.825" y1="-71.459" y2="991.541" gradientUnits="userSpaceOnUse"><stop stop-color="#fbe7cc" stop-opacity="0"/><stop offset=".683" stop-color="#fbe7cc"/><stop offset="1" stop-color="#fbe7cc" stop-opacity="0"/></linearGradient><linearGradient id="r" x1="-44.825" x2="-44.825" y1="-71.459" y2="991.541" gradientUnits="userSpaceOnUse"><stop stop-color="#fbe7cc" stop-opacity="0"/><stop offset=".683" stop-color="#fbe7cc"/><stop offset="1" stop-color="#fbe7cc" stop-opacity="0"/></linearGradient><linearGradient id="t" x1="-44.825" x2="-44.825" y1="-71.459" y2="991.541" gradientUnits="userSpaceOnUse"><stop stop-color="#fbe7cc" stop-opacity="0"/><stop offset=".683" stop-color="#fbe7cc"/><stop offset="1" stop-color="#fbe7cc" stop-opacity="0"/></linearGradient><linearGradient id="v" x1="425.508" x2="529.797" y1="294.582" y2="521.43" gradientUnits="userSpaceOnUse"><stop stop-color="#b56be0" stop-opacity="0"/><stop offset="1" stop-color="#b56be0"/></linearGradient><linearGradient id="w" x1="278.168" x2="513.529" y1="242.362" y2="543.059" gradientUnits="userSpaceOnUse"><stop stop-color="#b56be0" stop-opacity="0"/><stop offset="1" stop-color="#b56be0"/></linearGradient><linearGradient id="y" x1="241" x2="-314.733" y1="235" y2="260.357" gradientUnits="userSpaceOnUse"><stop stop-color="#b56be0" stop-opacity="0"/><stop offset="1" stop-color="#b56be0"/></linearGradient><linearGradient id="z" x1="162" x2="-312.76" y1="237.5" y2="265.883" gradientUnits="userSpaceOnUse"><stop stop-color="#b56be0" stop-opacity="0"/><stop offset="1" stop-color="#b56be0"/></linearGradient><linearGradient id="B" x1="535" x2="739" y1="323.5" y2="707" gradientUnits="userSpaceOnUse"><stop stop-color="#b56be0" stop-opacity="0"/><stop offset="1" stop-color="#b56be0"/></linearGradient><linearGradient id="C" x1="307" x2="739" y1="230" y2="707" gradientUnits="userSpaceOnUse"><stop stop-color="#b56be0" stop-opacity="0"/><stop offset="1" stop-color="#b56be0"/></linearGradient><linearGradient id="E" x1="196.5" x2="-270.629" y1="243.5" y2="721.616" gradientUnits="userSpaceOnUse"><stop stop-color="#b56be0" stop-opacity="0"/><stop offset="1" stop-color="#b56be0"/></linearGradient><linearGradient id="F" x1="101" x2="-227.79" y1="233" y2="696.126" gradientUnits="userSpaceOnUse"><stop stop-color="#b56be0" stop-opacity="0"/><stop offset="1" stop-color="#b56be0"/></linearGradient><filter id="c" width="730.491" height="1106.12" x="-264.2" y="-39.2" color-interpolation-filters="sRGB" filterUnits="userSpaceOnUse"><feFlood flood-opacity="0" result="BackgroundImageFix"/><feBlend in="SourceGraphic" in2="BackgroundImageFix" result="shape"/><feGaussianBlur result="effect1_foregroundBlur_402_940" stdDeviation="31.6"/></filter><filter id="e" width="730.491" height="1106.12" x="-264.2" y="-39.2" color-interpolation-filters="sRGB" filterUnits="userSpaceOnUse"><feFlood flood-opacity="0" result="BackgroundImageFix"/><feBlend in="SourceGraphic" in2="BackgroundImageFix" result="shape"/><feGaussianBlur result="effect1_foregroundBlur_402_940" stdDeviation="31.6"/></filter><filter id="g" width="730.491" height="1106.12" x="-264.2" y="-39.2" color-interpolation-filters="sRGB" filterUnits="userSpaceOnUse"><feFlood flood-opacity="0" result="BackgroundImageFix"/><feBlend in="SourceGraphic" in2="BackgroundImageFix" result="shape"/><feGaussianBlur result="effect1_foregroundBlur_402_940" stdDeviation="31.6"/></filter><filter id="i" width="730.491" height="1106.12" x="-455.2" y="-103.2" color-interpolation-filters="sRGB" filterUnits="userSpaceOnUse"><feFlood flood-opacity="0" result="BackgroundImageFix"/><feBlend in="SourceGraphic" in2="BackgroundImageFix" result="shape"/><feGaussianBlur result="effect1_foregroundBlur_402_940" stdDeviation="31.6"/></filter><filter id="k" width="730.491" height="1106.12" x="-455.2" y="-103.2" color-interpolation-filters="sRGB" filterUnits="userSpaceOnUse"><feFlood flood-opacity="0" result="BackgroundImageFix"/><feBlend in="SourceGraphic" in2="BackgroundImageFix" result="shape"/><feGaussianBlur result="effect1_foregroundBlur_402_940" stdDeviation="31.6"/></filter><filter id="m" width="730.491" height="1106.12" x="-455.2" y="-103.2" color-interpolation-filters="sRGB" filterUnits="userSpaceOnUse"><feFlood flood-opacity="0" result="BackgroundImageFix"/><feBlend in="SourceGraphic" in2="BackgroundImageFix" result="shape"/><feGaussianBlur result="effect1_foregroundBlur_402_940" stdDeviation="31.6"/></filter><filter id="o" width="730.491" height="1106.12" x="-159.2" y="-184.2" color-interpolation-filters="sRGB" filterUnits="userSpaceOnUse"><feFlood flood-opacity="0" result="BackgroundImageFix"/><feBlend in="SourceGraphic" in2="BackgroundImageFix" result="shape"/><feGaussianBlur result="effect1_foregroundBlur_402_940" stdDeviation="31.6"/></filter><filter id="q" width="730.491" height="1106.12" x="-159.2" y="-184.2" color-interpolation-filters="sRGB" filterUnits="userSpaceOnUse"><feFlood flood-opacity="0" result="BackgroundImageFix"/><feBlend in="SourceGraphic" in2="BackgroundImageFix" result="shape"/><feGaussianBlur result="effect1_foregroundBlur_402_940" stdDeviation="31.6"/></filter><filter id="s" width="730.491" height="1106.12" x="-159.2" y="-184.2" color-interpolation-filters="sRGB" filterUnits="userSpaceOnUse"><feFlood flood-opacity="0" result="BackgroundImageFix"/><feBlend in="SourceGraphic" in2="BackgroundImageFix" result="shape"/><feGaussianBlur result="effect1_foregroundBlur_402_940" stdDeviation="31.6"/></filter><filter id="u" width="381.71" height="259.072" x="213.2" y="243.7" color-interpolation-filters="sRGB" filterUnits="userSpaceOnUse"><feFlood flood-opacity="0" result="BackgroundImageFix"/><feBlend in="SourceGraphic" in2="BackgroundImageFix" result="shape"/><feGaussianBlur result="effect1_foregroundBlur_402_940" stdDeviation="6.15"/></filter><filter id="x" width="569.158" height="268.176" x="-331.358" y="243.7" color-interpolation-filters="sRGB" filterUnits="userSpaceOnUse"><feFlood flood-opacity="0" result="BackgroundImageFix"/><feBlend in="SourceGraphic" in2="BackgroundImageFix" result="shape"/><feGaussianBlur result="effect1_foregroundBlur_402_940" stdDeviation="6.15"/></filter><filter id="A" width="576.445" height="441.564" x="213.2" y="243.7" color-interpolation-filters="sRGB" filterUnits="userSpaceOnUse"><feFlood flood-opacity="0" result="BackgroundImageFix"/><feBlend in="SourceGraphic" in2="BackgroundImageFix" result="shape"/><feGaussianBlur result="effect1_foregroundBlur_402_940" stdDeviation="6.15"/></filter><filter id="D" width="584.675" height="483.893" x="-346.875" y="243.7" color-interpolation-filters="sRGB" filterUnits="userSpaceOnUse"><feFlood flood-opacity="0" result="BackgroundImageFix"/><feBlend in="SourceGraphic" in2="BackgroundImageFix" result="shape"/><feGaussianBlur result="effect1_foregroundBlur_402_940" stdDeviation="6.15"/></filter></defs></svg>