<svg xmlns="http://www.w3.org/2000/svg" width="566" height="209" fill="none" viewBox="0 0 566 209"><g filter="url(#a)"><path fill="url(#b)" d="M18 12c0-5.523 4.477-10 10-10h526c5.523 0 10 4.477 10 10v218H18z"/></g><path stroke="#d3cdc7" stroke-width="2" d="M554 1c6.075 0 11 4.925 11 11v219H17V12c0-6.075 4.925-11 11-11z"/><circle cx="35" cy="12" r="4" fill="url(#c)"/><circle cx="47" cy="12" r="4" fill="url(#d)"/><circle cx="59" cy="12" r="4" fill="#f2d849"/><g filter="url(#e)"><path fill="url(#f)" d="M18 34c0-5.523 4.477-10 10-10h526c5.523 0 10 4.477 10 10v196H18z"/></g><path stroke="#d3cdc7" stroke-width="2" d="M554 23c6.075 0 11 4.925 11 11v197H17V34c0-6.075 4.925-11 11-11z"/><path fill="#e3ddd6" d="M31 41a6 6 0 0 1 6-6h36a6 6 0 0 1 6 6v189H31z"/><path fill="#b5aca1" d="M106.824 42.28 103.864 53h-3.568l-1.376-5.712L97.544 53h-3.552l-2.96-10.72h3.36l1.6 5.792 1.376-5.792h3.12l1.376 5.792 1.584-5.792zM118.005 53h-3.536l-.512-1.456h-4.112L109.333 53h-3.536l4.24-10.72h3.728zm-5.024-4.192-1.072-3.056-1.088 3.056zm10.441-2.24h5.984c.048.432.08.752.08 1.072 0 3.328-2.384 5.6-5.744 5.6-3.296 0-5.872-2.464-5.872-5.6s2.56-5.6 5.872-5.6c2.576 0 4.624 1.2 5.344 3.2l-3.424.816c-.4-.8-1.072-1.056-1.92-1.056-1.504 0-2.544 1.136-2.544 2.64s1.056 2.64 2.56 2.64c1.008 0 1.712-.384 2.128-1.056h-2.464zm15.796 3.696V53h-8.64V42.28h8.56v2.736h-5.248v1.392h4.816v2.464h-4.816v1.392zM150.663 53h-3.968l-2.784-3.296h-.224V53h-3.312V42.28h5.856c2.32 0 3.872 1.472 3.872 3.664 0 1.696-.944 2.976-2.48 3.504zm-6.976-8.032v2.176h1.824c.832 0 1.344-.432 1.344-1.12 0-.624-.512-1.056-1.344-1.056zm7.657-2.688h4.672c3.504 0 5.84 2.192 5.84 5.36S159.52 53 156.016 53h-4.672zm3.312 7.968h1.088c1.664 0 2.768-1.072 2.768-2.608s-1.104-2.608-2.768-2.608h-1.088z"/><path fill="#000" fill-opacity=".48" d="M324.784 52h-2.825v-8.727h2.915q1.282 0 2.203.524a3.45 3.45 0 0 1 1.41 1.496q.495.97.495 2.33 0 1.364-.499 2.344a3.5 3.5 0 0 1-1.432 1.509q-.938.525-2.267.524m-1.508-1.15h1.436q.996 0 1.657-.376.661-.378.989-1.095.328-.72.328-1.755 0-1.027-.328-1.743a2.3 2.3 0 0 0-.967-1.087q-.644-.37-1.598-.37h-1.517zm8.906 1.295q-.623 0-1.125-.23a1.9 1.9 0 0 1-.797-.678q-.29-.442-.29-1.086 0-.555.213-.912.213-.358.575-.567a3 3 0 0 1 .81-.316q.447-.106.912-.161l.954-.111q.367-.046.533-.15.166-.1.166-.332v-.03q0-.558-.315-.865-.312-.306-.929-.306-.644 0-1.014.285-.367.281-.507.627l-1.198-.273a2.3 2.3 0 0 1 .622-.963q.414-.37.951-.537.537-.17 1.129-.17.392 0 .831.093.443.09.827.332.387.243.634.695.248.447.248 1.163V52h-1.245v-.895h-.051a1.8 1.8 0 0 1-.371.486q-.246.238-.635.396a2.5 2.5 0 0 1-.928.158m.277-1.023q.528 0 .903-.209.38-.208.575-.545.2-.34.2-.729v-.844q-.067.069-.264.128-.192.056-.439.098-.246.039-.481.073l-.392.05a3.2 3.2 0 0 0-.678.159q-.302.11-.486.32-.179.204-.179.545 0 .473.35.715.35.24.891.24m9.315-4.07-1.155.205a1.4 1.4 0 0 0-.23-.422 1.15 1.15 0 0 0-.418-.328 1.5 1.5 0 0 0-.661-.128q-.54 0-.903.243-.362.24-.362.618 0 .328.243.529.243.2.784.328l1.04.238q.903.21 1.346.644t.443 1.129q0 .588-.341 1.048-.336.456-.941.716-.601.26-1.394.26-1.1 0-1.794-.469-.695-.472-.852-1.342l1.231-.187q.116.48.473.728.358.243.934.243.626 0 1.001-.26.375-.264.375-.643a.67.67 0 0 0-.23-.516q-.226-.21-.695-.315l-1.108-.243q-.915-.21-1.355-.665-.434-.456-.434-1.155 0-.579.324-1.014.323-.435.894-.677a3.3 3.3 0 0 1 1.309-.248q1.06 0 1.67.46.61.456.806 1.224m2.562 1.062V52h-1.274v-8.727h1.257v3.247h.081q.23-.528.704-.84.473-.31 1.235-.31.674 0 1.176.276.508.277.785.827.28.546.281 1.364V52h-1.274v-4.01q0-.72-.371-1.116-.37-.402-1.031-.401a1.7 1.7 0 0 0-.81.192 1.4 1.4 0 0 0-.558.562q-.201.367-.201.887M350.143 52v-8.727h1.274v3.243h.077q.111-.205.32-.473.209-.27.579-.47.37-.204.98-.204.793 0 1.415.4.622.402.976 1.156.358.754.358 1.815t-.354 1.82q-.353.753-.971 1.163-.618.405-1.411.405-.596 0-.976-.2a1.85 1.85 0 0 1-.588-.47 3.6 3.6 0 0 1-.328-.477h-.106V52zm1.249-3.273q0 .69.2 1.21t.58.814q.379.29.929.29.57 0 .954-.302.384-.307.58-.831.2-.525.2-1.18 0-.649-.196-1.164a1.8 1.8 0 0 0-.579-.814q-.384-.298-.959-.298-.554 0-.938.285-.379.285-.575.797t-.196 1.193m8.678 3.405q-.92 0-1.607-.422a2.85 2.85 0 0 1-1.065-1.18q-.38-.759-.379-1.773 0-1.019.379-1.781a2.84 2.84 0 0 1 1.065-1.185q.686-.422 1.607-.422t1.606.422q.687.422 1.066 1.185.38.762.379 1.781 0 1.014-.379 1.773-.38.758-1.066 1.18-.685.422-1.606.422m.004-1.07q.597 0 .989-.315.391-.315.579-.84.192-.524.192-1.154 0-.627-.192-1.15a1.9 1.9 0 0 0-.579-.849q-.393-.32-.989-.32-.6 0-.997.32a1.9 1.9 0 0 0-.584.848q-.187.525-.187 1.15 0 .631.187 1.156.192.524.584.84.397.315.997.315m6.134 1.083q-.623 0-1.125-.23a1.9 1.9 0 0 1-.797-.678q-.29-.442-.29-1.086 0-.555.214-.912.213-.358.575-.567a3 3 0 0 1 .809-.316q.448-.106.912-.161l.955-.111q.366-.046.533-.15.165-.1.166-.332v-.03q0-.558-.316-.865-.31-.306-.929-.306-.644 0-1.014.285a1.53 1.53 0 0 0-.507.627l-1.197-.273a2.3 2.3 0 0 1 .622-.963q.413-.37.95-.537a3.7 3.7 0 0 1 1.129-.17q.393 0 .831.093.443.09.827.332.388.243.635.695.247.447.247 1.163V52h-1.244v-.895h-.051a1.8 1.8 0 0 1-.371.486q-.247.238-.635.396a2.5 2.5 0 0 1-.929.158m.277-1.023q.528 0 .903-.209.38-.208.576-.545.2-.34.2-.729v-.844q-.067.069-.264.128-.192.056-.439.098l-.482.073-.392.05a3 3 0 0 0-.677.159 1.16 1.16 0 0 0-.486.32q-.179.204-.179.545 0 .473.349.715.35.24.891.24m4.41.878v-6.545h1.232v1.04h.068q.179-.53.631-.832a1.8 1.8 0 0 1 1.031-.306 6 6 0 0 1 .541.03v1.218a2 2 0 0 0-.273-.047q-.195-.03-.392-.03-.451 0-.805.192a1.42 1.42 0 0 0-.759 1.283V52zm6.582.128q-.793 0-1.415-.405-.618-.409-.972-1.163-.35-.76-.349-1.82 0-1.06.354-1.815.357-.754.98-1.155.622-.4 1.41-.4.61 0 .98.204.375.2.58.469.209.268.324.473h.076v-3.243h1.275V52h-1.245v-1.019h-.106q-.115.21-.333.478a1.85 1.85 0 0 1-.588.469q-.375.2-.971.2m.281-1.087q.55 0 .929-.29.384-.294.579-.813.201-.52.201-1.21a3.3 3.3 0 0 0-.196-1.194 1.76 1.76 0 0 0-.576-.797q-.379-.285-.937-.285-.576 0-.959.298-.384.298-.579.814a3.3 3.3 0 0 0-.192 1.163q0 .657.196 1.18.196.525.579.832.388.302.955.302M92.778 16l-1.613-5.818h.923l1.134 4.506h.054l1.178-4.506h.915l1.18 4.508h.053l1.131-4.508h.926L97.043 16h-.884l-1.224-4.358h-.046L93.665 16zm6.513 0h-.932l2.094-5.818h1.014L103.561 16h-.932l-1.645-4.761h-.045zm.156-2.278h3.023v.738h-3.023zm8.458-1.702a1.8 1.8 0 0 0-.221-.463 1.42 1.42 0 0 0-.762-.577 1.8 1.8 0 0 0-.531-.077q-.492 0-.886.253a1.7 1.7 0 0 0-.625.742q-.228.486-.228 1.19 0 .707.23 1.196t.631.742.912.252q.474 0 .827-.193.354-.193.548-.545.196-.355.196-.835l.227.042h-1.664v-.724h2.286v.662q0 .732-.312 1.272a2.1 2.1 0 0 1-.858.83q-.546.292-1.25.292-.79 0-1.386-.363a2.46 2.46 0 0 1-.926-1.031q-.333-.671-.333-1.591 0-.696.193-1.25.194-.555.543-.94.352-.39.827-.594a2.6 2.6 0 0 1 1.042-.208q.472 0 .878.14.41.139.727.394.32.255.532.608.21.35.284.776zM109.8 16v-5.818h3.648v.755h-2.77v1.773h2.579v.753h-2.579v1.781h2.804V16zm4.66 0v-5.818h2.074q.676 0 1.122.233.449.232.671.645.22.409.221.946 0 .534-.224.94a1.5 1.5 0 0 1-.671.628q-.445.225-1.122.224h-1.571v-.755h1.492q.426 0 .693-.122.27-.122.395-.356.125-.232.125-.56 0-.33-.128-.57a.82.82 0 0 0-.395-.37q-.267-.13-.702-.13h-1.102V16zm2.872-2.625L118.77 16h-1l-1.409-2.625zM121.34 16h-1.884v-5.818h1.944q.855 0 1.468.35.614.346.941.996.329.648.329 1.554 0 .909-.332 1.563-.33.653-.955 1.006-.624.349-1.511.349m-1.006-.767h.958q.664 0 1.105-.25a1.58 1.58 0 0 0 .659-.73q.219-.48.219-1.17 0-.685-.219-1.162a1.55 1.55 0 0 0-.645-.725q-.429-.247-1.065-.247h-1.012zm8.577.767h-1.884v-5.818h1.943q.855 0 1.469.35.613.346.94.996.33.648.33 1.554 0 .909-.333 1.563-.328.653-.954 1.006-.626.349-1.511.349m-1.006-.767h.957q.665 0 1.105-.25.441-.253.659-.73.219-.48.219-1.17 0-.685-.219-1.162a1.54 1.54 0 0 0-.644-.725q-.43-.247-1.066-.247h-1.011zm4.938.767h-.932l2.094-5.818h1.014L137.113 16h-.932l-1.645-4.761h-.045zm.156-2.278h3.023v.738h-3.023zm7.92-2.012a.83.83 0 0 0-.375-.625q-.329-.224-.829-.224-.358 0-.619.113a.96.96 0 0 0-.407.307.73.73 0 0 0-.142.44q0 .208.097.358.099.15.258.253.162.1.347.168.184.066.355.108l.568.148q.279.068.571.184.292.117.543.307.25.19.403.472.157.281.157.673 0 .495-.256.878a1.7 1.7 0 0 1-.736.605q-.48.222-1.162.222-.653 0-1.131-.208a1.74 1.74 0 0 1-.747-.588 1.7 1.7 0 0 1-.298-.909h.881a.9.9 0 0 0 .204.526q.182.207.463.31.285.099.622.099.373 0 .662-.117.293-.12.461-.33a.8.8 0 0 0 .167-.497.6.6 0 0 0-.148-.423 1.1 1.1 0 0 0-.394-.273 4 4 0 0 0-.56-.19l-.688-.187q-.698-.19-1.108-.56-.406-.37-.406-.977 0-.503.273-.878t.739-.582q.465-.21 1.051-.21.59 0 1.042.207.455.207.716.57.261.362.273.83zm1.816 4.29v-5.818h.877v2.528h2.901v-2.528h.881V16h-.881v-2.537h-2.901V16zm5.777 0v-5.818h2.131q.619 0 1.025.204.407.202.608.549.202.343.202.775 0 .364-.134.614a1.1 1.1 0 0 1-.358.398q-.22.147-.488.216v.056q.29.014.565.188.279.17.46.486.183.315.182.767 0 .446-.21.8a1.43 1.43 0 0 1-.642.56q-.435.205-1.111.205zm.878-.753h1.267q.63 0 .903-.244a.79.79 0 0 0 .273-.611.96.96 0 0 0-.139-.506 1 1 0 0 0-.398-.366 1.3 1.3 0 0 0-.608-.136h-1.298zm0-2.548h1.176q.295 0 .531-.114a.93.93 0 0 0 .378-.318.84.84 0 0 0 .142-.489.8.8 0 0 0-.253-.605q-.253-.244-.775-.244h-1.199zm9.25.392q0 .931-.341 1.602a2.5 2.5 0 0 1-.934 1.029 2.54 2.54 0 0 1-1.344.357q-.756 0-1.349-.357a2.5 2.5 0 0 1-.932-1.032q-.34-.67-.341-1.6 0-.93.341-1.598.34-.671.932-1.029.593-.36 1.349-.36.753 0 1.344.36.594.358.934 1.029.342.668.341 1.599m-.869 0q0-.71-.23-1.196a1.7 1.7 0 0 0-.625-.739 1.63 1.63 0 0 0-.895-.253q-.502 0-.898.253a1.7 1.7 0 0 0-.625.739q-.227.486-.227 1.196t.227 1.199q.23.486.625.738.396.25.898.25.5 0 .895-.25.397-.252.625-.738.23-.489.23-1.2m2.006 2.91h-.932l2.094-5.818h1.014L164.047 16h-.932l-1.645-4.761h-.045zm.156-2.278h3.023v.738h-3.023zM164.727 16v-5.818h2.074q.676 0 1.122.233.45.232.671.645.221.409.221.946 0 .534-.224.94a1.5 1.5 0 0 1-.67.628q-.447.225-1.123.224h-1.571v-.755h1.492q.426 0 .693-.122.27-.122.395-.356.125-.232.125-.56 0-.33-.128-.57a.82.82 0 0 0-.395-.37q-.267-.13-.702-.13h-1.102V16zm2.872-2.625L169.037 16h-1l-1.409-2.625zM171.607 16h-1.883v-5.818h1.943q.855 0 1.469.35.613.346.94.996.33.648.329 1.554 0 .909-.332 1.563-.33.653-.955 1.006-.624.349-1.511.349m-1.006-.767h.958q.664 0 1.105-.25a1.58 1.58 0 0 0 .659-.73q.219-.48.219-1.17 0-.685-.219-1.162a1.55 1.55 0 0 0-.645-.725q-.429-.247-1.065-.247h-1.012zM413.959 52v-8.727h3.196q.929 0 1.538.306.609.303.912.823.303.516.303 1.163 0 .545-.201.92a1.64 1.64 0 0 1-.537.597 2.4 2.4 0 0 1-.732.324v.086q.434.02.848.28.417.256.69.73.273.472.273 1.15 0 .67-.316 1.202-.31.528-.963.84-.652.306-1.666.306zm1.317-1.13h1.9q.947 0 1.355-.366.41-.366.409-.916a1.44 1.44 0 0 0-.208-.758 1.5 1.5 0 0 0-.597-.55 1.9 1.9 0 0 0-.912-.205h-1.947zm0-3.822h1.764q.443 0 .797-.17.357-.171.566-.477.213-.312.213-.733 0-.542-.379-.908t-1.163-.366h-1.798zm9.013 5.084q-.967 0-1.666-.413a2.8 2.8 0 0 1-1.074-1.172q-.375-.759-.375-1.777 0-1.006.375-1.773.38-.766 1.057-1.197.681-.43 1.594-.43a3.2 3.2 0 0 1 1.073.183q.52.183.934.575.413.391.652 1.018.238.623.238 1.513v.452h-5.203v-.955h3.955q0-.503-.205-.89a1.55 1.55 0 0 0-.575-.618 1.6 1.6 0 0 0-.861-.226q-.537 0-.937.264-.397.26-.614.682a2 2 0 0 0-.213.908v.745q0 .657.23 1.117.235.46.652.703.418.239.976.239.362 0 .66-.103a1.36 1.36 0 0 0 .848-.831l1.206.218a2.2 2.2 0 0 1-.519.933 2.5 2.5 0 0 1-.934.618 3.5 3.5 0 0 1-1.274.217m7.037-6.677v1.022h-3.575v-1.022zm-2.616-1.569h1.274v6.192q0 .37.111.558a.58.58 0 0 0 .285.252q.18.064.388.064.153 0 .269-.022l.179-.034.23 1.053a2 2 0 0 1-.316.085 2.5 2.5 0 0 1-.511.051 2.2 2.2 0 0 1-.937-.179 1.6 1.6 0 0 1-.704-.58q-.268-.39-.268-.984zm6.841 1.569v1.022h-3.575v-1.022zm-2.616-1.569h1.274v6.192q0 .37.111.558a.58.58 0 0 0 .285.252q.18.064.388.064.153 0 .269-.022l.179-.034.23 1.053a2 2 0 0 1-.316.085 2.5 2.5 0 0 1-.511.051 2.25 2.25 0 0 1-.938-.179 1.6 1.6 0 0 1-.703-.58q-.268-.39-.268-.984zM436.721 52v-6.545h1.274V52zm.643-7.555a.8.8 0 0 1-.571-.222.72.72 0 0 1-.234-.537q0-.316.234-.537a.8.8 0 0 1 .571-.226q.333 0 .567.226a.7.7 0 0 1 .239.537q0 .311-.239.537a.8.8 0 0 1-.567.222m3.379 3.669V52h-1.274v-6.545h1.223v1.065h.081q.226-.52.707-.835.486-.315 1.223-.316.67 0 1.172.282.503.276.78.826t.277 1.36V52h-1.274v-4.01q0-.711-.371-1.112-.37-.405-1.018-.405-.443 0-.789.192a1.4 1.4 0 0 0-.541.562q-.195.367-.196.887m8.402 6.477q-.78 0-1.342-.205a2.6 2.6 0 0 1-.912-.54 2.3 2.3 0 0 1-.528-.738l1.095-.452q.114.187.307.397.195.213.528.362.336.15.865.149.725 0 1.197-.354.474-.35.473-1.116v-1.287h-.08q-.115.209-.333.464-.213.256-.588.444-.375.186-.976.187-.775 0-1.398-.362-.617-.367-.98-1.078-.358-.717-.358-1.76t.354-1.79q.358-.746.98-1.142a2.55 2.55 0 0 1 1.411-.4q.609 0 .984.204.375.2.584.469.213.268.328.473h.094v-1.061h1.248v6.69q0 .843-.392 1.385-.392.54-1.061.801a4.1 4.1 0 0 1-1.5.26m-.013-3.746q.55 0 .929-.255.384-.26.58-.742.2-.486.2-1.163 0-.66-.196-1.164a1.7 1.7 0 0 0-.575-.784q-.379-.285-.938-.285-.575 0-.958.298a1.8 1.8 0 0 0-.58.801 3.2 3.2 0 0 0-.192 1.134q0 .643.196 1.129t.58.758q.388.273.954.273M486.668 52l-2.421-8.727h1.385l1.7 6.758h.081l1.769-6.758h1.372l1.768 6.762h.081l1.696-6.762h1.39L493.064 52h-1.325l-1.837-6.537h-.068L487.997 52zm9.679 0v-6.545h1.274V52zm.643-7.555a.8.8 0 0 1-.571-.222.72.72 0 0 1-.234-.537q0-.316.234-.537.24-.226.571-.226.333 0 .567.226a.7.7 0 0 1 .239.537q0 .311-.239.537a.8.8 0 0 1-.567.222m5.161 1.01v1.022h-3.576v-1.022zm-2.617-1.569h1.274v6.192q0 .37.111.558a.58.58 0 0 0 .286.252q.179.064.387.064.154 0 .269-.022l.179-.034.23 1.053a2.5 2.5 0 0 1-.827.136 2.2 2.2 0 0 1-.937-.179 1.6 1.6 0 0 1-.703-.58q-.269-.39-.269-.984zm5.201 4.228V52h-1.274v-8.727h1.257v3.247h.081a1.9 1.9 0 0 1 .703-.84q.472-.31 1.236-.31.674 0 1.176.276.507.277.784.827.28.546.281 1.364V52h-1.274v-4.01q0-.72-.371-1.116-.37-.402-1.031-.401a1.7 1.7 0 0 0-.81.192 1.4 1.4 0 0 0-.558.562q-.2.367-.2.887m8.155 4.014q-.793 0-1.415-.405-.618-.409-.972-1.163-.35-.76-.349-1.82 0-1.06.354-1.815.357-.754.98-1.155.623-.4 1.41-.4.61 0 .98.204.375.2.58.469.209.268.324.473h.077v-3.243h1.274V52h-1.245v-1.019h-.106q-.115.21-.333.478a1.85 1.85 0 0 1-.588.469q-.374.2-.971.2m.281-1.087q.55 0 .929-.29.384-.294.58-.813.2-.52.2-1.21 0-.683-.196-1.194a1.76 1.76 0 0 0-.575-.797q-.38-.285-.938-.285-.575 0-.959.298-.383.298-.579.814a3.3 3.3 0 0 0-.192 1.163q0 .657.196 1.18.196.525.579.832.388.302.955.302m4.54.959v-6.545h1.232v1.04h.068q.178-.53.631-.832a1.8 1.8 0 0 1 1.031-.306 6 6 0 0 1 .541.03v1.218a2 2 0 0 0-.273-.047q-.195-.03-.392-.03-.451 0-.805.192a1.42 1.42 0 0 0-.759 1.283V52zm6.212.145q-.622 0-1.125-.23a1.9 1.9 0 0 1-.797-.678q-.29-.442-.29-1.086 0-.555.213-.912a1.57 1.57 0 0 1 .576-.567 3 3 0 0 1 .809-.316q.448-.106.912-.161l.955-.111q.367-.046.532-.15.167-.1.167-.332v-.03q0-.558-.316-.865-.31-.306-.929-.306-.644 0-1.014.285a1.53 1.53 0 0 0-.507.627l-1.197-.273a2.3 2.3 0 0 1 .622-.963q.413-.37.95-.537.537-.17 1.129-.17.393 0 .831.093.444.09.827.332.387.243.635.695.247.447.247 1.163V52h-1.244v-.895h-.051a1.8 1.8 0 0 1-.371.486q-.248.238-.635.396a2.5 2.5 0 0 1-.929.158m.277-1.023q.528 0 .903-.209.38-.208.576-.545.2-.34.2-.729v-.844a.7.7 0 0 1-.264.128q-.192.056-.439.098l-.482.073-.392.05a3 3 0 0 0-.677.159 1.16 1.16 0 0 0-.486.32q-.179.204-.179.545 0 .473.349.715.35.24.891.24m5.829.878-1.926-6.545h1.317l1.282 4.806h.064l1.287-4.806h1.317l1.278 4.785h.064l1.275-4.785h1.316L535.381 52h-1.299l-1.33-4.726h-.098L531.325 52z"/><g filter="url(#g)"><rect width="32" height="32" x="39" y="45" fill="url(#h)" rx="6"/></g><rect width="34" height="34" x="38" y="44" stroke="#d3cdc7" stroke-width="2" rx="7"/><g filter="url(#i)"><rect width="32" height="32" x="39" y="88" fill="url(#j)" rx="6"/></g><rect width="34" height="34" x="38" y="87" stroke="#d3cdc7" stroke-width="2" rx="7"/><g filter="url(#k)"><rect width="32" height="32" x="39" y="131" fill="url(#l)" rx="6"/></g><rect width="34" height="34" x="38" y="130" stroke="#d3cdc7" stroke-width="2" rx="7"/><g filter="url(#m)"><rect width="32" height="32" x="39" y="174" fill="url(#n)" rx="6"/></g><rect width="34" height="34" x="38" y="173" stroke="#d3cdc7" stroke-width="2" rx="7"/><path fill="#e3ddd6" d="M91 77a6 6 0 0 1 6-6h450a6 6 0 0 1 6 6v30H91z"/><path fill="#fff" d="M91 119a6 6 0 0 1 6-6h450a6 6 0 0 1 6 6v111H91z"/><g filter="url(#o)"><rect width="439" height="36" x="102" y="125" fill="#d3cdc7" rx="6"/></g><rect width="441" height="38" x="101" y="124" stroke="#d3cdc7" stroke-width="2" rx="7"/><g filter="url(#p)"><rect width="133" height="36" x="102" y="125" fill="url(#q)" rx="6"/></g><rect width="135" height="38" x="101" y="124" stroke="#d3cdc7" stroke-width="2" rx="7"/><path fill="#000" fill-opacity=".48" d="M156.959 148v-8.727h3.111q1.018 0 1.687.37.669.372 1.002 1.015.332.639.332 1.44 0 .805-.337 1.449a2.44 2.44 0 0 1-1.005 1.014q-.67.37-1.684.371h-2.139v-1.117h2.02q.643 0 1.044-.221.4-.226.588-.614.188-.387.188-.882t-.188-.878a1.34 1.34 0 0 0-.592-.601q-.401-.217-1.057-.217h-1.653V148zm8.607-8.727V148h-1.274v-8.727zm3.379 8.872q-.621 0-1.125-.23a1.9 1.9 0 0 1-.796-.678q-.29-.442-.29-1.086 0-.555.213-.912.213-.359.575-.567a3 3 0 0 1 .81-.315q.447-.107.912-.162l.954-.111q.367-.047.533-.149.166-.103.166-.333v-.03q0-.558-.315-.865-.311-.306-.929-.306-.643 0-1.014.285-.368.281-.507.626l-1.198-.272q.213-.597.622-.963.414-.37.951-.537a3.7 3.7 0 0 1 1.129-.171q.392 0 .831.094.443.09.826.332.389.243.635.695.248.447.248 1.163V148h-1.245v-.895h-.051a1.8 1.8 0 0 1-.371.486 2 2 0 0 1-.635.396 2.5 2.5 0 0 1-.929.158m.277-1.023q.53 0 .904-.209.379-.209.575-.545.2-.34.2-.729v-.844q-.067.07-.264.128-.192.056-.439.098l-.481.073-.392.051a3 3 0 0 0-.678.158q-.303.11-.486.319-.179.205-.179.546 0 .473.35.716.35.238.89.238m4.982 3.333a2.7 2.7 0 0 1-.87-.141l.307-1.044q.35.093.622.081a.75.75 0 0 0 .482-.205q.213-.191.375-.626l.158-.435-2.395-6.63h1.363l1.658 5.079h.068l1.658-5.079h1.368l-2.698 7.419q-.187.51-.477.865a1.9 1.9 0 0 1-.69.537 2.3 2.3 0 0 1-.929.179"/><g filter="url(#r)"><rect width="133" height="36" x="102" y="170" fill="#d3cdc7" rx="6"/></g><rect width="135" height="38" x="101" y="169" stroke="#d3cdc7" stroke-width="2" rx="7"/><g filter="url(#s)"><rect width="36" height="36" x="102" y="170" fill="url(#t)" rx="6"/></g><rect width="38" height="38" x="101" y="169" stroke="#d3cdc7" stroke-width="2" rx="7"/><g filter="url(#u)"><rect width="133" height="36" x="247" y="171" fill="#d3cdc7" rx="6"/></g><rect width="135" height="38" x="246" y="170" stroke="#d3cdc7" stroke-width="2" rx="7"/><g filter="url(#v)"><rect width="36" height="36" x="247" y="171" fill="url(#w)" rx="6"/></g><rect width="38" height="38" x="246" y="170" stroke="#d3cdc7" stroke-width="2" rx="7"/><rect width="36" height="36" x="386" y="170" fill="#b56be0" rx="6"/><circle cx="36" cy="113" r="36" fill="#b56be0"/><path fill="#fff" d="M36 96.5c-9.15 0-16.5 7.35-16.5 16.5s7.35 16.5 16.5 16.5 16.5-7.35 16.5-16.5S45.15 96.5 36 96.5m0 27-6-9.15 6 3.9 6-3.9zm0-6.6-6-3.9 6-10.5 6 10.5z"/><circle cx="491" cy="179" r="36" fill="#b56be0"/><g clip-path="url(#x)"><path fill="#fff" d="M501.909 173.363h-1.091v17.455h-17.454v1.091c0 .602.488 1.091 1.091 1.091h17.454c.603 0 1.091-.489 1.091-1.091v-17.455c0-.602-.488-1.091-1.091-1.091"/><path fill="#fff" d="M485.545 188.636h12a1.09 1.09 0 0 0 1.091-1.091v-17.454a1.09 1.09 0 0 0-1.091-1.091h-17.454a1.09 1.09 0 0 0-1.091 1.091v17.454a1.09 1.09 0 0 0 1.091 1.091z"/><path fill="#b56be0" d="m489 173-4.598 6 4.598 6 4.598-6z"/></g><defs><filter id="a" width="554" height="248" x="16" y="0" color-interpolation-filters="sRGB" filterUnits="userSpaceOnUse"><feFlood flood-opacity="0" result="BackgroundImageFix"/><feBlend in="SourceGraphic" in2="BackgroundImageFix" result="shape"/><feColorMatrix in="SourceAlpha" result="hardAlpha" values="0 0 0 0 0 0 0 0 0 0 0 0 0 0 0 0 0 0 127 0"/><feOffset dx="4" dy="16"/><feGaussianBlur stdDeviation="8"/><feComposite in2="hardAlpha" k2="-1" k3="1" operator="arithmetic"/><feColorMatrix values="0 0 0 0 1 0 0 0 0 1 0 0 0 0 1 0 0 0 0.6 0"/><feBlend in2="shape" result="effect1_innerShadow_403_2204"/><feColorMatrix in="SourceAlpha" result="hardAlpha" values="0 0 0 0 0 0 0 0 0 0 0 0 0 0 0 0 0 0 127 0"/><feOffset dy="2"/><feGaussianBlur stdDeviation="1"/><feComposite in2="hardAlpha" k2="-1" k3="1" operator="arithmetic"/><feColorMatrix values="0 0 0 0 1 0 0 0 0 1 0 0 0 0 1 0 0 0 1 0"/><feBlend in2="effect1_innerShadow_403_2204" result="effect2_innerShadow_403_2204"/></filter><filter id="e" width="554" height="226" x="16" y="22" color-interpolation-filters="sRGB" filterUnits="userSpaceOnUse"><feFlood flood-opacity="0" result="BackgroundImageFix"/><feBlend in="SourceGraphic" in2="BackgroundImageFix" result="shape"/><feColorMatrix in="SourceAlpha" result="hardAlpha" values="0 0 0 0 0 0 0 0 0 0 0 0 0 0 0 0 0 0 127 0"/><feOffset dx="4" dy="16"/><feGaussianBlur stdDeviation="8"/><feComposite in2="hardAlpha" k2="-1" k3="1" operator="arithmetic"/><feColorMatrix values="0 0 0 0 1 0 0 0 0 1 0 0 0 0 1 0 0 0 0.6 0"/><feBlend in2="shape" result="effect1_innerShadow_403_2204"/><feColorMatrix in="SourceAlpha" result="hardAlpha" values="0 0 0 0 0 0 0 0 0 0 0 0 0 0 0 0 0 0 127 0"/><feOffset dy="2"/><feGaussianBlur stdDeviation="1"/><feComposite in2="hardAlpha" k2="-1" k3="1" operator="arithmetic"/><feColorMatrix values="0 0 0 0 1 0 0 0 0 1 0 0 0 0 1 0 0 0 1 0"/><feBlend in2="effect1_innerShadow_403_2204" result="effect2_innerShadow_403_2204"/></filter><filter id="g" width="40" height="52" x="37" y="43" color-interpolation-filters="sRGB" filterUnits="userSpaceOnUse"><feFlood flood-opacity="0" result="BackgroundImageFix"/><feBlend in="SourceGraphic" in2="BackgroundImageFix" result="shape"/><feColorMatrix in="SourceAlpha" result="hardAlpha" values="0 0 0 0 0 0 0 0 0 0 0 0 0 0 0 0 0 0 127 0"/><feOffset dx="4" dy="16"/><feGaussianBlur stdDeviation="8"/><feComposite in2="hardAlpha" k2="-1" k3="1" operator="arithmetic"/><feColorMatrix values="0 0 0 0 1 0 0 0 0 1 0 0 0 0 1 0 0 0 0.6 0"/><feBlend in2="shape" result="effect1_innerShadow_403_2204"/><feColorMatrix in="SourceAlpha" result="hardAlpha" values="0 0 0 0 0 0 0 0 0 0 0 0 0 0 0 0 0 0 127 0"/><feOffset dy="2"/><feGaussianBlur stdDeviation="1"/><feComposite in2="hardAlpha" k2="-1" k3="1" operator="arithmetic"/><feColorMatrix values="0 0 0 0 1 0 0 0 0 1 0 0 0 0 1 0 0 0 1 0"/><feBlend in2="effect1_innerShadow_403_2204" result="effect2_innerShadow_403_2204"/></filter><filter id="i" width="40" height="52" x="37" y="86" color-interpolation-filters="sRGB" filterUnits="userSpaceOnUse"><feFlood flood-opacity="0" result="BackgroundImageFix"/><feBlend in="SourceGraphic" in2="BackgroundImageFix" result="shape"/><feColorMatrix in="SourceAlpha" result="hardAlpha" values="0 0 0 0 0 0 0 0 0 0 0 0 0 0 0 0 0 0 127 0"/><feOffset dx="4" dy="16"/><feGaussianBlur stdDeviation="8"/><feComposite in2="hardAlpha" k2="-1" k3="1" operator="arithmetic"/><feColorMatrix values="0 0 0 0 1 0 0 0 0 1 0 0 0 0 1 0 0 0 0.6 0"/><feBlend in2="shape" result="effect1_innerShadow_403_2204"/><feColorMatrix in="SourceAlpha" result="hardAlpha" values="0 0 0 0 0 0 0 0 0 0 0 0 0 0 0 0 0 0 127 0"/><feOffset dy="2"/><feGaussianBlur stdDeviation="1"/><feComposite in2="hardAlpha" k2="-1" k3="1" operator="arithmetic"/><feColorMatrix values="0 0 0 0 1 0 0 0 0 1 0 0 0 0 1 0 0 0 1 0"/><feBlend in2="effect1_innerShadow_403_2204" result="effect2_innerShadow_403_2204"/></filter><filter id="k" width="40" height="52" x="37" y="129" color-interpolation-filters="sRGB" filterUnits="userSpaceOnUse"><feFlood flood-opacity="0" result="BackgroundImageFix"/><feBlend in="SourceGraphic" in2="BackgroundImageFix" result="shape"/><feColorMatrix in="SourceAlpha" result="hardAlpha" values="0 0 0 0 0 0 0 0 0 0 0 0 0 0 0 0 0 0 127 0"/><feOffset dx="4" dy="16"/><feGaussianBlur stdDeviation="8"/><feComposite in2="hardAlpha" k2="-1" k3="1" operator="arithmetic"/><feColorMatrix values="0 0 0 0 1 0 0 0 0 1 0 0 0 0 1 0 0 0 0.6 0"/><feBlend in2="shape" result="effect1_innerShadow_403_2204"/><feColorMatrix in="SourceAlpha" result="hardAlpha" values="0 0 0 0 0 0 0 0 0 0 0 0 0 0 0 0 0 0 127 0"/><feOffset dy="2"/><feGaussianBlur stdDeviation="1"/><feComposite in2="hardAlpha" k2="-1" k3="1" operator="arithmetic"/><feColorMatrix values="0 0 0 0 1 0 0 0 0 1 0 0 0 0 1 0 0 0 1 0"/><feBlend in2="effect1_innerShadow_403_2204" result="effect2_innerShadow_403_2204"/></filter><filter id="m" width="40" height="52" x="37" y="172" color-interpolation-filters="sRGB" filterUnits="userSpaceOnUse"><feFlood flood-opacity="0" result="BackgroundImageFix"/><feBlend in="SourceGraphic" in2="BackgroundImageFix" result="shape"/><feColorMatrix in="SourceAlpha" result="hardAlpha" values="0 0 0 0 0 0 0 0 0 0 0 0 0 0 0 0 0 0 127 0"/><feOffset dx="4" dy="16"/><feGaussianBlur stdDeviation="8"/><feComposite in2="hardAlpha" k2="-1" k3="1" operator="arithmetic"/><feColorMatrix values="0 0 0 0 1 0 0 0 0 1 0 0 0 0 1 0 0 0 0.6 0"/><feBlend in2="shape" result="effect1_innerShadow_403_2204"/><feColorMatrix in="SourceAlpha" result="hardAlpha" values="0 0 0 0 0 0 0 0 0 0 0 0 0 0 0 0 0 0 127 0"/><feOffset dy="2"/><feGaussianBlur stdDeviation="1"/><feComposite in2="hardAlpha" k2="-1" k3="1" operator="arithmetic"/><feColorMatrix values="0 0 0 0 1 0 0 0 0 1 0 0 0 0 1 0 0 0 1 0"/><feBlend in2="effect1_innerShadow_403_2204" result="effect2_innerShadow_403_2204"/></filter><filter id="o" width="447" height="56" x="100" y="123" color-interpolation-filters="sRGB" filterUnits="userSpaceOnUse"><feFlood flood-opacity="0" result="BackgroundImageFix"/><feBlend in="SourceGraphic" in2="BackgroundImageFix" result="shape"/><feColorMatrix in="SourceAlpha" result="hardAlpha" values="0 0 0 0 0 0 0 0 0 0 0 0 0 0 0 0 0 0 127 0"/><feOffset dx="4" dy="16"/><feGaussianBlur stdDeviation="8"/><feComposite in2="hardAlpha" k2="-1" k3="1" operator="arithmetic"/><feColorMatrix values="0 0 0 0 1 0 0 0 0 1 0 0 0 0 1 0 0 0 0.6 0"/><feBlend in2="shape" result="effect1_innerShadow_403_2204"/><feColorMatrix in="SourceAlpha" result="hardAlpha" values="0 0 0 0 0 0 0 0 0 0 0 0 0 0 0 0 0 0 127 0"/><feOffset dy="2"/><feGaussianBlur stdDeviation="1"/><feComposite in2="hardAlpha" k2="-1" k3="1" operator="arithmetic"/><feColorMatrix values="0 0 0 0 1 0 0 0 0 1 0 0 0 0 1 0 0 0 1 0"/><feBlend in2="effect1_innerShadow_403_2204" result="effect2_innerShadow_403_2204"/></filter><filter id="p" width="141" height="56" x="100" y="123" color-interpolation-filters="sRGB" filterUnits="userSpaceOnUse"><feFlood flood-opacity="0" result="BackgroundImageFix"/><feBlend in="SourceGraphic" in2="BackgroundImageFix" result="shape"/><feColorMatrix in="SourceAlpha" result="hardAlpha" values="0 0 0 0 0 0 0 0 0 0 0 0 0 0 0 0 0 0 127 0"/><feOffset dx="4" dy="16"/><feGaussianBlur stdDeviation="8"/><feComposite in2="hardAlpha" k2="-1" k3="1" operator="arithmetic"/><feColorMatrix values="0 0 0 0 1 0 0 0 0 1 0 0 0 0 1 0 0 0 0.6 0"/><feBlend in2="shape" result="effect1_innerShadow_403_2204"/><feColorMatrix in="SourceAlpha" result="hardAlpha" values="0 0 0 0 0 0 0 0 0 0 0 0 0 0 0 0 0 0 127 0"/><feOffset dy="2"/><feGaussianBlur stdDeviation="1"/><feComposite in2="hardAlpha" k2="-1" k3="1" operator="arithmetic"/><feColorMatrix values="0 0 0 0 1 0 0 0 0 1 0 0 0 0 1 0 0 0 1 0"/><feBlend in2="effect1_innerShadow_403_2204" result="effect2_innerShadow_403_2204"/></filter><filter id="r" width="141" height="56" x="100" y="168" color-interpolation-filters="sRGB" filterUnits="userSpaceOnUse"><feFlood flood-opacity="0" result="BackgroundImageFix"/><feBlend in="SourceGraphic" in2="BackgroundImageFix" result="shape"/><feColorMatrix in="SourceAlpha" result="hardAlpha" values="0 0 0 0 0 0 0 0 0 0 0 0 0 0 0 0 0 0 127 0"/><feOffset dx="4" dy="16"/><feGaussianBlur stdDeviation="8"/><feComposite in2="hardAlpha" k2="-1" k3="1" operator="arithmetic"/><feColorMatrix values="0 0 0 0 1 0 0 0 0 1 0 0 0 0 1 0 0 0 0.6 0"/><feBlend in2="shape" result="effect1_innerShadow_403_2204"/><feColorMatrix in="SourceAlpha" result="hardAlpha" values="0 0 0 0 0 0 0 0 0 0 0 0 0 0 0 0 0 0 127 0"/><feOffset dy="2"/><feGaussianBlur stdDeviation="1"/><feComposite in2="hardAlpha" k2="-1" k3="1" operator="arithmetic"/><feColorMatrix values="0 0 0 0 1 0 0 0 0 1 0 0 0 0 1 0 0 0 1 0"/><feBlend in2="effect1_innerShadow_403_2204" result="effect2_innerShadow_403_2204"/></filter><filter id="s" width="44" height="56" x="100" y="168" color-interpolation-filters="sRGB" filterUnits="userSpaceOnUse"><feFlood flood-opacity="0" result="BackgroundImageFix"/><feBlend in="SourceGraphic" in2="BackgroundImageFix" result="shape"/><feColorMatrix in="SourceAlpha" result="hardAlpha" values="0 0 0 0 0 0 0 0 0 0 0 0 0 0 0 0 0 0 127 0"/><feOffset dx="4" dy="16"/><feGaussianBlur stdDeviation="8"/><feComposite in2="hardAlpha" k2="-1" k3="1" operator="arithmetic"/><feColorMatrix values="0 0 0 0 1 0 0 0 0 1 0 0 0 0 1 0 0 0 0.6 0"/><feBlend in2="shape" result="effect1_innerShadow_403_2204"/><feColorMatrix in="SourceAlpha" result="hardAlpha" values="0 0 0 0 0 0 0 0 0 0 0 0 0 0 0 0 0 0 127 0"/><feOffset dy="2"/><feGaussianBlur stdDeviation="1"/><feComposite in2="hardAlpha" k2="-1" k3="1" operator="arithmetic"/><feColorMatrix values="0 0 0 0 1 0 0 0 0 1 0 0 0 0 1 0 0 0 1 0"/><feBlend in2="effect1_innerShadow_403_2204" result="effect2_innerShadow_403_2204"/></filter><filter id="u" width="141" height="56" x="245" y="169" color-interpolation-filters="sRGB" filterUnits="userSpaceOnUse"><feFlood flood-opacity="0" result="BackgroundImageFix"/><feBlend in="SourceGraphic" in2="BackgroundImageFix" result="shape"/><feColorMatrix in="SourceAlpha" result="hardAlpha" values="0 0 0 0 0 0 0 0 0 0 0 0 0 0 0 0 0 0 127 0"/><feOffset dx="4" dy="16"/><feGaussianBlur stdDeviation="8"/><feComposite in2="hardAlpha" k2="-1" k3="1" operator="arithmetic"/><feColorMatrix values="0 0 0 0 1 0 0 0 0 1 0 0 0 0 1 0 0 0 0.6 0"/><feBlend in2="shape" result="effect1_innerShadow_403_2204"/><feColorMatrix in="SourceAlpha" result="hardAlpha" values="0 0 0 0 0 0 0 0 0 0 0 0 0 0 0 0 0 0 127 0"/><feOffset dy="2"/><feGaussianBlur stdDeviation="1"/><feComposite in2="hardAlpha" k2="-1" k3="1" operator="arithmetic"/><feColorMatrix values="0 0 0 0 1 0 0 0 0 1 0 0 0 0 1 0 0 0 1 0"/><feBlend in2="effect1_innerShadow_403_2204" result="effect2_innerShadow_403_2204"/></filter><filter id="v" width="44" height="56" x="245" y="169" color-interpolation-filters="sRGB" filterUnits="userSpaceOnUse"><feFlood flood-opacity="0" result="BackgroundImageFix"/><feBlend in="SourceGraphic" in2="BackgroundImageFix" result="shape"/><feColorMatrix in="SourceAlpha" result="hardAlpha" values="0 0 0 0 0 0 0 0 0 0 0 0 0 0 0 0 0 0 127 0"/><feOffset dx="4" dy="16"/><feGaussianBlur stdDeviation="8"/><feComposite in2="hardAlpha" k2="-1" k3="1" operator="arithmetic"/><feColorMatrix values="0 0 0 0 1 0 0 0 0 1 0 0 0 0 1 0 0 0 0.6 0"/><feBlend in2="shape" result="effect1_innerShadow_403_2204"/><feColorMatrix in="SourceAlpha" result="hardAlpha" values="0 0 0 0 0 0 0 0 0 0 0 0 0 0 0 0 0 0 127 0"/><feOffset dy="2"/><feGaussianBlur stdDeviation="1"/><feComposite in2="hardAlpha" k2="-1" k3="1" operator="arithmetic"/><feColorMatrix values="0 0 0 0 1 0 0 0 0 1 0 0 0 0 1 0 0 0 1 0"/><feBlend in2="effect1_innerShadow_403_2204" result="effect2_innerShadow_403_2204"/></filter><linearGradient id="b" x1="57.813" x2="244.866" y1="138.8" y2="-130.618" gradientUnits="userSpaceOnUse"><stop stop-color="#ede8e1"/><stop offset=".598" stop-color="#f8f6f3"/><stop offset="1" stop-color="#ede8e1"/></linearGradient><linearGradient id="c" x1="4.067" x2="48.866" y1="10.937" y2="1.68" gradientUnits="userSpaceOnUse"><stop stop-color="#549900"/><stop offset=".66" stop-color="#62a214"/><stop offset=".75" stop-color="#92d541"/><stop offset=".841" stop-color="#62a214"/><stop offset="1" stop-color="#549900"/></linearGradient><linearGradient id="d" x1="16.067" x2="60.866" y1="10.937" y2="1.68" gradientUnits="userSpaceOnUse"><stop stop-color="#dd2323"/><stop offset=".66" stop-color="#dd2323"/><stop offset=".75" stop-color="#ff6565"/><stop offset=".841" stop-color="#dd2323"/><stop offset="1" stop-color="#dd2323"/></linearGradient><linearGradient id="f" x1="57.813" x2="220.211" y1="147.6" y2="-111.288" gradientUnits="userSpaceOnUse"><stop stop-color="#ede8e1"/><stop offset=".598" stop-color="#f8f6f3"/><stop offset="1" stop-color="#ede8e1"/></linearGradient><linearGradient id="h" x1="41.333" x2="66.085" y1="64.2" y2="49.313" gradientUnits="userSpaceOnUse"><stop stop-color="#ede8e1"/><stop offset=".598" stop-color="#f8f6f3"/><stop offset="1" stop-color="#ede8e1"/></linearGradient><linearGradient id="j" x1="41.333" x2="66.085" y1="107.2" y2="92.313" gradientUnits="userSpaceOnUse"><stop stop-color="#ede8e1"/><stop offset=".598" stop-color="#f8f6f3"/><stop offset="1" stop-color="#ede8e1"/></linearGradient><linearGradient id="l" x1="41.333" x2="66.085" y1="150.2" y2="135.313" gradientUnits="userSpaceOnUse"><stop stop-color="#ede8e1"/><stop offset=".598" stop-color="#f8f6f3"/><stop offset="1" stop-color="#ede8e1"/></linearGradient><linearGradient id="n" x1="41.333" x2="66.085" y1="193.2" y2="178.313" gradientUnits="userSpaceOnUse"><stop stop-color="#ede8e1"/><stop offset=".598" stop-color="#f8f6f3"/><stop offset="1" stop-color="#ede8e1"/></linearGradient><linearGradient id="q" x1="111.698" x2="135.292" y1="146.6" y2="94.173" gradientUnits="userSpaceOnUse"><stop stop-color="#ede8e1"/><stop offset=".598" stop-color="#f8f6f3"/><stop offset="1" stop-color="#ede8e1"/></linearGradient><linearGradient id="t" x1="104.625" x2="132.471" y1="191.6" y2="174.852" gradientUnits="userSpaceOnUse"><stop stop-color="#ede8e1"/><stop offset=".598" stop-color="#f8f6f3"/><stop offset="1" stop-color="#ede8e1"/></linearGradient><linearGradient id="w" x1="249.625" x2="277.471" y1="192.6" y2="175.852" gradientUnits="userSpaceOnUse"><stop stop-color="#ede8e1"/><stop offset=".598" stop-color="#f8f6f3"/><stop offset="1" stop-color="#ede8e1"/></linearGradient><clipPath id="x"><path fill="#fff" d="M479 169h24v24h-24z"/></clipPath></defs></svg>