<svg xmlns="http://www.w3.org/2000/svg" width="265" height="112" fill="none" viewBox="0 0 265 112"><g opacity=".35"><g filter="url(#a)"><circle cx="104.003" cy="104.003" r="104.003" fill="#fff" fill-opacity=".04" transform="matrix(.5 .86603 -1 0 108.008 18.07)"/></g><path stroke="#fff" stroke-opacity=".12" stroke-width="1.022" d="M159.499 108.139c28.578 49.5 5.411 89.628-51.746 89.628s-126.661-40.128-155.24-89.628C-76.065 58.64-52.897 18.513 4.26 18.513S130.92 58.64 159.5 108.139Z"/></g><g opacity=".35"><g filter="url(#b)"><circle cx="80.233" cy="80.233" r="80.233" fill="#fff" fill-opacity=".04" transform="matrix(.5 .86603 -1 0 96.123 38.655)"/></g><path stroke="#fff" stroke-opacity=".12" stroke-width="1.022" d="M135.729 108.139c22.015 38.131 4.167 69.041-39.862 69.041S-1.7 146.27-23.715 108.139s-4.17-69.041 39.86-69.041 97.569 30.91 119.584 69.041Z"/></g><g filter="url(#c)"><path fill="url(#d)" d="M20.053 39.513a96 96 0 0 0-3.71-.074c-29.105 0-46.712 13.575-48.83 33.812l-.996-.392c1.124-10.886 6.664-19.817 16.025-25.83 9.36-6.014 22.188-8.883 37.101-8.299z"/></g><g filter="url(#e)"><path fill="url(#f)" d="m20.053 39.512-.02.495.856.033-.397-.758zm-3.71-.074v-.495zm-48.83 33.812-.182.462.607.239.068-.65zm-.996-.392-.493-.051-.039.374.35.138zm16.025-25.83-.268-.417zm37.101-8.298.44-.23-.134-.255-.287-.01zm.41.782.019-.496a97 97 0 0 0-3.728-.073v.991q1.833.001 3.69.073zm-3.71-.074v-.495c-14.625 0-26.412 3.41-34.823 9.409-8.42 6.005-13.426 14.586-14.5 24.847l.493.051.493.052c1.044-9.977 5.9-18.302 14.09-24.143 8.199-5.848 19.768-9.225 34.248-9.225zm-48.83 33.812.182-.461-.996-.392-.182.46-.182.462.996.392zm-.996-.392.493.05c1.108-10.732 6.563-19.53 15.8-25.463l-.268-.417-.268-.417c-9.485 6.093-15.11 15.157-16.25 26.196zm16.025-25.83.268.417c9.25-5.943 21.969-8.802 36.814-8.22l.02-.495.019-.496c-14.98-.587-27.918 2.292-37.39 8.377zm37.101-8.298-.44.23.41.782.44-.23.44-.23-.41-.783z"/></g><g filter="url(#g)"><circle cx="65.728" cy="65.728" r="65.728" fill="#0b0c0d" transform="matrix(.5 .86603 -1 0 88.959 51.455)"/></g><path stroke="#fff" stroke-opacity=".12" stroke-width=".388" d="M121.628 108.377c18.097 31.344 3.427 56.753-32.766 56.753s-80.203-25.409-98.3-56.753-3.426-56.754 32.767-56.754 80.203 25.41 98.299 56.754Z"/><g filter="url(#h)"><path fill="url(#i)" d="M58.685 58.393c12.277 4.553 24.25 11.127 34.823 19.123l-.722.595C72.43 62.735 46.584 52.557 23.869 52.557l-.637-1.102c10.987 0 23.177 2.386 35.453 6.938"/></g><g filter="url(#j)"><path fill="url(#k)" d="m58.685 58.393.173-.465zm34.823 19.123.315.383.485-.4-.501-.378zm-.722.595-.299.395.312.236.302-.249zM23.869 52.557l-.43.248.144.248h.286zm-.637-1.102v-.496h-.86l.43.744zm35.453 6.938-.172.465c12.23 4.536 24.16 11.087 34.696 19.054l.299-.396.299-.395c-10.611-8.025-22.627-14.623-34.95-19.192zm34.823 19.123-.315-.383-.722.595.315.383.315.382.722-.594zm-.722.595.299-.396c-20.42-15.424-46.369-25.654-69.216-25.654v.991c22.583 0 48.326 10.127 68.618 25.454zM23.869 52.557l.429-.248-.637-1.102-.43.248-.428.248.636 1.102zm-.637-1.102v.496c10.918 0 23.05 2.371 35.28 6.907l.173-.465.173-.465c-12.322-4.569-24.57-6.969-35.626-6.969z"/></g><g filter="url(#l)"><path fill="url(#m)" d="m17.537 139.463-.312.386zm34.202 20.213.49.076-.097.621-.581-.238zm.143-.924.188-.459.362.148-.06.387zM-5.23 112.484l-.005-.496.286-.003.146.246zm-1.273.014-.426.252-.438-.739.86-.009zm24.041 26.965.312-.385c10.136 8.211 21.854 15.136 34.077 20.139l-.187.459-.188.459c-12.313-5.039-24.114-12.014-34.326-20.286zm34.202 20.213-.49-.076.143-.924.49.076.49.076-.143.924zm.143-.924-.188.458c-23.679-9.707-45.706-26.816-57.351-46.473l.426-.253.427-.253c11.51 19.43 33.344 36.416 56.874 46.062zM-5.23 112.484l.005.496-1.272.013-.006-.495-.005-.496 1.273-.014zm-1.273.014.427-.253c5.565 9.394 13.789 18.622 23.926 26.833l-.312.385-.312.386C7.013 131.577-1.295 122.263-6.93 112.75z"/></g><path fill="#000" fill-opacity=".12" d="m40.095 105.862 5.605-5.802v11.899h-1.474l1.474 1.475v15.402h-2.925v6.334l-2.287 1.479v-12.888l4.032-4.032h-3.147l-3.918 2.261-4.146-2.393v-4.098h7.573l-3.748-2.163H27.112l-3.737 2.163h7.18v11.9h3.231l4.342 3.506v4.166l1.885 1.885-7.885 5.104v.001l-10.647-6.89v-6.334h-2.593l-.177-15.263 1.615-1.615h-1.633l-.137-11.898 5.605 5.801 7.967-9.288zm-8.065 29.402 1.279-1.28h-2.557zm-4.13-2.853h8.457l-2.065-1.672h-4.13zm-6.295-11.699 4.72 5.213 1.377-1.181v-2.95h-2.754l-2.262-2.164h7.475l-1.77-1.672h-4.033zm12.588-1.115h6.689l-1.54-1.54h-3.574z"/><g opacity=".35"><g filter="url(#n)"><path fill="#fff" fill-opacity=".04" d="M-47.997 108.14c28.72 49.744 98.566 90.069 156.005 90.069l-4.333 7.506c-57.44 0-127.286-40.326-156.005-90.07z"/></g><path stroke="#fff" stroke-opacity=".12" stroke-width="1.022" d="M103.38 205.202c-28.532-.068-60.145-10.1-88.222-26.311-28.078-16.211-52.572-38.573-66.897-63.248l3.745-6.487c14.475 24.665 38.974 46.949 66.974 63.115s59.548 26.24 88.146 26.444z"/></g><path fill="url(#o)" fill-opacity=".92" d="m54.803 92.452 1.594-7.94 12.338 11.53-2.002.61 3.53.819 15.97 14.923-3.972 1.21 6.568 6.137-1.57 2.379-13.362-12.487 1.293-5.575-4.273 1.302-2.973 3.811-8.111-.604-4.249-3.97 10.281-3.131-7.33-.547-13.605 4.143-2.83 3.642 9.746-2.968 12.338 11.53 4.388-1.336 9.528 1.602 4.319 4.035 4.513 1.047-5.413 8.203.001.002-21.597-2.273-6.568-6.138-3.52 1.073-16.065-14.716.52-2.232-2.219.676-12.523-11.473 13.626 3.305 1.185-12.293-.002-.002zm19.536 31.822.41-1.767-3.47 1.057zm-8.565-1.055 11.483-3.497-4.538-.767-5.608 1.708zm-20.327-10.23-.347 1.495 11.814 3.099.645-1.713-3.06-2.859-3.738 1.139zl10.147-3.091-4.136-.887-5.474 1.667zm15.587-4.788 9.08-2.765-3.688-.856-4.852 1.478z"/><defs><filter id="a" width="232.609" height="198.74" x="-60.299" y="18.07" color-interpolation-filters="sRGB" filterUnits="userSpaceOnUse"><feFlood flood-opacity="0" result="BackgroundImageFix"/><feBlend in="SourceGraphic" in2="BackgroundImageFix" result="shape"/><feColorMatrix in="SourceAlpha" result="hardAlpha" values="0 0 0 0 0 0 0 0 0 0 0 0 0 0 0 0 0 0 127 0"/><feOffset dy="18.601"/><feGaussianBlur stdDeviation="9.3"/><feComposite in2="hardAlpha" k2="-1" k3="1" operator="arithmetic"/><feColorMatrix values="0 0 0 0 1 0 0 0 0 1 0 0 0 0 1 0 0 0 0.07 0"/><feBlend in2="shape" result="effect1_innerShadow_982_363"/></filter><filter id="b" width="179.446" height="157.568" x="-33.717" y="38.655" color-interpolation-filters="sRGB" filterUnits="userSpaceOnUse"><feFlood flood-opacity="0" result="BackgroundImageFix"/><feBlend in="SourceGraphic" in2="BackgroundImageFix" result="shape"/><feColorMatrix in="SourceAlpha" result="hardAlpha" values="0 0 0 0 0 0 0 0 0 0 0 0 0 0 0 0 0 0 127 0"/><feOffset dy="18.601"/><feGaussianBlur stdDeviation="9.3"/><feComposite in2="hardAlpha" k2="-1" k3="1" operator="arithmetic"/><feColorMatrix values="0 0 0 0 1 0 0 0 0 1 0 0 0 0 1 0 0 0 0.07 0"/><feBlend in2="shape" result="effect1_innerShadow_982_363"/></filter><filter id="c" width="58.807" height="39.866" x="-36.119" y="36.021" color-interpolation-filters="sRGB" filterUnits="userSpaceOnUse"><feFlood flood-opacity="0" result="BackgroundImageFix"/><feBlend in="SourceGraphic" in2="BackgroundImageFix" result="shape"/><feGaussianBlur result="effect1_foregroundBlur_982_363" stdDeviation="1.318"/></filter><filter id="e" width="54.904" height="48.721" x="-34.015" y="38.159" color-interpolation-filters="sRGB" filterUnits="userSpaceOnUse"><feFlood flood-opacity="0" result="BackgroundImageFix"/><feBlend in="SourceGraphic" in2="BackgroundImageFix" result="shape"/><feColorMatrix in="SourceAlpha" result="hardAlpha" values="0 0 0 0 0 0 0 0 0 0 0 0 0 0 0 0 0 0 127 0"/><feOffset dy="12.93"/><feGaussianBlur stdDeviation="6.465"/><feComposite in2="hardAlpha" k2="-1" k3="1" operator="arithmetic"/><feColorMatrix values="0 0 0 0 1 0 0 0 0 1 0 0 0 0 1 0 0 0 0.07 0"/><feBlend in2="shape" result="effect1_innerShadow_982_363"/></filter><filter id="g" width="147.003" height="120.903" x="-17.406" y="51.455" color-interpolation-filters="sRGB" filterUnits="userSpaceOnUse"><feFlood flood-opacity="0" result="BackgroundImageFix"/><feBlend in="SourceGraphic" in2="BackgroundImageFix" result="shape"/><feColorMatrix in="SourceAlpha" result="hardAlpha" values="0 0 0 0 0 0 0 0 0 0 0 0 0 0 0 0 0 0 127 0"/><feOffset dy="7.06"/><feGaussianBlur stdDeviation="3.53"/><feComposite in2="hardAlpha" k2="-1" k3="1" operator="arithmetic"/><feColorMatrix values="0 0 0 0 1 0 0 0 0 1 0 0 0 0 1 0 0 0 0.07 0"/><feBlend in2="shape" result="effect1_innerShadow_982_363"/></filter><filter id="h" width="75.548" height="31.927" x="20.596" y="48.819" color-interpolation-filters="sRGB" filterUnits="userSpaceOnUse"><feFlood flood-opacity="0" result="BackgroundImageFix"/><feBlend in="SourceGraphic" in2="BackgroundImageFix" result="shape"/><feGaussianBlur result="effect1_foregroundBlur_982_363" stdDeviation="1.318"/></filter><filter id="j" width="71.936" height="40.713" x="22.372" y="50.959" color-interpolation-filters="sRGB" filterUnits="userSpaceOnUse"><feFlood flood-opacity="0" result="BackgroundImageFix"/><feBlend in="SourceGraphic" in2="BackgroundImageFix" result="shape"/><feColorMatrix in="SourceAlpha" result="hardAlpha" values="0 0 0 0 0 0 0 0 0 0 0 0 0 0 0 0 0 0 127 0"/><feOffset dy="12.93"/><feGaussianBlur stdDeviation="6.465"/><feComposite in2="hardAlpha" k2="-1" k3="1" operator="arithmetic"/><feColorMatrix values="0 0 0 0 1 0 0 0 0 1 0 0 0 0 1 0 0 0 0.07 0"/><feBlend in2="shape" result="effect1_innerShadow_982_363"/></filter><filter id="l" width="59.8" height="61.317" x="-7.368" y="111.985" color-interpolation-filters="sRGB" filterUnits="userSpaceOnUse"><feFlood flood-opacity="0" result="BackgroundImageFix"/><feBlend in="SourceGraphic" in2="BackgroundImageFix" result="shape"/><feColorMatrix in="SourceAlpha" result="hardAlpha" values="0 0 0 0 0 0 0 0 0 0 0 0 0 0 0 0 0 0 127 0"/><feOffset dy="12.93"/><feGaussianBlur stdDeviation="6.465"/><feComposite in2="hardAlpha" k2="-1" k3="1" operator="arithmetic"/><feColorMatrix values="0 0 0 0 1 0 0 0 0 1 0 0 0 0 1 0 0 0 0.07 0"/><feBlend in2="shape" result="effect1_innerShadow_982_363"/></filter><filter id="n" width="160.338" height="116.176" x="-52.33" y="108.14" color-interpolation-filters="sRGB" filterUnits="userSpaceOnUse"><feFlood flood-opacity="0" result="BackgroundImageFix"/><feBlend in="SourceGraphic" in2="BackgroundImageFix" result="shape"/><feColorMatrix in="SourceAlpha" result="hardAlpha" values="0 0 0 0 0 0 0 0 0 0 0 0 0 0 0 0 0 0 127 0"/><feOffset dy="18.601"/><feGaussianBlur stdDeviation="9.3"/><feComposite in2="hardAlpha" k2="-1" k3="1" operator="arithmetic"/><feColorMatrix values="0 0 0 0 1 0 0 0 0 1 0 0 0 0 1 0 0 0 0.07 0"/><feBlend in2="shape" result="effect1_innerShadow_982_363"/></filter><linearGradient id="d" x1="-116.576" x2="-193.149" y1="-104.272" y2="-54.796" gradientUnits="userSpaceOnUse"><stop stop-color="#599f02" stop-opacity="0"/><stop offset=".126" stop-color="#6cb317"/><stop offset=".274" stop-color="#aff45b"/><stop offset=".609" stop-color="#60a50c"/><stop offset=".939" stop-color="#549900" stop-opacity=".02"/></linearGradient><linearGradient id="f" x1="4.649" x2="-27.367" y1="45.631" y2="52.128" gradientUnits="userSpaceOnUse"><stop stop-color="#8cff00"/><stop offset="1" stop-color="#549900" stop-opacity="0"/></linearGradient><linearGradient id="i" x1="95.405" x2="19.26" y1="64.346" y2="41.981" gradientUnits="userSpaceOnUse"><stop stop-color="#599f02" stop-opacity="0"/><stop offset=".126" stop-color="#6cb317"/><stop offset=".274" stop-color="#aff45b"/><stop offset=".609" stop-color="#60a50c"/><stop offset=".939" stop-color="#549900" stop-opacity=".02"/></linearGradient><linearGradient id="k" x1="36.157" x2="45.412" y1="52.942" y2="42.625" gradientUnits="userSpaceOnUse"><stop stop-color="#8cff00"/><stop offset="1" stop-color="#549900" stop-opacity="0"/></linearGradient><linearGradient id="m" x1="1.364" x2="-2.795" y1="122.859" y2="136.081" gradientUnits="userSpaceOnUse"><stop stop-color="#dbe2d3"/><stop offset="1" stop-color="#dbe2d3" stop-opacity="0"/></linearGradient><linearGradient id="o" x1="34.358" x2="50.645" y1="86.747" y2="140.222" gradientUnits="userSpaceOnUse"><stop stop-color="#fff"/><stop offset="1" stop-color="#89f801"/></linearGradient></defs></svg>