<svg xmlns="http://www.w3.org/2000/svg" width="65" height="64" fill="none" viewBox="0 0 65 64"><path fill="#d4ccc0" d="M2.17 56a6 6 0 0 0 6 6h6v2h-6a8 8 0 0 1-8-8v-5.5h2zm62 0a8 8 0 0 1-8 8h-6v-2h6a6 6 0 0 0 6-6v-5.5h2zm-8-56a8 8 0 0 1 8 8v6.5h-2V8a6 6 0 0 0-6-6h-6V0zm-42 2h-6a6 6 0 0 0-6 6v6.5h-2V8a8 8 0 0 1 8-8h6z"/><g filter="url(#a)"><rect width="56" height="56" x="3.669" y="4" fill="url(#b)" rx="6"/></g><rect width="55" height="55" x="4.169" y="4.5" stroke="#fff" rx="5.5"/><path fill="#000" d="M16.306 37.165a.7.7 0 0 0 .165.24.75.75 0 0 0 1.152-.945.8.8 0 0 0-.338-.278.75.75 0 0 0-.907.278.6.6 0 0 0-.113.27.7.7 0 0 0 0 .292.6.6 0 0 0 .041.143m30.548-1.024a.6.6 0 0 0-.27.113.8.8 0 0 0-.278.333.6.6 0 0 0-.04.143.76.76 0 0 0 .041.435c.08.18.224.324.404.405a.76.76 0 0 0 .576-.001.7.7 0 0 0 .242-.164.7.7 0 0 0 .221-.529.6.6 0 0 0-.015-.146.64.64 0 0 0-.112-.27.75.75 0 0 0-.77-.319m.672 2.534-.525.7-.525-.7a.75.75 0 0 0-1.2.9l1.125 1.5a.75.75 0 0 0 1.2 0l1.125-1.5a.75.75 0 0 0-1.2-.9m-30.386-3.994q.072.016.146.015a.753.753 0 1 0-.146-.015m27.326-5.406a.76.76 0 1 0 0-1.52.76.76 0 0 0 0 1.52m.694 2.126h.003a.75.75 0 0 0 .69.465q.151 0 .29-.06a.75.75 0 1 0-.983-.405m.817 2.669a.744.744 0 0 0 .735.604q.074 0 .147-.01a.752.752 0 1 0-.882-.593m-28.125-2.246q.137.06.285.06a.755.755 0 1 0-.285-.06m1.257-2.66a.747.747 0 1 0 .824-1.247.747.747 0 0 0-.824 1.247m23.486-2.161a.758.758 0 0 0 .633-1.172.756.756 0 1 0-.633 1.172m-21.203.016a.747.747 0 1 0 .003-1.494.747.747 0 0 0-.003 1.494M16.4 41.075a.748.748 0 0 0 1.2 0l1.125-1.5a.75.75 0 0 0-1.2-.9l-.525.7-.525-.7a.75.75 0 0 0-1.2.9zm23.46-14.507c.26-4.475-2.977-8.248-5.13-10.242l1.355-3.958a.75.75 0 0 0-1.083-.894c-.016.009-1.618.887-2.399.117a.75.75 0 0 0-.526-.216h-.154a.75.75 0 0 0-.526.216c-.78.77-2.383-.108-2.397-.116a.75.75 0 0 0-1.085.893l1.356 3.958c-2.154 1.994-5.39 5.767-5.132 10.241a7.85 7.85 0 0 0 7.198 7.29q.273.018.552.018h.222q.28 0 .55-.018a7.85 7.85 0 0 0 7.2-7.29M32 13.014a3.02 3.02 0 0 0 2.165.328l-.867 2.532h-2.596l-.867-2.532c.737.166 1.51.049 2.165-.328m2.277 14.676a2.37 2.37 0 0 1-1.497.95v.547a.75.75 0 1 1-1.5 0v-.54a2.8 2.8 0 0 1-1.12-.52.75.75 0 1 1 .912-1.191c.163.127.354.214.557.255.501.09 1.158.02 1.41-.347a.59.59 0 0 0-.02-.648c-.198-.312-.716-.453-1.264-.603-.847-.23-1.902-.518-2.283-1.652-.33-.998.214-2.041 1.294-2.483.245-.098.503-.163.765-.192v-.33a.75.75 0 1 1 1.5 0v.505q.323.114.615.293a.75.75 0 1 1-.79 1.275 1.74 1.74 0 0 0-1.522-.162c-.197.08-.54.313-.44.62.113.334.487.47 1.256.679.724.198 1.627.443 2.136 1.248a2.09 2.09 0 0 1-.01 2.296"/><path fill="#569a03" d="M53.857 42.502h-.214a2.14 2.14 0 0 0-1.848 1.063l-4.056-1.015a1.6 1.6 0 0 0-1.133.137l-3.752 1.946a2.05 2.05 0 0 0 .994 3.868c.3-.009.593-.084.86-.22l2.931-1.492a.75.75 0 0 0-.68-1.337l-2.931 1.492a.52.52 0 0 1-.452.013.54.54 0 0 1-.305-.352.55.55 0 0 1 .273-.64l3.757-1.948a.1.1 0 0 1 .073-.012l4.126 1.033v3.264a4 4 0 0 0-.93.202l-6.396 2.608a.75.75 0 0 1-.593-.14l-9.027-6.032a.776.776 0 0 1-.19-1.023.535.535 0 0 1 .748-.213l5.158 3.117a3.56 3.56 0 0 1 .215-1.623l-4.597-2.778a2.034 2.034 0 0 0-2.8.71 2.27 2.27 0 0 0 .633 3.058l9.012 6.02c.381.27.837.417 1.304.418q.283 0 .559-.072a1 1 0 0 0 .091-.031l6.427-2.621c.236-.078.483-.117.732-.117h.008a2.14 2.14 0 0 0 1.79.967h.213A2.146 2.146 0 0 0 56 48.608v-3.963a2.146 2.146 0 0 0-2.143-2.143"/><path fill="#000" d="m28.112 42.42-4.597 2.778c.197.517.27 1.072.215 1.623l5.158-3.117a.534.534 0 0 1 .748.213.775.775 0 0 1-.19 1.023l-9.027 6.031a.75.75 0 0 1-.593.141l-6.397-2.608-.043-.017a4 4 0 0 0-.886-.185v-3.264l4.126-1.033a.1.1 0 0 1 .073.012l3.757 1.947a.553.553 0 0 1-.032.993.52.52 0 0 1-.452-.013l-2.93-1.492a.75.75 0 0 0-.681 1.337l2.93 1.491a2.036 2.036 0 0 0 2.881-1.266 2.06 2.06 0 0 0-1.026-2.381l-3.752-1.946a1.6 1.6 0 0 0-1.133-.137l-4.056 1.015a2.14 2.14 0 0 0-1.848-1.063h-.214A2.146 2.146 0 0 0 8 44.645v3.963a2.146 2.146 0 0 0 2.143 2.144h.214a2.14 2.14 0 0 0 1.79-.967h.007c.249 0 .496.04.732.117l6.427 2.62q.045.02.091.032.275.072.559.072a2.27 2.27 0 0 0 1.304-.418l9.013-6.02a2.27 2.27 0 0 0 .632-3.059 2.035 2.035 0 0 0-2.8-.71"/><defs><linearGradient id="b" x1="7.753" x2="51.068" y1="37.6" y2="11.548" gradientUnits="userSpaceOnUse"><stop stop-color="#ede8e1"/><stop offset=".598" stop-color="#f8f6f3"/><stop offset="1" stop-color="#ede8e1"/></linearGradient><filter id="a" width="60" height="72" x="3.669" y="4" color-interpolation-filters="sRGB" filterUnits="userSpaceOnUse"><feFlood flood-opacity="0" result="BackgroundImageFix"/><feBlend in="SourceGraphic" in2="BackgroundImageFix" result="shape"/><feColorMatrix in="SourceAlpha" result="hardAlpha" values="0 0 0 0 0 0 0 0 0 0 0 0 0 0 0 0 0 0 127 0"/><feOffset dx="4" dy="16"/><feGaussianBlur stdDeviation="8"/><feComposite in2="hardAlpha" k2="-1" k3="1" operator="arithmetic"/><feColorMatrix values="0 0 0 0 1 0 0 0 0 1 0 0 0 0 1 0 0 0 0.6 0"/><feBlend in2="shape" result="effect1_innerShadow_112_945"/><feColorMatrix in="SourceAlpha" result="hardAlpha" values="0 0 0 0 0 0 0 0 0 0 0 0 0 0 0 0 0 0 127 0"/><feOffset dy="2"/><feGaussianBlur stdDeviation="1"/><feComposite in2="hardAlpha" k2="-1" k3="1" operator="arithmetic"/><feColorMatrix values="0 0 0 0 1 0 0 0 0 1 0 0 0 0 1 0 0 0 1 0"/><feBlend in2="effect1_innerShadow_112_945" result="effect2_innerShadow_112_945"/></filter></defs></svg>