<svg xmlns="http://www.w3.org/2000/svg" width="26" height="44" fill="none" viewBox="0 0 26 44"><path fill="#000" d="M20.658 9.178 26 3.648v11.341h-1.405L26 16.394V31.07h-2.787v6.036l-2.18 1.41v-12.28l3.843-3.842h-2.999l-3.734 2.156-3.952-2.282v-3.905h7.217l-3.571-2.061h-9.55l-3.562 2.061h6.842v11.341h3.08l4.137 3.34v3.97l1.796 1.797-7.514 4.863L2.92 37.107v-6.036H.45L.28 16.527l1.54-1.538H.263L.133 3.65l5.343 5.529 7.59-8.852zm-7.685 28.018 1.218-1.218h-2.436zm-3.937-2.718h8.06l-1.967-1.593h-3.937zM4.07 22.3l-1.03 1.03 4.498 4.968 1.312-1.125V24.36H6.225zh7.123l-1.687-1.594H5.662zm10.966-.033h6.373L19.94 20.8h-3.406z"/><path fill="#fff" d="m13.078 12.878-1.699-2.942 1.699-2.942 1.699 2.942z"/><path stroke="#000" stroke-width=".392" d="m11.313 9.938 1.765 1.019 1.765-1.02"/></svg>