<svg xmlns="http://www.w3.org/2000/svg" width="1505" height="546" fill="none" viewBox="0 0 1505 546"><path stroke="#d4ccc0" stroke-miterlimit="10" stroke-width="2" d="M1402 545.5c0 291.771-292.28 530.5-649.5 530.5C395.278 1076 103 837.271 103 545.5S395.278 15 752.5 15c357.22 0 649.5 238.729 649.5 530.5Z"/><path stroke="#d4ccc0" stroke-miterlimit="10" stroke-width="2" d="M1504 545.5c0 291.771-338.18 530.5-751.5 530.5C339.178 1076 1 837.271 1 545.5S339.178 15 752.5 15c413.32 0 751.5 238.729 751.5 530.5Zm-751.667 530.81V15.03"/><path stroke="#d4ccc0" stroke-miterlimit="10" stroke-width="2" d="M1016.55 545.669c0 291.848-118.293 530.641-264.216 530.641-145.924 0-264.219-238.793-264.219-530.641S606.41 15.03 752.334 15.03s264.216 238.792 264.216 530.64Z"/><path stroke="#d4ccc0" stroke-miterlimit="10" stroke-width="2" d="M1183 545.5c0 291.771-192.742 530.5-430.5 530.5S322 837.271 322 545.5 514.742 15 752.5 15 1183 253.729 1183 545.5Z"/><g filter="url(#a)"><path stroke="url(#b)" stroke-miterlimit="10" stroke-width="4" d="M752.5 15c147.569 0 277.8 91.966 355.36 231.5"/></g><path stroke="url(#c)" stroke-miterlimit="10" stroke-width="2" d="M752.5 15c147.569 0 277.8 91.966 355.36 231.5"/><path stroke="#d4ccc0" stroke-miterlimit="10" stroke-width="2" d="M1316 545.5c0 291.771-252.29 530.5-563.5 530.5C441.288 1076 189 837.271 189 545.5S441.288 15 752.5 15c311.21 0 563.5 238.729 563.5 530.5Zm-33.03.17H221.694M1376 248H131m1366 225H7"/><g filter="url(#d)"><path stroke="url(#e)" stroke-miterlimit="10" stroke-width="4" d="M752.5 15c-226.357 0-426.637 95.855-543 240.321"/></g><path stroke="url(#f)" stroke-miterlimit="10" stroke-width="2" d="M752.5 15c-226.357 0-426.637 95.855-543 240.321"/><g filter="url(#g)"><path stroke="url(#h)" stroke-miterlimit="10" stroke-width="4" d="M752.5 15c268.75 0 493.55 178.026 549.9 414.5"/></g><path stroke="url(#i)" stroke-miterlimit="10" stroke-width="2" d="M752.5 15c268.75 0 493.55 178.026 549.9 414.5"/><g filter="url(#j)"><path stroke="url(#k)" stroke-miterlimit="10" stroke-width="4" d="M752.5 15c-284.625 0-519.965 199.683-558.097 457"/></g><path stroke="url(#l)" stroke-miterlimit="10" stroke-width="2" d="M752.5 15c-284.625 0-519.965 199.683-558.097 457"/><defs><linearGradient id="b" x1="952.508" x2="1056.8" y1="51.582" y2="278.43" gradientUnits="userSpaceOnUse"><stop stop-color="#b56be0" stop-opacity="0"/><stop offset="1" stop-color="#b56be0"/></linearGradient><linearGradient id="c" x1="805.168" x2="1040.53" y1="-.638" y2="300.059" gradientUnits="userSpaceOnUse"><stop stop-color="#b56be0" stop-opacity="0"/><stop offset="1" stop-color="#b56be0"/></linearGradient><linearGradient id="e" x1="768" x2="212.267" y1="-8" y2="17.357" gradientUnits="userSpaceOnUse"><stop stop-color="#b56be0" stop-opacity="0"/><stop offset="1" stop-color="#b56be0"/></linearGradient><linearGradient id="f" x1="689" x2="214.24" y1="-5.5" y2="22.883" gradientUnits="userSpaceOnUse"><stop stop-color="#b56be0" stop-opacity="0"/><stop offset="1" stop-color="#b56be0"/></linearGradient><linearGradient id="h" x1="1062" x2="1266" y1="80.5" y2="464" gradientUnits="userSpaceOnUse"><stop stop-color="#b56be0" stop-opacity="0"/><stop offset="1" stop-color="#b56be0"/></linearGradient><linearGradient id="i" x1="834" x2="1266" y1="-13" y2="464" gradientUnits="userSpaceOnUse"><stop stop-color="#b56be0" stop-opacity="0"/><stop offset="1" stop-color="#b56be0"/></linearGradient><linearGradient id="k" x1="723.5" x2="256.371" y1=".5" y2="478.616" gradientUnits="userSpaceOnUse"><stop stop-color="#b56be0" stop-opacity="0"/><stop offset="1" stop-color="#b56be0"/></linearGradient><linearGradient id="l" x1="628" x2="299.21" y1="-10" y2="453.126" gradientUnits="userSpaceOnUse"><stop stop-color="#b56be0" stop-opacity="0"/><stop offset="1" stop-color="#b56be0"/></linearGradient><filter id="a" width="381.71" height="259.072" x="740.2" y=".7" color-interpolation-filters="sRGB" filterUnits="userSpaceOnUse"><feFlood flood-opacity="0" result="BackgroundImageFix"/><feBlend in="SourceGraphic" in2="BackgroundImageFix" result="shape"/><feGaussianBlur result="effect1_foregroundBlur_55_907" stdDeviation="6.15"/></filter><filter id="d" width="569.158" height="268.176" x="195.642" y=".7" color-interpolation-filters="sRGB" filterUnits="userSpaceOnUse"><feFlood flood-opacity="0" result="BackgroundImageFix"/><feBlend in="SourceGraphic" in2="BackgroundImageFix" result="shape"/><feGaussianBlur result="effect1_foregroundBlur_55_907" stdDeviation="6.15"/></filter><filter id="g" width="576.445" height="441.564" x="740.2" y=".7" color-interpolation-filters="sRGB" filterUnits="userSpaceOnUse"><feFlood flood-opacity="0" result="BackgroundImageFix"/><feBlend in="SourceGraphic" in2="BackgroundImageFix" result="shape"/><feGaussianBlur result="effect1_foregroundBlur_55_907" stdDeviation="6.15"/></filter><filter id="j" width="584.675" height="483.893" x="180.125" y=".7" color-interpolation-filters="sRGB" filterUnits="userSpaceOnUse"><feFlood flood-opacity="0" result="BackgroundImageFix"/><feBlend in="SourceGraphic" in2="BackgroundImageFix" result="shape"/><feGaussianBlur result="effect1_foregroundBlur_55_907" stdDeviation="6.15"/></filter></defs></svg>