<svg xmlns="http://www.w3.org/2000/svg" width="67" height="111" fill="none" viewBox="0 0 67 111"><path fill="#000" d="m33.334.001 19.368 22.583L66.333 8.476V37.41h-3.587l3.587 3.587v37.445h-7.112v15.402l-5.56 3.596V66.106l9.804-9.805h-7.652l-9.526 5.5-10.083-5.821v-9.961h18.413l-9.112-5.261H21.14l-9.087 5.26h17.456v28.935h7.858l10.555 8.525v10.127l4.584 4.584-19.172 12.405v.001L7.446 93.844V78.442H1.141L.71 41.336l3.93-3.926H.668L.334 8.476l13.63 14.108L33.334 0zm-.238 94.071 3.11-3.108h-6.219zm-10.043-6.934h20.564l-5.021-4.066H28.553zM10.378 56.062l-2.63 2.631 11.478 12.673 3.347-2.869v-7.174h-6.695zh18.174l-4.304-4.066h-9.805zm27.978-.082h16.261l-3.744-3.745h-8.69z"/><path fill="#fff" d="m33.362 32.028-4.334-7.506 4.334-7.506 4.334 7.506z"/></svg>