<svg xmlns="http://www.w3.org/2000/svg" width="194" height="74" fill="none" viewBox="0 0 194 74"><path fill="#191b1d" d="M0 20C0 8.954 8.954 0 20 0h50c11.046 0 20 8.954 20 20s-8.954 20-20 20H20C8.954 40 0 31.046 0 20"/><path stroke="#fff" stroke-opacity=".16" d="M20 .5h50C80.77.5 89.5 9.23 89.5 20S80.77 39.5 70 39.5H20C9.23 39.5.5 30.77.5 20S9.23.5 20 .5Z"/><path fill="#000" d="M16 28.12h16v-16H16z"/><path fill="#b9b9b9" d="m43.535 25.5 5.079-10.045v-.086h-5.875v-1.505h7.693v1.556L45.37 25.5zm12.354.193q-1.347-.006-2.3-.71-.956-.705-1.461-2.051-.506-1.348-.506-3.244 0-1.893.506-3.233.511-1.341 1.466-2.046.96-.705 2.295-.705t2.29.71q.954.705 1.46 2.046.512 1.335.512 3.227 0 1.905-.506 3.25-.506 1.341-1.46 2.052-.955.704-2.296.704m0-1.517q1.182 0 1.847-1.153.67-1.154.67-3.335 0-1.45-.307-2.45-.3-1.005-.869-1.522a1.9 1.9 0 0 0-1.34-.523q-1.177 0-1.847 1.16-.671 1.158-.676 3.334 0 1.455.3 2.46.307 1 .87 1.518.563.51 1.352.511m12.031-.858v-.614q0-.658.273-1.204.278-.551.807-.88.534-.336 1.29-.336.771 0 1.295.33t.79.88q.272.552.272 1.21v.614q0 .66-.272 1.21a2.2 2.2 0 0 1-.802.881q-.522.33-1.284.33-.767 0-1.295-.33a2.2 2.2 0 0 1-.801-.88 2.7 2.7 0 0 1-.273-1.21m1.324-.614v.614q0 .489.233.886.233.399.812.398.574 0 .802-.398.227-.397.227-.886v-.614a1.8 1.8 0 0 0-.222-.886q-.216-.398-.807-.398-.567 0-.806.398a1.7 1.7 0 0 0-.24.886m-7.176-6.045v-.613q0-.66.273-1.21.278-.552.806-.882.534-.33 1.29-.329.772 0 1.296.33.522.33.79.88.266.552.266 1.21v.614q0 .66-.272 1.21a2.14 2.14 0 0 1-.796.881q-.522.33-1.284.33-.773 0-1.301-.33a2.2 2.2 0 0 1-.796-.88 2.7 2.7 0 0 1-.272-1.21m1.33-.613v.613q0 .488.227.887.233.397.812.397.568 0 .796-.398.233-.397.233-.886v-.613a1.8 1.8 0 0 0-.222-.887q-.222-.398-.807-.398-.569 0-.807.398-.233.397-.233.886m-.79 9.454 8-11.636h1.358l-8 11.636z"/><path fill="url(#a)" fill-opacity=".17" d="m148 74-8.66-15h17.32zm0-38.5h1.5v25h-3v-25z"/><path fill="url(#b)" d="m148 74-8.66-15h17.32zm0-38.5h1.5v25h-3v-25z"/><path fill="#191b1d" d="M122 .5h52c10.77 0 19.5 8.73 19.5 19.5s-8.73 19.5-19.5 19.5h-52c-10.77 0-19.5-8.73-19.5-19.5S111.23.5 122 .5"/><path stroke="#fff" stroke-opacity=".16" d="M122 .5h52c10.77 0 19.5 8.73 19.5 19.5s-8.73 19.5-19.5 19.5h-52c-10.77 0-19.5-8.73-19.5-19.5S111.23.5 122 .5Z"/><path stroke="url(#c)" d="M122 .5h52c10.77 0 19.5 8.73 19.5 19.5s-8.73 19.5-19.5 19.5h-52c-10.77 0-19.5-8.73-19.5-19.5S111.23.5 122 .5Z"/><path fill="#000" d="M118 28.12h16v-16h-16z"/><path fill="#b9b9b9" d="M149.545 25.66q-1.17 0-2.091-.404-.915-.404-1.449-1.12a3 3 0 0 1-.568-1.67h1.784q.035.517.347.898.319.375.829.58.512.204 1.137.204.687 0 1.216-.239.534-.238.835-.665.301-.432.301-.994 0-.585-.301-1.028-.296-.45-.869-.705-.569-.255-1.375-.256h-.983V18.83h.983q.647 0 1.136-.233.495-.234.773-.648.278-.42.278-.983 0-.54-.244-.938a1.64 1.64 0 0 0-.682-.63q-.437-.227-1.034-.227-.568 0-1.063.21a1.96 1.96 0 0 0-.795.59 1.52 1.52 0 0 0-.33.915h-1.698a2.87 2.87 0 0 1 .556-1.659q.534-.715 1.409-1.119a4.6 4.6 0 0 1 1.944-.404q1.12 0 1.931.438.819.431 1.262 1.154.449.72.443 1.579.006.976-.545 1.66-.546.681-1.455.914v.09q1.16.177 1.795.921.642.744.637 1.847a2.87 2.87 0 0 1-.534 1.721q-.534.762-1.461 1.2-.925.43-2.119.431m9.993.033q-1.347-.006-2.301-.71-.956-.705-1.461-2.051-.505-1.348-.505-3.244 0-1.893.505-3.233.512-1.341 1.466-2.046.96-.705 2.296-.705t2.289.71q.955.705 1.461 2.046.511 1.335.511 3.227 0 1.905-.506 3.25-.506 1.341-1.46 2.052-.954.704-2.295.704m0-1.517q1.182 0 1.846-1.153.67-1.154.671-3.335 0-1.45-.307-2.45-.302-1.005-.869-1.522a1.9 1.9 0 0 0-1.341-.523q-1.176 0-1.847 1.16-.67 1.158-.676 3.334 0 1.455.301 2.46.307 1 .869 1.518.563.51 1.353.511m12.03-.858v-.614q0-.658.273-1.204.279-.551.807-.88.534-.336 1.29-.336.773 0 1.295.33.523.33.79.88.273.552.273 1.21v.614q0 .66-.273 1.21a2.2 2.2 0 0 1-.801.881q-.523.33-1.284.33-.767 0-1.296-.33a2.2 2.2 0 0 1-.801-.88 2.7 2.7 0 0 1-.273-1.21m1.324-.614v.614q0 .489.233.886.233.399.813.398.573 0 .801-.398a1.76 1.76 0 0 0 .227-.886v-.614q0-.487-.221-.886-.216-.398-.807-.398-.568 0-.807.398a1.7 1.7 0 0 0-.239.886m-7.176-6.045v-.613q0-.66.273-1.21.278-.552.807-.882.534-.33 1.29-.329.773 0 1.295.33.523.33.79.88.267.552.267 1.21v.614q0 .66-.273 1.21a2.15 2.15 0 0 1-.795.881q-.523.33-1.284.33-.773 0-1.302-.33a2.2 2.2 0 0 1-.795-.88 2.7 2.7 0 0 1-.273-1.21m1.33-.613v.613q0 .488.227.887.232.397.813.397.567 0 .795-.398.233-.397.233-.886v-.613q0-.49-.222-.887-.22-.398-.806-.398-.568 0-.807.398-.233.397-.233.886m-.79 9.454 8-11.636h1.358l-8 11.636z"/><defs><linearGradient id="a" x1="127.617" x2="-3.255" y1="147.109" y2="97.739" gradientUnits="userSpaceOnUse"><stop stop-color="#e3ddd6" stop-opacity=".21"/><stop offset="1" stop-color="#e3ddd6"/></linearGradient><linearGradient id="b" x1="75" x2="150.368" y1="-66.594" y2="-39.944" gradientUnits="userSpaceOnUse"><stop stop-color="#89f801"/><stop offset=".207" stop-color="#ccf897"/><stop offset="1" stop-color="#89f801"/></linearGradient><linearGradient id="c" x1="148" x2="148" y1="0" y2="40" gradientUnits="userSpaceOnUse"><stop stop-color="#89f801"/><stop offset=".207" stop-color="#ccf897"/><stop offset="1" stop-color="#89f801"/></linearGradient></defs></svg>