<svg xmlns="http://www.w3.org/2000/svg" width="203" height="46" fill="none" viewBox="0 0 203 46"><path fill="#fff" d="m21.64 9.332 5.633-5.83v11.957H25.79l1.483 1.482v15.473h-2.94v6.364l-2.298 1.487V27.316l4.05-4.051h-3.161l-3.937 2.273-4.166-2.406v-4.116h7.609l-3.765-2.174H8.597l-3.755 2.174h7.213v11.957h3.247l4.361 3.522v4.185l1.895 1.893-7.922 5.127-10.698-6.922v-6.364H.333L.156 17.08l1.622-1.621H.138L0 3.502l5.632 5.83L13.636 0zm-8.103 29.54 1.284-1.284h-2.569zm-4.15-2.865h8.498l-2.075-1.68h-4.15zM4.149 23.166l-1.086 1.087 4.743 5.237 1.383-1.185V25.34H6.423zh7.51l-1.778-1.68H5.83zm11.562-.034h6.719l-1.547-1.547h-3.591z"/><path fill="#fff" d="m13.648 13.235-1.79-3.102 1.79-3.102 1.79 3.102z"/><path stroke="#fff" stroke-width=".414" d="m11.787 10.133 1.861 1.074 1.861-1.074"/><path fill="#fff" d="M180.207 36.395V16.682h10.502q3.615 0 6.198 1.147 2.611 1.12 3.989 3.329 1.406 2.181 1.406 5.394 0 3.186-1.406 5.395-1.378 2.18-3.989 3.329-2.583 1.119-6.198 1.119zm-132.67-.229L40.85 16.453h4.734l3.96 12.683q.115.287.23.803.143.489.287 1.033.143.546.23.976h.171q.059-.344.144-.746.114-.402.2-.804.087-.4.173-.717.086-.344.143-.545l3.673-12.683h5.997l3.702 12.683q.086.287.2.803.145.489.26 1.033.143.546.2.976h.172q.087-.315.172-.689.115-.402.23-.774.114-.402.2-.747.087-.344.173-.602l3.988-12.683h4.276L67.65 36.166h-5.337l-3.93-12.912q-.115-.402-.26-.919a28 28 0 0 1-.257-1.061q-.087-.546-.144-.947h-.143a9 9 0 0 1-.201 1.004 81 81 0 0 1-.287 1.062 9 9 0 0 1-.23.86l-3.787 12.913zm26.164 0 9.87-19.713h4.936l9.87 19.713h-4.791L91.72 32.35H80.042l-1.865 3.816zm8.063-7.346h8.235L87.703 24a62 62 0 0 0-.43-.919q-.258-.63-.545-1.262-.258-.66-.488-1.12-.2-.488-.23-.516h-.23q-.257.575-.602 1.32-.315.746-.631 1.435-.287.689-.488 1.09zm30.019 7.69q-5.968 0-8.953-2.525t-2.984-7.661q0-3.357 1.521-5.624 1.52-2.295 4.39-3.444 2.898-1.147 6.915-1.147 2.612 0 4.763.459 2.153.43 3.702 1.348 1.578.89 2.41 2.267.861 1.379.861 3.243h-4.247q0-1.033-.602-1.75-.603-.718-1.636-1.12-1.032-.43-2.353-.602-1.29-.201-2.726-.201-1.836 0-3.414.373-1.55.344-2.698 1.119a5.2 5.2 0 0 0-1.779 1.922q-.63 1.178-.631 2.784v.689q0 2.238.976 3.615.975 1.35 2.754 1.98 1.808.63 4.247.631 2.697 0 4.419-.488 1.75-.488 2.583-1.406.86-.919.86-2.152v-.23h-7.977v-3.443h12.253v11.019h-2.697l-.459-2.582q-1.062 1.032-2.554 1.692-1.464.631-3.243.919-1.75.315-3.701.315m17.982-.344V16.453h19.943v3.644h-15.581v4.218h13.859v3.644h-13.859v4.563h15.81v3.644zm24.856 0V16.453h15.609q2.095 0 3.415.86a5.16 5.16 0 0 1 2.009 2.239q.66 1.377.66 3.07a6.36 6.36 0 0 1-.919 3.3q-.889 1.521-2.783 2.382l4.19 7.862h-4.907l-3.616-7.03h-9.297v7.03zm4.361-10.646h10.043q1.349 0 2.066-.774.747-.804.746-2.038 0-.831-.315-1.406a1.95 1.95 0 0 0-.947-.89q-.632-.315-1.55-.315h-10.043z"/><path fill="#0b0c0d" d="M189.105 33.5c-2.132 0-3.108-1.817-3.109-3.072 0-1.4.642-2.459 1.166-3.088-1.734.083-2.973.488-3.948 2.308v-5.945c.975 1.82 2.214 2.226 3.948 2.309-.524-.63-1.167-1.689-1.166-3.089 0-1.254.977-3.071 3.109-3.071 3.896 0 2.836 2.712 9.411 6.823-6.575 4.113-5.515 6.824-9.411 6.824"/></svg>