<svg xmlns="http://www.w3.org/2000/svg" width="24" height="24" fill="none" viewBox="0 0 24 24"><path stroke="#fff" stroke-linejoin="round" stroke-width="1.2" d="M20.467 11.35c-.071-.742-.715-1.25-1.46-1.27A250 250 0 0 0 12 10c-3.535 0-5.768.043-7.007.08-.745.02-1.389.528-1.46 1.27-.02.204-.033.424-.033.65s.013.446.033.65c.071.742.715 1.25 1.46 1.27 1.239.037 3.472.08 7.007.08s5.768-.043 7.006-.08c.746-.02 1.39-.528 1.461-1.27.02-.204.033-.424.033-.65s-.013-.446-.033-.65Zm-14.434-8c.071-.742.715-1.25 1.46-1.271C8.732 2.043 10.965 2 14.5 2s5.768.043 7.006.079c.746.021 1.39.529 1.461 1.27.02.205.033.425.033.651s-.013.446-.033.65c-.071.742-.715 1.25-1.46 1.271A250 250 0 0 1 14.5 6c-3.535 0-5.768-.043-7.007-.079-.745-.022-1.389-.529-1.46-1.27A7 7 0 0 1 6 4c0-.226.013-.446.033-.65Zm-5 16c.071-.742.715-1.25 1.46-1.27C3.732 18.042 5.965 18 9.5 18s5.768.043 7.006.08c.746.02 1.39.528 1.461 1.27.02.204.033.424.033.65s-.013.446-.033.65c-.071.742-.715 1.25-1.46 1.27-1.239.037-3.472.08-7.007.08s-5.768-.043-7.007-.08c-.745-.02-1.389-.528-1.46-1.27A7 7 0 0 1 1 20c0-.226.013-.446.033-.65Z"/></svg>