<svg xmlns="http://www.w3.org/2000/svg" width="140" height="143" fill="none" viewBox="0 0 140 143"><path fill="url(#a)" stroke="#c02d2d" stroke-width=".621" d="M131.282 76.063c13.156 19.17 8.859 44.253-9.881 57.114-11.436 7.848-25.489 9.717-43.052 8.023-15.372-1.482-33.393-5.689-54.645-10.97l-9.308-2.324L.358 124.42l1.797-14.352C5.352 84.125 8.014 62.615 12.75 45.613c4.737-16.997 11.535-29.437 22.971-37.285C54.462-4.532 79.412.479 92.568 19.65c7.433 10.832 9.651 24.605 6.598 36.68l-.087.343.35.04c12.365 1.495 24.42 8.518 31.853 19.35Z" opacity=".1"/><defs><linearGradient id="a" x1="127.569" x2="-10.804" y1="41.791" y2="49.423" gradientUnits="userSpaceOnUse"><stop stop-color="#7b0f0f"/><stop offset=".98" stop-color="#7b0f0f" stop-opacity=".02"/></linearGradient></defs></svg>