<svg xmlns="http://www.w3.org/2000/svg" width="69" height="69" fill="none" viewBox="0 0 69 69"><path fill="url(#a)" stroke="#c02d2d" stroke-width=".3" d="M64.293 37.044c6.363 9.272 4.285 21.403-4.778 27.623-5.531 3.796-12.328 4.7-20.823 3.88-8.497-.819-18.667-3.36-30.931-6.43l-.001.001-6.79-1.686.869-6.94v-.002c1.546-12.548 2.834-22.951 5.125-31.174 2.29-8.22 5.58-14.238 11.11-18.033C27.14-1.937 39.205.487 45.57 9.759c3.595 5.239 4.667 11.9 3.19 17.74l-.04.166.168.02c5.98.723 11.811 4.12 15.406 9.359Z" opacity=".1"/><defs><linearGradient id="a" x1="62.498" x2="-4.428" y1="20.467" y2="24.159" gradientUnits="userSpaceOnUse"><stop stop-color="#7b0f0f"/><stop offset=".98" stop-color="#7b0f0f" stop-opacity=".02"/></linearGradient></defs></svg>