<svg xmlns="http://www.w3.org/2000/svg" width="34" height="34" fill="none" viewBox="0 0 34 34"><path fill="#fff" d="M27.3 7.552a24 24 0 0 0-6.05-1.884.14.14 0 0 0-.1.042 19 19 0 0 0-.75 1.545 22.8 22.8 0 0 0-6.8 0 14 14 0 0 0-.765-1.545c-.014-.028-.057-.042-.1-.042a24.2 24.2 0 0 0-6.048 1.884c-.014 0-.029.014-.043.028-3.853 5.766-4.916 11.376-4.391 16.93 0 .028.014.056.042.07 2.55 1.87 5 3.004 7.423 3.755.043.014.085 0 .1-.029a18 18 0 0 0 1.515-2.465.086.086 0 0 0-.056-.127 17.4 17.4 0 0 1-2.324-1.105c-.056-.029-.056-.114-.014-.156.156-.113.312-.24.468-.354a.09.09 0 0 1 .099-.014c4.873 2.224 10.13 2.224 14.946 0a.09.09 0 0 1 .099.014c.156.127.312.24.467.368.057.043.057.128-.014.156a15 15 0 0 1-2.323 1.105c-.057.014-.07.085-.057.127.454.865.964 1.686 1.516 2.465.043.015.085.029.128.015 2.436-.751 4.887-1.884 7.437-3.754a.08.08 0 0 0 .043-.071c.623-6.418-1.035-11.985-4.392-16.93-.014-.014-.028-.028-.057-.028M12.07 21.124c-1.46 0-2.677-1.346-2.677-3.003s1.19-3.004 2.677-3.004c1.502 0 2.692 1.36 2.678 3.003 0 1.658-1.19 3.004-2.678 3.004m9.874 0c-1.459 0-2.677-1.346-2.677-3.003s1.19-3.004 2.677-3.004c1.502 0 2.692 1.36 2.678 3.003 0 1.658-1.176 3.004-2.678 3.004"/></svg>