<svg xmlns="http://www.w3.org/2000/svg" width="34" height="34" fill="none" viewBox="0 0 34 34"><path fill="#000" d="M27.3 7.551a24 24 0 0 0-6.05-1.884.14.14 0 0 0-.099.042 19 19 0 0 0-.75 1.545 22.8 22.8 0 0 0-6.8 0 14 14 0 0 0-.766-1.545c-.014-.028-.057-.042-.099-.042a24.2 24.2 0 0 0-6.05 1.884c-.013 0-.027.014-.042.028-3.853 5.766-4.915 11.376-4.391 16.93 0 .028.014.056.042.07 2.55 1.87 5.001 3.004 7.424 3.755.042.014.085 0 .099-.029.566-.779 1.076-1.6 1.516-2.465.028-.056 0-.113-.057-.127a17.4 17.4 0 0 1-2.323-1.105c-.057-.029-.057-.114-.015-.156.156-.113.312-.24.468-.354a.09.09 0 0 1 .099-.014c4.873 2.224 10.13 2.224 14.946 0a.09.09 0 0 1 .099.014c.156.127.312.24.468.368.056.043.056.128-.015.156-.736.44-1.516.793-2.323 1.105-.057.014-.07.085-.057.128a22 22 0 0 0 1.516 2.465c.043.014.085.028.128.014 2.436-.751 4.887-1.884 7.437-3.754a.08.08 0 0 0 .043-.071c.623-6.418-1.035-11.985-4.392-16.93-.014-.014-.028-.028-.057-.028M12.07 21.123c-1.459 0-2.677-1.346-2.677-3.004s1.19-3.003 2.677-3.003c1.502 0 2.692 1.36 2.678 3.003 0 1.658-1.19 3.004-2.678 3.004m9.874 0c-1.459 0-2.677-1.346-2.677-3.004s1.19-3.003 2.677-3.003c1.502 0 2.692 1.36 2.678 3.003 0 1.658-1.176 3.004-2.678 3.004"/></svg>