<svg xmlns="http://www.w3.org/2000/svg" width="177" height="216" fill="none" viewBox="0 0 177 216"><path fill="url(#a)" stroke="#c02d2d" d="M253.163 177.719c-25.44-.491-59.285.988-114.351 26.963-23.658 11.162-43.797 12.581-59.521 7.893-15.722-4.688-27.084-15.498-33.178-28.901-12.187-26.806-3.313-64.035 34.113-83.336l1.026-.53-1.089-.385c-28.38-10.063-54.897-6.74-70.779 2.712l-7.792-4.178 45.904-85.619 7.792 4.178c.918 18.46 12.826 42.383 36.914 60.452l.924.692L93 76.513C88.361 34.66 114.457 6.664 143.528 1.979c14.536-2.343 29.827 1.137 42.433 11.637 12.608 10.502 22.572 28.06 26.369 53.942 8.843 60.24 26.351 89.232 40.833 110.161Z" opacity=".05"/><defs><linearGradient id="a" x1="278.477" x2="178.253" y1="197.873" y2="-26.799" gradientUnits="userSpaceOnUse"><stop stop-color="#7b0f0f"/><stop offset=".98" stop-color="#7b0f0f" stop-opacity=".02"/></linearGradient></defs></svg>