<svg xmlns="http://www.w3.org/2000/svg" width="184" height="41" fill="none" viewBox="0 0 184 41"><g clip-path="url(#a)"><path fill="#706d6e" d="M184 18.482v-3.275h-4.019v-5.09l-.135.042-3.774 1.169-.074.023v3.856h-5.958V13.06c0-1 .221-1.766.657-2.276.433-.505 1.052-.762 1.841-.762.568 0 1.155.136 1.747.402l.148.067V7.042l-.07-.025c-.552-.201-1.302-.302-2.232-.302-1.172 0-2.237.258-3.166.77a5.44 5.44 0 0 0-2.172 2.172c-.511.93-.769 2.002-.769 3.188v2.363h-2.798v3.274h2.798v13.794h4.016V18.482h5.958v8.766c0 3.61 1.682 5.44 5.002 5.44a8 8 0 0 0 1.705-.192c.597-.13 1.003-.26 1.242-.399l.053-.031V28.76l-.163.11a2.8 2.8 0 0 1-.808.356 3 3 0 0 1-.794.137c-.777 0-1.352-.212-1.709-.631-.361-.422-.545-1.16-.545-2.193v-8.058zm-29.745 10.882c-1.458 0-2.607-.49-3.417-1.453-.815-.969-1.228-2.349-1.228-4.103 0-1.81.413-3.227 1.228-4.212.811-.98 1.949-1.476 3.385-1.476 1.392 0 2.501.474 3.295 1.411.798.942 1.203 2.347 1.203 4.178 0 1.853-.381 3.277-1.132 4.23-.746.945-1.867 1.425-3.334 1.425m.179-14.568c-2.781 0-4.991.825-6.566 2.451-1.574 1.627-2.372 3.878-2.372 6.692 0 2.672.779 4.822 2.316 6.388s3.628 2.36 6.215 2.36c2.696 0 4.862-.836 6.436-2.485 1.575-1.648 2.372-3.877 2.372-6.626 0-2.713-.748-4.879-2.225-6.435s-3.556-2.345-6.176-2.345m-15.415 0c-1.892 0-3.457.49-4.653 1.455-1.202.971-1.812 2.246-1.812 3.787 0 .801.131 1.513.391 2.116.26.606.664 1.14 1.2 1.587.532.444 1.353.91 2.442 1.382.914.38 1.597.703 2.03.957.424.25.725.5.894.743.165.238.249.565.249.968 0 1.146-.849 1.704-2.595 1.704-.648 0-1.387-.137-2.196-.406a8.2 8.2 0 0 1-2.249-1.154l-.166-.12v3.912l.061.029c.568.265 1.285.489 2.129.665s1.609.266 2.275.266c2.053 0 3.706-.492 4.912-1.463 1.215-.978 1.83-2.282 1.83-3.877 0-1.15-.331-2.137-.985-2.933-.648-.789-1.773-1.514-3.343-2.154-1.25-.508-2.052-.93-2.382-1.253-.319-.313-.481-.755-.481-1.315 0-.496.2-.894.61-1.216.414-.324.989-.488 1.709-.488.67 0 1.355.107 2.036.316.68.21 1.278.49 1.777.834l.164.114V15.54l-.063-.028c-.46-.2-1.068-.37-1.804-.509a11 11 0 0 0-1.98-.207m-16.937 14.568c-1.458 0-2.607-.49-3.417-1.453-.816-.969-1.228-2.349-1.228-4.103 0-1.81.413-3.227 1.229-4.212.809-.98 1.947-1.476 3.383-1.476 1.393 0 2.502.474 3.296 1.411.798.942 1.203 2.347 1.203 4.178 0 1.853-.381 3.277-1.132 4.23-.746.945-1.867 1.425-3.334 1.425m.179-14.568c-2.782 0-4.992.825-6.566 2.451s-2.373 3.878-2.373 6.692c0 2.673.78 4.822 2.317 6.388 1.536 1.566 3.627 2.36 6.215 2.36 2.696 0 4.862-.836 6.437-2.485 1.573-1.648 2.372-3.877 2.372-6.626 0-2.713-.749-4.879-2.226-6.435-1.478-1.556-3.556-2.345-6.176-2.345m-15.036 3.367v-2.956h-3.968v17.068h3.968v-8.731c0-1.485.332-2.704.989-3.625.648-.91 1.512-1.372 2.566-1.372.357 0 .758.06 1.193.178.43.117.742.244.925.378l.167.122v-4.047L113 15.15c-.369-.159-.892-.239-1.553-.239-.997 0-1.889.324-2.653.962-.671.562-1.157 1.33-1.527 2.29zm-11.073-3.367c-1.82 0-3.445.395-4.826 1.174a7.87 7.87 0 0 0-3.182 3.31c-.725 1.414-1.093 3.065-1.093 4.906 0 1.613.357 3.093 1.062 4.397a7.5 7.5 0 0 0 2.97 3.037c1.262.708 2.721 1.067 4.337 1.067 1.885 0 3.495-.381 4.787-1.133l.051-.03v-3.679l-.166.123a7.4 7.4 0 0 1-1.941 1.023c-.702.247-1.34.373-1.901.373-1.558 0-2.807-.493-3.715-1.465-.909-.973-1.37-2.34-1.37-4.06 0-1.73.481-3.13 1.428-4.165.945-1.031 2.197-1.554 3.722-1.554 1.304 0 2.575.447 3.777 1.33l.166.122v-3.876l-.053-.03c-.453-.257-1.07-.469-1.836-.629a11 11 0 0 0-2.218-.241m-11.834.411H80.35v17.068h3.968zm-1.943-7.27a2.37 2.37 0 0 0-1.69.67 2.23 2.23 0 0 0-.71 1.674c0 .654.236 1.206.702 1.641.462.434 1.033.654 1.698.654.664 0 1.237-.22 1.706-.653.47-.436.71-.988.71-1.642 0-.64-.233-1.198-.691-1.656s-1.038-.689-1.725-.689m-9.9 6.011v18.327h4.05V8.459H70.92l-7.124 17.69-6.913-17.69H51.05v23.816h3.806V13.947h.13l7.3 18.328h2.872l7.186-18.327z"/><path fill="#f1511b" d="M18.666 19.387H0V.5h18.666z"/><path fill="#80cc28" d="M39.275 19.387H20.61V.5h18.665z"/><path fill="#00adef" d="M18.665 40.248H0V21.361h18.665z"/><path fill="#fbbc09" d="M39.275 40.248H20.61V21.361h18.665z"/></g><defs><clipPath id="a"><path fill="#fff" d="M0 .5h184v40H0z"/></clipPath></defs></svg>