<svg xmlns="http://www.w3.org/2000/svg" width="42" height="29" fill="none" viewBox="0 0 42 29"><g clip-path="url(#a)"><path fill="#fff" d="M40.107 4.498a5.16 5.16 0 0 0-3.63-3.63C33.295 0 20.486 0 20.486 0S7.675.026 4.492.894a5.16 5.16 0 0 0-3.63 3.63c-.962 5.655-1.336 14.272.027 19.7a5.16 5.16 0 0 0 3.63 3.63c3.182.869 15.992.869 15.992.869s12.809 0 15.991-.868a5.16 5.16 0 0 0 3.63-3.63c1.015-5.663 1.328-14.275-.026-19.727"/><path fill="#191b1d" d="m16.408 20.515 10.627-6.155-10.627-6.155z"/></g><defs><clipPath id="a"><path fill="#fff" d="M0 0h41.013v28.837H0z"/></clipPath></defs></svg>