<svg xmlns="http://www.w3.org/2000/svg" width="174" height="47" fill="none" viewBox="0 0 174 47"><g clip-path="url(#a)"><path fill="#11110f" d="M33.541 20.055H18.908a.687.687 0 0 0-.685.681v7.119c0 .375.307.681.684.681h5.71v8.845s-1.283.434-4.826.434c-4.182 0-10.023-1.52-10.023-14.298 0-12.782 6.083-14.463 11.792-14.463 4.943 0 7.072.865 8.427 1.283.426.13.82-.292.82-.668l1.632-6.878a.63.63 0 0 0-.262-.532C31.627 1.87 28.271 0 19.79 0 10.021 0 0 4.135 0 24.015s11.473 22.843 21.142 22.843c8.005 0 12.86-3.404 12.86-3.404.201-.11.223-.388.223-.516V20.736a.683.683 0 0 0-.684-.68M108.92 2.488a.68.68 0 0 0-.679-.684H100a.69.69 0 0 0-.632.423.7.7 0 0 0-.05.261l.001 15.844H86.476V2.489a.68.68 0 0 0-.68-.685h-8.24a.686.686 0 0 0-.681.685v42.899c0 .379.306.686.68.686h8.24c.377 0 .68-.307.68-.686v-18.35h12.844l-.023 18.35c0 .378.306.686.683.686h8.259a.683.683 0 0 0 .68-.686zM49.063 8.224c0-2.952-2.379-5.338-5.313-5.338-2.932 0-5.313 2.386-5.313 5.338 0 2.948 2.381 5.34 5.313 5.34 2.934 0 5.313-2.392 5.313-5.34M48.41 36.36V16.558a.68.68 0 0 0-.681-.683h-8.214c-.377 0-.714.387-.714.763v28.37c0 .834.522 1.082 1.198 1.082h7.4c.813 0 1.011-.397 1.011-1.095zm92.002-20.485h-8.177a.683.683 0 0 0-.68.686v21.035s-2.078 1.512-5.026 1.512-3.731-1.331-3.731-4.203V16.56a.683.683 0 0 0-.68-.686h-8.298a.686.686 0 0 0-.682.686v19.733c0 8.53 4.78 10.618 11.354 10.618 5.393 0 9.741-2.964 9.741-2.964s.208 1.562.301 1.747a.72.72 0 0 0 .602.371l5.279-.023a.685.685 0 0 0 .682-.684l-.003-28.798a.69.69 0 0 0-.682-.686m18.839 23.25c-2.836-.087-4.76-1.367-4.76-1.367V24.172s1.898-1.157 4.226-1.364c2.945-.262 5.782.622 5.782 7.611 0 7.37-1.281 8.824-5.248 8.705m3.225-24.172c-4.644 0-7.803 2.062-7.803 2.062V2.488a.67.67 0 0 0-.197-.482.68.68 0 0 0-.483-.202h-8.263a.69.69 0 0 0-.63.423.7.7 0 0 0-.051.261v42.9c0 .378.305.686.682.686h5.733c.259 0 .454-.132.598-.364.143-.23.348-1.978.348-1.978s3.379 3.185 9.775 3.185c7.509 0 11.816-3.79 11.816-17.013s-6.878-14.95-11.525-14.95m-90.35.848h-6.181l-.01-8.124c0-.308-.159-.462-.516-.462h-8.423c-.327 0-.503.144-.503.457v8.396s-4.221 1.013-4.506 1.095a.68.68 0 0 0-.494.654v5.276c0 .38.305.685.681.685h4.319V36.47c0 9.427 6.646 10.354 11.13 10.354 2.05 0 4.501-.655 4.906-.804.245-.09.387-.341.387-.615l.007-5.804a.694.694 0 0 0-.683-.685c-.36 0-1.282.146-2.23.146-3.036 0-4.065-1.404-4.065-3.222V23.779h6.18a.69.69 0 0 0 .632-.425.7.7 0 0 0 .05-.261v-6.608a.68.68 0 0 0-.681-.684"/></g><defs><clipPath id="a"><path fill="#fff" d="M0 0h174v47H0z"/></clipPath></defs></svg>