<svg xmlns="http://www.w3.org/2000/svg" width="268" height="50" fill="none" viewBox="0 0 268 50"><g clip-path="url(#a)"><path fill="#161616" d="M232.506 13.086c1.616 0 3.129.527 4.459 1.522 1.39 1.035 2.147 2.658 2.31 4.607a.107.107 0 0 1-.066.13l-.057.011h-3.149c-.046 0-.092-.023-.112-.06l-.011-.041c-.368-2.82-3.823-3.592-5.908-2.212-1.453.974-1.739 3.207-.348 4.342.545.447 1.172.803 1.808 1.148l1.684.911 1.479.755c.738.378 1.47.768 2.165 1.225 2.392 1.583 3.189 3.978 2.759 6.635-.489 2.72-2.902 5.338-7.564 5.338-1.78 0-3.497-.487-5.071-1.664-1.677-1.238-2.29-2.598-2.29-5.053 0-.046.035-.091.077-.111l.045-.01h3.414c.062 0 .123.06.123.12 0 .224.041.731.123.995.471 1.461 1.819 2.395 3.559 2.496 1.594.102 3.188-.77 3.802-2.03.675-1.38.184-3.124-1.369-4.078l-.2-.12-.737-.42-.89-.484-4.296-2.254-.26-.144-.08-.048c-4.477-2.76-3.721-11.506 4.601-11.506m20.408.467c.046 0 .092.034.112.077l.011.044v9.132c0 .081.078.137.151.114l.053-.033 9.017-9.294a.2.2 0 0 1 .047-.034l.035-.006h4.355c.082 0 .137.078.115.15l-.033.053-10.633 10.958a.1.1 0 0 0-.028.052.1.1 0 0 0 0 .059l.028.051 11.818 12.115c.065.049.039.15-.016.198l-.045.026h-4.355l-.041-.013-.041-.029-10.223-10.47c-.049-.066-.151-.04-.189.026l-.016.055v10.309c0 .045-.034.09-.077.11l-.045.011h-3.416c-.045 0-.092-.034-.112-.076l-.01-.045V13.675c0-.046.034-.092.077-.112l.045-.01zm-173.677-.02q.06-.002.096.033l.027.047 2.8 9.173a.13.13 0 0 0 .089.086.13.13 0 0 0 .12-.028l.037-.058 2.802-9.172a.16.16 0 0 1 .068-.07l.054-.012h5.173c.046 0 .093.035.112.077l.01.045v23.419c0 .045-.034.091-.077.11l-.045.011h-3.415c-.045 0-.091-.034-.111-.076l-.011-.045V19.276c0-.119-.142-.167-.213-.097l-.032.056-2.822 9.234-.204.649a.16.16 0 0 1-.069.069l-.054.012h-2.617q-.061.002-.096-.033l-.027-.048-.204-.65-2.822-9.233c-.034-.101-.182-.104-.23-.02l-.016.061v17.797c0 .045-.034.091-.077.11l-.045.011h-3.415a.13.13 0 0 1-.112-.076l-.01-.045V13.654c0-.046.034-.091.077-.111l.045-.01zm99.147 0q.061-.002.096.033l.027.047 2.802 9.173a.1.1 0 0 0 .033.054.13.13 0 0 0 .118.034.13.13 0 0 0 .057-.03l.037-.058 2.8-9.172a.16.16 0 0 1 .068-.07l.055-.012h5.194c.046 0 .092.035.112.077l.01.045v23.419c0 .045-.034.091-.077.11l-.045.011h-3.414c-.046 0-.092-.034-.112-.076l-.011-.045V19.276c0-.119-.142-.167-.213-.097l-.032.056-2.822 9.234-.205.649a.15.15 0 0 1-.068.069l-.055.012h-2.617q-.061.002-.096-.033l-.027-.048-.204-.65-2.821-9.233c-.034-.101-.182-.104-.23-.02l-.016.061v17.797c0 .045-.034.091-.077.11l-.045.011h-3.416c-.046 0-.092-.034-.112-.076l-.01-.045V13.654c0-.046.034-.091.077-.111l.045-.01zm-37.949 0a.1.1 0 0 1 .07.019.1.1 0 0 1 .045.057l.007.045v2.922a.13.13 0 0 1-.077.111l-.045.01h-6.237v20.376c0 .045-.034.091-.078.11l-.045.011h-3.414c-.046 0-.092-.034-.112-.076l-.01-.045V16.698h-6.238c-.046 0-.092-.035-.112-.077l-.011-.045v-2.922c0-.046.035-.091.078-.112l.045-.01zm16.827-.082q.061-.002.096.033l.027.048 6.42 23.5a.13.13 0 0 1-.008.085.13.13 0 0 1-.058.063l-.057.014h-3.107a.16.16 0 0 1-.091-.042l-.032-.04-1.86-6.838a.16.16 0 0 0-.068-.07l-.055-.011h-6.871q-.061-.001-.096.032l-.027.049-1.86 6.838a.16.16 0 0 1-.068.07l-.055.012h-3.108a.13.13 0 0 1-.124-.103l.001-.06 6.421-23.499a.15.15 0 0 1 .068-.069l.054-.012zm52.999 0q.061-.002.095.033l.028.048 6.419 23.5a.13.13 0 0 1-.067.148l-.056.014h-3.107a.1.1 0 0 1-.052-.011.1.1 0 0 1-.044-.03l-.027-.04-1.86-6.839a.16.16 0 0 0-.068-.07l-.055-.011h-6.87q-.061-.001-.096.032l-.027.049-1.86 6.838a.16.16 0 0 1-.068.07l-.055.012h-3.108a.126.126 0 0 1-.124-.103l.001-.06 6.42-23.499a.15.15 0 0 1 .068-.069l.055-.012zm-95.303.102c.046 0 .092.034.112.077l.01.044v2.922c0 .046-.034.092-.077.112l-.045.01h-10.346c-.046 0-.092.035-.112.077l-.011.045v6.21c0 .045.035.091.078.11l.045.011h9.099c.046 0 .092.035.112.077l.011.045v2.922c0 .046-.035.092-.078.112l-.045.01h-9.099c-.046 0-.092.034-.112.077l-.011.045v7.265q.001.08.049.115l.053.027h10.796c.046 0 .092.034.113.077l.01.044v3.085c0 .046-.034.091-.077.111l-.046.01h-14.435a.13.13 0 0 1-.112-.076l-.011-.045V13.675c0-.046.035-.092.078-.112l.045-.01zm40.199 4.14a.1.1 0 0 0-.033-.055.13.13 0 0 0-.175-.004l-.038.058-2.494 9.152a.13.13 0 0 0 .066.149l.056.014h4.99a.13.13 0 0 0 .079-.03.13.13 0 0 0 .044-.073l-.001-.06zm52.998 0a.1.1 0 0 0-.033-.055.13.13 0 0 0-.175-.004l-.038.058-2.494 9.152a.13.13 0 0 0 .066.149l.056.014h4.99a.13.13 0 0 0 .124-.103l-.001-.06z"/><path fill="#e17726" d="M52.218 0 29.28 16.888l4.265-9.953z"/><path fill="#e27625" d="m1.293.02 18.622 6.916 4.05 10.084zm41.694 35.896 10.138.192-3.543 11.977-12.37-3.39zm-32.517 0 5.754 8.78-12.35 3.39L.353 36.107z"/><path fill="#e27625" d="m23.415 14.452.415 13.315-12.399-.562 3.527-5.293.045-.052zm6.499-.15 8.54 7.56.045.05 3.526 5.293-12.395.562zM16.587 35.956l6.77 5.248-7.864 3.778zm20.284 0 1.072 9.026-7.842-3.778z"/><path fill="#d5bfb2" d="m30.274 40.708 7.957 3.834-7.402 3.5.077-2.313zm-7.093.002-.607 4.98.05 2.35-7.42-3.498z"/><path fill="#cc6228" d="m17.129 35.91-1.145 9.359-6.133-9.154zm19.2 0 7.279.205-6.157 9.154zm5.876-9.234-5.297 5.371-4.084-1.857-1.955 4.09-1.282-7.033zm-30.955 0 12.62.571-1.282 7.033-1.956-4.09-4.062 1.857z"/><path fill="#e27525" d="m10.893 25.574 5.993 6.05.207 5.974zm31.677-.01-6.21 12.045.233-5.984zm-18.993.379.241 1.51.596 3.764-.383 11.557-1.811-9.285-.001-.095zm6.3-.021 1.362 7.472v.096l-1.817 9.307-.072-2.328-.283-9.321z"/><path fill="#f5841f" d="m37.125 31.384-.202 5.19-6.322 4.9-1.278-.897 1.432-7.343zm-20.771 0 6.348 1.85 1.432 7.343-1.278.898-6.322-4.902z"/><path fill="#c0ac9d" d="m13.995 43.397 8.087 3.813-.034-1.63.677-.59h8.005l.7.59-.051 1.626 8.037-3.8-3.91 3.215-4.73 3.232H22.66l-4.725-3.245z"/><path fill="#763e1a" d="m50.704.468 2.753 8.219-1.72 8.31 1.225.94-1.657 1.258 1.245.957-1.648 1.494 1.012.73-2.687 3.121-11.02-3.192-.095-.05-7.94-6.666zm-47.95 0 20.532 15.121-7.941 6.665-.096.051-11.02 3.192-2.685-3.121 1.01-.73-1.647-1.494 1.243-.956-1.682-1.262 1.27-.94L0 8.687z"/><path fill="#f5841f" d="m37.669 21.607 11.675 3.383 3.794 11.632H43.13l-6.896.087 5.014-9.726zm-21.88 0-3.582 5.376 5.015 9.726-6.892-.087H.34L4.113 24.99zM34.117 6.88l-3.267 8.776-.693 11.856-.265 3.716-.02 9.493h-6.289l-.02-9.475-.266-3.737-.693-11.853-3.266-8.776z"/></g><defs><clipPath id="a"><path fill="#fff" d="M0 0h268v50H0z"/></clipPath></defs></svg>