<svg xmlns="http://www.w3.org/2000/svg" width="147" height="49" fill="none" viewBox="0 0 147 49"><g clip-path="url(#a)"><path fill="#ff302f" d="m142.421 29.477 4.078 2.719c-1.323 1.95-4.489 5.294-9.962 5.294-6.797 0-11.858-5.258-11.858-11.948 0-7.118 5.115-11.947 11.286-11.947 6.206 0 9.246 4.936 10.23 7.6l.537 1.36-15.99 6.618c1.216 2.397 3.112 3.613 5.795 3.613s4.543-1.324 5.884-3.309m-12.537-4.31 10.677-4.436c-.59-1.484-2.343-2.54-4.436-2.54-2.664 0-6.367 2.361-6.241 6.976"/><path fill="#20b15a" d="M116.97 1.415h5.151v34.984h-5.151z"/><path fill="#3686f7" d="M108.85 14.525h4.972v21.248c0 8.817-5.204 12.448-11.357 12.448-5.795 0-9.282-3.899-10.588-7.064l4.56-1.896c.823 1.949 2.809 4.256 6.028 4.256 3.952 0 6.385-2.45 6.385-7.029v-1.716h-.179c-1.18 1.43-3.434 2.718-6.295 2.718-5.974 0-11.448-5.205-11.448-11.912 0-6.743 5.474-12 11.448-12 2.843 0 5.115 1.269 6.295 2.664h.179zm.358 11.053c0-4.22-2.808-7.297-6.385-7.297-3.613 0-6.654 3.076-6.654 7.297 0 4.167 3.04 7.19 6.654 7.19 3.577.018 6.385-3.023 6.385-7.19"/><path fill="#ff302f" d="M62.652 25.489c0 6.886-5.366 11.947-11.948 11.947-6.581 0-11.947-5.079-11.947-11.947 0-6.922 5.366-11.966 11.947-11.966 6.582 0 11.948 5.044 11.948 11.966m-5.223 0c0-4.293-3.112-7.244-6.725-7.244s-6.724 2.951-6.724 7.244c0 4.256 3.112 7.244 6.724 7.244s6.725-2.988 6.725-7.244"/><path fill="#ffba40" d="M88.747 25.542c0 6.886-5.366 11.948-11.948 11.948s-11.947-5.062-11.947-11.948c0-6.921 5.365-11.947 11.947-11.947s11.948 5.008 11.948 11.947m-5.24 0c0-4.292-3.113-7.244-6.726-7.244s-6.725 2.952-6.725 7.244c0 4.257 3.113 7.244 6.725 7.244 3.631 0 6.725-3.005 6.725-7.244"/><path fill="#3686f7" d="M19.119 32.25c-7.494 0-13.36-6.045-13.36-13.539s5.865-13.54 13.36-13.54c4.042 0 6.993 1.593 9.175 3.632l3.595-3.595c-3.04-2.916-7.1-5.134-12.77-5.134C8.852.074.214 8.445.214 18.711s8.638 18.637 18.905 18.637c5.544 0 9.73-1.824 13.002-5.223 3.363-3.362 4.4-8.084 4.4-11.911 0-1.199-.143-2.433-.304-3.345H19.12v4.972H31.3c-.358 3.112-1.342 5.24-2.79 6.69-1.753 1.77-4.525 3.72-9.39 3.72"/></g><defs><clipPath id="a"><path fill="#fff" d="M0 0h147v48.234H0z"/></clipPath></defs></svg>