<svg xmlns="http://www.w3.org/2000/svg" width="42" height="29" fill="none" viewBox="0 0 42 29"><g clip-path="url(#a)"><path fill="#000" d="M40.107 4.497a5.16 5.16 0 0 0-3.63-3.63c-3.182-.868-15.991-.868-15.991-.868S7.676.025 4.493.893a5.16 5.16 0 0 0-3.63 3.63c-.962 5.655-1.335 14.272.027 19.7a5.16 5.16 0 0 0 3.63 3.63c3.182.868 15.992.868 15.992.868s12.809 0 15.992-.867a5.16 5.16 0 0 0 3.63-3.63c1.015-5.663 1.328-14.275-.027-19.727"/><path fill="#fff" d="m16.409 20.516 10.626-6.155-10.626-6.155z"/></g><defs><clipPath id="a"><path fill="#fff" d="M0 0h41.013v28.837H0z"/></clipPath></defs></svg>