<svg xmlns="http://www.w3.org/2000/svg" width="36" height="36" fill="none" viewBox="0 0 36 36"><path fill="#b5a798" d="M19.975 23.867a3.348 3.348 0 1 0-.602-6.669 3.348 3.348 0 0 0 .602 6.669"/><path fill="#b5a798" d="M23.932 13.098a1.617 1.617 0 0 0-2.266-.253.6.6 0 0 0-.237.015l-1.36.382-1.114-3.97 1.552-.436A4.74 4.74 0 0 0 23.783 3l-.46-1.639a.575.575 0 0 0-.71-.398l-2.067.58L20.37.92l-8.08 2.269.175.623-2.068.58a.575.575 0 0 0-.398.71l.46 1.64a4.74 4.74 0 0 0 5.836 3.277l1.551-.436 1.115 3.97-.814.229a1.618 1.618 0 0 0-2.845-.352l-4.93 7.145c-.47.68-.351 1.602.273 2.142l3.664 3.99c.483.525.75 1.212.75 1.925v6.474h9.218V28.59c0-.683.246-1.343.692-1.86l4.152-4.81c.608-.58.671-1.528.145-2.183zm-2.648-8.924-.427-1.523 1.513-.425.305 1.086a3.59 3.59 0 0 1-1.842 4.169 4.18 4.18 0 0 0 .451-3.307M11.568 6.43l-.305-1.086 1.514-.425.427 1.523a4.18 4.18 0 0 0 2.107 2.588 3.59 3.59 0 0 1-3.743-2.6M23.2 23.667a5.186 5.186 0 0 1-6.969.171l-2.373-2.62 4.106-5.95q.093-.137.156-.283l2.936-.825c.01.34.124.679.354.964l4.403 5.482zm6.574-16.133-.669-.125a.73.73 0 0 1-.585-.585l-.125-.669c-.032-.173-.28-.173-.313 0l-.125.67a.73.73 0 0 1-.585.584l-.669.125c-.173.033-.173.28 0 .313l.67.126a.73.73 0 0 1 .584.584l.125.67c.033.173.28.173.313 0l.125-.67a.73.73 0 0 1 .585-.584l.67-.126c.173-.032.173-.28 0-.313M7.705 6.005l-.669-.125a.73.73 0 0 1-.584-.585l-.126-.669c-.032-.173-.28-.173-.313 0l-.125.67a.73.73 0 0 1-.585.584l-.669.125c-.173.032-.173.28 0 .313l.67.125a.73.73 0 0 1 .584.585l.125.67c.033.172.28.172.313 0l.126-.67a.73.73 0 0 1 .584-.585l.67-.125c.173-.032.173-.28 0-.313m19.183-2.317a.429.429 0 1 0 0-.858.429.429 0 0 0 0 .858m3.76 7.828a.429.429 0 1 0 0 .857.429.429 0 0 0 0-.857m1.384-6.592a.429.429 0 1 0 0-.858.429.429 0 0 0 0 .858M4.076 10.115a.429.429 0 1 0 0 .858.429.429 0 0 0 0-.858m4.716.428a.429.429 0 1 0 0 .858.429.429 0 0 0 0-.858"/></svg>