<svg xmlns="http://www.w3.org/2000/svg" width="1505" height="789" fill="none" viewBox="0 0 1505 789"><mask id="a" width="1720" height="789" x="-113" y="0" maskUnits="userSpaceOnUse" style="mask-type:alpha"><rect width="1720" height="789" x="-113" fill="#d9d9d9" rx="24"/></mask><g mask="url(#a)"><path fill="url(#b)" stroke="#c02d2d" d="M77.476 104.303c9.686 4.529 13.817 15.457 9.399 24.906-2.699 5.77-7.836 9.811-15.286 13.28-6.525 3.039-14.765 5.612-24.59 8.526l-4.306 1.272-.001.001-6.187 1.835-2.556-5.924v-.001l-1.785-4.121c-4.062-9.407-7.37-17.381-9.22-24.337-2.115-7.941-2.307-14.475.392-20.246 4.419-9.448 15.454-13.283 25.14-8.753 5.474 2.56 9.569 7.506 11.175 13.004l.16.545.52-.227c5.25-2.292 11.671-2.32 17.145.24Z" opacity=".1"/><g filter="url(#c)" opacity=".08"><path fill="url(#d)" d="M1227.18 273.409c-38.26-18.045-61.56-18.85-79.07-18.476 10-14.387 22.23-34.231 28.37-76.08 10.47-71.366 89.07-51.615 82.66 6.239 16.56-12.426 24.68-28.877 25.23-41.462l5.82-3.124 31.86 59.42-5.83 3.123c-10.78-6.507-28.98-8.853-48.49-1.933 51.73 26.68 24.68 103.071-40.55 72.293"/><path stroke="#c02d2d" stroke-width=".687" d="M1148.77 254.577c17.2-.333 39.99.646 76.77 17.687l1.78.834c16.26 7.667 30.09 8.643 40.89 5.423s18.61-10.647 22.79-19.854c8.37-18.414 2.28-43.987-23.43-57.246l-.71-.364.75-.265c19.5-6.912 37.71-4.629 48.62 1.864l5.36-2.87-31.54-58.815-5.35 2.87c-.63 12.68-8.81 29.114-25.36 41.526l-.63.476.09-.789c3.18-28.75-14.75-47.981-34.72-51.2-9.98-1.609-20.48.782-29.14 7.994-8.39 6.989-15.08 18.527-17.86 35.404l-.26 1.651c-6.07 41.38-18.1 61.296-28.05 75.674Z"/></g><path fill="url(#e)" stroke="#c02d2d" stroke-width=".621" d="M632.282 678.736c13.156 19.17 8.859 44.253-9.881 57.114-11.436 7.848-25.489 9.717-43.052 8.023-15.372-1.482-33.393-5.689-54.645-10.97l-9.308-2.324-14.038-3.486 1.797-14.352c3.197-25.943 5.859-47.453 10.596-64.455 4.737-16.997 11.535-29.438 22.971-37.286 18.74-12.86 43.69-7.848 56.846 11.323 7.433 10.831 9.651 24.605 6.598 36.68l-.087.342.351.042c12.364 1.494 24.419 8.517 31.852 19.349Z" opacity=".1"/><g opacity=".5"><g filter="url(#f)"><path fill="url(#g)" d="M326 73.541h102.35v1063H326z" transform="rotate(-28.95 326 73.541)"/></g><g filter="url(#h)"><path fill="url(#i)" d="M326 73.541h102.35v1063H326z" transform="rotate(-28.95 326 73.541)"/></g><g filter="url(#j)"><path fill="url(#k)" d="M326 73.541h102.35v1063H326z" transform="rotate(-28.95 326 73.541)"/></g><g opacity=".4"><g filter="url(#l)"><path fill="url(#m)" d="M135 9.541h102.35v1063H135z" transform="rotate(-28.95 135 9.541)"/></g><g filter="url(#n)"><path fill="url(#o)" d="M135 9.541h102.35v1063H135z" transform="rotate(-28.95 135 9.541)"/></g><g filter="url(#p)"><path fill="url(#q)" d="M135 9.541h102.35v1063H135z" transform="rotate(-28.95 135 9.541)"/></g></g><g opacity=".4"><g filter="url(#r)"><path fill="url(#s)" d="M431-71.459h102.35v1063H431z" transform="rotate(-28.95 431 -71.459)"/></g><g filter="url(#t)"><path fill="url(#u)" d="M431-71.459h102.35v1063H431z" transform="rotate(-28.95 431 -71.459)"/></g><g filter="url(#v)"><path fill="url(#w)" d="M431-71.459h102.35v1063H431z" transform="rotate(-28.95 431 -71.459)"/></g></g></g><path stroke="#d4ccc0" stroke-miterlimit="10" stroke-width="2" d="M1402 788.5c0 291.77-292.28 530.5-649.5 530.5-357.222 0-649.5-238.73-649.5-530.5C103 496.729 395.278 258 752.5 258c357.22 0 649.5 238.729 649.5 530.5Z"/><path stroke="#d4ccc0" stroke-miterlimit="10" stroke-width="2" d="M1504 788.5c0 291.77-338.18 530.5-751.5 530.5C339.178 1319 1 1080.27 1 788.5 1 496.729 339.178 258 752.5 258c413.32 0 751.5 238.729 751.5 530.5Zm-751.667 530.81V258.03"/><path stroke="#d4ccc0" stroke-miterlimit="10" stroke-width="2" d="M1016.55 788.669c0 291.851-118.293 530.641-264.216 530.641-145.924 0-264.219-238.79-264.219-530.641 0-291.847 118.295-530.639 264.219-530.639s264.216 238.792 264.216 530.639Z"/><path stroke="#d4ccc0" stroke-miterlimit="10" stroke-width="2" d="M1183 788.5c0 291.77-192.742 530.5-430.5 530.5S322 1080.27 322 788.5C322 496.729 514.742 258 752.5 258S1183 496.729 1183 788.5Z"/><g filter="url(#x)"><path stroke="url(#y)" stroke-miterlimit="10" stroke-width="4" d="M752.5 258c147.569 0 277.8 91.966 355.36 231.5"/></g><path stroke="url(#z)" stroke-miterlimit="10" stroke-width="2" d="M752.5 258c147.569 0 277.8 91.966 355.36 231.5"/><path stroke="#d4ccc0" stroke-miterlimit="10" stroke-width="2" d="M1316 788.5c0 291.77-252.29 530.5-563.5 530.5-311.212 0-563.5-238.73-563.5-530.5C189 496.729 441.288 258 752.5 258c311.21 0 563.5 238.729 563.5 530.5Zm-33.03.17H221.694M1376 491H131m1366 225H7"/><g filter="url(#A)"><path stroke="url(#B)" stroke-miterlimit="10" stroke-width="4" d="M752.5 258c-226.357 0-426.637 95.855-543 240.321"/></g><path stroke="url(#C)" stroke-miterlimit="10" stroke-width="2" d="M752.5 258c-226.357 0-426.637 95.855-543 240.321"/><g filter="url(#D)"><path stroke="url(#E)" stroke-miterlimit="10" stroke-width="4" d="M752.5 258c268.75 0 493.55 178.026 549.9 414.5"/></g><path stroke="url(#F)" stroke-miterlimit="10" stroke-width="2" d="M752.5 258c268.75 0 493.55 178.026 549.9 414.5"/><g filter="url(#G)"><path stroke="url(#H)" stroke-miterlimit="10" stroke-width="4" d="M752.5 258c-284.625 0-519.965 199.683-558.097 457"/></g><path stroke="url(#I)" stroke-miterlimit="10" stroke-width="2" d="M752.5 258c-284.625 0-519.965 199.683-558.097 457"/></g><path fill="url(#J)" stroke="#c02d2d" stroke-width=".621" d="M1433.24 226.978c-10 11.518-14.56 26.113-13.7 40.441-14.1-.345-26.97-5.689-36.89-14.327l38.35-38.351zm26.11 26.115c-8.69 7.564-19.63 12.6-31.69 13.968-.77-12.132 3.01-24.495 11.34-34.324zm-44.09-44.094-38.35 38.351c-8.64-9.924-13.99-22.789-14.33-36.896 14.33.863 28.92-3.701 40.44-13.692zm29.48 17.996c9.83-8.322 22.19-12.1 34.32-11.337a58.17 58.17 0 0 1-13.97 31.692zm20.35-56.347c8.64 9.924 13.98 22.788 14.33 36.895-14.33-.863-28.92 3.7-40.44 13.692l-12.24-12.236zm-42.64-20.07c14.11.345 26.98 5.689 36.9 14.327L1421 203.256l-12.24-12.237c9.99-11.519 14.56-26.113 13.69-40.441Zm-25.19 40.424c-9.83 8.322-22.19 12.1-34.32 11.337a58.17 58.17 0 0 1 13.97-31.692zm17.08-40.064c.76 12.131-3.02 24.493-11.34 34.322l-20.35-20.355c8.69-7.564 19.63-12.6 31.69-13.967Z" opacity=".1"/><path fill="url(#K)" stroke="#c02d2d" stroke-width=".621" d="M314 72.512c32.25 0 58.489 26.239 58.489 58.489S346.25 189.49 314 189.49s-58.489-26.238-58.49-58.489c0-32.25 26.24-58.49 58.49-58.49Zm-11.936 80.794c-.394 0-.782.092-1.135.266l-.148.079a2.6 2.6 0 0 0-.937.94l-4.29 7.349a2.6 2.6 0 0 0-.328.961l-.015.146c-.026.341.018.684.126 1.007l.05.137 5.578 14.046c.134.34.339.646.6.9l.115.104c.277.238.601.414.95.517l.151.039a50.2 50.2 0 0 0 22.472 0l-.001-.001c.358-.081.694-.236.986-.456l.123-.098v-.001c.279-.238.502-.534.657-.865l.063-.145 5.538-14.042-.001-.001a2.57 2.57 0 0 0-.1-2.12l-.07-.128-4.291-7.349h-.001a2.6 2.6 0 0 0-.794-.85l-.143-.089-.149-.08a2.6 2.6 0 0 0-.966-.26l-.169-.006zm-22.452-27.989a2.57 2.57 0 0 0-2.362.37l-.14.111-.001.001-11.767 10.126a2.6 2.6 0 0 0-.673.904l-.062.151a2.6 2.6 0 0 0-.132 1.277v.001a49.7 49.7 0 0 0 6.908 18.968v-.001c.201.327.473.606.794.814l.142.085c.336.188.709.297 1.092.321l.164.005h12.784a2.57 2.57 0 0 0 2.222-1.286l-.001-.001 4.561-7.8.001.001a2.58 2.58 0 0 0 .327-1.682l-.05-.247-4.2-16.938a2.6 2.6 0 0 0-.448-.936l-.094-.117a2.6 2.6 0 0 0-.818-.637l-.136-.062v-.001l-7.943-3.363-.001-.001zm70.009-.132a2.6 2.6 0 0 0-1.234.109l-.168.064-7.943 3.364a2.6 2.6 0 0 0-.853.589l-.101.11a2.6 2.6 0 0 0-.54 1.053l-4.201 16.938a2.57 2.57 0 0 0 .276 1.929v-.001l4.562 7.823v.001c.197.341.47.632.796.851l.143.089c.341.198.723.314 1.114.34l.169.006h12.785c.388 0 .771-.089 1.12-.258l.147-.077c.385-.218.707-.533.935-.913l.001.001a49.7 49.7 0 0 0 6.906-18.966c.057-.377.03-.761-.079-1.125l-.052-.154v-.001l-.061-.15a2.6 2.6 0 0 0-.552-.794l-.12-.111-11.77-10.126h.001a2.56 2.56 0 0 0-1.282-.591zM295.34 84.87a2.6 2.6 0 0 0-1.101.138l-.149.058-.002.001a50.3 50.3 0 0 0-18.203 13.504 2.56 2.56 0 0 0-.534 2.378l.051.162 5.108 14.524c.089.254.217.492.379.705l.173.204q.278.296.631.491l.241.117 8.374 3.551c.382.162.797.228 1.208.195l.176-.02a2.6 2.6 0 0 0 1.271-.574l.001.001 15.904-13.34c.288-.242.52-.543.679-.884l-.001-.001c.159-.34.242-.711.242-1.087V95.5c0-.37-.081-.735-.235-1.07l-.07-.142a2.6 2.6 0 0 0-.711-.834l-.129-.092h-.001l-12.11-8.068h-.001a2.6 2.6 0 0 0-1.032-.403zm37.329.001a2.6 2.6 0 0 0-1.068.338l-.136.085-12.108 8.068a2.6 2.6 0 0 0-.762.788l-.078.138h-.001a2.6 2.6 0 0 0-.298 1.054l-.005.158v9.496c.003.375.087.745.249 1.084v-.001c.14.297.336.564.577.786l.105.092 15.904 13.339c.317.267.694.452 1.096.541l.175.032c.41.062.828.023 1.219-.111l.165-.064 8.362-3.542.002-.001a2.56 2.56 0 0 0 1.412-1.52l-.001-.001 5.109-14.523-.001-.001a2.57 2.57 0 0 0-.364-2.402l-.105-.132a50.3 50.3 0 0 0-18.19-13.494h-.001a2.6 2.6 0 0 0-1.096-.216z" opacity=".1"/><defs><linearGradient id="b" x1="67.995" x2="14.005" y1="91.041" y2="126.958" gradientUnits="userSpaceOnUse"><stop stop-color="#7b0f0f"/><stop offset=".98" stop-color="#7b0f0f" stop-opacity=".02"/></linearGradient><linearGradient id="d" x1="1131.38" x2="1200.23" y1="268.421" y2="114.086" gradientUnits="userSpaceOnUse"><stop stop-color="#7b0f0f"/><stop offset=".98" stop-color="#7b0f0f" stop-opacity=".02"/></linearGradient><linearGradient id="e" x1="628.569" x2="490.196" y1="644.463" y2="652.096" gradientUnits="userSpaceOnUse"><stop stop-color="#7b0f0f"/><stop offset=".98" stop-color="#7b0f0f" stop-opacity=".02"/></linearGradient><linearGradient id="g" x1="377.175" x2="377.175" y1="73.541" y2="1136.54" gradientUnits="userSpaceOnUse"><stop stop-color="#fff" stop-opacity="0"/><stop offset=".683" stop-color="#fff"/><stop offset="1" stop-color="#fff" stop-opacity="0"/></linearGradient><linearGradient id="i" x1="377.175" x2="377.175" y1="73.541" y2="1136.54" gradientUnits="userSpaceOnUse"><stop stop-color="#fff" stop-opacity="0"/><stop offset=".683" stop-color="#fff"/><stop offset="1" stop-color="#fff" stop-opacity="0"/></linearGradient><linearGradient id="k" x1="377.175" x2="377.175" y1="73.541" y2="1136.54" gradientUnits="userSpaceOnUse"><stop stop-color="#fff" stop-opacity="0"/><stop offset=".683" stop-color="#fff"/><stop offset="1" stop-color="#fff" stop-opacity="0"/></linearGradient><linearGradient id="m" x1="186.175" x2="186.175" y1="9.541" y2="1072.54" gradientUnits="userSpaceOnUse"><stop stop-color="#fbe7cc" stop-opacity="0"/><stop offset=".683" stop-color="#cccdfb"/><stop offset="1" stop-color="#fbe7cc" stop-opacity="0"/></linearGradient><linearGradient id="o" x1="186.175" x2="186.175" y1="9.541" y2="1072.54" gradientUnits="userSpaceOnUse"><stop stop-color="#fbe7cc" stop-opacity="0"/><stop offset=".683" stop-color="#cccdfb"/><stop offset="1" stop-color="#fbe7cc" stop-opacity="0"/></linearGradient><linearGradient id="q" x1="186.175" x2="186.175" y1="9.541" y2="1072.54" gradientUnits="userSpaceOnUse"><stop stop-color="#fbe7cc" stop-opacity="0"/><stop offset=".683" stop-color="#cccdfb"/><stop offset="1" stop-color="#fbe7cc" stop-opacity="0"/></linearGradient><linearGradient id="s" x1="482.175" x2="482.175" y1="-71.459" y2="991.541" gradientUnits="userSpaceOnUse"><stop stop-color="#fbe7cc" stop-opacity="0"/><stop offset=".683" stop-color="#fbe7cc"/><stop offset="1" stop-color="#fbe7cc" stop-opacity="0"/></linearGradient><linearGradient id="u" x1="482.175" x2="482.175" y1="-71.459" y2="991.541" gradientUnits="userSpaceOnUse"><stop stop-color="#fbe7cc" stop-opacity="0"/><stop offset=".683" stop-color="#fbe7cc"/><stop offset="1" stop-color="#fbe7cc" stop-opacity="0"/></linearGradient><linearGradient id="w" x1="482.175" x2="482.175" y1="-71.459" y2="991.541" gradientUnits="userSpaceOnUse"><stop stop-color="#fbe7cc" stop-opacity="0"/><stop offset=".683" stop-color="#fbe7cc"/><stop offset="1" stop-color="#fbe7cc" stop-opacity="0"/></linearGradient><linearGradient id="y" x1="952.508" x2="1056.8" y1="294.582" y2="521.43" gradientUnits="userSpaceOnUse"><stop stop-color="#b56be0" stop-opacity="0"/><stop offset="1" stop-color="#b56be0"/></linearGradient><linearGradient id="z" x1="805.168" x2="1040.53" y1="242.362" y2="543.059" gradientUnits="userSpaceOnUse"><stop stop-color="#b56be0" stop-opacity="0"/><stop offset="1" stop-color="#b56be0"/></linearGradient><linearGradient id="B" x1="768" x2="212.267" y1="235" y2="260.357" gradientUnits="userSpaceOnUse"><stop stop-color="#b56be0" stop-opacity="0"/><stop offset="1" stop-color="#b56be0"/></linearGradient><linearGradient id="C" x1="689" x2="214.24" y1="237.5" y2="265.883" gradientUnits="userSpaceOnUse"><stop stop-color="#b56be0" stop-opacity="0"/><stop offset="1" stop-color="#b56be0"/></linearGradient><linearGradient id="E" x1="1062" x2="1266" y1="323.5" y2="707" gradientUnits="userSpaceOnUse"><stop stop-color="#b56be0" stop-opacity="0"/><stop offset="1" stop-color="#b56be0"/></linearGradient><linearGradient id="F" x1="834" x2="1266" y1="230" y2="707" gradientUnits="userSpaceOnUse"><stop stop-color="#b56be0" stop-opacity="0"/><stop offset="1" stop-color="#b56be0"/></linearGradient><linearGradient id="H" x1="723.5" x2="256.371" y1="243.5" y2="721.616" gradientUnits="userSpaceOnUse"><stop stop-color="#b56be0" stop-opacity="0"/><stop offset="1" stop-color="#b56be0"/></linearGradient><linearGradient id="I" x1="628" x2="299.21" y1="233" y2="696.126" gradientUnits="userSpaceOnUse"><stop stop-color="#b56be0" stop-opacity="0"/><stop offset="1" stop-color="#b56be0"/></linearGradient><linearGradient id="J" x1="1423.97" x2="1358.86" y1="136.425" y2="232.237" gradientUnits="userSpaceOnUse"><stop stop-color="#7b0f0f"/><stop offset=".98" stop-color="#7b0f0f" stop-opacity=".02"/></linearGradient><linearGradient id="K" x1="316.978" x2="251.795" y1="58.352" y2="154.263" gradientUnits="userSpaceOnUse"><stop stop-color="#7b0f0f"/><stop offset=".98" stop-color="#7b0f0f" stop-opacity=".02"/></linearGradient><filter id="c" width="181.222" height="154.847" x="1144.47" y="129.391" color-interpolation-filters="sRGB" filterUnits="userSpaceOnUse"><feFlood flood-opacity="0" result="BackgroundImageFix"/><feBlend in="SourceGraphic" in2="BackgroundImageFix" result="shape"/><feGaussianBlur result="effect1_foregroundBlur_0_1" stdDeviation="1.82"/></filter><filter id="f" width="730.491" height="1106.12" x="262.8" y="-39.2" color-interpolation-filters="sRGB" filterUnits="userSpaceOnUse"><feFlood flood-opacity="0" result="BackgroundImageFix"/><feBlend in="SourceGraphic" in2="BackgroundImageFix" result="shape"/><feGaussianBlur result="effect1_foregroundBlur_0_1" stdDeviation="31.6"/></filter><filter id="h" width="730.491" height="1106.12" x="262.8" y="-39.2" color-interpolation-filters="sRGB" filterUnits="userSpaceOnUse"><feFlood flood-opacity="0" result="BackgroundImageFix"/><feBlend in="SourceGraphic" in2="BackgroundImageFix" result="shape"/><feGaussianBlur result="effect1_foregroundBlur_0_1" stdDeviation="31.6"/></filter><filter id="j" width="730.491" height="1106.12" x="262.8" y="-39.2" color-interpolation-filters="sRGB" filterUnits="userSpaceOnUse"><feFlood flood-opacity="0" result="BackgroundImageFix"/><feBlend in="SourceGraphic" in2="BackgroundImageFix" result="shape"/><feGaussianBlur result="effect1_foregroundBlur_0_1" stdDeviation="31.6"/></filter><filter id="l" width="730.491" height="1106.12" x="71.8" y="-103.2" color-interpolation-filters="sRGB" filterUnits="userSpaceOnUse"><feFlood flood-opacity="0" result="BackgroundImageFix"/><feBlend in="SourceGraphic" in2="BackgroundImageFix" result="shape"/><feGaussianBlur result="effect1_foregroundBlur_0_1" stdDeviation="31.6"/></filter><filter id="n" width="730.491" height="1106.12" x="71.8" y="-103.2" color-interpolation-filters="sRGB" filterUnits="userSpaceOnUse"><feFlood flood-opacity="0" result="BackgroundImageFix"/><feBlend in="SourceGraphic" in2="BackgroundImageFix" result="shape"/><feGaussianBlur result="effect1_foregroundBlur_0_1" stdDeviation="31.6"/></filter><filter id="p" width="730.491" height="1106.12" x="71.8" y="-103.2" color-interpolation-filters="sRGB" filterUnits="userSpaceOnUse"><feFlood flood-opacity="0" result="BackgroundImageFix"/><feBlend in="SourceGraphic" in2="BackgroundImageFix" result="shape"/><feGaussianBlur result="effect1_foregroundBlur_0_1" stdDeviation="31.6"/></filter><filter id="r" width="730.491" height="1106.12" x="367.8" y="-184.2" color-interpolation-filters="sRGB" filterUnits="userSpaceOnUse"><feFlood flood-opacity="0" result="BackgroundImageFix"/><feBlend in="SourceGraphic" in2="BackgroundImageFix" result="shape"/><feGaussianBlur result="effect1_foregroundBlur_0_1" stdDeviation="31.6"/></filter><filter id="t" width="730.491" height="1106.12" x="367.8" y="-184.2" color-interpolation-filters="sRGB" filterUnits="userSpaceOnUse"><feFlood flood-opacity="0" result="BackgroundImageFix"/><feBlend in="SourceGraphic" in2="BackgroundImageFix" result="shape"/><feGaussianBlur result="effect1_foregroundBlur_0_1" stdDeviation="31.6"/></filter><filter id="v" width="730.491" height="1106.12" x="367.8" y="-184.2" color-interpolation-filters="sRGB" filterUnits="userSpaceOnUse"><feFlood flood-opacity="0" result="BackgroundImageFix"/><feBlend in="SourceGraphic" in2="BackgroundImageFix" result="shape"/><feGaussianBlur result="effect1_foregroundBlur_0_1" stdDeviation="31.6"/></filter><filter id="x" width="381.71" height="259.072" x="740.2" y="243.7" color-interpolation-filters="sRGB" filterUnits="userSpaceOnUse"><feFlood flood-opacity="0" result="BackgroundImageFix"/><feBlend in="SourceGraphic" in2="BackgroundImageFix" result="shape"/><feGaussianBlur result="effect1_foregroundBlur_0_1" stdDeviation="6.15"/></filter><filter id="A" width="569.158" height="268.176" x="195.642" y="243.7" color-interpolation-filters="sRGB" filterUnits="userSpaceOnUse"><feFlood flood-opacity="0" result="BackgroundImageFix"/><feBlend in="SourceGraphic" in2="BackgroundImageFix" result="shape"/><feGaussianBlur result="effect1_foregroundBlur_0_1" stdDeviation="6.15"/></filter><filter id="D" width="576.445" height="441.564" x="740.2" y="243.7" color-interpolation-filters="sRGB" filterUnits="userSpaceOnUse"><feFlood flood-opacity="0" result="BackgroundImageFix"/><feBlend in="SourceGraphic" in2="BackgroundImageFix" result="shape"/><feGaussianBlur result="effect1_foregroundBlur_0_1" stdDeviation="6.15"/></filter><filter id="G" width="584.675" height="483.893" x="180.125" y="243.7" color-interpolation-filters="sRGB" filterUnits="userSpaceOnUse"><feFlood flood-opacity="0" result="BackgroundImageFix"/><feBlend in="SourceGraphic" in2="BackgroundImageFix" result="shape"/><feGaussianBlur result="effect1_foregroundBlur_0_1" stdDeviation="6.15"/></filter></defs></svg>