<svg xmlns="http://www.w3.org/2000/svg" width="60" height="60" fill="none" viewBox="0 0 60 60"><path fill="#000" d="M35.6 26.4c-.775 3.1-5.6 1.525-7.1 1.1l1.375-5.45c1.55.45 6.525 1.1 5.725 4.35m-7.775 3.9-1.5 6.025c1.85.475 7.575 2.3 8.425-1.1.9-3.55-5.075-4.475-6.925-4.925m26.425 5.75c-3.35 13.4-16.9 21.55-30.3 18.2s-21.542-16.9-18.2-30.3a24.99 24.99 0 0 1 30.3-18.2c13.375 3.35 21.525 16.9 18.2 30.3M35.525 20.125l1.125-4.5L33.9 15l-1.1 4.325c-.725-.175-1.45-.35-2.2-.5l1.1-4.425-2.725-.65-1.125 4.475c-.6-.15-1.2-.275-1.75-.425l-3.775-.95-.75 2.925s2.05.475 2 .5c1.125.275 1.325.975 1.275 1.6L21.775 34.2c-.125.35-.525.8-1.25.675.025.025-2-.5-2-.5l-1.35 3.125 3.55.9c.675.175 1.325.35 1.975.5l-1.15 4.55 2.75.7 1.125-4.525c.75.2 1.475.375 2.175.575l-1.125 4.475 2.75.7 1.15-4.55c4.625.875 8.175.525 9.625-3.7 1.25-3.375 0-5.375-2.5-6.65 1.8-.475 3.15-1.6 3.525-4.05.5-3.325-2.05-5.1-5.5-6.3"/></svg>