<svg xmlns="http://www.w3.org/2000/svg" width="83" height="48" fill="none" viewBox="0 0 83 48"><g clip-path="url(#a)"><path fill="#f3efeb" d="M75.008-2.257H5.252a6.807 6.807 0 0 0-6.807 6.808v31.19a6.807 6.807 0 0 0 6.807 6.807h69.756a6.807 6.807 0 0 0 6.808-6.808V4.55a6.807 6.807 0 0 0-6.808-6.807"/><path fill="#000" fill-opacity=".35" d="M78.21 1.341a4.5 4.5 0 0 0-3.202-1.34H55.504l11.216 18.72 1.025.128.603.85v.825l.724.134.67.89v.771l.73.128s.724.77.724.81v1.756a12 12 0 0 0 2.995 2.01c.985.389 1.112 1.97 1.668 2.82.77 1.2 1.796 1.71 1.581 2.393-.509 1.836-2.392 4.918-4.14 5.085h-6.955v2.962H75a4.543 4.543 0 0 0 4.537-4.543V4.55a4.5 4.5 0 0 0-1.327-3.209"/><path fill="#000" fill-opacity=".35" d="M48.857.015H5.246A4.543 4.543 0 0 0 .71 4.55v31.19a4.55 4.55 0 0 0 4.536 4.542h28.328l-1.755-2.941h-3.35c0-8.376 2.854-13.032 6.23-13.937.47-.08.255-2.392-.348-3.075q-.982.04-1.963-.04c-.429-.128-.127-.557-.127-.557l1.575-3.417-.215-.944h-5.89c-.087 0 4.825-3.35 4.825-3.35.274-8.919 9.373-9.589 14.888-5.93 3.25 2.177 3.51 6.452 3.256 9.447-.047.168-.858.04-.858.04s-.556 3.25.898 3.25h6.412c2.607-.094 5.126 1.695 5.126 1.695l.67-2.225zM10.09 33.857a3.116 3.116 0 1 1 0-6.231 3.116 3.116 0 0 1 0 6.231"/><path fill="#f3efeb" d="M79.685 44.645a1.46 1.46 0 1 1-1.44 1.46 1.435 1.435 0 0 1 1.44-1.46m0 3.35a1.862 1.862 0 1 0-1.85-1.863 1.844 1.844 0 0 0 1.85 1.863m.389-1.675a.514.514 0 0 0 .529-.577c0-.509-.308-.59-.75-.59h-.945v1.937h.415v-.77h.335l.45.77h.448zm-.75-.335v-.463h.441c.195 0 .45 0 .45.208s-.135.255-.35.255z"/></g><defs><clipPath id="a"><path fill="#fff" d="M0 0h82.418v48H0z"/></clipPath></defs></svg>