<svg xmlns="http://www.w3.org/2000/svg" width="48" height="48" fill="none" viewBox="0 0 48 48"><path fill="#000" fill-opacity=".35" fill-rule="evenodd" d="M29.28 46.721c-.144-.386-.281-.973-.26-1.775a23 23 0 0 1 .114-1.417c.045-.4.084-.678.084-.678s-.06-.137-.138-.322a17 17 0 0 1-.244-.607c-.078-.196-.077-.275-.052-.321s.075-.06.095-.129c0 0 .014-.119-.01-.295a1.5 1.5 0 0 0-.231-.633c-.149-.218-.396-.692-.612-1.112s-.399-.786-.42-.786c-.028 0 .031-.099.098-.197.068-.098.142-.197.142-.197l-.297-.66-.297-.662s-.845-.632-1.868-1.43-2.225-1.761-2.94-2.423c-.707-.66-1.725-2.102-2.596-3.384-.871-1.281-1.596-2.402-1.716-2.423-.128-.028-.312-.004-.464.028-.151.032-.272.07-.272.07s-.039-.11-.102-.299c-.064-.19-.152-.46-.251-.784-.05-.154-.184-.495-.357-.926-.174-.43-.386-.951-.59-1.464-.199-.493-.39-.981-.531-1.382s-.234-.714-.234-.854c0-.295 0-.65.018-1.005.018-.356.053-.71.124-1.006.077-.288.325-.654.546-.947.22-.294.415-.515.387-.515-.021 0-.07-.074-.115-.148-.044-.074-.083-.148-.083-.148s-.159.105-.415.132c-.256.026-.61-.026-.999-.343-.396-.316-.446-.928-.22-1.888.227-.96.729-2.267 1.436-3.976.714-1.708 1.22-2.728 1.584-3.35.364-.623.587-.847.735-.967q.158-.145.33-.27.12-.084.151-.082l.757-.02.714-.022.099-.12.099-.119.692-.028.693-.028c-.003 0 .22-.01.399-.303.179-.291.314-.865.139-1.99 0 0-.075-.182-.149-.384s-.148-.424-.148-.501c0-.07.05-.155.104-.227a2 2 0 0 1 .136-.153c.238-.237.356-.332.423-.54s.083-.529.114-1.218l.326-.246.325-.246.19-.147.192-.148h-6.618a2.96 2.96 0 0 0-2.73 1.803 2.9 2.9 0 0 0-.225 1.122v40.724c0 .809.332 1.544.868 2.076a2.95 2.95 0 0 0 2.087.864h12.274s-.148-.187-.292-.574m-9.354-1.924h-1.682l-1.019-4.627v4.627h-1.103V38.89h1.966l.721 3.84.015-3.84h1.103zm3.753-4.261c0 .562-.156.97-1.06 1.11v.029c.735.056 1.06.337 1.06 1.28v.52c0 1.012-.566 1.322-1.669 1.322h-1.654V38.89h1.654c.877 0 1.669.296 1.669 1.196zm2.454 4.26-.155-1.603h-.68l-.211 1.604h-1.26l1.061-5.907h1.867l.848 5.907z" clip-rule="evenodd"/><path fill="#000" fill-opacity=".35" fill-rule="evenodd" d="M21.937 39.738h-.17v1.617h.17c.226 0 .325-.099.325-.38v-.857c0-.282-.099-.38-.325-.38m0 2.35h-.17v1.87h.17c.226 0 .325-.042.325-.281v-1.308c0-.239-.099-.281-.325-.281m3.496.263h.452l-.226-2.433zm6.939-15.035a3.6 3.6 0 0 1-1.839.502 3.58 3.58 0 0 1-3.307-2.194 3.53 3.53 0 0 1 .389-3.41 3.6 3.6 0 0 1 1.687-1.286 3 3 0 0 1 .227-.352s-.05-.12-.154-.325a10 10 0 0 0-.483-.842c-.226-.344-.498-.931-.738-1.504a25 25 0 0 1-.548-1.42c-.092-.296-.227-1.08-.35-1.795-.123-.716-.237-1.363-.286-1.384-.05-.028-.085-.028-.163.004-.077.031-.198.095-.417.193-.226.098-.435.33-.606.58a5 5 0 0 0-.384.685c-.07.17-.304.78-.525 1.35s-.43 1.097-.45 1.097c-.029 0 .02.06.077.12s.12.119.12.119.12.074.26.172.298.222.376.32c.071.098.404 1.22.718 2.317.315 1.097.612 2.169.612 2.169l-.149.246-.148.246s.017.102.05.274a32 32 0 0 0 .354 1.686c.084.353.175.719.274 1.063.198.682.407 1.562.566 2.27s.269 1.246.269 1.246.148.246.358.62q.387.685.73 1.39c.241.507.51 1.702.718 2.776.209 1.075.357 2.027.357 2.048 0 .029.209.373.43.777.22.404.454.869.504 1.136s-.011.707-.084 1.08a10 10 0 0 1-.157.678s.01.232.029.488c.017.257.042.538.07.637.021.091.046.211.083.332s.087.244.157.343.106.257.124.415.018.316.018.415.198.784.396 1.48c.198.695.396 1.402.396 1.543 0 .148-.135.429-.294.692-.159.264-.343.51-.441.587a3 3 0 0 0-.204.197l-.192.197a2.97 2.97 0 0 0 2.022-.895c.516-.529.834-1.25.834-2.044V25.99a3.55 3.55 0 0 1-1.286 1.326m.418-25.754a2.96 2.96 0 0 0-2.087-.856H26.15c.05.021.321.197.604.395.283.2.576.42.669.533.092.12.127.267.127.44 0 .172-.035.369-.085.587a7 7 0 0 1-.186.648c-.062.188-.111.322-.111.322s-.035.088-.065.181-.056.192-.034.213a.4.4 0 0 1 .07.147c.018.057.029.106.029.106s-.145.267-.297.54c-.152.272-.311.55-.34.57-.02.029-.219.373-.441.723-.223.35-.47.705-.59.754-.053.016-.1.093-.123.176s-.021.17.024.204a53 53 0 0 0 .735.548l.148.022.15.02.366.247.368.246s.015.06.071.144a1 1 0 0 0 .326.292c.17.098.438.316.72.584.284.267.58.583.806.878.22.296.354.773.44 1.304.084.531.12 1.115.14 1.621.029.514.142 1.322.259 2.02.116.698.236 1.285.279 1.355.05.07.247.534.45 1.035s.413 1.04.483 1.257c.078.218.142.573.186.874.044.3.069.546.069.546l.339.415.34.415c.331.155.636.362.902.61a3.7 3.7 0 0 1 .68.852V3.631a2.9 2.9 0 0 0-.868-2.069" clip-rule="evenodd"/></svg>