<svg xmlns="http://www.w3.org/2000/svg" width="48" height="48" fill="none" viewBox="0 0 48 48"><path fill="#000" fill-opacity=".35" fill-rule="evenodd" d="M23.9 2.117c2.009 4.644 10.315 8.307 17.327 3.394v30.501c0 4.779-3.975 5.493-6.074 5.493-7.324 0-10.048 3.037-11.299 4.377-1.25-1.34-3.885-4.377-11.209-4.377-2.099 0-6.073-.714-6.073-5.493v-30.5c7.011 4.912 15.317 1.25 17.327-3.395" clip-rule="evenodd"/><path fill="#f0ece7" fill-rule="evenodd" d="M7.632 9.858h1.214l.374-1.146.373 1.146h1.212l-.981.711.375 1.152-.98-.713-.977.71.374-1.147zm4.153 0H13l.373-1.146.373 1.146h1.212l-.981.711.375 1.152-.98-.713-.976.71.373-1.147z" clip-rule="evenodd"/><path fill="#f0ece7" fill-rule="evenodd" d="M11.785 9.858H13l.373-1.146.373 1.146h1.212l-.981.711.375 1.152-.98-.713-.976.71.373-1.147zm4.153 0h1.215l.373-1.146.373 1.146h1.212l-.98.711.374 1.152-.98-.713-.976.71.373-1.147zm-8.306 3.885h1.214l.374-1.146.373 1.146h1.212l-.981.711.375 1.152-.98-.713-.977.71.374-1.147zm4.153 0H13l.373-1.146.373 1.146h1.212l-.981.711.375 1.152-.98-.713-.976.71.373-1.147z" clip-rule="evenodd"/><path fill="#f0ece7" fill-rule="evenodd" d="M11.785 13.742H13l.373-1.145.373 1.145h1.212l-.981.712.375 1.152-.98-.713-.976.71.373-1.148zm-4.153 3.841h1.214l.374-1.146.373 1.146h1.212l-.981.712.375 1.151-.98-.713-.977.71.374-1.147zm4.153 0H13l.373-1.146.373 1.146h1.212l-.981.712.375 1.151-.98-.713-.976.71.373-1.147z" clip-rule="evenodd"/><path fill="#f0ece7" fill-rule="evenodd" d="M11.785 17.584H13l.373-1.146.373 1.146h1.212l-.981.71.375 1.153-.98-.713-.976.71.373-1.148zm27.744 2.933V35.61c0 3.26-1.741 4.198-4.913 4.198-6.162.045-9.243 2.188-10.717 3.572-1.474-1.384-4.555-3.527-10.718-3.572-3.17 0-4.913-.938-4.913-4.198V20.517zm.637-10.66h-1.214l-.374-1.145-.373 1.146h-1.211l.98.711-.375 1.152.981-.713.976.71-.374-1.147zm-4.153 0h-1.215l-.373-1.145-.373 1.146H32.84l.98.711-.374 1.152.98-.713.977.71-.374-1.147z" clip-rule="evenodd"/><path fill="#f0ece7" fill-rule="evenodd" d="M36.013 9.858h-1.215l-.373-1.146-.373 1.146H32.84l.98.711-.374 1.152.98-.713.977.71-.374-1.147zm4.153 3.885h-1.214l-.374-1.146-.373 1.146h-1.211l.98.711-.375 1.152.981-.713.976.71-.374-1.147zm-4.153 0h-1.215l-.373-1.146-.373 1.146H32.84l.98.711-.374 1.152.98-.713.977.71-.374-1.147z" clip-rule="evenodd"/><path fill="#f0ece7" fill-rule="evenodd" d="M36.013 13.742h-1.215l-.373-1.145-.373 1.145H32.84l.98.712-.374 1.152.98-.713.977.71-.374-1.148zm4.153 3.841h-1.214l-.374-1.146-.373 1.146h-1.211l.98.712-.375 1.151.981-.713.976.71-.374-1.147zm-4.153 0h-1.215l-.373-1.146-.373 1.146H32.84l.98.712-.374 1.151.98-.713.977.71-.374-1.147z" clip-rule="evenodd"/><path fill="#f0ece7" fill-rule="evenodd" d="M36.013 17.583h-1.214l-.374-1.145-.373 1.145H32.84l.98.712-.374 1.152.98-.713.977.71-.374-1.148zm-4.153 0h-1.215l-.373-1.145-.374 1.145h-1.21l.98.712-.375 1.152.98-.713.977.71-.374-1.148zM22.414 6.017h1.214l.374-1.146.373 1.146h1.211l-.98.711.374 1.152-.98-.713-.976.71.373-1.147z" clip-rule="evenodd"/><path fill="#000" fill-opacity=".35" fill-rule="evenodd" d="M21.264 37.085c0 .29 0 .982-.446 1.205-.447.224-.536.514-.492.692.045.179.246.38.603.492.358.112 1.027.335 3.015 1.786.357.223.714.09.826-.045.111-.133.156-.513-.134-.848-.316-.365-.648-.938-.648-1.786v-8.33h2.032c.492 0 .983.135 1.14.983.133.558.915.648.915.045v-4.488c0-.491-.871-.447-.983.045-.111.491-.134 1.362-.804 1.362h-2.3v-4.51h2.501c.38 0 .76.133.983.446.223.312.915 1.139 1.384.938.223-.09.335-.313.223-.737l-1.05-2.836h-7.211c-.447 0-.67.156-.715.357s.09.581.402.737.76.47.76 1.184z" clip-rule="evenodd"/><path fill="#000" fill-opacity=".35" fill-rule="evenodd" d="M30.24 35.187c0 .312 0 1.072-.446 1.429-.447.357-1.541 1.384-1.072 2.01.179.245.67.178 1.295-.045.626-.223 2.456-.29 3.126-.268s3.84.602 5.091-3.149c.826-2.59-.335-5.65-2.657-5.694-1.317-.022-1.965.648-2.077 1.608s.67 2.39 2.345 2.121c.47-.089.58.067.58.447s-.133 2.68-2.322 2.68c-.357 0-.893.022-1.139.022V24.09c0-.58.693-1.384 1.162-1.697.357-.223.335-.893-.09-.893h-4.778c-.313 0-.625.357-.178.826.446.47 1.16.826 1.16 1.854zm8.673 7.599h1.354v.2h-.564v1.467h-.226v-1.468h-.564zm2.935 1.667v-.985c0-.048.005-.26.005-.415h-.005l-.469 1.4h-.223l-.469-1.397h-.005c0 .153.005.364.005.413v.984h-.218v-1.667h.323l.476 1.41h.004l.474-1.41h.32v1.667zM9.72 21.5c-.335 0-.67.156-.737.447-.056.243 0 .625.358.781.357.157.893.47.893 1.295v9.959c0 .38-.045.915-.558.849-.514-.068-.648.178-.67.334s.067 1.206 1.54 2.166c.492.313 1.876 1.229 2.434.782.268-.201-.022-1.161-.29-1.474a1.8 1.8 0 0 1-.446-1.228v-7.815l3.84 10.026c.268.67 1.117 1.317 1.742 1.116s.715-.692.715-1.095V23.777c0-.402.022-.76.803-1.184.402-.178.559-1.094-.156-1.094h-3.996c-.47 0-.782.58-.335.938.446.357 1.362.804 1.362 1.54v6.454l-2.993-7.793c-.246-.603-.67-1.139-1.14-1.139z" clip-rule="evenodd"/><path fill="#f0ece7" fill-rule="evenodd" d="m20.862 15.292.223.536-3.148 1.272c1.25 1.675 4.98 2.01 7.614.625 2.53-1.329 4.22-3.014 4.555-5.515l-3.126 1.24-.201-.514 3.082-1.261c-.425-.67-3.685-2.233-7.436-.693-3.439 1.229-4.8 4.31-4.734 5.583z" clip-rule="evenodd"/><path fill="#000" fill-opacity=".35" fill-rule="evenodd" d="M21.817 15.859a.193.193 0 0 0 .106-.251l-.284-.705a.193.193 0 0 0-.252-.106l-.043.01a.193.193 0 0 0-.106.252l.285.704a.193.193 0 0 0 .25.107zm.68-.268a.19.19 0 0 0 .122-.177.2.2 0 0 0-.014-.074l-.285-.704a.193.193 0 0 0-.251-.107l-.044.01a.193.193 0 0 0-.106.252l.285.704a.193.193 0 0 0 .25.107zm.682-.268a.193.193 0 0 0 .107-.251L23 14.368a.193.193 0 0 0-.252-.107l-.043.01a.194.194 0 0 0-.106.252l.285.704a.193.193 0 0 0 .25.107zm.68-.268a.193.193 0 0 0 .107-.251l-.284-.704a.193.193 0 0 0-.251-.107l-.043.01a.193.193 0 0 0-.107.252l.285.704a.193.193 0 0 0 .251.107zm.682-.268a.2.2 0 0 0 .105-.103.2.2 0 0 0 .002-.148l-.285-.705a.193.193 0 0 0-.251-.106l-.043.01a.19.19 0 0 0-.121.178q0 .038.014.074l.285.704a.193.193 0 0 0 .251.107zm.68-.268a.193.193 0 0 0 .107-.251l-.285-.705a.193.193 0 0 0-.25-.106l-.044.01a.193.193 0 0 0-.107.252l.286.704a.2.2 0 0 0 .103.105.2.2 0 0 0 .148.002zm.682-.268A.193.193 0 0 0 26.01 14l-.285-.704a.194.194 0 0 0-.252-.107l-.042.01a.2.2 0 0 0-.122.178q0 .038.014.074l.286.704a.193.193 0 0 0 .25.107zm.68-.268a.19.19 0 0 0 .107-.251l-.284-.704a.193.193 0 0 0-.251-.107l-.044.01a.193.193 0 0 0-.106.252l.285.704a.19.19 0 0 0 .177.121q.038 0 .074-.014z" clip-rule="evenodd"/><path fill="#f0ece7" fill-rule="evenodd" d="m30.068 11.145.205-.137.976.71-.373-1.147.984-.713h-1.215l-.373-1.146-.374 1.146h-1.21l.98.711-.063.251c.152.094.314.216.463.325M25.73 9.841l.389-1.129.407 1.157a9 9 0 0 0-.796-.028m-4.846 1.328.191-.598-.984-.713h1.215l.373-1.146.374 1.146h1.21l-.957.667a9 9 0 0 0-1.422.643m-2.735 2.585-.25-.011-.373-1.146-.373 1.146h-1.215l.984.713-.373 1.147 1.01-.699a7 7 0 0 1 .59-1.15m.18 4.402-.199.139.375 1.152-.98-.713-.976.71.373-1.147-.984-.713h1.214l.137-.483c.224.535.626.78 1.04 1.055m4.218.869.111.422-.564-.393c.12-.008.334-.017.453-.03m-1.272.033-.573.386.138-.427c.149.014.286.036.435.04m4.235-.793.005.03-.375 1.152.98-.713.976.71-.373-1.147.983-.713-.992-.007c-.02.012-.105.08-.124.093a8 8 0 0 1-1.08.595m4.894-5.257.242.735h1.214l-.984.713.374 1.147-.977-.71-.98.713.121-.415c.536-.826.882-1.563.99-2.183" clip-rule="evenodd"/></svg>