<svg xmlns="http://www.w3.org/2000/svg" width="186" height="47" fill="none" viewBox="0 0 186 47"><path fill="#000" d="M111.907 9.644c-3.769 0-6.459 1.287-7.779 3.725l-.71 1.32v-4.41h-6.132v26.806h6.45V21.136c0-3.81 2.071-5.995 5.678-5.995 3.44 0 5.413 2.128 5.413 5.837v16.105h6.453V19.828c0-6.382-3.503-10.184-9.373-10.184m-31.282 0c-7.612 0-12.326 4.75-12.326 12.394v3.764c0 7.352 4.768 11.917 12.446 11.917 5.135 0 8.735-1.881 11-5.751l-3.999-2.302c-1.673 2.233-4.347 3.616-6.998 3.616-3.887 0-6.207-2.399-6.207-6.42v-1.065h18.004V21.35c0-7.121-4.676-11.707-11.915-11.707zm6.05 11.819H74.518v-.643c0-4.413 2.166-6.848 6.1-6.848 3.788 0 6.05 2.399 6.05 6.42zM185.34 5.867V.74h-22.312v5.127h7.823v26.079h-7.823v5.127h22.312v-5.128h-7.825V5.868zM16.16 0C6.195 0 0 6.21 0 16.21v5.406c0 9.998 6.193 16.21 16.16 16.21s16.16-6.212 16.16-16.21V16.21C32.319 6.2 26.117 0 16.16 0m9.494 21.986c0 6.64-3.46 10.446-9.494 10.446s-9.491-3.807-9.491-10.446v-6.149c0-6.64 3.463-10.446 9.494-10.446 6.032 0 9.493 3.806 9.493 10.446zM52.582 9.643c-3.386 0-6.317 1.403-7.846 3.75l-.692 1.068V10.28h-6.135v36.028h6.453v-13.05l.69 1.025c1.452 2.153 4.287 3.437 7.584 3.437 5.563 0 11.176-3.635 11.176-11.759v-4.558c0-5.853-3.46-11.759-11.23-11.759m4.776 16.002c0 4.32-2.52 7.004-6.573 7.004-3.78 0-6.418-2.838-6.418-6.897V21.72c0-4.108 2.66-7.001 6.473-7.001 4.023 0 6.523 2.682 6.523 7.001zM139.112.742l-13.019 36.342h6.555l2.492-7.79h14.966l.025.077 2.465 7.713h6.552L146.107.739zM136.74 24.17l5.872-18.374 5.813 18.374z"/></svg>