<svg xmlns="http://www.w3.org/2000/svg" width="143" height="162" fill="none" viewBox="0 0 143 162"><g filter="url(#a)" opacity=".08"><path fill="url(#b)" d="M93.856 41.574c-7.825 3.928-13.204 10.763-15.504 18.67-.978 3.344-3.302 7.902-6.091 12.274-1.768-8.18-.428-20.267 1.664-26.324a31.5 31.5 0 0 0 1.632-12.462 31.8 31.8 0 0 0-3.364-12.158C64.443 6.134 46.025-.312 30.911 7.069c-14.95 7.708-20.792 26.32-13.038 41.768 4.024 8.017 10.871 13.615 18.706 16.1 6.116 1.939 16.6 8.092 22.102 14.397-5.177-.385-10.216-1.237-13.482-2.451a30.4 30.4 0 0 0-12.275-1.902 30 30 0 0 0-11.959 3.178C5.798 85.77-.185 104.528 7.621 120.08s26.412 21.968 41.588 14.352c7.834-3.932 13.152-10.866 15.453-18.773 1.027-3.52 3.454-8.486 6.425-13.089 9.566 20.053 7.53 39.328.887 49.845l2.547 5.075 50.925-25.56-2.547-5.075c-12.407-.966-29.078-10.852-39.437-30.496 5.474.365 10.907 1.386 14.335 2.67a30.4 30.4 0 0 0 12.291 1.964 30.05 30.05 0 0 0 11.995-3.137c15.167-7.613 21.145-26.378 13.344-41.922s-26.412-21.968-41.588-14.351z"/><path stroke="#c02d2d" stroke-width=".687" d="M31.065 7.377C46.002.084 64.219 6.45 71.887 21.727v.001a31.5 31.5 0 0 1 3.262 11.245l.065.783a31.2 31.2 0 0 1-1.368 11.583l-.246.743c-1.058 3.065-1.92 7.632-2.297 12.451s-.27 9.924.623 14.058l.175.816.45-.705c2.621-4.108 4.845-8.4 5.93-11.713l.2-.649C80.955 52.522 86.27 45.77 94 41.885c14.998-7.522 33.4-1.176 41.118 14.202 7.72 15.38 1.8 33.936-13.191 41.46a29.7 29.7 0 0 1-11.857 3.102 30 30 0 0 1-11.42-1.674l-.731-.268-.003-.001-.673-.24c-3.48-1.185-8.609-2.107-13.76-2.45l-.613-.042.288.544c10.35 19.627 26.995 29.596 39.519 30.661l2.307 4.597-50.312 25.252-2.306-4.596c6.634-10.67 8.586-29.975-.97-50.01l-.265-.556-.334.517c-2.794 4.331-5.118 8.993-6.255 12.494l-.211.686c-2.276 7.822-7.535 14.675-15.277 18.561-15 7.528-33.403 1.19-41.127-14.199-7.603-15.149-1.982-33.358 12.495-41.1l.697-.36a29.7 29.7 0 0 1 11.822-3.142 30 30 0 0 1 11.406 1.617l.73.263.001.001c3.311 1.231 8.388 2.086 13.576 2.472l.835.061-.55-.63c-2.78-3.187-6.808-6.322-10.897-8.901-3.833-2.417-7.744-4.36-10.768-5.4l-.592-.196c-7.748-2.458-14.521-7.995-18.503-15.928-7.672-15.286-1.888-33.687 12.885-41.306Z"/></g><defs><linearGradient id="b" x1="26.004" x2="1.427" y1="-10.76" y2="135.352" gradientUnits="userSpaceOnUse"><stop stop-color="#7b0f0f"/><stop offset=".98" stop-color="#7b0f0f" stop-opacity=".02"/></linearGradient><filter id="a" width="141.939" height="160.756" x=".554" y=".375" color-interpolation-filters="sRGB" filterUnits="userSpaceOnUse"><feFlood flood-opacity="0" result="BackgroundImageFix"/><feBlend in="SourceGraphic" in2="BackgroundImageFix" result="shape"/><feGaussianBlur result="effect1_foregroundBlur_403_2449" stdDeviation="1.82"/></filter></defs></svg>