<svg xmlns="http://www.w3.org/2000/svg" width="51" height="72" fill="none" viewBox="0 0 51 72"><g opacity=".08"><mask id="b" fill="#fff"><path d="M50.512 36 25.256 72 0 36 25.256 0"/></mask><path fill="url(#a)" d="M50.512 36 25.256 72 0 36 25.256 0"/><path fill="#c02d2d" d="m25.256 72-.819.574.819 1.167.818-1.167zM0 36l-.819-.574-.403.574.403.574zm50.512 0-.819-.574-25.256 36 .819.574.818.574 25.256-36zM25.256 72l.818-.574-25.255-36L0 36l-.819.574 25.256 36zM0 36l.819.574 25.255-36L25.256 0l-.819-.574-25.256 36z" mask="url(#b)"/></g><defs><linearGradient id="a" x1="26.535" x2="-16.365" y1="-8.479" y2="35.805" gradientUnits="userSpaceOnUse"><stop stop-color="#7b0f0f"/><stop offset=".98" stop-color="#7b0f0f" stop-opacity=".02"/></linearGradient></defs></svg>