<svg xmlns="http://www.w3.org/2000/svg" width="538" height="383" fill="none" viewBox="0 0 538 383"><g filter="url(#a)"><rect width="140" height="140" x="2" y="241" fill="url(#b)" rx="10"/></g><rect width="142" height="142" x="1" y="240" stroke="#d3cdc7" stroke-width="2" rx="11"/><g filter="url(#c)"><rect width="140" height="140" x="2" y="241" fill="url(#d)" rx="10"/></g><rect width="139" height="139" x="2.5" y="241.5" stroke="#fff" rx="9.5"/><path fill="#d3cdc7" d="M103 247v8h34v-2a6 6 0 0 0-6-6z"/><path fill="#d3cdc7" fill-opacity=".48" d="M17 247v8h82v-8z"/><g filter="url(#e)"><rect width="140" height="140" x="396" y="2" fill="url(#f)" rx="10"/></g><rect width="142" height="142" x="395" y="1" stroke="#d3cdc7" stroke-width="2" rx="11"/><g filter="url(#g)"><rect width="140" height="140" x="396" y="2" fill="url(#h)" rx="10"/></g><rect width="139" height="139" x="396.5" y="2.5" stroke="#fff" rx="9.5"/><g filter="url(#i)"><rect width="210" height="210" x="164" y="76" fill="url(#j)" rx="10"/></g><rect width="212" height="212" x="163" y="75" stroke="#d3cdc7" stroke-width="2" rx="11"/><g filter="url(#k)"><rect width="210" height="210" x="164" y="76" fill="url(#l)" rx="10"/></g><rect width="209" height="209" x="164.5" y="76.5" stroke="#fff" rx="9.5"/><g filter="url(#m)"><rect width="186" height="186" x="176" y="88" fill="url(#n)" rx="10"/></g><rect width="187" height="187" x="175.5" y="87.5" stroke="#d3cdc7" rx="10.5"/><g filter="url(#o)"><rect width="186" height="186" x="176" y="88" fill="url(#p)" rx="10"/></g><rect width="185" height="185" x="176.5" y="88.5" stroke="#fff" rx="9.5"/><g filter="url(#q)"><path fill="url(#r)" d="M308.844 167.86h-29.21l22.907-41.65c1.289-2.343-.406-5.21-3.08-5.21h-42.185a3.52 3.52 0 0 0-3.311 2.333l-23.432 65.61c-.818 2.29.88 4.698 3.311 4.698h33.22l-8.544 43.146c-.736 3.718 4.123 5.809 6.316 2.716l46.875-66.093c1.652-2.329-.013-5.55-2.867-5.55"/></g><path stroke="#d3cdc7" stroke-width="2" d="M299.461 120c3.327 0 5.474 3.456 4.101 6.408l-.144.283-22.094 40.169h27.52c3.551 0 5.669 3.883 3.87 6.844l-.187.284-46.875 66.094c-2.816 3.972-9.058 1.287-8.113-3.489l8.308-41.951h-32.003c-3.123 0-5.303-3.094-4.253-6.035l23.432-65.61.133-.33a4.51 4.51 0 0 1 4.12-2.667z"/><g filter="url(#s)"><path fill="url(#t)" d="M308.844 167.86h-29.21l22.907-41.65c1.289-2.343-.406-5.21-3.08-5.21h-42.185a3.52 3.52 0 0 0-3.311 2.333l-23.432 65.61c-.818 2.29.88 4.698 3.311 4.698h33.22l-8.544 43.146c-.736 3.718 4.123 5.809 6.316 2.716l46.875-66.093c1.652-2.329-.013-5.55-2.867-5.55"/></g><path stroke="#fff" d="M257.276 121.5h42.185c2.222 0 3.655 2.308 2.738 4.279l-.095.19-22.909 41.65-.407.741h30.056c2.371 0 3.785 2.593 2.584 4.571l-.124.189-46.875 66.094c-1.823 2.569-5.792.967-5.464-2.035l.046-.295 8.543-43.146.118-.596h-33.828c-2.02 0-3.45-1.939-2.9-3.846l.06-.185 23.433-65.61a3.01 3.01 0 0 1 2.839-2.001Z"/><path fill="url(#u)" d="M233.446 187.984 250 142l-3.5 41 18.5 9h-28.732c-2.077 0-3.526-2.061-2.822-4.016"/><path fill="#f3ebe0" d="M309.124 174.599 283.5 209.5l15-31.5-18.5-9 26.798.825c2.415.074 3.756 2.826 2.326 4.774"/><path fill="#fff" d="M335.531 147.095c.298 1.173.994.885 1.553-.643l8.414-22.963c.559-1.528.771-3.717.473-4.89s-.994-.885-1.554.642l-8.413 22.964c-.56 1.528-.772 3.717-.473 4.89m-141.33 113.209c.207 1.193.923.959 1.598-.521l10.153-22.249c.675-1.48 1.055-3.647.847-4.839s-.923-.959-1.598.521l-10.153 22.249c-.675 1.48-1.055 3.647-.847 4.839"/><path fill="#d3cdc7" d="M335.573 264.695c.207 1.192.923.959 1.598-.521l10.153-22.249c.675-1.48 1.055-3.647.847-4.839v-.001c-.207-1.192-.923-.958-1.598.522l-10.153 22.248c-.675 1.481-1.055 3.647-.847 4.84"/><path stroke="url(#v)" stroke-width="4" d="M269 74.5V50c0-6.627 5.373-12 12-12h111.5"/><path stroke="url(#w)" stroke-width="4" d="M98.5 239v-58.5c0-6.627 5.373-12 12-12H162"/><path fill="#fff" d="M404 21a8 8 0 0 1 8-8h8v120h-8a8 8 0 0 1-8-8z"/><path fill="#d3cdc7" d="M485 99h-8v34h8z"/><path fill="#d3cdc7" fill-opacity=".48" d="M485 13h-8v82h8z"/><defs><linearGradient id="b" x1="12.208" x2="120.498" y1="325" y2="259.869" gradientUnits="userSpaceOnUse"><stop stop-color="#ede8e1"/><stop offset=".598" stop-color="#f8f6f3"/><stop offset="1" stop-color="#ede8e1"/></linearGradient><linearGradient id="d" x1="12.208" x2="120.498" y1="325" y2="259.869" gradientUnits="userSpaceOnUse"><stop stop-color="#ede8e1"/><stop offset=".598" stop-color="#f8f6f3"/><stop offset="1" stop-color="#ede8e1"/></linearGradient><linearGradient id="f" x1="406.208" x2="514.498" y1="86" y2="20.869" gradientUnits="userSpaceOnUse"><stop stop-color="#ede8e1"/><stop offset=".598" stop-color="#f8f6f3"/><stop offset="1" stop-color="#ede8e1"/></linearGradient><linearGradient id="h" x1="406.208" x2="514.498" y1="86" y2="20.869" gradientUnits="userSpaceOnUse"><stop stop-color="#ede8e1"/><stop offset=".598" stop-color="#f8f6f3"/><stop offset="1" stop-color="#ede8e1"/></linearGradient><linearGradient id="j" x1="179.312" x2="341.746" y1="202" y2="104.303" gradientUnits="userSpaceOnUse"><stop stop-color="#ede8e1"/><stop offset=".598" stop-color="#f8f6f3"/><stop offset="1" stop-color="#ede8e1"/></linearGradient><linearGradient id="l" x1="179.312" x2="341.746" y1="202" y2="104.303" gradientUnits="userSpaceOnUse"><stop stop-color="#ede8e1"/><stop offset=".598" stop-color="#f8f6f3"/><stop offset="1" stop-color="#ede8e1"/></linearGradient><linearGradient id="n" x1="189.562" x2="333.432" y1="199.6" y2="113.069" gradientUnits="userSpaceOnUse"><stop stop-color="#ede8e1"/><stop offset=".598" stop-color="#f8f6f3"/><stop offset="1" stop-color="#ede8e1"/></linearGradient><linearGradient id="p" x1="189.562" x2="333.432" y1="199.6" y2="113.069" gradientUnits="userSpaceOnUse"><stop stop-color="#ede8e1"/><stop offset=".598" stop-color="#f8f6f3"/><stop offset="1" stop-color="#ede8e1"/></linearGradient><linearGradient id="r" x1="236.307" x2="310.223" y1="193" y2="162.606" gradientUnits="userSpaceOnUse"><stop stop-color="#ede8e1"/><stop offset=".598" stop-color="#f8f6f3"/><stop offset="1" stop-color="#ede8e1"/></linearGradient><linearGradient id="t" x1="236.307" x2="310.223" y1="193" y2="162.606" gradientUnits="userSpaceOnUse"><stop stop-color="#89f801"/><stop offset=".598" stop-color="#f8f6f3"/><stop offset="1" stop-color="#89f801"/></linearGradient><linearGradient id="u" x1="248.5" x2="248.5" y1="142" y2="192" gradientUnits="userSpaceOnUse"><stop stop-color="#89f801"/><stop offset=".207" stop-color="#ccf897"/><stop offset="1" stop-color="#89f801"/></linearGradient><linearGradient id="v" x1="368.402" x2="309.381" y1="37.201" y2="51.551" gradientUnits="userSpaceOnUse"><stop stop-color="#f2dbc4"/><stop offset="1" stop-color="#6d6a67" stop-opacity=".09"/></linearGradient><linearGradient id="w" x1="148" x2="117" y1="167" y2="169" gradientUnits="userSpaceOnUse"><stop stop-color="#f2dbc4"/><stop offset="1" stop-color="#6d6a67" stop-opacity=".09"/></linearGradient><filter id="a" width="148" height="160" x="0" y="239" color-interpolation-filters="sRGB" filterUnits="userSpaceOnUse"><feFlood flood-opacity="0" result="BackgroundImageFix"/><feBlend in="SourceGraphic" in2="BackgroundImageFix" result="shape"/><feColorMatrix in="SourceAlpha" result="hardAlpha" values="0 0 0 0 0 0 0 0 0 0 0 0 0 0 0 0 0 0 127 0"/><feOffset dx="4" dy="16"/><feGaussianBlur stdDeviation="8"/><feComposite in2="hardAlpha" k2="-1" k3="1" operator="arithmetic"/><feColorMatrix values="0 0 0 0 1 0 0 0 0 1 0 0 0 0 1 0 0 0 0.6 0"/><feBlend in2="shape" result="effect1_innerShadow_0_1"/><feColorMatrix in="SourceAlpha" result="hardAlpha" values="0 0 0 0 0 0 0 0 0 0 0 0 0 0 0 0 0 0 127 0"/><feOffset dy="2"/><feGaussianBlur stdDeviation="1"/><feComposite in2="hardAlpha" k2="-1" k3="1" operator="arithmetic"/><feColorMatrix values="0 0 0 0 1 0 0 0 0 1 0 0 0 0 1 0 0 0 1 0"/><feBlend in2="effect1_innerShadow_0_1" result="effect2_innerShadow_0_1"/></filter><filter id="c" width="144" height="156" x="2" y="241" color-interpolation-filters="sRGB" filterUnits="userSpaceOnUse"><feFlood flood-opacity="0" result="BackgroundImageFix"/><feBlend in="SourceGraphic" in2="BackgroundImageFix" result="shape"/><feColorMatrix in="SourceAlpha" result="hardAlpha" values="0 0 0 0 0 0 0 0 0 0 0 0 0 0 0 0 0 0 127 0"/><feOffset dx="4" dy="16"/><feGaussianBlur stdDeviation="8"/><feComposite in2="hardAlpha" k2="-1" k3="1" operator="arithmetic"/><feColorMatrix values="0 0 0 0 1 0 0 0 0 1 0 0 0 0 1 0 0 0 0.6 0"/><feBlend in2="shape" result="effect1_innerShadow_0_1"/><feColorMatrix in="SourceAlpha" result="hardAlpha" values="0 0 0 0 0 0 0 0 0 0 0 0 0 0 0 0 0 0 127 0"/><feOffset dy="2"/><feGaussianBlur stdDeviation="1"/><feComposite in2="hardAlpha" k2="-1" k3="1" operator="arithmetic"/><feColorMatrix values="0 0 0 0 1 0 0 0 0 1 0 0 0 0 1 0 0 0 1 0"/><feBlend in2="effect1_innerShadow_0_1" result="effect2_innerShadow_0_1"/></filter><filter id="e" width="148" height="160" x="394" y="0" color-interpolation-filters="sRGB" filterUnits="userSpaceOnUse"><feFlood flood-opacity="0" result="BackgroundImageFix"/><feBlend in="SourceGraphic" in2="BackgroundImageFix" result="shape"/><feColorMatrix in="SourceAlpha" result="hardAlpha" values="0 0 0 0 0 0 0 0 0 0 0 0 0 0 0 0 0 0 127 0"/><feOffset dx="4" dy="16"/><feGaussianBlur stdDeviation="8"/><feComposite in2="hardAlpha" k2="-1" k3="1" operator="arithmetic"/><feColorMatrix values="0 0 0 0 1 0 0 0 0 1 0 0 0 0 1 0 0 0 0.6 0"/><feBlend in2="shape" result="effect1_innerShadow_0_1"/><feColorMatrix in="SourceAlpha" result="hardAlpha" values="0 0 0 0 0 0 0 0 0 0 0 0 0 0 0 0 0 0 127 0"/><feOffset dy="2"/><feGaussianBlur stdDeviation="1"/><feComposite in2="hardAlpha" k2="-1" k3="1" operator="arithmetic"/><feColorMatrix values="0 0 0 0 1 0 0 0 0 1 0 0 0 0 1 0 0 0 1 0"/><feBlend in2="effect1_innerShadow_0_1" result="effect2_innerShadow_0_1"/></filter><filter id="g" width="144" height="156" x="396" y="2" color-interpolation-filters="sRGB" filterUnits="userSpaceOnUse"><feFlood flood-opacity="0" result="BackgroundImageFix"/><feBlend in="SourceGraphic" in2="BackgroundImageFix" result="shape"/><feColorMatrix in="SourceAlpha" result="hardAlpha" values="0 0 0 0 0 0 0 0 0 0 0 0 0 0 0 0 0 0 127 0"/><feOffset dx="4" dy="16"/><feGaussianBlur stdDeviation="8"/><feComposite in2="hardAlpha" k2="-1" k3="1" operator="arithmetic"/><feColorMatrix values="0 0 0 0 1 0 0 0 0 1 0 0 0 0 1 0 0 0 0.6 0"/><feBlend in2="shape" result="effect1_innerShadow_0_1"/><feColorMatrix in="SourceAlpha" result="hardAlpha" values="0 0 0 0 0 0 0 0 0 0 0 0 0 0 0 0 0 0 127 0"/><feOffset dy="2"/><feGaussianBlur stdDeviation="1"/><feComposite in2="hardAlpha" k2="-1" k3="1" operator="arithmetic"/><feColorMatrix values="0 0 0 0 1 0 0 0 0 1 0 0 0 0 1 0 0 0 1 0"/><feBlend in2="effect1_innerShadow_0_1" result="effect2_innerShadow_0_1"/></filter><filter id="i" width="218" height="230" x="162" y="74" color-interpolation-filters="sRGB" filterUnits="userSpaceOnUse"><feFlood flood-opacity="0" result="BackgroundImageFix"/><feBlend in="SourceGraphic" in2="BackgroundImageFix" result="shape"/><feColorMatrix in="SourceAlpha" result="hardAlpha" values="0 0 0 0 0 0 0 0 0 0 0 0 0 0 0 0 0 0 127 0"/><feOffset dx="4" dy="16"/><feGaussianBlur stdDeviation="8"/><feComposite in2="hardAlpha" k2="-1" k3="1" operator="arithmetic"/><feColorMatrix values="0 0 0 0 1 0 0 0 0 1 0 0 0 0 1 0 0 0 0.6 0"/><feBlend in2="shape" result="effect1_innerShadow_0_1"/><feColorMatrix in="SourceAlpha" result="hardAlpha" values="0 0 0 0 0 0 0 0 0 0 0 0 0 0 0 0 0 0 127 0"/><feOffset dy="2"/><feGaussianBlur stdDeviation="1"/><feComposite in2="hardAlpha" k2="-1" k3="1" operator="arithmetic"/><feColorMatrix values="0 0 0 0 1 0 0 0 0 1 0 0 0 0 1 0 0 0 1 0"/><feBlend in2="effect1_innerShadow_0_1" result="effect2_innerShadow_0_1"/></filter><filter id="k" width="214" height="226" x="164" y="76" color-interpolation-filters="sRGB" filterUnits="userSpaceOnUse"><feFlood flood-opacity="0" result="BackgroundImageFix"/><feBlend in="SourceGraphic" in2="BackgroundImageFix" result="shape"/><feColorMatrix in="SourceAlpha" result="hardAlpha" values="0 0 0 0 0 0 0 0 0 0 0 0 0 0 0 0 0 0 127 0"/><feOffset dx="4" dy="16"/><feGaussianBlur stdDeviation="8"/><feComposite in2="hardAlpha" k2="-1" k3="1" operator="arithmetic"/><feColorMatrix values="0 0 0 0 1 0 0 0 0 1 0 0 0 0 1 0 0 0 0.6 0"/><feBlend in2="shape" result="effect1_innerShadow_0_1"/><feColorMatrix in="SourceAlpha" result="hardAlpha" values="0 0 0 0 0 0 0 0 0 0 0 0 0 0 0 0 0 0 127 0"/><feOffset dy="2"/><feGaussianBlur stdDeviation="1"/><feComposite in2="hardAlpha" k2="-1" k3="1" operator="arithmetic"/><feColorMatrix values="0 0 0 0 1 0 0 0 0 1 0 0 0 0 1 0 0 0 1 0"/><feBlend in2="effect1_innerShadow_0_1" result="effect2_innerShadow_0_1"/></filter><filter id="m" width="192" height="204" x="175" y="87" color-interpolation-filters="sRGB" filterUnits="userSpaceOnUse"><feFlood flood-opacity="0" result="BackgroundImageFix"/><feBlend in="SourceGraphic" in2="BackgroundImageFix" result="shape"/><feColorMatrix in="SourceAlpha" result="hardAlpha" values="0 0 0 0 0 0 0 0 0 0 0 0 0 0 0 0 0 0 127 0"/><feOffset dx="4" dy="16"/><feGaussianBlur stdDeviation="8"/><feComposite in2="hardAlpha" k2="-1" k3="1" operator="arithmetic"/><feColorMatrix values="0 0 0 0 1 0 0 0 0 1 0 0 0 0 1 0 0 0 0.6 0"/><feBlend in2="shape" result="effect1_innerShadow_0_1"/><feColorMatrix in="SourceAlpha" result="hardAlpha" values="0 0 0 0 0 0 0 0 0 0 0 0 0 0 0 0 0 0 127 0"/><feOffset dy="2"/><feGaussianBlur stdDeviation="1"/><feComposite in2="hardAlpha" k2="-1" k3="1" operator="arithmetic"/><feColorMatrix values="0 0 0 0 1 0 0 0 0 1 0 0 0 0 1 0 0 0 1 0"/><feBlend in2="effect1_innerShadow_0_1" result="effect2_innerShadow_0_1"/></filter><filter id="o" width="190" height="202" x="176" y="88" color-interpolation-filters="sRGB" filterUnits="userSpaceOnUse"><feFlood flood-opacity="0" result="BackgroundImageFix"/><feBlend in="SourceGraphic" in2="BackgroundImageFix" result="shape"/><feColorMatrix in="SourceAlpha" result="hardAlpha" values="0 0 0 0 0 0 0 0 0 0 0 0 0 0 0 0 0 0 127 0"/><feOffset dx="4" dy="16"/><feGaussianBlur stdDeviation="8"/><feComposite in2="hardAlpha" k2="-1" k3="1" operator="arithmetic"/><feColorMatrix values="0 0 0 0 1 0 0 0 0 1 0 0 0 0 1 0 0 0 0.6 0"/><feBlend in2="shape" result="effect1_innerShadow_0_1"/><feColorMatrix in="SourceAlpha" result="hardAlpha" values="0 0 0 0 0 0 0 0 0 0 0 0 0 0 0 0 0 0 127 0"/><feOffset dy="2"/><feGaussianBlur stdDeviation="1"/><feComposite in2="hardAlpha" k2="-1" k3="1" operator="arithmetic"/><feColorMatrix values="0 0 0 0 1 0 0 0 0 1 0 0 0 0 1 0 0 0 1 0"/><feBlend in2="effect1_innerShadow_0_1" result="effect2_innerShadow_0_1"/></filter><filter id="q" width="90.046" height="140.008" x="228.324" y="119" color-interpolation-filters="sRGB" filterUnits="userSpaceOnUse"><feFlood flood-opacity="0" result="BackgroundImageFix"/><feBlend in="SourceGraphic" in2="BackgroundImageFix" result="shape"/><feColorMatrix in="SourceAlpha" result="hardAlpha" values="0 0 0 0 0 0 0 0 0 0 0 0 0 0 0 0 0 0 127 0"/><feOffset dx="4" dy="16"/><feGaussianBlur stdDeviation="8"/><feComposite in2="hardAlpha" k2="-1" k3="1" operator="arithmetic"/><feColorMatrix values="0 0 0 0 1 0 0 0 0 1 0 0 0 0 1 0 0 0 0.6 0"/><feBlend in2="shape" result="effect1_innerShadow_0_1"/><feColorMatrix in="SourceAlpha" result="hardAlpha" values="0 0 0 0 0 0 0 0 0 0 0 0 0 0 0 0 0 0 127 0"/><feOffset dy="2"/><feGaussianBlur stdDeviation="1"/><feComposite in2="hardAlpha" k2="-1" k3="1" operator="arithmetic"/><feColorMatrix values="0 0 0 0 1 0 0 0 0 1 0 0 0 0 1 0 0 0 1 0"/><feBlend in2="effect1_innerShadow_0_1" result="effect2_innerShadow_0_1"/></filter><filter id="s" width="86.04" height="136" x="230.325" y="121" color-interpolation-filters="sRGB" filterUnits="userSpaceOnUse"><feFlood flood-opacity="0" result="BackgroundImageFix"/><feBlend in="SourceGraphic" in2="BackgroundImageFix" result="shape"/><feColorMatrix in="SourceAlpha" result="hardAlpha" values="0 0 0 0 0 0 0 0 0 0 0 0 0 0 0 0 0 0 127 0"/><feOffset dx="4" dy="16"/><feGaussianBlur stdDeviation="8"/><feComposite in2="hardAlpha" k2="-1" k3="1" operator="arithmetic"/><feColorMatrix values="0 0 0 0 1 0 0 0 0 1 0 0 0 0 1 0 0 0 0.6 0"/><feBlend in2="shape" result="effect1_innerShadow_0_1"/><feColorMatrix in="SourceAlpha" result="hardAlpha" values="0 0 0 0 0 0 0 0 0 0 0 0 0 0 0 0 0 0 127 0"/><feOffset dy="2"/><feGaussianBlur stdDeviation="1"/><feComposite in2="hardAlpha" k2="-1" k3="1" operator="arithmetic"/><feColorMatrix values="0 0 0 0 1 0 0 0 0 1 0 0 0 0 1 0 0 0 1 0"/><feBlend in2="effect1_innerShadow_0_1" result="effect2_innerShadow_0_1"/></filter></defs></svg>