<svg xmlns="http://www.w3.org/2000/svg" width="24" height="24" fill="none" viewBox="0 0 24 24"><g fill="#fff" clip-path="url(#a)"><path d="M7.592 16.086V9.57H6.086V7.9H9.67v8.186zm9.89-6.072c0 .712-.385 1.342-1.027 1.693.899.373 1.46 1.156 1.46 2.066 0 1.472-1.308 2.406-3.352 2.406s-3.351-.923-3.351-2.37c0-.935.607-1.729 1.553-2.102-.69-.386-1.133-1.04-1.133-1.752 0-1.308 1.145-2.137 2.92-2.137 1.798 0 2.93.853 2.93 2.196m-4.308 3.584c0 .69.49 1.075 1.389 1.075.9 0 1.401-.374 1.401-1.075 0-.677-.502-1.062-1.401-1.062-.9 0-1.39.385-1.39 1.062m.21-3.468c0 .584.42.911 1.179.911s1.18-.327 1.18-.91c0-.608-.421-.946-1.18-.946s-1.18.338-1.18.945"/><path d="M21.373 8.825c.345 1.02.52 2.087.52 3.175 0 5.455-4.437 9.894-9.893 9.894-5.455 0-9.894-4.439-9.894-9.894S6.545 2.106 12 2.106a9.9 9.9 0 0 1 3.175.521V.426A12 12 0 0 0 12 0C5.383 0 0 5.383 0 12s5.383 12 12 12 12-5.383 12-12c0-1.08-.143-2.144-.426-3.175z"/><path d="M20.774 3.219V.918h-1.655v2.3h-2.287v1.655h2.287v2.301h1.655v-2.3h2.3V3.218z"/></g><defs><clipPath id="a"><path fill="#fff" d="M0 0h24v24H0z"/></clipPath></defs></svg>