<svg xmlns="http://www.w3.org/2000/svg" width="48" height="48" fill="none" viewBox="0 0 48 48"><g clip-path="url(#a)"><path fill="#000" fill-opacity=".35" d="M23.982 0c13.203 0 23.982 10.779 23.982 24.018C48 37.291 37.185 48 23.842 48 10.745 48 0 37.185 0 23.982S10.745.036 23.982 0M13.063 3.055c-.21.107-.35.14-.457.21C10.464 4.6 8.533 6.182 6.918 8.113c-2.951 3.476-4.67 7.513-5.057 12.077-.28 3.16-.246 6.355.597 9.444a22.247 22.247 0 0 0 32.375 13.764c.14-.07.247-.14.457-.246-.14.667-.28 1.228-.42 1.861.246-.106.35-.14.49-.21 3.723-2.318 6.672-5.371 8.603-9.34 2.563-5.268 2.916-10.816 1.721-16.4C42.56 4.632 26.303-2.674 13.346 4.421c-.177.106-.387.21-.667.35.137-.628.244-1.118.384-1.716"/><path fill="#000" fill-opacity=".35" d="M28.899 37.008a35 35 0 0 1-.42-1.511c-1.195.49-2.283 1.054-3.443 1.404-2.108.631-4.18.49-6.181-.42-.42-.177-.527-.42-.457-.878.42-2.038.597-4.037.07-6.074-.036-.107-.07-.247-.107-.35 0-.037-.07-.071-.14-.211-1.054 1.544-2.178 2.985-3.686 4.18-1.194-2.6-1.194-5.268-.844-8.077-.737.21-1.404.42-2.178.631.28-2.458 1.194-4.53 2.633-6.495a17 17 0 0 0-1.298-.247c.913-1.861 2.178-3.37 3.896-4.67-.28 1.334-.21 2.459.948 3.266a12 12 0 0 1-.28-1.194 4 4 0 0 1 0-.914c.21-1.124 1.017-1.581 2.107-1.264.21.07.42.14.704.28-.317-.774-.844-1.088-1.475-1.37 0-.07 0-.107-.036-.177 1.018-.317 2.002-.704 3.055-.948.914-.21 1.896-.21 2.846-.316.913-.107 1.614.246 2.212.913.21.21.42.42.667.631.036-.036.106-.036.14-.07-.07-.35-.14-.667-.21-1.054.106 0 .21 0 .316.036 1.088.317 2.142.738 3.02 1.475.14.106.35.247.386.42.21.704.387 1.441.597 2.108-1.017-.703-2.071-1.44-3.195-2.211-.177.527-.28.913-.42 1.334-.808-.49-1.512-.947-2.249-1.334-.28-.14-.667-.21-.984-.14-1.228.21-2.388.667-3.442 1.544.176.14.35.247.63.457-.773.387-1.44.737-1.965 1.51.914-.14 1.018.458 1.298.985.457.913 1.265 1.37 2.282 1.404 1.228.037 2.459 0 3.723 0-.35-.387-.774-.773-1.158-1.194-.42-.49-.947-.667-1.58-.597-.878.07-1.722-.14-2.423-.704.984-1.157 1.895-1.194 3.863-.14.317-.176.63-.317.948-.49a.4.4 0 0 0 .07.14c-.42.877-.42.877.28 1.58.42.421.807.878 1.194 1.299.527-.107 1.054-.247 1.581-.247.527-.036 1.054.07 1.651.107-.773-.844-1.544-1.615-2.318-2.422.036-.07.106-.14.14-.21.28.176.56.316.878.49.35-.07.56-.774 1.053-.28.351.35.317.703-.036 1.157.28.317.597.597.914.984.07-.246.106-.35.177-.49h.106c2.529 3.582 3.266 7.445 1.825 11.762-.35-.387-.667-.703-1.054-1.088-.247 1.651-.667 3.09-1.475 4.39-.768 1.334-1.822 2.422-3.156 3.3m-3.9-14.432c.421.808.844 1.545 1.195 2.282.176.387.42.457.773.35 1.228-.316 2.178-1.087 3.16-1.86.036-.037.106-.107.106-.177 0-.527.07-1.054-.036-1.545-.037-.21-.49-.316-.738-.49-.176-.107-.316-.247-.49-.28-.247-.07-.527-.177-.774-.107-1.194.353-2.175 1.056-3.195 1.828m2.215 4.214c.14.317.387.703.56 1.124.14.317.317.387.598.246.527-.28 1.054-.526 1.65-.807l.211 1.685c.07 0 .14 0 .177-.036.807-.631 1.334-1.475 1.404-2.459.036-.457-.28-1.124-.667-1.37-.317-.21-1.018-.107-1.405.106-.843.353-1.65.95-2.528 1.51m5.23-6.038c-.386.246-.666.456-.983.667-.106.07-.21.21-.21.316-.317 1.371.49 2.249 1.334 3.196.563-1.407.387-2.775-.14-4.18"/><path fill="#000" fill-opacity=".35" d="M26.757 6.848c.07 1.054.14 1.965.247 2.985a92 92 0 0 1 1.614-1.755l.107.107c-.21 1.017-.457 2.071-.704 3.125-3.512-.877-6.882-.49-10.111 1.228-.457-1.018-.948-1.965-1.475-3.126.738.457 1.37.878 2.108 1.335-.14-.984-.28-1.895-.457-2.915 1.124.773 2.108 1.44 3.16 2.178.35-1.054.703-2.038 1.087-3.16.631.984 1.195 1.862 1.792 2.845.91-.952 1.718-1.83 2.632-2.847M5.09 30.513c-.07-.21-.14-.35-.21-.527.667-.28 1.297-.527 2.001-.808.21.561.42 1.124.667 1.755.107.21.317.491.35.808.037.457-.386.597-.737.737-.35.14-.667.28-1.054.42a6 6 0 0 0-.246-.527c.387-.176.773-.28 1.124-.49.14-.07.21-.317.28-.457-.176-.07-.387-.21-.56-.177-.351.07-.704.247-1.125.421-.07-.14-.14-.317-.246-.49.387-.177.773-.281 1.088-.491.14-.107.21-.317.28-.49-.177-.037-.387-.177-.56-.141-.279.14-.63.317-1.052.457m7.549 5.617c.176.14.317.247.49.387-.56.704-1.087 1.371-1.684 2.108.35.28.667.561 1.054.878-.107.14-.21.28-.35.457l-1.582-1.265c.704-.843 1.371-1.687 2.072-2.565m9.377 5.444c.42-.07.597.07.49.457l-.106.738c-.107.63-.56 1.017-1.158.913-.63-.07-.984-.49-.947-1.157.036-.387.106-.774.14-1.228.21.036.35.07.56.106-.07.387-.14.774-.14 1.124 0 .21.177.49.35.56.281.141.491-.106.561-.386.11-.356.18-.74.25-1.127M5.898 26.72c-.317-1.158-1.124-.387-1.755-.597 0-.107-.036-.28-.07-.49.737-.07 1.44-.177 2.108-.247.07.457.107.807.14 1.228-.106.036-.246.036-.423.106m2.915 10.148c-.106-.107-.176-.247-.316-.387l1.58-1.37c.281.316.561.63.878.983-.07.07-.21.177-.317.28-.91-.804-1.194.32-1.825.494m-2.108-2.95c-.106-.176-.176-.316-.28-.49.63-.35 1.228-.703 1.895-1.054.107.177.177.317.317.49-.667.354-1.298.668-1.932 1.055m2.355-2.177c.177.246.35.386.317.527-.037.14-.21.246-.317.35-.106-.106-.317-.247-.35-.35-.037-.14.173-.28.35-.527"/><path fill="#f9f7f4" d="M25 22.577c1.017-.774 2.001-1.475 3.195-1.791.247-.07.527.036.774.106.176.07.316.177.49.28.247.14.704.28.738.491.106.49.036 1.018.036 1.545 0 .07-.07.14-.106.176-.948.774-1.895 1.545-3.16 1.862-.386.106-.597 0-.773-.35-.35-.774-.771-1.512-1.194-2.32m2.214 4.213c.877-.56 1.685-1.124 2.528-1.58.421-.211 1.088-.317 1.405-.107.387.246.703.914.667 1.37-.07.984-.597 1.826-1.404 2.459-.037.036-.107.036-.177.036l-.21-1.684c-.597.28-1.124.56-1.651.807-.28.14-.457.07-.597-.247-.177-.35-.387-.77-.561-1.054m5.23-6.038c.528 1.404.738 2.739.141 4.213-.844-.947-1.651-1.861-1.334-3.195a1 1 0 0 1 .21-.317c.28-.244.597-.42.984-.701"/><path fill="#000" fill-opacity=".35" d="M19.382 41.118c-.42-.35-.844-.35-1.298-.07-.42.247-.597.807-.457 1.334.14.457.527.738 1.054.738h.28c-.28.597-.63.597-1.404 0-.107.106-.21.176-.35.316.666.914 1.86.984 2.211.14.317-.737.457-1.51.704-2.281-.283-.073-.564-.037-.74-.177m.07 1.018c-.247.14-.457.387-.704.42-.35.037-.56-.246-.527-.597.037-.35.247-.597.561-.527.247.07.457.317.667.457v.247zM7.302 22.824H4.038v.561c.35 0 .703.036 1.054.036 0 .247 0 .457.036.631.07.597.49.984 1.088.984.56 0 1.018-.35 1.088-.914.036-.42 0-.84 0-1.298M6.496 24.3c-.07.07-.457.106-.49 0-.177-.21-.247-.527-.387-.878h1.194c-.14.35-.177.668-.317.878m10.43 15.94c-.35-.317-.737-.387-1.158-.247-.457.177-.703.56-.737 1.054 0 .42.176.844.597 1.018.387.176.774.28 1.228.42.28-.597.56-1.228.844-1.861-.283-.174-.564-.21-.774-.384m-.667 1.368c-.21 0-.527-.28-.56-.49a.49.49 0 0 1 .526-.598c.247.036.457.247.704.387v.247c-.25.173-.46.454-.67.454m-1.511-1.054c.42-.527.42-1.054.036-1.475a1.136 1.136 0 0 0-1.51-.14c-.457.35-.598 1.018-.317 1.475.316.49.913.737 1.544.42-.21-.14-.35-.28-.527-.35-.35-.107-.63-.28-.56-.774.457.353.877.6 1.334.844m-.21-.595c-.35-.21-.597-.386-.878-.56.525-.25.771-.107.878.56m9.724 3.3c-.387.21-.63.07-.807-.35H25c0-.774-.28-1.195-.878-1.298-.49-.107-1.017.176-1.228.667a1.24 1.24 0 0 0 .387 1.44c.457.317 1.124.21 1.545-.21-.14-.32-.28-.39-.564-.25m.143-.807h-.948c.315-.491.525-.491.948 0M9.481 34.166a1.12 1.12 0 0 0-1.335-.63c-.527.14-.913.63-.843 1.194.036.56.457 1.017 1.228 1.053-.14-.246-.177-.42-.317-.526-.387-.317-.457-.491-.21-.914.316.42.597.807.913 1.228.634-.387.81-.878.564-1.405m-.631.667c-.177-.246-.317-.49-.49-.703.036-.037.07-.07.106-.14.176.106.386.176.49.316.107.14.07.35.107.527zm-2.144-6.741a1.125 1.125 0 0 0-.914-1.054c-.561-.107-1.088.176-1.298.63-.247.561-.037 1.158.56 1.545.07-.107.177-.247.247-.35-.28-.387-.56-.738-.07-1.195.14.561.28 1.018.42 1.545.774-.174 1.09-.524 1.055-1.122m-.808.456c-.07-.35-.14-.63-.21-.983.597.28.633.56.21.983"/></g><defs><clipPath id="a"><path fill="#fff" d="M0 0h47.966v48H0z"/></clipPath></defs></svg>