<svg xmlns="http://www.w3.org/2000/svg" width="24" height="24" fill="none" viewBox="0 0 24 24"><g stroke="#d8553a" stroke-linecap="round" stroke-linejoin="round" stroke-width="1.2" clip-path="url(#a)"><path d="M14.695 3.99a3.445 3.445 0 1 0 6.89 0 3.445 3.445 0 0 0-6.89 0m8.805 8.747a5.64 5.64 0 0 0-10.6 0"/><path d="M15.473 1.7c1.175 2.185 3.785 2.453 5.864 2.453M.5 22.34l6.545 1.06c1.363.19 2.75-.09 3.932-.793l6.853-4.074a2.02 2.02 0 0 0-2.068-3.468l-5.352 3.182"/><path d="m.5 17.085 2.779-1.653a6.06 6.06 0 0 1 3.412-.843l2.767.144a1.884 1.884 0 0 1 1.875 1.982A1.883 1.883 0 0 1 9.588 18.5l-3.534-.016"/></g><defs><clipPath id="a"><path fill="#fff" d="M0 0h24v24H0z"/></clipPath></defs></svg>