<svg xmlns="http://www.w3.org/2000/svg" width="25" height="24" fill="none" viewBox="0 0 25 24"><g stroke="#d8553a" stroke-linecap="round" stroke-linejoin="round" stroke-width="1.2" clip-path="url(#a)"><path d="M15.362 3.99a3.445 3.445 0 1 0 6.89 0 3.445 3.445 0 0 0-6.89 0m8.804 8.747a5.64 5.64 0 0 0-10.6 0"/><path d="M16.14 1.7c1.174 2.185 3.784 2.453 5.863 2.453M1.167 22.34l6.545 1.06a6.06 6.06 0 0 0 3.932-.793l6.853-4.074a2.02 2.02 0 0 0-2.068-3.468l-5.352 3.182"/><path d="m1.167 17.085 2.779-1.653a6.06 6.06 0 0 1 3.411-.843l2.767.144a1.886 1.886 0 0 1 .13 3.767l-3.533-.016"/></g><defs><clipPath id="a"><path fill="#fff" d="M.667 0h24v24h-24z"/></clipPath></defs></svg>