<svg xmlns="http://www.w3.org/2000/svg" width="32" height="214" fill="none" viewBox="0 0 32 214"><path fill="url(#a)" fill-opacity=".24" d="M13 0h6v214h-6z"/><circle cx="16" cy="187" r="16" fill="#9df036"/><g clip-path="url(#b)"><path fill="#000" d="M16 175c-6.616 0-12 5.384-12 12s5.384 12 12 12 12-5.384 12-12-5.384-12-12-12m.762 3.898 3.085-1.658c1.709.676 3.2 1.784 4.334 3.194l-.735 3.394-2.354 1.153-4.33-3.154zm-4.584-1.668 3.085 1.665v2.932l-4.327 3.154-2.366-1.155-.735-3.414a10.54 10.54 0 0 1 4.343-3.182m-4.833 15.701a10.4 10.4 0 0 1-1.792-4.911l2.539-2.758 2.316 1.132 1.745 4.955-1.475 1.766zm11.33 4.21c-.857.227-1.75.359-2.675.359-1.119 0-2.196-.18-3.209-.505l-.943-2.938 1.504-1.807h5.302l1.477 1.749zm2.626-4.076-1.45-1.718 1.768-4.953 2.305-1.13 2.525 2.757a10.4 10.4 0 0 1-1.418 4.307z"/></g><circle cx="16" cy="102" r="16" fill="#9df036"/><g fill="#000" clip-path="url(#c)"><path d="M16.977 91.937c.271-.36.228-1.123.19-1.796l-.006-.087q-.57-.055-1.155-.056c-1.494 0-2.923.275-4.242.774.94.452 2.397 1.23 4.017 2.38.552-.475.969-.913 1.196-1.215m6.08 6.847a8 8 0 0 0-1.517.3c2.04 3.56 2.835 8.058 3.03 11.317a11.95 11.95 0 0 0 3.424-7.924c-1.392-1.711-3.236-3.886-4.937-3.693m-12.123-3.073c1.433-.298 2.779-1.02 3.852-1.78-2.239-1.543-4.106-2.343-4.478-2.495a12.05 12.05 0 0 0-5.264 5.68c1.406-.56 2.929-.844 4.424-1.122.484-.09.984-.183 1.466-.283"/><path d="M19.228 96.06q.192.194.382.393c.468.49.892 1.027 1.28 1.595.567-.214 1.234-.365 2.032-.456 1.88-.212 3.553 1.278 4.988 2.918a11.95 11.95 0 0 0-2.963-6.512c-.867.105-1.834.282-2.82.576-.646.193-1.676.718-2.899 1.486m-1.578 6.197c.491-1.667 1.061-2.869 2.166-3.65a11 11 0 0 0-1.075-1.327q-.268-.282-.54-.547c-4.432 3.016-10.503 8.557-11.055 13.358a11.98 11.98 0 0 0 7.203 3.791c1.034-2.058 2.007-6.242 2.585-8.73.278-1.195.518-2.227.715-2.895"/><path d="M12.625 99.613a43 43 0 0 1 4.669-3.727 26 26 0 0 0-1.487-1.218c-1.24.932-2.862 1.85-4.629 2.217-.495.103-1.001.197-1.49.288-1.888.35-3.7.69-5.223 1.54a12 12 0 0 0-.459 3.285c0 2.549.797 4.91 2.152 6.854.878-3.476 3.89-6.864 6.466-9.24m5.704-4.412c1.427-.91 2.658-1.539 3.457-1.777.717-.214 1.42-.37 2.086-.484a11.96 11.96 0 0 0-5.498-2.707c.046.838.066 1.759-.438 2.427-.24.317-.645.753-1.172 1.225.516.402 1.041.84 1.565 1.317m.472 7.396c-.187.635-.424 1.651-.697 2.828-.808 3.473-1.58 6.582-2.482 8.564q.192.008.385.01c2.797 0 5.368-.96 7.408-2.563-.08-3.411-.898-8.234-2.958-11.815-.798.594-1.228 1.528-1.656 2.976"/></g><circle cx="16" cy="22" r="16" fill="#9df036"/><g clip-path="url(#d)"><path fill="#000" d="M16 10C9.384 10 4 15.384 4 22s5.384 12 12 12 12-5.384 12-12-5.384-12-12-12m.762 3.899 3.085-1.66a10.55 10.55 0 0 1 4.334 3.195l-.735 3.394-2.354 1.153-4.33-3.155zm-4.584-1.668 3.085 1.665v2.93l-4.327 3.155-2.366-1.155-.735-3.414a10.53 10.53 0 0 1 4.343-3.182m-4.833 15.7a10.4 10.4 0 0 1-1.792-4.911l2.539-2.758 2.316 1.132 1.745 4.955-1.475 1.767zm11.33 4.21A10.4 10.4 0 0 1 16 32.5c-1.119 0-2.196-.18-3.209-.506l-.943-2.936 1.504-1.808h5.302l1.477 1.749zm2.626-4.076-1.45-1.718 1.768-4.953 2.305-1.13 2.525 2.758a10.4 10.4 0 0 1-1.418 4.306z"/></g><defs><clipPath id="b"><path fill="#fff" d="M4 175h24v24H4z"/></clipPath><clipPath id="c"><path fill="#fff" d="M4 90h24v24H4z"/></clipPath><clipPath id="d"><path fill="#fff" d="M4 10h24v24H4z"/></clipPath><linearGradient id="a" x1="16" x2="16" y1="0" y2="214" gradientUnits="userSpaceOnUse"><stop stop-color="#a6a6a6" stop-opacity="0"/><stop offset=".447" stop-color="#a6a6a6"/><stop offset="1" stop-color="#a6a6a6" stop-opacity="0"/></linearGradient></defs></svg>