<svg xmlns="http://www.w3.org/2000/svg" width="60" height="60" fill="none" viewBox="0 0 60 60"><g clip-path="url(#a)"><path fill="#000" d="m59.69 45.077-9.905 10.35a2.25 2.25 0 0 1-.765.525 2.25 2.25 0 0 1-.918.185H1.15c-.223 0-.442-.063-.63-.182a1.1 1.1 0 0 1-.21-1.703l9.913-10.347a2.25 2.25 0 0 1 .762-.525c.289-.126.6-.19.915-.188h46.95c.223.001.442.065.63.185a1.1 1.1 0 0 1 .21 1.7m-9.905-20.835a2.25 2.25 0 0 0-.765-.525 2.25 2.25 0 0 0-.918-.187H1.15c-.223 0-.442.063-.63.182a1.13 1.13 0 0 0-.425.493 1.1 1.1 0 0 0 .215 1.21l9.913 10.35c.214.226.474.405.762.525.289.125.6.188.915.185h46.95c.223 0 .442-.063.63-.183a1.1 1.1 0 0 0 .21-1.703zM1.15 16.807h46.955a2.25 2.25 0 0 0 .918-.187 2.25 2.25 0 0 0 .764-.525l9.906-10.35a1.1 1.1 0 0 0-.213-1.7 1.2 1.2 0 0 0-.63-.183H11.9a2.25 2.25 0 0 0-.915.185 2.25 2.25 0 0 0-.762.525L.313 14.925a1.1 1.1 0 0 0-.293.575 1.1 1.1 0 0 0 .5 1.125c.188.12.407.182.63.182"/></g><defs><clipPath id="a"><path fill="#fff" d="M0 0h60v60H0z"/></clipPath></defs></svg>