<svg xmlns="http://www.w3.org/2000/svg" width="60" height="60" fill="none" viewBox="0 0 60 60"><g clip-path="url(#a)"><path fill="#c0ac9d" d="m59.69 45.078-9.905 10.35a2.25 2.25 0 0 1-.765.525 2.25 2.25 0 0 1-.918.184H1.15c-.223 0-.442-.063-.63-.182a1.1 1.1 0 0 1-.21-1.703l9.913-10.347a2.25 2.25 0 0 1 .762-.525c.289-.126.6-.19.915-.187h46.95c.223 0 .442.064.63.184a1.1 1.1 0 0 1 .21 1.7m-9.905-20.836a2.25 2.25 0 0 0-.765-.524 2.25 2.25 0 0 0-.918-.188H1.15c-.223 0-.442.063-.63.182a1.13 1.13 0 0 0-.425.493 1.1 1.1 0 0 0 .215 1.21l9.913 10.35c.214.226.474.405.762.525.289.125.6.188.915.185h46.95c.223 0 .442-.063.63-.183a1.1 1.1 0 0 0 .21-1.702zM1.15 16.809h46.955a2.25 2.25 0 0 0 .918-.188 2.25 2.25 0 0 0 .764-.525l9.906-10.35a1.1 1.1 0 0 0-.213-1.7 1.2 1.2 0 0 0-.63-.183H11.9a2.25 2.25 0 0 0-.915.186 2.25 2.25 0 0 0-.762.524L.313 14.926a1.1 1.1 0 0 0-.293.575 1.1 1.1 0 0 0 .5 1.125c.188.12.407.182.63.183"/></g><defs><clipPath id="a"><path fill="#fff" d="M0 0h60v60H0z"/></clipPath></defs></svg>