<svg xmlns="http://www.w3.org/2000/svg" width="65" height="64" fill="none" viewBox="0 0 65 64"><path fill="#d9d9d9" fill-opacity=".16" d="M2.5 56a6 6 0 0 0 6 6h6v2h-6a8 8 0 0 1-8-8v-5.5h2zm62 0a8 8 0 0 1-8 8h-6v-2h6a6 6 0 0 0 6-6v-5.5h2zm-8-56a8 8 0 0 1 8 8v6.5h-2V8a6 6 0 0 0-6-6h-6V0zm-42 2h-6a6 6 0 0 0-6 6v6.5h-2V8a8 8 0 0 1 8-8h6z"/><path fill="#fff" d="M19.5 33.125h-2.25v13.5h2.25c.675 0 1.125-.45 1.125-1.125V34.25c0-.675-.45-1.125-1.125-1.125m28.013 1.463c-.788-.45-1.8-.563-2.588-.113l-7.425 4.05C37.275 39.875 36.15 41 34.688 41h-4.5c-.338 0-.563-.225-.563-.562s.225-.563.563-.563h4.5c.9 0 1.687-.788 1.687-1.687 0-.9-.675-1.688-1.687-1.688H28.95l-1.912-1.913c-.226-.225-.45-.337-.788-.337h-4.5V45.5h2.025l3.6 1.125c1.462.45 3.15 1.125 4.95 1.125 1.575 0 3.262-.562 4.612-1.575l10.688-7.087c.675-.45 1.125-1.35 1.125-2.138 0-1.013-.45-1.8-1.237-2.363"/><path fill="#fff" d="M28.5 34.25c1.864 0 3.375-4.03 3.375-9s-1.511-9-3.375-9-3.375 4.03-3.375 9 1.511 9 3.375 9m4.275-12.375h2.25a18 18 0 0 0-.9-3.375h-2.25c.45 1.012.675 2.137.9 3.375m.788-4.5C33 16.7 32.437 16.25 31.875 16.25h-1.238c.226.337.563.675.788 1.125zm1.462 11.25h-2.25c-.225 1.238-.45 2.363-.787 3.375h2.137c.337-.9.675-2.025.9-3.375m-4.387 5.625h1.237c.563 0 1.125-.45 1.688-1.125h-2.138c-.225.45-.45.788-.788 1.125m2.363-9c0 .788 0 1.462-.112 2.25h2.25c.112-.675.112-1.462.112-2.25s0-1.575-.112-2.25h-2.25c.112.788.112 1.462.112 2.25m6.75 9c1.864 0 3.375-4.03 3.375-9s-1.511-9-3.375-9-3.375 4.03-3.375 9 1.511 9 3.375 9m4.275-12.375h2.25a18 18 0 0 0-.9-3.375h-2.25c.45 1.012.675 2.137.9 3.375m.788-4.5c-.563-.675-1.126-1.125-1.688-1.125h-1.237c.224.337.562.675.787 1.125zm1.462 11.25h-2.25c-.225 1.238-.45 2.363-.788 3.375h2.138c.337-.9.675-2.025.9-3.375m-4.387 5.625h1.237c.563 0 1.125-.45 1.688-1.125h-2.138c-.225.45-.45.788-.787 1.125m2.362-9c0 .788 0 1.462-.112 2.25h2.25c.112-.675.112-1.462.112-2.25s0-1.575-.112-2.25h-2.25c.112.788.112 1.462.112 2.25"/></svg>