<svg xmlns="http://www.w3.org/2000/svg" width="65" height="64" fill="none" viewBox="0 0 65 64"><path fill="#d9d9d9" fill-opacity=".16" d="M2.5 56a6 6 0 0 0 6 6h6v2h-6a8 8 0 0 1-8-8v-5.5h2zm62 0a8 8 0 0 1-8 8h-6v-2h6a6 6 0 0 0 6-6v-5.5h2zm-8-56a8 8 0 0 1 8 8v6.5h-2V8a6 6 0 0 0-6-6h-6V0zm-42 2h-6a6 6 0 0 0-6 6v6.5h-2V8a8 8 0 0 1 8-8h6z"/><path fill="#fff" d="M21.416 21.211a.561.561 0 1 1 .794-.796l1.835 1.837a.56.56 0 0 1 0 .795.555.555 0 0 1-.794 0zm-1.641 10.227h-2.597a.562.562 0 0 0 0 1.125h2.597a.562.562 0 1 0 0-1.126m3.476 9.515-1.835 1.836a.56.56 0 0 0 .395.96.56.56 0 0 0 .4-.164l1.835-1.837a.561.561 0 1 0-.794-.795m9.747-21.614a.56.56 0 0 0 .564-.563V16.18a.562.562 0 1 0-1.124 0v2.596c0 .311.25.563.56.563m10.789 1.076-1.836 1.837a.566.566 0 0 0 0 .795.566.566 0 0 0 .798 0l1.835-1.836a.56.56 0 0 0 0-.796.565.565 0 0 0-.797 0m5.031 11.023h-2.596a.562.562 0 0 0 0 1.125h2.596a.562.562 0 1 0 0-1.126m-6.07 9.515a.564.564 0 0 0-.797.795l1.836 1.837a.565.565 0 0 0 .797 0 .56.56 0 0 0 0-.796zm-9.75 3.708c-.31 0-.56.252-.56.563v2.596a.561.561 0 1 0 1.124 0v-2.596a.56.56 0 0 0-.564-.563m10.416-13.396a2 2 0 0 0 .31-1.872 2 2 0 0 0-1.351-1.333l-4.491-1.388a.87.87 0 0 1-.488-.355l-2.709-3.843a2.01 2.01 0 0 0-1.687-.874c-.688 0-1.288.31-1.683.874l-2.709 3.843a.88.88 0 0 1-.488.355l-4.491 1.388a2.02 2.02 0 0 0-1.354 1.333 2.02 2.02 0 0 0 .31 1.872l2.82 3.763a.86.86 0 0 1 .184.575l-.065 4.702c-.01.689.29 1.292.85 1.697a2 2 0 0 0 1.875.283l4.451-1.517a.87.87 0 0 1 .603 0l4.452 1.517a2.01 2.01 0 0 0 1.875-.283c.557-.405.86-1.008.85-1.697l-.069-4.701a.9.9 0 0 1 .188-.576z"/></svg>