<svg xmlns="http://www.w3.org/2000/svg" width="123" height="36" fill="none" viewBox="0 0 123 36"><path fill="#000" fill-rule="evenodd" d="M46.548 18c0-6.213-5.081-11.25-11.35-11.25q-.438 0-.869.033l-14.733.77L33.01 9l-4.705.063a11.3 11.3 0 0 0-3.314 4.013l-3.466.504 3.041.476A11.1 11.1 0 0 0 23.85 18c0 1.388.254 2.716.717 3.944l-3.04.476 3.465.504a11.3 11.3 0 0 0 3.312 4.012L33.01 27c-4.644.345-7.325.905-11.966 1.446l13.285.771q.43.033.87.033c6.268 0 11.35-5.037 11.35-11.25m-15.605 0c0 2.33 1.905 4.219 4.256 4.219S39.455 20.33 39.455 18s-1.906-4.219-4.256-4.219S30.943 15.67 30.943 18" clip-rule="evenodd"/><path fill="#000" d="M98.432 28.447a.81.81 0 0 1-.81-.811V8.364a.81.81 0 0 1 .81-.81h5.675a.81.81 0 0 1 .811.81v19.272a.81.81 0 0 1-.811.81z"/><path fill="#000" fill-rule="evenodd" d="M17.268 20.41c1.626-1.017 2.642-3.19 2.837-5.624-.195-5.087-3.356-7.232-9.323-7.232H3.081a.81.81 0 0 0-.811.81v19.272c0 .448.363.81.81.81h5.242a.84.84 0 0 0 .839-.838v-5.992h1.621l2.24 6.292a.81.81 0 0 0 .764.539h6.877a.405.405 0 0 0 .362-.588zm-6.486-7.633c1.252 0 1.621.342 1.621 2.009 0 1.78-.426 2.009-1.62 2.009H9.16v-4.018zm85.623 9.241c0 4.005-2.576 6.429-8.512 6.429h-8.512a.81.81 0 0 1-.81-.811V8.364a.81.81 0 0 1 .81-.81h8.512c5.32 0 7.84 2.284 7.702 5.625.138 2.035-.898 3.428-2.432 4.018v.401c2.122.597 3.242 2.24 3.242 4.42m-6.89 0c0-1.242-.222-1.607-1.216-1.607H85.46v2.812h2.838c.993 0 1.215-.253 1.215-1.205m-1.622-8.84c.942 0 1.216.286 1.216 1.206s-.22 1.205-1.216 1.205h-2.432v-2.41z" clip-rule="evenodd"/><path fill="#000" d="M70.164 22.624h6.36a.81.81 0 0 1 .81.83l-.1 4.201a.81.81 0 0 1-.81.792H63.978a.81.81 0 0 1-.81-.811V8.364a.81.81 0 0 1 .81-.81h5.375a.81.81 0 0 1 .81.81zm-15.403 0h6.36a.81.81 0 0 1 .81.83l-.1 4.201a.81.81 0 0 1-.81.792H48.575a.81.81 0 0 1-.81-.811V8.364a.81.81 0 0 1 .81-.81h5.375a.81.81 0 0 1 .811.81zm67.973-10.05a.81.81 0 0 1-.811.83h-3.962v14.232a.81.81 0 0 1-.811.81h-5.386a.81.81 0 0 1-.81-.81V13.404h-3.99a.81.81 0 0 1-.81-.83l.1-4.229a.81.81 0 0 1 .81-.791h14.758c.441 0 .801.351.812.791z"/></svg>