<svg xmlns="http://www.w3.org/2000/svg" width="36" height="36" fill="none" viewBox="0 0 36 36"><g fill="#b5a798" clip-path="url(#a)"><path d="M18.76 17.275c-.007-.007-.008-.015-.014-.02l-6.02-6.02V7.453c0-.28-.11-.548-.308-.746L6.09.31a1.055 1.055 0 0 0-1.8.746V4.22H1.054a1.053 1.053 0 0 0-.746 1.8l6.399 6.398c.197.198.465.31.745.31h3.782l6.02 6.018c.005.006.014.008.02.014.41.392 1.034.397 1.45 0a1.04 1.04 0 0 0 .034-1.484"/><path d="M18 0c-2.699 0-5.25.687-7.548 1.76l3.236 3.234A13.6 13.6 0 0 1 18 4.29c7.56 0 13.711 6.15 13.711 13.71s-6.15 13.712-13.71 13.712S4.288 25.56 4.288 18c0-1.508.254-2.955.706-4.313l-3.236-3.235C.687 12.75 0 15.302 0 18c0 9.886 8.114 18 18 18 9.887 0 18-8.114 18-18 0-9.887-8.113-18-18-18"/><path d="M18 8.508c-1.115 0-2.17.228-3.164.583v1.27l2.438 2.439c.24-.034.477-.073.726-.073A5.28 5.28 0 0 1 23.273 18 5.28 5.28 0 0 1 18 23.273 5.28 5.28 0 0 1 12.727 18c0-.249.04-.486.073-.726l-2.438-2.438H9.09c-.355.994-.583 2.05-.583 3.164 0 5.234 4.258 9.492 9.492 9.492s9.492-4.258 9.492-9.492S23.234 8.508 18 8.508"/></g><defs><clipPath id="a"><path fill="#fff" d="M0 0h36v36H0z"/></clipPath></defs></svg>