<svg xmlns="http://www.w3.org/2000/svg" width="29" height="29" fill="none" viewBox="0 0 29 29"><g clip-path="url(#a)"><path fill="#000" d="m.507 13.842 6.615 2.469 2.56 8.234a.78.78 0 0 0 1.237.372l3.688-3.006a1.1 1.1 0 0 1 1.34-.037l6.652 4.829a.78.78 0 0 0 1.221-.472l4.872-23.435a.78.78 0 0 0-1.044-.886L.499 12.383c-.67.259-.664 1.207.008 1.459m8.763 1.154L22.2 7.034c.232-.143.47.171.271.357L11.8 17.309a2.22 2.22 0 0 0-.685 1.323l-.363 2.693c-.048.36-.554.396-.653.048L8.701 16.46a1.3 1.3 0 0 1 .57-1.464"/></g><defs><clipPath id="a"><path fill="#fff" d="M0 0h28.709v28.709H0z"/></clipPath></defs></svg>