<svg xmlns="http://www.w3.org/2000/svg" width="54" height="54" fill="none" viewBox="0 0 54 54"><path fill="#c0ac9d" fill-rule="evenodd" d="M44.498 9.968a3.375 3.375 0 0 1 4.64 3.658l-5.103 30.953c-.495 2.986-3.771 4.698-6.51 3.211-2.29-1.244-5.692-3.161-8.752-5.161-1.53-1.002-6.217-4.208-5.64-6.49.494-1.95 8.37-9.28 12.87-13.639 1.766-1.712.96-2.7-1.126-1.125-5.18 3.91-13.495 9.857-16.245 11.531-2.425 1.476-3.69 1.728-5.202 1.476-2.758-.459-5.316-1.17-7.404-2.036-2.822-1.17-2.685-5.049-.003-6.178z" clip-rule="evenodd"/></svg>