<svg xmlns="http://www.w3.org/2000/svg" width="29" height="29" fill="none" viewBox="0 0 29 29"><g clip-path="url(#a)"><path fill="#fff" d="m.507 13.843 6.615 2.469 2.56 8.234a.78.78 0 0 0 1.237.373l3.688-3.006a1.1 1.1 0 0 1 1.34-.038l6.651 4.829a.78.78 0 0 0 1.222-.472l4.872-23.435a.78.78 0 0 0-1.044-.886L.499 12.384c-.67.258-.664 1.207.008 1.459m8.763 1.155 12.928-7.963c.233-.143.472.171.272.356L11.8 17.31c-.375.35-.616.817-.685 1.324l-.363 2.693c-.049.36-.554.396-.653.048l-1.398-4.912a1.3 1.3 0 0 1 .569-1.464"/></g><defs><clipPath id="a"><path fill="#fff" d="M0 0h28.709v28.709H0z"/></clipPath></defs></svg>