<svg xmlns="http://www.w3.org/2000/svg" width="67" height="67" fill="none" viewBox="0 0 67 67"><path fill="#c0ac9d" d="M52.355 29.362c0 1.745-6.248 3.205-14.623 3.574l.006.002a64 64 0 0 1-4.188.093 93 93 0 0 1-4.254-.09c-8.392-.371-14.656-1.831-14.656-3.579 0-1.747 6.264-3.21 14.656-3.584v5.706c.547.042 2.119.134 4.29.134 2.605 0 3.909-.112 4.146-.131v-5.703c8.375.37 14.623 1.834 14.623 3.578m14.489 1.525L33.846 62.505a.503.503 0 0 1-.695 0L.156 30.887a.5.5 0 0 1-.106-.581L12.267 4.645a.5.5 0 0 1 .455-.288h41.562a.5.5 0 0 1 .447.288L66.95 30.306a.5.5 0 0 1-.106.58m-12.501-1.128c0-2.25-7.125-4.132-16.603-4.57v-5.103h11.686v-7.79H17.61v7.79h11.683v5.106c-9.497.435-16.638 2.317-16.638 4.57 0 2.255 7.14 4.131 16.638 4.572V50.7h8.445V34.33c9.475-.438 16.605-2.317 16.605-4.57"/></svg>