<svg xmlns="http://www.w3.org/2000/svg" width="41" height="40" fill="none" viewBox="0 0 41 40"><path fill="#fff" d="M5.538 13.214v12.76c0 1.016.5 1.963 1.315 2.471l12.612 7.852c.833.51 1.841.492 2.656-.045l11.789-7.797a2.92 2.92 0 0 0 1.258-2.436V14.03c0-1-.482-1.926-1.258-2.435L22.056 3.75a2.43 2.43 0 0 0-2.555-.1L6.955 10.675a2.88 2.88 0 0 0-1.417 2.539"/><path fill="#989898" d="m20.353 23.705-4.628-2.778 4.628 7.406z"/><path fill="#3a3a3a" d="m20.355 23.705 4.63-2.778-4.632 7.406z"/><path fill="#989898" d="M20.353 17.224v-6.482L15.725 20z"/><path fill="#3a3a3a" d="M20.355 17.224v-6.482L24.985 20z"/><path fill="#141302" d="M20.355 22.779v-5.555L24.985 20z"/><path fill="#595959" d="M20.353 22.779v-5.555L15.725 20z"/></svg>