<svg xmlns="http://www.w3.org/2000/svg" width="349" height="216" fill="none" viewBox="0 0 349 216"><path fill="url(#a)" stroke="#c02d2d" d="M347.163 177.719c-25.44-.491-59.285.987-114.351 26.963-23.658 11.162-43.797 12.581-59.521 7.892-15.722-4.688-27.084-15.497-33.178-28.901-12.187-26.806-3.313-64.034 34.113-83.336l1.026-.529-1.089-.386c-28.381-10.062-54.897-6.74-70.779 2.713l-7.792-4.178 45.904-85.62 7.792 4.179c.918 18.459 12.826 42.383 36.914 60.451l.924.693-.127-1.147c-4.638-41.854 21.458-69.85 50.529-74.535 14.536-2.343 29.827 1.138 42.433 11.638 12.608 10.501 22.572 28.06 26.369 53.941 8.843 60.24 26.351 89.232 40.833 110.162Z" opacity=".05"/><path fill="url(#b)" stroke="#c02d2d" stroke-width=".632" d="M73.439 99.278c-10.158 11.71-14.798 26.548-13.92 41.115-14.342-.351-27.421-5.784-37.51-14.567L61 86.836zm26.549 26.548c-8.834 7.69-19.96 12.812-32.219 14.203-.776-12.334 3.065-24.903 11.526-34.896zM55.16 80.998l-38.99 38.99C7.39 109.899 1.955 96.82 1.604 82.478c14.567.878 29.404-3.763 41.114-13.921zm29.972 18.297c9.993-8.461 22.562-12.303 34.896-11.526-1.391 12.259-6.513 23.384-14.202 32.219zm20.694-57.286c8.782 10.088 14.215 23.167 14.566 37.509-14.567-.877-29.405 3.762-41.115 13.92l-12.442-12.44zM62.479 21.604c14.342.35 27.42 5.785 37.509 14.567l-38.99 38.99-12.44-12.442c10.158-11.71 14.798-26.548 13.921-41.115ZM36.863 62.7c-9.993 8.461-22.56 12.302-34.894 11.526C3.36 61.968 8.481 50.842 16.17 42.008zm17.364-40.73c.776 12.334-3.064 24.901-11.525 34.893L22.008 36.17c8.834-7.69 19.96-12.81 32.22-14.201Z" opacity=".1"/><defs><linearGradient id="a" x1="372.477" x2="272.253" y1="197.873" y2="-26.799" gradientUnits="userSpaceOnUse"><stop stop-color="#7b0f0f"/><stop offset=".98" stop-color="#7b0f0f" stop-opacity=".02"/></linearGradient><linearGradient id="b" x1="64.024" x2="-2.178" y1="7.215" y2="104.624" gradientUnits="userSpaceOnUse"><stop stop-color="#7b0f0f"/><stop offset=".98" stop-color="#7b0f0f" stop-opacity=".02"/></linearGradient></defs></svg>