<svg xmlns="http://www.w3.org/2000/svg" width="24" height="24" fill="none" viewBox="0 0 24 24"><g stroke="#7837d3" stroke-linecap="round" stroke-linejoin="round" stroke-width="1.2" clip-path="url(#a)"><path d="M3.541 5.336a4.836 4.836 0 1 0 9.672 0 4.836 4.836 0 0 0-9.672 0M2.055 20.705v2.752M15.134 1.443a4.836 4.836 0 1 1-.055 7.744M23.482 23.5v-5.2a6.64 6.64 0 0 0-7.682-6.545m-.48 11.702V18.3a6.63 6.63 0 0 0-6.632-6.632A6.93 6.93 0 0 0 3.9 13.722"/><path d="M6.233 17.848a2.435 2.435 0 0 1-3.246 1.138l-1.225-.75a2.434 2.434 0 0 1-.951-3.3A2.434 2.434 0 0 1 4.056 13.8l1.226.75a2.433 2.433 0 0 1 .95 3.299"/></g><defs><clipPath id="a"><path fill="#fff" d="M0 0h24v24H0z"/></clipPath></defs></svg>