<svg xmlns="http://www.w3.org/2000/svg" width="24" height="24" fill="none" viewBox="0 0 24 24"><g stroke="#fff" stroke-width="1.2" clip-path="url(#a)"><path stroke-linecap="round" stroke-linejoin="round" d="M7.833 5.5c3.814 0 7.463-.245 9.764-.44.295-.025.584 0 .856.07m0 0a9.6 9.6 0 0 0-.56-2.488c-.276-.752-1.037-1.146-1.838-1.128C8.892 1.674 5.13 3.16 3.363 4.191c-.944.551-1.432 1.562-1.544 2.649-.147 1.43-.319 3.738-.319 6.74 0 2.842.154 4.953.296 6.294.113 1.07.866 1.924 1.928 2.107 1.423.246 3.79.52 7.276.52 3.455 0 5.833-.27 7.28-.513 1.1-.186 1.875-1.08 1.973-2.19a61 61 0 0 0 .194-3.186M18.453 5.13c.982.252 1.746 1.078 1.824 2.145.076 1.04.152 2.376.193 3.944"/><path stroke-linejoin="round" d="M15.534 15.319a1.45 1.45 0 0 0 1.292 1.381c1.415.163 3.02.044 4.43-.22.67-.127 1.163-.658 1.205-1.339a27 27 0 0 0 .012-2.602c-.039-.865-.813-1.446-1.675-1.354-1.185.128-2.405.214-3.59.182-.866-.023-1.642.557-1.682 1.422a27 27 0 0 0 .008 2.53Z"/><path stroke-linecap="round" d="M18 13.875v.5"/></g><defs><clipPath id="a"><path fill="#fff" d="M0 0h24v24H0z"/></clipPath></defs></svg>