<svg xmlns="http://www.w3.org/2000/svg" width="28" height="28" fill="none" viewBox="0 0 28 28"><path fill="#fff" d="M25.32 13.85a29.6 29.6 0 0 0-.459-5.377 2.8 2.8 0 0 0-2.02-1.92 68 68 0 0 0-8.746-.458 67 67 0 0 0-8.746.47 2.83 2.83 0 0 0-1.97 1.97 29.6 29.6 0 0 0-.458 5.377 29.6 29.6 0 0 0 .458 5.377 2.86 2.86 0 0 0 1.995 1.994 68 68 0 0 0 8.746.459 66.5 66.5 0 0 0 8.722-.459 2.83 2.83 0 0 0 1.97-1.97c.344-1.8.514-3.63.508-5.463m-8.3.652-4.486 2.544a.594.594 0 0 1-.88-.52v-5.278a.583.583 0 0 1 .88-.508l4.634 2.664a.582.582 0 0 1-.025 1.016z"/></svg>