<svg xmlns="http://www.w3.org/2000/svg" width="24" height="24" fill="none" viewBox="0 0 24 24"><g fill="#89f801" clip-path="url(#a)"><path d="M18.67 12.51a1.43 1.43 0 0 0-1.99-.55 1.4 1.4 0 0 0-.52.55L11.21 22a1.41 1.41 0 0 0 0 1.38 1.44 1.44 0 0 0 1.21.67h9.91a1.43 1.43 0 0 0 1.2-.67 1.39 1.39 0 0 0 .09-1.38zm-2 3.65a.74.74 0 0 1 1.47 0v2.94a.74.74 0 1 1-1.47 0zm.73 6.13a1 1 0 1 1 .01 0z"/><path d="M20.79 0H3.16A2.94 2.94 0 0 0 .22 2.94v14.2a2.94 2.94 0 0 0 2.94 2.94H9a1 1 0 0 0 0-2H3.16a1 1 0 0 1-1-1v-12a.25.25 0 0 1 .25-.24h19.1a.24.24 0 0 1 .24.24v6.13a1 1 0 0 0 2 0V2.94A2.94 2.94 0 0 0 20.79 0M4.48 2.94a.95.95 0 0 1-1.66 0 .9.9 0 0 1-.06-.89 1 1 0 0 1 .89-.58 1 1 0 0 1 .83.53.94.94 0 0 1 .15.49.94.94 0 0 1-.15.45m3.43 0a.95.95 0 0 1-1.66 0 .94.94 0 0 1-.15-.49.94.94 0 0 1 .15-.45.95.95 0 0 1 1.66 0 1 1 0 0 1 .15.49 1 1 0 0 1-.15.45m3.43 0a1 1 0 0 1-.83.49 1 1 0 0 1-.83-.49.94.94 0 0 1-.15-.49.94.94 0 0 1 .15-.45 1 1 0 0 1 .83-.49 1 1 0 0 1 .83.49 1 1 0 0 1 .15.49 1 1 0 0 1-.15.45"/></g><defs><clipPath id="a"><path fill="#fff" d="M0 0h24v24H0z"/></clipPath></defs></svg>