<svg xmlns="http://www.w3.org/2000/svg" width="122" height="122" fill="none" viewBox="0 0 122 122"><path fill="url(#a)" stroke="#89f801" d="M73.188 79.287c-10.067 11.674-14.689 26.422-13.866 40.917-14.148-.393-27.052-5.749-37.042-14.388l38.719-38.718zm26.53 26.53c-8.736 7.554-19.7 12.595-31.776 14.005-.717-12.162 3.07-24.54 11.364-34.417zM54.9 60.999l-38.72 38.72C7.542 89.729 2.186 76.823 1.793 62.675c14.496.822 29.243-3.8 40.916-13.866zm30.505 18.308c9.877-8.295 22.254-12.082 34.417-11.365-1.41 12.076-6.451 23.04-14.005 31.777zm20.411-57.027c8.638 9.99 13.994 22.894 14.388 37.042-14.496-.822-29.244 3.8-40.917 13.867l-12.19-12.19zM62.674 1.794c14.149.393 27.054 5.748 37.044 14.387L60.998 54.9 48.809 42.71C58.875 31.036 63.497 16.29 62.674 1.794ZM36.591 42.69c-9.877 8.295-22.253 12.082-34.416 11.365 1.41-12.075 6.452-23.04 14.005-31.776zM54.054 2.176c.718 12.163-3.069 24.538-11.364 34.416L22.279 16.18c8.735-7.554 19.7-12.595 31.775-14.005Z" opacity=".05"/><defs><linearGradient id="a" x1="64.024" x2="-2.178" y1="-12.784" y2="84.625" gradientUnits="userSpaceOnUse"><stop stop-color="#89f801"/><stop offset=".98" stop-color="#89f801" stop-opacity=".02"/></linearGradient></defs></svg>