<svg xmlns="http://www.w3.org/2000/svg" width="73" height="73" fill="none" viewBox="0 0 73 73"><path fill="url(#a)" stroke="#89f801" d="M43.396 47.376c-6.016 7.048-8.802 15.905-8.36 24.629a35.6 35.6 0 0 1-21.998-8.542L36.261 40.24zm16.086 16.087a35.6 35.6 0 0 1-18.822 8.295c-.374-7.203 1.87-14.513 6.73-20.387zM32.28 36.26 9.058 59.482A35.6 35.6 0 0 1 .516 37.483c8.723.442 17.58-2.344 24.628-8.359zm19.092 11.13c5.874-4.86 13.184-7.104 20.387-6.73a35.6 35.6 0 0 1-8.295 18.822zm12.092-34.352a35.6 35.6 0 0 1 8.542 21.998c-8.724-.442-17.58 2.344-24.629 8.36l-7.135-7.135zM37.483.516a35.6 35.6 0 0 1 22 8.542L36.26 32.28l-7.137-7.136c6.015-7.049 8.801-15.905 8.36-24.628ZM21.148 25.129C15.275 29.989 7.965 32.235.763 31.86a35.6 35.6 0 0 1 8.295-18.822zM31.86.763c.375 7.202-1.87 14.512-6.731 20.385l-12.09-12.09A35.6 35.6 0 0 1 31.86.763Z" opacity=".05"/><defs><linearGradient id="a" x1="38.097" x2="-2.1" y1="-8.541" y2="50.606" gradientUnits="userSpaceOnUse"><stop stop-color="#89f801"/><stop offset=".98" stop-color="#89f801" stop-opacity=".02"/></linearGradient></defs></svg>