<svg xmlns="http://www.w3.org/2000/svg" width="24" height="24" fill="none" viewBox="0 0 24 24"><path stroke="#02020c" stroke-linecap="round" stroke-linejoin="round" stroke-width="1.5" d="M11.962 17.986h6.809a1.555 1.555 0 0 0 1.512-2.175c-.359-1.088-1.795-2.393-1.795-3.677 0-2.85 0-3.6-1.403-5.276a5 5 0 0 0-1.653-1.283l-.784-.38a1.1 1.1 0 0 1-.51-.73 2.023 2.023 0 0 0-2.176-1.707A2.023 2.023 0 0 0 9.84 4.465a1.09 1.09 0 0 1-.566.73l-.783.38a5 5 0 0 0-1.654 1.283c-1.403 1.676-1.403 2.426-1.403 5.276 0 1.284-1.37 2.458-1.73 3.611-.217.697-.336 2.241 1.48 2.241z"/><path stroke="#02020c" stroke-linecap="round" stroke-linejoin="round" stroke-width="1.5" d="M15.225 17.986a3.2 3.2 0 0 1-3.263 3.264A3.195 3.195 0 0 1 8.7 17.986"/></svg>