<svg xmlns="http://www.w3.org/2000/svg" width="1569" height="519" fill="none" viewBox="0 0 1569 519"><path fill="url(#a)" stroke="#89f801" d="M150.371 148.151c-19.03 21.903-27.711 49.677-26.045 76.936-26.897-.635-51.427-10.824-70.329-27.308l73.001-73.001zm49.627 49.628c-16.558 14.439-37.433 24.048-60.435 26.637-1.48-23.134 5.728-46.718 21.623-65.45zm-28.029-49.596c18.731-15.895 42.316-23.103 65.45-21.622-2.589 23.001-12.198 43.877-26.637 60.435zm-55.755-34.188-73 73c-16.483-18.903-26.674-43.433-27.308-70.33 27.26 1.666 55.032-7.015 76.934-26.045zm94.568-73c16.483 18.901 26.673 43.432 27.308 70.328-27.26-1.666-55.033 7.015-76.936 26.045l-23.372-23.373zM129.668 2.902c26.897.634 51.428 10.825 70.33 27.308l-73 73.001-23.375-23.375c19.03-21.902 27.711-49.675 26.045-76.934ZM82.025 79.806c-18.73 15.894-42.314 23.102-65.448 21.622 2.589-23.001 12.198-43.876 26.637-60.434zm32.406-76.232c1.48 23.135-5.728 46.717-21.622 65.448L53.997 30.211C70.554 15.773 91.43 6.163 114.431 3.574Z" opacity=".05"/><path fill="url(#b)" stroke="#89f801" d="M1421.13 57.514c14.86-7.252 32.99-.922 40.62 14.282v.002a31.5 31.5 0 0 1 3.31 11.967 31.1 31.1 0 0 1-1.61 12.264c-1.06 3.081-1.93 7.663-2.3 12.491-.38 4.828-.28 9.947.62 14.102l.26 1.187.65-1.024c2.8-4.388 5.15-8.992 6.15-12.403 2.26-7.776 7.55-14.495 15.24-18.358 14.92-7.482 33.23-1.172 40.91 14.132 7.68 15.307 1.79 33.766-13.12 41.25a29.55 29.55 0 0 1-11.8 3.085c-4.11.198-8.22-.459-12.09-1.932v-.001l-.68-.241c-3.49-1.191-8.64-2.116-13.79-2.459l-.9-.059.42.792c10.35 19.619 26.98 29.627 39.56 30.736l2.2 4.378-50.04 25.112-2.19-4.379c6.63-10.738 8.54-30.058-1.01-50.085l-.39-.808-.48.753c-2.99 4.626-5.44 9.637-6.49 13.22-2.26 7.783-7.5 14.599-15.2 18.464-14.91 7.488-33.23 1.187-40.91-14.128-7.69-15.315-1.79-33.767 13.12-41.251a29.6 29.6 0 0 1 11.76-3.125c4.1-.215 8.21.421 12.07 1.871 3.34 1.239 8.43 2.096 13.62 2.482l1.22.09-.8-.917c-2.8-3.203-6.84-6.348-10.93-8.93-3.84-2.422-7.76-4.371-10.8-5.418l-.6-.197c-7.71-2.445-14.45-7.953-18.41-15.848-7.64-15.212-1.88-33.518 12.81-41.097Z" opacity=".05"/><path fill="url(#c)" stroke="#89f801" d="M66.947 322.828c16.2 11.055 35.399 17.166 50.662 16.861-6.216 13.941-8.055 34.007-4.171 53.23-16.2-11.055-35.4-17.166-50.663-16.86 6.216-13.942 8.056-34.008 4.172-53.231Z" opacity=".05"/><path stroke="url(#d)" stroke-opacity=".12" d="M776.829 339.91c216.092-26.652 412.591-43.683 555.611-49.676 71.51-2.996 129.63-3.232 170.14-.533 20.26 1.35 36.09 3.432 46.98 6.262 5.44 1.415 9.62 3.01 12.5 4.774 2.88 1.77 4.36 3.654 4.6 5.62.24 1.965-.73 4.152-3.1 6.569-2.36 2.41-6.03 4.972-10.96 7.669-9.88 5.39-24.73 11.256-44.05 17.488-38.64 12.46-95.08 26.354-165.17 40.823-140.19 28.936-334.94 60.16-551.035 86.812-216.091 26.652-412.596 43.685-555.611 49.677-71.509 2.997-129.633 3.232-170.142.533-20.258-1.35-36.087-3.432-46.975-6.261-5.446-1.416-9.625-3.011-12.499-4.775-2.882-1.77-4.362-3.653-4.605-5.619-.242-1.966.736-4.153 3.102-6.57 2.359-2.409 6.025-4.972 10.964-7.668 9.874-5.39 24.723-11.256 44.046-17.488 38.639-12.461 95.078-26.355 165.173-40.824 140.185-28.936 334.939-60.161 551.031-86.813Z"/><path stroke="url(#e)" stroke-opacity=".12" d="M791.075 339.766C1007.66 362.051 1203 389.339 1343.75 415.44c70.37 13.051 127.08 25.803 165.96 37.482 19.44 5.84 34.41 11.405 44.39 16.595 4.99 2.596 8.71 5.084 11.12 7.445 2.41 2.369 3.43 4.536 3.23 6.506s-1.65 3.884-4.49 5.711c-2.84 1.822-6.99 3.501-12.4 5.026-10.83 3.049-26.61 5.45-46.84 7.209-40.45 3.516-98.56 4.453-170.12 2.9-143.11-3.105-339.914-16.168-556.5-38.453-216.585-22.286-411.93-49.572-552.67-75.674-70.373-13.051-127.08-25.803-165.963-37.481-19.446-5.841-34.41-11.406-44.39-16.596-4.993-2.596-8.71-5.084-11.117-7.445-2.414-2.369-3.437-4.536-3.234-6.506s1.645-3.883 4.491-5.711c2.837-1.822 6.983-3.501 12.4-5.026 10.828-3.048 26.612-5.45 46.84-7.208 40.445-3.516 98.561-4.454 170.117-2.901 143.107 3.105 339.915 16.167 556.501 38.453Z"/><defs><linearGradient id="a" x1="132.651" x2="8.93" y1="-23.896" y2="158.147" gradientUnits="userSpaceOnUse"><stop stop-color="#89f801"/><stop offset=".98" stop-color="#89f801" stop-opacity=".02"/></linearGradient><linearGradient id="b" x1="1416" x2="1391.43" y1="39.238" y2="185.351" gradientUnits="userSpaceOnUse"><stop stop-color="#89f801"/><stop offset=".98" stop-color="#89f801" stop-opacity=".02"/></linearGradient><linearGradient id="c" x1="61.982" x2="51.776" y1="312.241" y2="389.588" gradientUnits="userSpaceOnUse"><stop stop-color="#89f801"/><stop offset=".98" stop-color="#89f801" stop-opacity=".02"/></linearGradient><linearGradient id="d" x1="2.017" x2="1567.16" y1="499.334" y2="306.295" gradientUnits="userSpaceOnUse"><stop stop-color="#e3ddd6"/><stop offset=".048" stop-color="#f2b671"/><stop offset=".084" stop-color="#dad5ce"/><stop offset=".925" stop-color="#dad5ce"/><stop offset=".962" stop-color="#f2b671"/><stop offset=".969" stop-color="#db9340"/><stop offset="1" stop-color="#dad5ce"/></linearGradient><linearGradient id="e" x1=".229" x2="1568.95" y1="322.108" y2="483.519" gradientUnits="userSpaceOnUse"><stop stop-color="#e3ddd6"/><stop offset=".048" stop-color="#f2b671"/><stop offset=".084" stop-color="#dad5ce"/><stop offset=".925" stop-color="#dad5ce"/><stop offset=".962" stop-color="#f2b671"/><stop offset=".969" stop-color="#db9340"/><stop offset="1" stop-color="#dad5ce"/></linearGradient></defs></svg>