<svg xmlns="http://www.w3.org/2000/svg" width="175" height="32" fill="none" viewBox="0 0 175 32"><path fill="#fff" fill-rule="evenodd" d="M20.745.967a.95.95 0 0 0-.44 0l-8.968 2.741-.005.002a.805.805 0 0 0-.523.975l.002.01.003.008c.137.379.554.633.982.49l8.742-2.667 8.93 2.748c.431.144.849-.116.984-.522.143-.432-.114-.853-.52-.988L20.754.969zM7.155 5.673a.82.82 0 0 1 .396-.791l.009-.006.01-.004a.8.8 0 0 1 .273-.072.77.77 0 0 1 .868.61l5.13 10.05H27.44q.041 0 .082.005l4.843-10.04a.72.72 0 0 1 .342-.493.79.79 0 0 1 .775-.06.74.74 0 0 1 .429.602l.158.927c.036.163.19 1.245.19 2.883 0 1.624-.16 3.76-.753 6.167-.566 2.272-1.59 5.007-3.452 7.687-1.86 2.681-4.557 5.333-8.435 7.415h-.001l-.718.4v.001a.72.72 0 0 1-.747 0h-.001l-.718-.4v-.001c-3.879-2.082-6.575-4.734-8.436-7.415A22 22 0 0 1 7.6 15.422a26 26 0 0 1-.754-6.164c0-1.64.154-2.721.19-2.883zm7.48 11.344h12.061l-6.154 11.57zM8.42 8.243a24.1 24.1 0 0 0 .667 6.796 21.8 21.8 0 0 0 3.209 7.188c1.47 2.11 3.499 4.223 6.337 6.022zm14.066 19.976c2.803-1.788 4.837-3.872 6.297-5.992 1.723-2.501 2.678-5.057 3.209-7.188a24 24 0 0 0 .671-6.697L28.91 16.12v.031z" clip-rule="evenodd"/><path fill="#fff" fill-rule="evenodd" d="M20.383 1.511 11.59 4.2a.51.51 0 0 0-.335.622.494.494 0 0 0 .615.309l.003-.001 8.665-2.644 8.85 2.723h.002c.258.086.524-.06.616-.336.086-.26-.06-.527-.332-.62l-8.999-2.739h-.002a.7.7 0 0 0-.29-.002m.425-.536.015.004 9.02 2.746h.004c.523.176.88.732.685 1.322-.173.52-.724.882-1.313.689l-8.681-2.672-8.497 2.593c-.58.19-1.13-.158-1.309-.651l-.008-.023-.005-.023c-.133-.533.135-1.1.694-1.287l.008-.002L20.235.977l.007-.002c.179-.045.387-.045.566 0M8.046 4.731q.151-.02.308.005c.42.07.742.381.837.774l4.943 9.683H27.22l4.661-9.662a1 1 0 0 1 .452-.63c.3-.202.691-.229 1.024-.077a1 1 0 0 1 .58.805l.154.896c.044.207.192 1.284.192 2.883 0 1.612-.16 3.732-.748 6.12-.562 2.255-1.58 4.972-3.43 7.637s-4.528 5.298-8.375 7.364l-.002.001-.698.389a.98.98 0 0 1-1.009 0l-.699-.39c-3.848-2.065-6.527-4.699-8.377-7.364a21.9 21.9 0 0 1-3.378-7.669 26 26 0 0 1-.748-6.114c0-1.599.149-2.676.193-2.883l.11-.645a1.09 1.09 0 0 1 .524-1.005l.023-.014.024-.01a1.1 1.1 0 0 1 .353-.094m.217.552a.5.5 0 0 0-.148-.002l-.008.001h-.008a.5.5 0 0 0-.171.044.53.53 0 0 0-.252.501l.006.041-.126.737-.002.007c-.03.132-.18 1.172-.18 2.77 0 1.548.156 3.648.732 5.985v.006a21.3 21.3 0 0 0 3.294 7.476c1.803 2.598 4.417 5.17 8.183 7.192l.006.003.707.394a.43.43 0 0 0 .458 0l.003-.002.708-.395h.002c3.766-2.022 6.38-4.594 8.183-7.192 1.804-2.598 2.797-5.25 3.347-7.455.575-2.337.732-4.41.732-5.986 0-1.598-.151-2.637-.18-2.77l-.002-.006-.158-.927-.001-.008a.45.45 0 0 0-.26-.368.5.5 0 0 0-.488.034l-.008.006-.009.005a.43.43 0 0 0-.204.296l-.007.037-4.855 10.064-.195-.02-.05-.003H13.794L8.664 5.696l-.008-.037a.48.48 0 0 0-.393-.376m.149 2.042L19.375 28.8l-.857-.543c-2.82-1.787-4.837-3.887-6.3-5.986v-.002a21.7 21.7 0 0 1-3.19-7.146 24 24 0 0 1-.663-6.75zm24.26.038.044 1.109q.017.415.018.91c0 1.48-.132 3.518-.685 5.741-.528 2.117-1.477 4.658-3.19 7.147-1.455 2.11-3.477 4.183-6.26 5.958l-.89.567 6.77-12.716v-.024zM8.896 9.495c.007 1.44.143 3.383.669 5.494a21.2 21.2 0 0 0 3.108 6.965 21.1 21.1 0 0 0 5.264 5.25zm20.136 6.686v.037l-5.82 10.93c2.255-1.59 3.94-3.379 5.189-5.193 1.668-2.422 2.594-4.898 3.109-6.966.506-2.031.65-3.907.667-5.327zm-14.742.54h12.753l-6.507 12.234zm.906.554 5.35 10.48 5.574-10.48z" clip-rule="evenodd"/><path stroke="#fff" stroke-miterlimit="10" stroke-width=".37" d="m20.74 1.244.068-.269m0 0a1.2 1.2 0 0 0-.566 0l-.007.002-8.814 2.694-.008.002c-.56.188-.827.754-.694 1.287l.005.023.008.023c.18.493.73.84 1.309.651l8.497-2.593 8.68 2.672c.59.193 1.141-.169 1.314-.69.195-.589-.162-1.145-.685-1.32l-.004-.001-9.02-2.746zM7.693 4.825l.115.251m-.115-.252a1.1 1.1 0 0 1 .353-.093q.151-.02.308.005c.42.07.742.381.837.774l4.943 9.683H27.22l4.661-9.662a1 1 0 0 1 .452-.63c.3-.202.691-.229 1.024-.077a1 1 0 0 1 .58.805l.154.896c.044.207.192 1.284.192 2.883 0 1.612-.16 3.732-.748 6.12-.562 2.255-1.58 4.972-3.43 7.637s-4.528 5.298-8.375 7.364l-.002.001-.698.389a.98.98 0 0 1-1.009 0l-.699-.39c-3.848-2.065-6.527-4.699-8.377-7.364a21.9 21.9 0 0 1-3.378-7.669 26 26 0 0 1-.748-6.114c0-1.599.149-2.676.193-2.883l.11-.645a1.09 1.09 0 0 1 .524-1.005l.023-.014zm.116.255.037.08m3.744-.96 8.793-2.688a.7.7 0 0 1 .29.002h.002l9 2.74c.271.092.417.36.33.619-.09.275-.357.422-.615.337l-.003-.001-8.849-2.723-8.665 2.644h-.003a.494.494 0 0 1-.615-.308.51.51 0 0 1 .334-.622zM8.115 5.28a.477.477 0 0 1 .541.378l.008.037 5.13 10.052h13.517q.027 0 .051.002l.195.021 4.855-10.064.007-.037a.43.43 0 0 1 .204-.296l.009-.005.008-.006a.5.5 0 0 1 .487-.034c.154.07.244.209.26.368l.002.008.158.927.001.006c.03.133.181 1.172.181 2.77 0 1.575-.157 3.65-.732 5.986-.55 2.206-1.543 4.857-3.347 7.455-1.803 2.598-4.417 5.17-8.183 7.192h-.002l-.708.395-.003.002a.43.43 0 0 1-.457 0h-.002l-.707-.394-.005-.003c-3.766-2.022-6.38-4.594-8.183-7.192a21.3 21.3 0 0 1-3.293-7.476v-.003l-.001-.003a25.3 25.3 0 0 1-.732-5.985c0-1.598.15-2.638.18-2.77l.002-.007.126-.737-.006-.04a.53.53 0 0 1 .252-.502.5.5 0 0 1 .17-.043l.009-.001zm.297 2.044-.047 1.048q-.022.454-.023 1.009c0 1.48.132 3.518.686 5.74a21.7 21.7 0 0 0 3.19 7.147v.002c1.463 2.1 3.48 4.2 6.3 5.986l.857.543zm24.304 1.147-.045-1.109-4.193 8.692v.024l-6.77 12.716.89-.567c2.784-1.775 4.806-3.847 6.26-5.958 1.714-2.489 2.663-5.03 3.19-7.147a24 24 0 0 0 .668-6.651Zm-23.15 6.517a23.4 23.4 0 0 1-.669-5.494l9.04 17.71a21.1 21.1 0 0 1-5.263-5.25 21.2 21.2 0 0 1-3.108-6.966Zm19.467 1.229v-.037l3.145-6.52a23.3 23.3 0 0 1-.667 5.328c-.515 2.068-1.44 4.544-3.11 6.966-1.249 1.814-2.933 3.604-5.187 5.193zm-14.742.503h12.753l-6.507 12.234zm6.256 11.034-5.35-10.48H26.12z"/><path fill="#fff" d="M61.045 10.182h-12.39c-.218 0-.4.073-.581.255a.86.86 0 0 0-.254.584v9.958c0 .219.072.401.254.584a.86.86 0 0 0 .581.255h12.39v1.678h-12.39c-.69 0-1.271-.256-1.744-.73a2.4 2.4 0 0 1-.726-1.75V10.983a2.4 2.4 0 0 1 .726-1.75 2.38 2.38 0 0 1 1.744-.73h12.39z"/><path fill="#fff" stroke="#fff" stroke-miterlimit="10" stroke-width=".312" d="M60.51 23.117h.156v-.919h-12.01c-.337 0-.648-.164-.85-.367a1.16 1.16 0 0 1-.365-.852v-9.958c0-.337.162-.648.365-.851a1.15 1.15 0 0 1 .85-.367h12.01v-.919h-12.01c-.586 0-1.072.212-1.476.617a2.02 2.02 0 0 0-.616 1.484v10.03c0 .59.212 1.078.616 1.484s.89.618 1.476.618zM46.643 8.967a2.76 2.76 0 0 1 2.013-.842h12.769v2.436h-12.77a.4.4 0 0 0-.154.029.5.5 0 0 0-.158.115.5.5 0 0 0-.105.154.4.4 0 0 0-.039.162v9.958c0 .043.003.096.029.157a.5.5 0 0 0 .115.16.5.5 0 0 0 .153.105.4.4 0 0 0 .16.038h12.769v2.436h-12.77a2.76 2.76 0 0 1-2.012-.84 2.78 2.78 0 0 1-.837-2.02v-10.03c0-.797.296-1.476.837-2.019Z"/><path fill="#fff" d="M84.3 8.504v1.678H72.382v4.96h9.593v1.715h-9.593v4.96H84.3v1.679H70.71V8.54H84.3z"/><path fill="#fff" stroke="#fff" stroke-miterlimit="10" stroke-width=".312" d="M72.917 10.562h-.156v4.202h9.592v2.473h-9.592v4.203h11.918v2.436H70.33V8.162h14.35v2.4zM83.92 9.077V8.92H71.09v14.197h12.83v-.92H72.003v-5.72h9.592v-.955h-9.592v-5.72H83.92v-.726Z"/><path fill="#fff" d="M108.862 10.984v4.378c0 .693-.254 1.276-.726 1.75a2.38 2.38 0 0 1-1.744.73h-2.289l4.687 5.58h-2.217l-4.687-5.544h-5.45c-.11 0-.4-.036-.8-.073v5.654h-1.671V8.504h12.427c.689 0 1.271.255 1.744.73.472.474.726 1.057.726 1.75m-12.426 5.18h9.919q.327 0 .545-.219a.74.74 0 0 0 .218-.547v-4.377a.9.9 0 0 0-.218-.584c-.145-.146-.327-.255-.545-.255h-9.92a.77.77 0 0 0-.58.255.86.86 0 0 0-.255.584v4.377c0 .219.073.401.254.547a.82.82 0 0 0 .582.219"/><path fill="#fff" d="m105.132 18.478 4.471 5.324h-3.205l-4.641-5.489-.046-.055h-5.275c-.06 0-.15-.007-.249-.017l-.171-.016v5.614h-2.43V8.125h12.806c.794 0 1.472.298 2.012.841a2.78 2.78 0 0 1 .838 2.019v4.377c0 .797-.297 1.475-.838 2.018a2.76 2.76 0 0 1-2.012.842h-1.476zm-10.788 4.446v.156h.913v-5.69l.414.038q.234.021.412.04l.1.01.225.02.018.001h5.637l4.64 5.49.047.055h1.226l-.216-.257-4.471-5.324h3.103c.585 0 1.071-.212 1.475-.618a2.02 2.02 0 0 0 .616-1.483v-4.377c0-.59-.212-1.078-.616-1.484a2 2 0 0 0-1.475-.617H94.344zm1.26-6.692-.007-.007a1.03 1.03 0 0 1-.376-.827v-4.377c0-.337.162-.648.365-.851a1.15 1.15 0 0 1 .85-.367h9.919c.355 0 .627.18.814.367l.014.015.014.016c.19.238.301.502.301.82v4.377a1.12 1.12 0 0 1-1.143 1.146h-9.92c-.285 0-.6-.092-.83-.312m.488-.582.017.013.014.015a.45.45 0 0 0 .313.107h9.919a.35.35 0 0 0 .277-.107.4.4 0 0 0 .079-.119.4.4 0 0 0 .028-.16V11.02a.5.5 0 0 0-.114-.319l-.008-.011-.011-.01c-.095-.088-.178-.12-.251-.12h-9.92a.4.4 0 0 0-.153.029.5.5 0 0 0-.159.115.5.5 0 0 0-.105.154.4.4 0 0 0-.038.162v4.377c0 .068.01.113.025.146a.3.3 0 0 0 .087.106"/><path stroke="#fff" stroke-miterlimit="10" stroke-width=".312" d="m96.408 17.499-.056-.005-.169-.015-.1-.01-.412-.04-.414-.039v5.69h-.913V8.884h12.048c.585 0 1.071.212 1.475.617.404.406.616.894.616 1.484v4.377c0 .59-.212 1.077-.616 1.483s-.89.618-1.475.618h-3.103l4.471 5.324.216.257h-1.226l-.047-.055-4.64-5.49h-5.628m-.027 0 .008-.154m-.008.154h.026m0 0 .002-.156m10.733-7.173c-.187-.188-.459-.367-.814-.367h-9.92a1.15 1.15 0 0 0-.85.367 1.24 1.24 0 0 0-.364.851v4.377c0 .312.109.603.376.827l.008.007c.23.22.545.312.83.312h9.92a1.12 1.12 0 0 0 1.143-1.145V11.02c0-.318-.111-.582-.301-.82m-.028-.031.107-.107m-.107.107.014.015.014.016m0 0 .122-.097M96.092 15.65l.097-.12m-.097.12.017.013.014.015a.45.45 0 0 0 .313.107h9.919a.35.35 0 0 0 .277-.107.4.4 0 0 0 .079-.119.4.4 0 0 0 .028-.16V11.02a.5.5 0 0 0-.114-.319l-.008-.011-.011-.01c-.095-.088-.178-.12-.251-.12h-9.92a.4.4 0 0 0-.153.029.5.5 0 0 0-.159.115.5.5 0 0 0-.105.154.4.4 0 0 0-.038.162v4.377c0 .068.01.113.025.146m.087.106a.3.3 0 0 1-.087-.106m0 0 .132-.06m8.995 2.994 4.471 5.324h-3.205l-4.641-5.489-.046-.055h-5.275c-.06 0-.15-.007-.249-.017l-.171-.016v5.614h-2.43V8.125h12.806c.794 0 1.472.298 2.012.841a2.78 2.78 0 0 1 .838 2.019v4.377c0 .797-.297 1.475-.838 2.018a2.76 2.76 0 0 1-2.012.842h-1.476z"/><path fill="#fff" d="M117.764 8.504h14.897v1.678h-6.613v13.277h-1.672V10.182h-6.612z"/><path fill="#fff" stroke="#fff" stroke-miterlimit="10" stroke-width=".312" d="M126.584 10.561h-.156v13.277h-2.431V10.562h-6.612V8.125h15.655v2.436zm-8.441-.914v.156h6.613V23.08h.913V9.803h6.613v-.919h-14.139z"/><path fill="#fff" d="M141.672 23.46V8.503h1.671v14.955z"/><path fill="#fff" stroke="#fff" stroke-miterlimit="10" stroke-width=".312" d="M142.051 22.924v.156h.913V8.884h-.913zm-.759.915V8.125h2.43v15.714z"/><path fill="#fff" d="M165.725 8.504h2.144l-6.213 7.478 6.25 7.477h-2.181l-5.558-6.638h-4.797v6.638h-1.708V8.504h1.708v6.639h4.797z"/><path fill="#fff" stroke="#fff" stroke-miterlimit="10" stroke-width=".312" d="M165.549 8.125h3.129l-6.445 7.756-.083.1.084.1 6.483 7.758h-3.168l-5.513-6.583-.047-.056h-4.239v6.639h-2.467V8.125h2.467v6.639h4.239l.047-.056zm-11.507 14.8v.155h.949v-6.638h5.353l5.512 6.583.047.055h1.192l-.215-.256-5.717-6.841 5.685-6.844.213-.255h-1.158l-.047.055-5.512 6.583h-5.353V8.884h-.949v14.04Z"/></svg>