<svg xmlns="http://www.w3.org/2000/svg" width="24" height="24" fill="none" viewBox="0 0 24 24"><path stroke="#89f801" stroke-linecap="round" stroke-linejoin="round" stroke-width="1.5" d="M18.327 7.285h-8.044a1.93 1.93 0 0 0-1.925 1.938v10.088c0 1.07.862 1.938 1.925 1.938h8.044a1.93 1.93 0 0 0 1.925-1.938V9.223c0-1.07-.862-1.938-1.925-1.938"/><path stroke="#89f801" stroke-linecap="round" stroke-linejoin="round" stroke-width="1.5" d="M15.642 7.286V4.688c0-.514-.203-1.007-.564-1.37a1.92 1.92 0 0 0-1.361-.568H5.673c-.51 0-1 .204-1.36.568a1.95 1.95 0 0 0-.565 1.37v10.088c0 .514.203 1.007.564 1.37s.85.568 1.361.568h2.685"/></svg>