<svg xmlns="http://www.w3.org/2000/svg" width="24" height="24" fill="none" viewBox="0 0 24 24"><g fill="#89f801" clip-path="url(#a)"><path d="M9.5 12.12a1.38 1.38 0 0 0-1.38 1.38v1.12a.26.26 0 0 0 .26.26h2.24a.26.26 0 0 0 .26-.26V13.5a1.38 1.38 0 0 0-1.38-1.38"/><path d="M22.5 0h-21A1.5 1.5 0 0 0 0 1.5v21A1.5 1.5 0 0 0 1.5 24h21a1.5 1.5 0 0 0 1.5-1.5v-21A1.5 1.5 0 0 0 22.5 0M12.12 19.5a.62.62 0 0 1-1.24 0v-3.12a.26.26 0 0 0-.26-.26H8.38a.26.26 0 0 0-.26.26v3.12a.62.62 0 0 1-1.24 0v-5.9A2.69 2.69 0 0 1 9 10.93a2.62 2.62 0 0 1 3.14 2.57zm5.38-.62a.62.62 0 0 1 0 1.24h-4a.62.62 0 0 1 0-1.24h1.12a.26.26 0 0 0 .26-.26v-6.24a.26.26 0 0 0-.26-.26H13.5a.62.62 0 0 1 0-1.24h4a.62.62 0 0 1 0 1.24h-1.12a.26.26 0 0 0-.26.26v6.24a.26.26 0 0 0 .26.26z"/></g><defs><clipPath id="a"><path fill="#fff" d="M0 0h24v24H0z"/></clipPath></defs></svg>