<svg xmlns="http://www.w3.org/2000/svg" width="25" height="24" fill="none" viewBox="0 0 25 24"><g stroke="#000" stroke-linecap="round" stroke-linejoin="round" stroke-width="1.5" clip-path="url(#a)"><path d="m16.856 16.356 2.651 6.894 1.591-2.651 2.652-1.591zm6.894 6.894-2.652-2.652M5 12V4.5m0 0h1.5A1.5 1.5 0 0 1 8 6v.75a1.5 1.5 0 0 1-1.5 1.5H5m0 0h1.5A1.5 1.5 0 0 1 8 9.75v.75A1.5 1.5 0 0 1 6.5 12H5m6-7.5v6a1.5 1.5 0 1 0 3 0v-6m3 0v2.25a1.5 1.5 0 1 0 3 0V4.5m-1.5 3.75V12"/><path d="M13.25 15.75h-9a3 3 0 0 1-3-3v-9a3 3 0 0 1 3-3h16.5a3 3 0 0 1 3 3v9a3 3 0 0 1-1.541 2.622"/></g><defs><clipPath id="a"><path fill="#fff" d="M.5 0h24v24H.5z"/></clipPath></defs></svg>