<svg xmlns="http://www.w3.org/2000/svg" width="24" height="24" fill="none" viewBox="0 0 24 24"><g clip-path="url(#a)"><path fill="#89f801" fill-rule="evenodd" d="M19.618 5.315c.581.632.581 1.518 0 2.15-.252.28-.555.604-.904.95H16.91c-.717 0-1.538.362-1.983 1.05h-.702a2.586 2.586 0 0 0-2.586 2.587v.57a8.4 8.4 0 0 1-1.611.159c-4.36 0-7.993-3.417-9.591-5.315-.581-.633-.581-1.519 0-2.151C2.034 3.543 5.667 0 10.026 0c4.36 0 7.993 3.543 9.592 5.315m-9.591 4.111a3.036 3.036 0 1 0 0-6.071 3.036 3.036 0 0 0 0 6.071m10.203.49h-3.32c-.448 0-.81.31-.81.691v.717c0 .381.362.69.81.69h3.32c.447 0 .81-.309.81-.69v-.717c0-.382-.363-.691-.81-.691m-5.63 1.05h-.376a1.086 1.086 0 0 0-1.086 1.086v10.862A1.086 1.086 0 0 0 14.224 24h8.69A1.086 1.086 0 0 0 24 22.914V12.052a1.086 1.086 0 0 0-1.086-1.087h-.374v.359c0 1.424-1.266 2.19-2.31 2.19h-3.32c-1.045 0-2.31-.766-2.31-2.19zm6.519 4.681a.75.75 0 0 1 .238 1.034l-2.69 4.304a.75.75 0 0 1-1.052.226l-1.614-1.076a.75.75 0 0 1 .832-1.248l.972.648 2.28-3.65a.75.75 0 0 1 1.034-.238" clip-rule="evenodd"/></g><defs><clipPath id="a"><path fill="#fff" d="M0 0h24v24H0z"/></clipPath></defs></svg>