<svg xmlns="http://www.w3.org/2000/svg" width="136" height="136" fill="none" viewBox="0 0 136 136"><path fill="#89f801" d="M23.283 87.41a.8.8 0 0 1-.4-.108l-12.08-6.98a.798.798 0 0 1-.003-1.385l23.8-13.84a.8.8 0 0 1 1.2.617c.327 3.467 2.567 6.738 6.48 9.459a.8.8 0 0 1-.055 1.348L23.685 87.3a.8.8 0 0 1-.402.11m-10.486-7.784 10.485 6.059 17.082-9.934c-3.28-2.535-5.321-5.5-5.977-8.68zM94.363 46.09a.8.8 0 0 1-.8-.803l.02-8.44q0-.065.01-.129a1 1 0 0 1-.01-.129v-.119c0-.857-.11-1.703-.335-2.584a.8.8 0 0 1 .292-.834.79.79 0 0 1 .883-.057l10.2 5.881c.248.143.4.407.4.692a.8.8 0 0 1-.398.693l-9.86 5.719a.8.8 0 0 1-.402.11m.798-9.429q.021.092.021.19l-.015 7.047 7.459-4.326-7.508-4.329q.064.613.064 1.227a1 1 0 0 1-.021.191"/><path fill="#89f801" d="M55.384 117.615c-2.847 0-5.698-.631-7.87-1.89L6.723 92.172c-2.272-1.307-3.524-3.1-3.524-5.049l.035-14.154v-.004a.8.8 0 0 1 .8-.8c.441.001.8.358.8.8 0 1.324.99 2.646 2.718 3.625l40.796 23.556c3.92 2.258 10.256 2.256 14.126.002l66.046-38.376c1.718-1.004 2.667-2.282 2.675-3.598v-.018a.8.8 0 1 1 1.599.002v.02l-.035 14.176c0 1.904-1.224 3.677-3.447 4.992l-66.07 38.379c-2.163 1.259-5.01 1.89-7.859 1.89m-50.558-41.1-.027 10.61c0 1.35.967 2.65 2.723 3.66l40.793 23.555c3.902 2.265 10.24 2.264 14.125.002l66.064-38.377c1.711-1.012 2.657-2.295 2.657-3.613l.026-10.616a9 9 0 0 1-1.86 1.418L63.28 101.531c-4.313 2.512-11.367 2.516-15.73.002L6.757 77.978a8.7 8.7 0 0 1-1.932-1.462"/><path fill="#89f801" d="M55.012 117.609h-.016c-2.831-.058-5.49-.728-7.483-1.884L6.723 92.172C4.452 90.865 3.2 89.07 3.2 87.122l.035-14.16a.8.8 0 0 1 1.6.003c0 1.324.99 2.646 2.718 3.625l40.796 23.556c1.759 1.014 4.133 1.604 6.682 1.663a.797.797 0 0 1 .781.798v14.202a.8.8 0 0 1-.8.8M4.826 76.516l-.027 10.607c0 1.352.967 2.652 2.723 3.662l40.793 23.555c1.575.914 3.646 1.484 5.897 1.633v-12.6c-2.517-.158-4.859-.803-6.663-1.84L6.76 77.978a8.7 8.7 0 0 1-1.933-1.462"/><path fill="#89f801" d="M11.203 80.428a.8.8 0 0 1-.4-.108l-4.06-2.34c-2.266-1.312-3.515-3.101-3.518-5.033-.002-1.925 1.232-3.705 3.476-5.011l28.06-16.3a.8.8 0 0 1 1.188.834c-.13.714-.187 1.272-.187 1.817l-.02 10.463c0 .309.018.635.055.944a.8.8 0 0 1-.392.785l-23.8 13.84a.8.8 0 0 1-.402.109m22.971-26.6-26.67 15.49c-1.728 1.008-2.68 2.295-2.678 3.626 0 1.34.966 2.636 2.718 3.652l3.657 2.107 22.96-13.351a10 10 0 0 1-.018-.604l.02-10.463q0-.225.011-.457m21.246 49.621c-2.833 0-5.665-.637-7.876-1.908l-24.662-14.24a.799.799 0 0 1-.002-1.385l18.54-10.78a.81.81 0 0 1 .857.034c.563.389 1.184.775 1.825 1.144 11.414 6.58 29.905 6.583 41.218.002 5.296-3.082 8.223-7.127 8.243-11.392l.02-10.498c.017-1.14-.207-2.324-.668-3.533a.8.8 0 0 1 0-.573 9.9 9.9 0 0 0 .648-3.386v-1.647c0-.285.151-.549.398-.691l9.86-5.719a.8.8 0 0 1 .802-.002l24.66 14.24c2.265 1.303 3.515 3.088 3.517 5.026.002 1.927-1.232 3.703-3.475 4.998l-66.04 38.4c-2.203 1.273-5.033 1.91-7.866 1.91M24.877 86.606l23.465 13.548c3.906 2.25 10.25 2.25 14.139 0l66.038-38.398.002-.002c1.728-.998 2.68-2.281 2.678-3.611-.001-1.342-.966-2.635-2.716-3.641l-24.261-14.01-9.06 5.256v1.2c-.022 1.275-.24 2.5-.648 3.66.463 1.302.687 2.59.667 3.833l-.02 10.489c-.022 4.857-3.232 9.392-9.038 12.77-11.755 6.835-30.965 6.833-42.82.001a31 31 0 0 1-1.513-.93z"/><path fill="#89f801" d="M64.742 82.826c-7.753 0-15.513-1.709-21.434-5.127-5.928-3.424-9.186-8.023-9.171-12.949l.03-10.488a.8.8 0 1 1 1.599.004c-.011 4.332 2.962 8.437 8.372 11.558 11.4 6.582 29.888 6.584 41.212.002 5.302-3.082 8.23-7.129 8.24-11.394a.8.8 0 0 1 .8-.8.78.78 0 0 1 .8.803l-.029 10.489c-.014 4.86-3.223 9.394-9.036 12.773-5.884 3.42-13.63 5.13-21.383 5.13M35.75 60.086l-.014 4.668c-.011 4.33 2.961 8.435 8.372 11.558 11.399 6.582 29.888 6.585 41.212.002 5.302-3.082 8.229-7.128 8.242-11.394l.012-4.678c-1.499 2.608-4.011 4.986-7.42 6.967-11.767 6.84-30.975 6.838-42.817.002-3.503-2.023-6.073-4.455-7.587-7.125"/><path fill="#89f801" d="M64.775 72.34c-7.755 0-15.515-1.713-21.434-5.14-7.611-4.395-10.762-10.712-8.427-16.895a.802.802 0 0 1 1.496-.002c1.152 3.025 3.811 5.803 7.69 8.031 11.4 6.59 29.89 6.588 41.22.002 3.844-2.24 6.47-5.01 7.593-8.01a.8.8 0 0 1 .743-.52h.006a.8.8 0 0 1 .745.51c2.405 6.166-.677 12.479-8.243 16.883-5.887 3.428-13.635 5.14-21.39 5.14M35.882 52.865c-.733 4.742 2.232 9.469 8.26 12.95 11.394 6.597 29.885 6.6 41.218.001 5.993-3.49 8.902-8.214 8.104-12.95-1.509 2.572-4.008 4.911-7.34 6.853-11.77 6.845-30.981 6.847-42.822.002-3.358-1.93-5.885-4.272-7.42-6.856"/><path fill="#89f801" d="M64.742 64.852c-7.753 0-15.513-1.71-21.434-5.127-5.928-3.424-9.186-8.024-9.171-12.95l.03-10.486a.8.8 0 1 1 1.599.004c-.011 4.33 2.962 8.435 8.372 11.557 11.4 6.584 29.888 6.582 41.212.002 5.302-3.082 8.23-7.13 8.24-11.395.003-.441.34-.756.803-.799a.8.8 0 0 1 .797.803l-.029 10.488c-.014 4.86-3.223 9.395-9.036 12.774-5.884 3.42-13.63 5.129-21.383 5.129M35.75 42.112l-.014 4.667c-.011 4.33 2.961 8.436 8.372 11.559 11.399 6.582 29.888 6.584 41.212.002 5.302-3.082 8.229-7.13 8.242-11.395l.012-4.677c-1.499 2.607-4.011 4.986-7.42 6.966-11.767 6.84-30.975 6.838-42.817.002-3.503-2.023-6.073-4.455-7.587-7.125"/><path fill="#89f801" d="M64.773 54.366c-7.753 0-15.515-1.71-21.436-5.127-5.906-3.41-9.163-7.992-9.17-12.903-.006-4.876 3.2-9.43 9.032-12.818 11.767-6.84 30.973-6.838 42.817-.002 5.91 3.412 9.168 7.992 9.175 12.9.008 4.878-3.202 9.43-9.036 12.82-5.884 3.42-13.63 5.13-21.382 5.13m-.193-34.4c-7.462 0-14.914 1.644-20.577 4.935-5.317 3.09-8.242 7.15-8.236 11.433.006 4.315 2.979 8.405 8.371 11.518 11.4 6.584 29.889 6.582 41.212.002 5.32-3.092 8.247-7.152 8.241-11.435-.005-4.313-2.98-8.403-8.376-11.516-5.699-3.291-13.172-4.938-20.635-4.938"/><path fill="#89f801" d="M94.382 37.648a.8.8 0 0 1-.8-.8v-.26a.801.801 0 0 1 1.6 0v.26a.8.8 0 0 1-.8.8"/><path fill="#89f801" d="M94.382 37.648a.8.8 0 0 1-.8-.8v-.26a.801.801 0 0 1 1.6 0v.26a.8.8 0 0 1-.8.8m-29.643 10.3c-4.916 0-9.836-1.084-13.59-3.25-3.799-2.193-5.894-5.158-5.898-8.346-.005-3.17 2.058-6.115 5.81-8.296 7.462-4.336 19.639-4.338 27.146-.002 3.801 2.195 5.897 5.16 5.9 8.347.006 3.168-2.06 6.116-5.813 8.295-3.73 2.168-8.64 3.252-13.555 3.252m-.122-21.568c-4.625 0-9.243 1.02-12.751 3.059-3.239 1.882-5.02 4.335-5.016 6.912.004 2.593 1.815 5.066 5.1 6.96 7.064 4.083 18.522 4.08 25.54.002 3.24-1.882 5.022-4.336 5.018-6.91-.004-2.591-1.815-5.066-5.102-6.963-3.532-2.04-8.164-3.06-12.79-3.06"/><path fill="#89f801" d="M64.698 40.52c.108-.061.236-.107.374-.14q1.899-.42 3.406-1.22l-3.712-2.156a24 24 0 0 1-2.49.707 8 8 0 0 1-2.217.17 4.65 4.65 0 0 1-2.078-.625q-.836-.487-1.138-1.14-.291-.652.06-1.395.352-.75 1.409-1.468l-1.13-.657c-.142-.082-.21-.178-.217-.286q-.007-.164.206-.287a1 1 0 0 1 .502-.122q.289 0 .5.122l1.113.647a15.3 15.3 0 0 1 3.361-1.321q.614-.17 1.1.112.257.15.291.374c.017.15-.067.283-.261.395a1.4 1.4 0 0 1-.326.112c-.997.276-1.93.647-2.81 1.115l3.842 2.233q1.444-.514 2.539-.775a7.8 7.8 0 0 1 2.252-.186q1.16.071 2.209.681.852.496 1.082 1.168c.16.446.085.913-.208 1.401q-.44.734-1.498 1.416l1.147.667c.138.08.21.174.206.28.003.107-.077.205-.227.291a1 1 0 0 1-.477.128.94.94 0 0 1-.494-.126l-1.147-.667a18 18 0 0 1-4.04 1.454c-.18.044-.38.056-.588.032a1.3 1.3 0 0 1-.528-.154q-.275-.16-.288-.385-.016-.225.275-.394m4.772-1.932q2.13-1.415.449-2.391-.626-.364-1.551-.234c-.616.088-1.402.29-2.368.608zm-9.773-4.53q-.846.638-.968 1.242-.126.606.616 1.037.712.415 1.644.325.933-.09 2.26-.54z"/></svg>