<svg xmlns="http://www.w3.org/2000/svg" width="120" height="120" fill="none" viewBox="0 0 120 120"><path fill="url(#a)" stroke="#89f801" d="M60 1.701c32.146 0 58.3 26.154 58.3 58.3s-26.154 58.3-58.3 58.3-58.3-26.154-58.3-58.3 26.154-58.3 58.3-58.3ZM48.064 82.116a2.76 2.76 0 0 0-2.385 1.38l-4.288 7.349a2.76 2.76 0 0 0-.18 2.415l5.578 14.048c.165.416.428.786.768 1.078v-.001c.34.291.746.496 1.182.596a50.4 50.4 0 0 0 22.553 0v.001a2.75 2.75 0 0 0 1.965-1.681l5.538-14.041-.001-.001a2.76 2.76 0 0 0-.108-2.277l-.075-.137-4.29-7.35a2.77 2.77 0 0 0-2.385-1.379zm-22.212-27.91a2.76 2.76 0 0 0-2.865.448v.001l-11.77 10.126a2.76 2.76 0 0 0-.788 1.133v.001a2.8 2.8 0 0 0-.16 1.198l.02.174a49.9 49.9 0 0 0 6.932 19.036v.001a2.77 2.77 0 0 0 2.354 1.316h12.784a2.76 2.76 0 0 0 2.385-1.382l4.561-7.8a2.76 2.76 0 0 0 .35-1.805l-.053-.264-4.2-16.938a2.8 2.8 0 0 0-.48-1.005l-.1-.125a2.76 2.76 0 0 0-1.024-.75l-7.945-3.365Zm69.798-.208a2.76 2.76 0 0 0-1.504.186l-7.943 3.364a2.8 2.8 0 0 0-.917.632l-.109.119a2.8 2.8 0 0 0-.537.975l-.043.155-4.2 16.937a2.76 2.76 0 0 0 .172 1.831l.125.24 4.563 7.824a2.76 2.76 0 0 0 2.383 1.379h12.786a2.77 2.77 0 0 0 1.361-.36h-.001a2.8 2.8 0 0 0 1.003-.978h.001a49.9 49.9 0 0 0 6.932-19.036 2.75 2.75 0 0 0-.14-1.373v-.001l-.067-.162a2.8 2.8 0 0 0-.721-.971L97.025 54.633a2.76 2.76 0 0 0-1.376-.635zM41.357 13.682a2.76 2.76 0 0 0-1.342.21l-.004.002A50.5 50.5 0 0 0 21.739 27.45a2.76 2.76 0 0 0-.57 2.55l.055.174 5.109 14.524q.144.411.406.756l.186.22c.263.28.582.502.936.652v.001l8.374 3.55c.41.174.855.245 1.297.21l.19-.022a2.76 2.76 0 0 0 1.215-.499l.15-.117L54.99 36.11a2.76 2.76 0 0 0 .987-2.116V24.5c0-.398-.087-.79-.252-1.15l-.075-.152-.085-.147a2.8 2.8 0 0 0-.817-.846l-12.11-8.068h-.002a2.76 2.76 0 0 0-1.278-.455Zm37.295 0a2.8 2.8 0 0 0-1.293.455l-12.107 8.068a2.77 2.77 0 0 0-1.228 2.295v9.498a2.76 2.76 0 0 0 1.001 2.105l15.9 13.338a2.76 2.76 0 0 0 2.674.496l.178-.068 8.362-3.542.003-.002a2.76 2.76 0 0 0 1.515-1.63l5.106-14.523h.001a2.76 2.76 0 0 0-.39-2.581l-.114-.142a50.5 50.5 0 0 0-18.257-13.544 2.76 2.76 0 0 0-1.35-.222Z" opacity=".05"/><defs><linearGradient id="a" x1="62.978" x2="-2.205" y1="-12.648" y2="83.263" gradientUnits="userSpaceOnUse"><stop stop-color="#89f801"/><stop offset=".98" stop-color="#89f801" stop-opacity=".02"/></linearGradient></defs></svg>