<svg xmlns="http://www.w3.org/2000/svg" width="64" height="64" fill="none" viewBox="0 0 64 64"><path fill="#89f801" fill-opacity=".24" d="M32 .5C49.397.5 63.5 14.603 63.5 32S49.397 63.5 32 63.5.5 49.397.5 32 14.603.5 32 .5"/><path stroke="#559705" d="M32 .5C49.397.5 63.5 14.603 63.5 32S49.397 63.5 32 63.5.5 49.397.5 32 14.603.5 32 .5Z"/><g stroke="#89f801" stroke-width="1.2" clip-path="url(#a)"><path stroke-linecap="round" stroke-linejoin="round" d="M27.833 25.5c3.814 0 7.463-.245 9.764-.44.295-.025.584 0 .856.07m0 0a9.6 9.6 0 0 0-.56-2.488c-.276-.752-1.037-1.146-1.837-1.128-7.164.16-10.927 1.646-12.693 2.677-.944.551-1.432 1.562-1.544 2.65-.147 1.429-.319 3.737-.319 6.738 0 2.843.154 4.954.296 6.295.113 1.07.866 1.924 1.928 2.107 1.423.246 3.79.52 7.276.52 3.455 0 5.833-.27 7.28-.513 1.1-.186 1.875-1.08 1.974-2.19a61 61 0 0 0 .193-3.186M38.453 25.13c.982.252 1.746 1.078 1.824 2.145.076 1.04.152 2.376.193 3.944"/><path stroke-linejoin="round" d="M35.534 35.319a1.45 1.45 0 0 0 1.292 1.381c1.415.163 3.02.044 4.43-.22.67-.127 1.163-.658 1.205-1.339a27 27 0 0 0 .012-2.602c-.039-.865-.813-1.446-1.675-1.354-1.185.128-2.405.214-3.59.182-.866-.023-1.642.557-1.682 1.422a27 27 0 0 0 .008 2.53Z"/><path stroke-linecap="round" d="M38 33.875v.5"/></g><defs><clipPath id="a"><path fill="#fff" d="M20 20h24v24H20z"/></clipPath></defs></svg>