<svg xmlns="http://www.w3.org/2000/svg" width="64" height="64" fill="none" viewBox="0 0 64 64"><rect width="63" height="63" x=".5" y=".5" fill="#89f801" fill-opacity=".24" rx="31.5"/><rect width="63" height="63" x=".5" y=".5" stroke="#559705" rx="31.5"/><path fill="#89f801" d="m40.003 18.482 5.633-5.83V24.61h-1.483l1.483 1.483v15.473h-2.94v6.364l-2.298 1.486V36.467l4.051-4.052h-3.162l-3.936 2.273-4.166-2.406v-4.116h7.608l-3.765-2.174H26.96l-3.755 2.174h7.213v11.957h3.247l4.361 3.523v4.184l1.895 1.894-7.922 5.127-10.697-6.922v-6.364h-2.606L18.52 26.23l1.623-1.622H18.5l-.138-11.957 5.632 5.83L32 9.15zM31.9 48.022l1.285-1.284h-2.57zm-4.15-2.865h8.498l-2.075-1.68h-4.15zm-5.237-12.84-1.087 1.086 4.743 5.238 1.384-1.186V34.49h-2.767zh7.51l-1.779-1.68h-4.05zm11.561-.035h6.719l-1.547-1.547h-3.59z"/><path fill="#233e04" d="m32.011 22.385-1.79-3.102 1.79-3.101 1.791 3.102z"/></svg>