<svg xmlns="http://www.w3.org/2000/svg" width="24" height="24" fill="none" viewBox="0 0 24 24"><g clip-path="url(#a)"><path stroke="#89f801" stroke-linecap="round" stroke-linejoin="round" stroke-width="1.2" d="M.5 3.5v17c4 2.25 15.5 2 21 2V17M.5 3.5c4 2.5 15.5 2 21 2V11M.5 3.5c4-2.5 15.5-2 18-2V4m-.871 7.475A6.8 6.8 0 0 0 15 14a6.8 6.8 0 0 0 2.629 2.525c.751.402 1.615.475 2.467.475H23.5v-6h-3.404c-.852 0-1.716.073-2.467.475"/></g><defs><clipPath id="a"><path fill="#fff" d="M0 0h24v24H0z"/></clipPath></defs></svg>