<svg xmlns="http://www.w3.org/2000/svg" width="136" height="136" fill="none" viewBox="0 0 136 136"><path fill="#89f801" d="M46.233 131.378c-.843 0-1.63-.2-2.33-.604-1.653-.95-2.566-2.883-2.573-5.443l-.215-75.572c-.013-5.028 3.403-10.944 7.776-13.469l45-25.981c2.243-1.295 4.394-1.484 6.055-.527 1.651.95 2.563 2.885 2.57 5.448l.215 75.572c.013 4.943-3.475 10.986-7.776 13.469l-45 25.981c-1.297.749-2.562 1.126-3.722 1.126m48.46-119.685L49.69 37.675c-3.859 2.228-6.988 7.646-6.976 12.08l.215 75.572c.006 1.965.635 3.406 1.77 4.061 1.148.657 2.727.474 4.453-.521l45.001-25.981c3.86-2.229 6.989-7.647 6.977-12.08l-.215-75.573c-.006-1.967-.634-3.41-1.767-4.064-1.147-.658-2.729-.474-4.457.524"/><path fill="#89f801" d="M43.409 44.593a.8.8 0 0 1-.402-.108l-7.843-4.55a.8.8 0 0 1-.32-1.036c1.482-3.129 3.743-5.74 6.205-7.164l45-25.98c2.24-1.306 4.394-1.49 6.063-.519l7.858 4.56a.8.8 0 0 1-.8 1.385c-1.168-.669-2.758-.484-4.478.518L49.69 37.68c-2.185 1.263-4.21 3.617-5.559 6.456a.8.8 0 0 1-.722.456m-6.792-5.667 6.459 3.749c1.475-2.78 3.561-5.078 5.813-6.38l45-25.98a8.7 8.7 0 0 1 2.19-.928L91.308 6.62c-1.15-.67-2.733-.485-4.456.52L41.85 33.12c-2.016 1.167-3.897 3.26-5.233 5.807"/><path fill="#89f801" d="M44.288 130.867a.8.8 0 0 1-.398-.106l-.032-.019-7.811-4.543c-1.647-.934-2.558-2.864-2.558-5.432l-.22-75.557c0-1.954.544-4.136 1.574-6.31a.8.8 0 0 1 1.124-.35l7.843 4.55a.8.8 0 0 1 .32 1.036c-.929 1.96-1.421 3.9-1.421 5.612l.22 75.578c0 1.915.633 3.386 1.737 4.035l.025.015a.8.8 0 0 1-.403 1.491m-8.353-90.485c-.7 1.687-1.067 3.342-1.067 4.826l.22 75.557c0 1.969.624 3.405 1.756 4.046l4.77 2.775a8.6 8.6 0 0 1-.285-2.256l-.22-75.58c0-1.748.439-3.68 1.273-5.628zm24.079 39.379a.8.8 0 0 1-.765-1.035L63.8 63.97a.795.795 0 0 1 1-.529.8.8 0 0 1 .529 1l-4.55 14.757a.8.8 0 0 1-.764.564m23.542-13.549a.8.8 0 0 1-.74-.496l-4.077-9.89a.8.8 0 0 1 1.478-.61l4.078 9.891a.798.798 0 0 1-.739 1.105"/><path fill="#89f801" d="M54.695 102.778c-1.015 0-1.96-.24-2.801-.725-1.99-1.144-3.09-3.486-3.099-6.594-.018-6.08 4.272-13.512 9.563-16.566 2.703-1.56 5.292-1.789 7.286-.64 1.995 1.148 3.1 3.493 3.107 6.603.018 6.184-4.17 13.453-9.533 16.55-1.58.912-3.117 1.372-4.523 1.372m8.153-23.646c-1.114 0-2.371.386-3.69 1.147-4.765 2.75-8.779 9.7-8.763 15.176.007 2.513.823 4.364 2.296 5.212 1.489.859 3.524.628 5.726-.646 4.832-2.79 8.75-9.59 8.734-15.161-.006-2.515-.826-4.37-2.305-5.22-.59-.34-1.263-.508-1.998-.508"/><path fill="#89f801" d="M58.741 83.72c1.007-.58 1.844-.125 1.847 1.046.003 1.157-.828 2.576-1.835 3.158-1.001.577-1.838.122-1.84-1.035-.004-1.172.827-2.59 1.828-3.168m.016 5.487c2.31-1.334 4.225-.477 4.547 1.897.05.362-.22.874-.566 1.073l-7.927 4.577c-.346.2-.618.002-.57-.417.308-2.738 2.211-5.8 4.516-7.13m22.237-1.613c-1.014 0-1.96-.24-2.8-.725-1.99-1.145-3.09-3.486-3.1-6.596-.017-6.079 4.272-13.51 9.562-16.564 2.706-1.563 5.292-1.787 7.286-.64 1.996 1.148 3.1 3.492 3.109 6.603.017 6.183-4.171 13.453-9.534 16.55-1.58.912-3.117 1.371-4.523 1.371m4.463-22.5c-4.765 2.751-8.778 9.7-8.763 15.175.008 2.514.824 4.365 2.297 5.213 1.488.859 3.522.625 5.725-.645 4.833-2.79 8.75-9.591 8.735-15.161-.008-2.515-.827-4.37-2.306-5.221-1.48-.852-3.5-.625-5.688.638"/><path fill="#89f801" d="M85.04 68.537c1.008-.581 1.845-.126 1.848 1.046.003 1.157-.828 2.576-1.835 3.157-1.001.578-1.838.122-1.841-1.035-.003-1.171.828-2.59 1.829-3.168m.016 5.487c2.31-1.334 4.225-.477 4.547 1.897.05.362-.22.874-.566 1.074L81.11 81.57c-.346.2-.619.002-.57-.417.308-2.738 2.211-5.8 4.516-7.13M66.37 65.244c-1.333 0-2.572-.313-3.67-.946-2.617-1.505-4.063-4.605-4.075-8.731-.023-8.186 5.753-18.193 12.876-22.305 3.587-2.072 7.01-2.384 9.633-.872 2.624 1.51 4.076 4.614 4.087 8.741.023 8.327-5.615 18.116-12.838 22.285-2.105 1.215-4.15 1.828-6.013 1.828m5.932-30.597c-6.568 3.793-12.099 13.37-12.077 20.916.01 3.53 1.172 6.14 3.272 7.348 2.12 1.22 4.991.907 8.085-.88 6.66-3.844 12.06-13.218 12.04-20.896-.01-3.531-1.178-6.145-3.286-7.358-2.106-1.215-4.96-.904-8.034.87"/><path fill="#89f801" d="M71.88 39.59c1.371-.792 2.51-.172 2.515 1.423.005 1.576-1.127 3.508-2.499 4.3-1.363.786-2.502.166-2.506-1.41-.005-1.595 1.127-3.527 2.49-4.314m.021 7.471c3.146-1.816 5.754-.649 6.193 2.584.068.492-.3 1.19-.771 1.462l-10.794 6.231c-.472.272-.843.003-.777-.568.419-3.728 3.011-7.897 6.149-9.708m-21.629 70.395a.8.8 0 0 1-.402-1.493L80.135 98.49a.8.8 0 0 1 .8 1.385l-30.264 17.473a.8.8 0 0 1-.4.108m35.991-20.78a.8.8 0 0 1-.401-1.492l7.577-4.374a.8.8 0 1 1 .8 1.385l-7.577 4.373a.8.8 0 0 1-.399.108"/></svg>