<svg xmlns="http://www.w3.org/2000/svg" width="28" height="47" fill="none" viewBox="0 0 28 47"><path fill="#fff" d="m22.065 9.732 5.633-5.83V15.86h-1.482l1.482 1.483v15.473h-2.94v6.364l-2.297 1.486V27.717l4.05-4.052H23.35l-3.937 2.274-4.166-2.407v-4.116h7.608l-3.764-2.174H9.022l-3.754 2.174h7.212v11.957h3.247l4.362 3.522v4.185l1.894 1.894-7.921 5.127-10.698-6.922v-6.364H.76L.582 17.48l1.623-1.622H.563L.426 3.902l5.632 5.83L14.062.4zm-8.102 29.54 1.284-1.285h-2.57zm-4.15-2.866h8.498l-2.076-1.68h-4.15zm-5.238-12.84-1.087 1.087 4.743 5.238 1.384-1.186V25.74H6.85zh7.51l-1.778-1.68H6.256zm11.562-.034h6.718l-1.546-1.547h-3.591z"/><path fill="#171717" d="m14.074 13.635-1.791-3.101 1.79-3.102 1.792 3.101z"/><path stroke="#fff" stroke-width=".414" d="m12.213 10.533 1.86 1.075 1.862-1.075"/></svg>