<svg xmlns="http://www.w3.org/2000/svg" width="566" height="148" fill="none" viewBox="0 0 566 148"><path fill="#fff" fill-opacity=".68" d="m44.703.689 25.692 29.957 18.083-18.718v38.387H83.73l4.747 4.747v49.689h-9.436v20.433l-7.342 4.75V88.388L84.707 75.38H74.556l-12.639 7.297-13.376-7.722V61.74h24.428L60.88 54.76H28.555L16.5 61.74h23.158v38.385h10.425l14.003 11.31v13.436l6.065 6.065-25.448 16.467v.004l-.003-.002-.002.002v-.004L10.36 125.184v-20.433H1.994l-.568-49.218 5.219-5.217H1.366L.924 11.928l18.083 18.718L44.698.689V.684l.002.002.003-.002zm-.3 124.798 4.123-4.124h-8.248zm-13.325-9.199h27.283l-6.662-5.394H38.375zm-20.297-37.73L26.01 95.371l4.441-3.808v-9.517h-8.883l-7.296-6.98h24.11l-5.71-5.393H19.664zm40.616-3.603h21.572l-4.967-4.967h-11.53z"/><path fill="#8b8b8b" d="m44.746 43.174-5.75-9.958 5.75-9.959 5.75 9.959z"/><path stroke="#fff" stroke-opacity=".68" stroke-width="1.328" d="m38.78 33.218 5.976 3.45 5.975-3.45"/><path fill="#fff" fill-opacity=".68" d="m158.449 111.996-16.583-65.133h12.898l12.529 53.156 12.345-53.156h15.661l12.345 53.156 12.345-53.156h12.252l-16.49 65.133h-16.214l-12.253-52.143-12.345 52.143zm75.8 0 24.966-65.133h13.727l24.874 65.133h-12.437l-4.33-12.069h-30.033l-4.422 12.069zm20.452-22.479h22.571l-11.239-31.046zm79.758 23.216q-9.949 0-16.859-4.146-6.91-4.237-10.502-11.7-3.501-7.554-3.501-17.412 0-7.461 1.935-13.542 2.027-6.08 5.896-10.502 3.961-4.515 9.673-6.91 5.712-2.487 13.174-2.487 7.278 0 12.99 2.395 5.803 2.304 9.489 6.817 3.777 4.515 5.067 11.055h-11.885q-.737-3.132-2.855-5.25-2.028-2.12-5.159-3.225-3.133-1.106-7.186-1.106-5.252 0-8.936 1.843t-5.989 5.067q-2.303 3.132-3.408 7.278-1.014 4.053-1.014 8.66 0 5.987 1.935 11.147 2.026 5.159 6.265 8.29 4.33 3.041 11.239 3.041 4.882 0 8.568-1.658 3.777-1.66 5.896-4.79 2.21-3.225 2.395-7.924h-18.978v-9.949h30.586v4.238q0 9.489-3.317 16.398-3.317 6.91-9.765 10.687-6.357 3.685-15.754 3.685m43.441-.737V46.863h45.971v10.502h-34.455v17.136h29.94v10.318h-29.94v16.674h34.455v10.503zm60.634 0V46.863h25.703q4.974 0 9.396 1.013 4.423.922 7.831 3.317 3.409 2.302 5.343 6.357t1.935 10.041q0 4.975-1.75 8.752t-4.883 6.357q-3.04 2.58-7.278 3.961l14.279 25.335h-12.897l-12.805-23.492h-13.359v23.492zm11.515-33.718h12.622q3.132 0 5.711-.46 2.672-.555 4.607-1.751 2.026-1.198 3.04-3.225 1.106-2.118 1.197-5.343 0-3.87-1.658-6.08-1.566-2.21-4.606-3.133-2.949-.92-7.094-.92h-13.819zm54.696 33.718V46.863h24.045q10.226 0 17.319 3.961 7.094 3.87 10.779 11.24 3.777 7.278 3.777 17.503 0 10.042-3.685 17.32-3.592 7.278-10.686 11.239-7.094 3.87-17.412 3.87zm11.516-10.503h12.345q7.277 0 11.699-2.763 4.515-2.856 6.541-7.739 2.12-4.975 2.119-11.516 0-6.355-2.026-11.331-2.028-4.976-6.541-7.83-4.422-2.949-11.7-2.949h-12.437z"/></svg>