<svg xmlns="http://www.w3.org/2000/svg" width="20" height="32" fill="none" viewBox="0 0 20 32"><path fill="#9997a5" d="M9.548 11.793h-3.53L3.39 13.315h5.05v8.373h1.108v2.35H8.164l-1.59 1.175h2.974v1.107h-.969l.9.9.069-.07V32l-7.49-4.847v-4.456H.233L.11 11.96l1.137-1.136H.096L0 2.452l3.943 4.082L9.548 0zm4.22 12.36v2.931l1.327 1.326L9.549 32v-4.85l.829-.83h-.83v-1.107h2.975l-1.453-1.176H9.55v-2.35h1.165zm1.385-17.619 3.944-4.082v8.372H18.06l1.037 1.037v10.836h-2.058v4.456l-1.61 1.042v-9.068l2.837-2.837h-2.214l-2.757 1.592-2.917-1.685v-2.882h5.327l-2.636-1.522H9.55V0zM2.905 16.221l-.76.761 3.32 3.667.97-.83v-2.076H4.497zh5.26l-1.246-1.176H4.082zm8.096-.024h4.704l-1.083-1.083h-2.515z"/><path fill="#171717" d="M9.557 9.268 8.303 7.096l1.254-2.172 1.254 2.172z"/><path stroke="#9997a5" stroke-width=".29" d="m8.253 7.096 1.304.752 1.303-.752"/></svg>