<svg xmlns="http://www.w3.org/2000/svg" width="141" height="28" fill="none" viewBox="0 0 141 28"><path fill="#fff" d="M35.022 12.766q-.169.565-.168 1.149 0 .564.168 1.107.169.544.516.981.349.44.875.711.527.27 1.244.27.737 0 1.349-.282a3.1 3.1 0 0 0 1.032-.762l1.477 1.587a5.4 5.4 0 0 1-1.645 1.17q-.949.44-2.213.439-1.263-.001-2.257-.376a4.6 4.6 0 0 1-1.667-1.066 4.6 4.6 0 0 1-1.033-1.652q-.359-.96-.358-2.13a5.24 5.24 0 0 1 1.476-3.677 5.1 5.1 0 0 1 1.676-1.128 5.5 5.5 0 0 1 2.161-.418q1.201 0 2.194.429.99.428 1.687 1.16l-1.582 1.587a3.1 3.1 0 0 0-.99-.752 3 3 0 0 0-1.309-.27q-.717 0-1.244.26-.527.262-.875.679a2.8 2.8 0 0 0-.514.984m12.843-3.928q-.612.001-1.087.146a4 4 0 0 0-.832.355q-.36.21-.622.46-.265.25-.432.459l-.063-1.233h-2.384v9.799h2.49v-5.285a2.31 2.31 0 0 1 1.539-2.214q.463-.166.97-.166.36 0 .62.041.264.044.517.146l.505-2.32a3 3 0 0 0-.579-.145 4.4 4.4 0 0 0-.642-.043m7.295 6.895-2.825-6.706h-2.868l4.45 9.715-.317.794q-.36.877-.684 1.296a1.01 1.01 0 0 1-.833.418 1.2 1.2 0 0 1-.632-.156 5 5 0 0 1-.464-.324l-1.118 1.733q.422.355.98.553.559.199 1.402.2.968 0 1.602-.419.632-.418 1.066-1.076.431-.658.728-1.43.294-.774.59-1.504l4.135-9.799h-2.72zm15.69-3.657q.272.919.273 1.901 0 1.15-.338 1.964a5.5 5.5 0 0 1-.843 1.421q-.844 1.004-1.846 1.4a5.5 5.5 0 0 1-2.055.398q-.487 0-.833-.042a5 5 0 0 1-1.159-.281q-.243-.093-.516-.2v4.367h-2.467V9.025h2.404l.063 1.108q.19-.209.474-.439.285-.23.676-.417.39-.188.885-.314.496-.125 1.107-.125 1.138 0 1.972.439a4.1 4.1 0 0 1 1.382 1.16 5.1 5.1 0 0 1 .82 1.639m-2.236 1.903q0-.626-.138-1.17a2.7 2.7 0 0 0-.443-.952 2.2 2.2 0 0 0-.79-.648q-.486-.24-1.202-.24-.57 0-1.033.24-.464.24-.79.616a2.9 2.9 0 0 0-.506.825q-.179.45-.179.867v2.903q.738.606 2.236.606.674 0 1.202-.261a2.8 2.8 0 0 0 .897-.69q.369-.429.558-.97a3.4 3.4 0 0 0 .188-1.126m9.29 2.903q-.347.167-.938.167-.633 0-.917-.45-.284-.447-.284-1.284v-4.283h2.658V9.027h-2.657V5.852h-2.49v3.175H71.59v2.005h1.686v4.451q0 .816.168 1.493.17.68.558 1.16.39.48 1.024.741.632.261 1.54.262.886 0 1.602-.262.716-.26 1.454-.866l-1.053-1.527a4.3 4.3 0 0 1-.665.398M89.96 11.9q.39.952.39 2.016t-.39 2.016a5.2 5.2 0 0 1-1.087 1.67 5 5 0 0 1-1.676 1.14 5.5 5.5 0 0 1-2.16.417 5.5 5.5 0 0 1-2.162-.418 5 5 0 0 1-1.676-1.138 5.27 5.27 0 0 1-1.476-3.687 5.24 5.24 0 0 1 1.476-3.676 5.1 5.1 0 0 1 1.676-1.129 5.5 5.5 0 0 1 2.161-.418q1.18 0 2.161.418.98.418 1.676 1.129a5.2 5.2 0 0 1 1.087 1.66m-2.12 2.017q0-.522-.167-1.076a3.1 3.1 0 0 0-.517-1.003 2.7 2.7 0 0 0-.874-.732q-.528-.283-1.244-.282-.718 0-1.244.282a2.7 2.7 0 0 0-.875.732q-.349.45-.516 1.003a3.7 3.7 0 0 0-.168 1.076q0 .543.168 1.086.169.542.516 1.003.349.46.875.74.527.284 1.244.283.716 0 1.244-.283a2.65 2.65 0 0 0 .874-.74q.349-.459.517-1.003.166-.543.168-1.086m13.728-5.099a3.9 3.9 0 0 0-1.888.449 3.4 3.4 0 0 0-.632.428q-.265.23-.453.439l-.063-1.108H96.15v9.799h2.49v-5.308q0-.542.18-1.013a2.7 2.7 0 0 1 .495-.825q.315-.356.759-.554a2.3 2.3 0 0 1 .95-.199q.824 0 1.338.512.517.512.516 1.452v5.933h2.49v-5.954q0-1.858-.969-2.955-.976-1.095-2.83-1.096m14.529 3.448q.253 1.003.254 2.047v.355h-7.38q0 .543.243.981.243.44.632.753.39.312.885.48.495.166.98.166.716 0 1.256-.137.539-.135.917-.313.38-.179.621-.376.243-.2.369-.325l1.349 1.505-.348.345q-.286.282-.822.596-.537.313-1.372.563-.833.251-1.992.252-1.182 0-2.151-.397a4.9 4.9 0 0 1-1.655-1.097 4.8 4.8 0 0 1-1.055-1.682q-.369-.98-.369-2.173 0-1.086.369-2.016a4.8 4.8 0 0 1 2.614-2.704 5.1 5.1 0 0 1 2.035-.397q1.35 0 2.288.49a4.2 4.2 0 0 1 1.507 1.285q.572.797.825 1.799m-2.299.626q0-.377-.147-.753a2.1 2.1 0 0 0-1.16-1.178 2.4 2.4 0 0 0-1.012-.2q-.613 0-1.087.2-.474.199-.791.5c-.211.201-.372.43-.486.678a1.8 1.8 0 0 0-.168.753zm15.184-3.864-1.877 6.81-2.108-6.81h-2.087l-2.088 6.81-1.899-6.81h-2.742l3.352 9.798h2.32l1.961-5.912 2.025 5.912h2.403l3.354-9.798zm10.796 5.819a2.6 2.6 0 0 0-.664-.89 3.7 3.7 0 0 0-1.033-.625 8 8 0 0 0-1.361-.418q-1.222-.293-1.802-.553-.58-.262-.579-.721 0-.375.348-.638.348-.261 1.234-.261.885 0 1.539.24.652.24 1.055.532l1.286-1.733a5.3 5.3 0 0 0-1.655-.815q-.918-.27-2.224-.27-.737 0-1.466.208-.728.21-1.308.596a3.1 3.1 0 0 0-.938.96q-.36.575-.359 1.307 0 .71.306 1.222.306.513.781.877a4 4 0 0 0 1.023.574q.547.21 1.055.333.823.19 1.308.355.485.168.759.335.275.167.359.345a.9.9 0 0 1 .084.386q0 .482-.485.689-.485.209-1.285.208-.907 0-1.614-.303a3.7 3.7 0 0 1-1.17-.763l-1.497 1.608q.674.75 1.793 1.14 1.117.385 2.509.386.864 0 1.634-.219a4.6 4.6 0 0 0 1.349-.615q.581-.397.916-.971a2.5 2.5 0 0 0 .337-1.285q-.004-.709-.235-1.222M92.857 15.94c-.805 0-1.454.645-1.454 1.44 0 .797.65 1.441 1.453 1.441s1.455-.645 1.455-1.44a1.446 1.446 0 0 0-1.455-1.44M14.03 0C6.283 0 0 6.224 0 13.9c0 7.675 6.283 13.9 14.03 13.9s14.03-6.225 14.03-13.9S21.779 0 14.03 0m0 18.125c1.41 0 2.73-.692 3.525-1.848a1.05 1.05 0 0 1 1.45-.272c.476.322.6.966.275 1.437a6.37 6.37 0 0 1-5.252 2.753c-3.502 0-6.351-2.823-6.351-6.29 0-3.47 2.85-6.294 6.351-6.294a6.37 6.37 0 0 1 5.252 2.754 1.03 1.03 0 0 1-.274 1.437 1.05 1.05 0 0 1-1.451-.272 4.27 4.27 0 0 0-3.525-1.848c-2.35 0-4.262 1.894-4.262 4.222 0 2.327 1.912 4.22 4.262 4.22M7.975 19.69a8.4 8.4 0 0 0 5.981 2.548 8.4 8.4 0 0 0 6.024-2.441 8.24 8.24 0 0 0 2.465-5.893c0-2.227-.875-4.32-2.465-5.893-3.28-3.25-8.618-3.25-11.9 0a8.26 8.26 0 0 0-2.28 7.631.44.44 0 0 1-.346.525.446.446 0 0 1-.53-.342 9.15 9.15 0 0 1 2.523-8.443c3.63-3.596 9.534-3.596 13.164 0a9.17 9.17 0 0 1 0 13.042 9.28 9.28 0 0 1-6.58 2.701h-.084a9.3 9.3 0 0 1-6.615-2.817.44.44 0 0 1 .012-.627.446.446 0 0 1 .631.009m-.897-1.707a.89.89 0 0 1-.896.888.89.89 0 0 1-.896-.888c0-.49.401-.887.896-.887s.896.397.896.887M19.559 3.05c.495 0 .896.397.896.888 0 .49-.4.887-.896.887a.89.89 0 0 1-.896-.887.893.893 0 0 1 .896-.888m2.902 19.204a11.9 11.9 0 0 1-8.43 3.46c-3.185 0-6.179-1.23-8.431-3.46a11.68 11.68 0 0 1-3.492-8.353c0-3.154 1.241-6.122 3.492-8.353 2.936-2.91 6.998-4.063 11.141-3.166a.44.44 0 0 1 .341.527.446.446 0 0 1-.533.338c-3.84-.831-7.601.235-10.317 2.925a10.8 10.8 0 0 0-3.23 7.726c0 2.918 1.147 5.663 3.23 7.726a11 11 0 0 0 7.798 3.2c2.945 0 5.715-1.138 7.798-3.2a10.8 10.8 0 0 0 3.23-7.726c0-2.9-1.198-5.734-3.284-7.776a.44.44 0 0 1-.003-.628.45.45 0 0 1 .633-.002 11.84 11.84 0 0 1 3.55 8.406 11.68 11.68 0 0 1-3.493 8.356"/></svg>