<svg xmlns="http://www.w3.org/2000/svg" width="140" height="143" fill="none" viewBox="0 0 140 143"><path fill="url(#a)" stroke="#89f801" d="M131.126 76.17c13.099 19.088 8.818 44.052-9.832 56.851-11.383 7.811-25.384 9.683-42.926 7.991-17.55-1.693-38.563-6.941-63.925-13.29h-.002L.566 124.277l1.777-14.185v-.001c3.198-25.949 5.858-47.443 10.59-64.428 4.732-16.977 11.513-29.367 22.896-37.18C54.48-4.314 79.312.67 92.412 19.758c7.401 10.786 9.61 24.503 6.57 36.526l-.139.551.564.068c12.312 1.488 24.317 8.483 31.719 19.268Z" opacity=".05"/><defs><linearGradient id="a" x1="127.569" x2="-10.804" y1="41.791" y2="49.423" gradientUnits="userSpaceOnUse"><stop stop-color="#89f801"/><stop offset=".98" stop-color="#89f801" stop-opacity=".02"/></linearGradient></defs></svg>