<svg xmlns="http://www.w3.org/2000/svg" width="36" height="36" fill="none" viewBox="0 0 36 36"><path fill="#fff" d="M20.735 18.35a2.8 2.8 0 0 1-.497 1.462 2.55 2.55 0 0 1-1.243.966 2.65 2.65 0 0 1-1.58.131 2.7 2.7 0 0 1-1.39-.775 2.84 2.84 0 0 1-.701-1.462 2.63 2.63 0 0 1 .19-1.565 2.74 2.74 0 0 1 1.024-1.2 2.93 2.93 0 0 1 1.535-.438c.715.039 1.39.347 1.887.863a2.78 2.78 0 0 1 .775 2.018"/><path fill="#fff" d="M25.898 12.002a3.4 3.4 0 0 0-1.872-1.872 3.9 3.9 0 0 0-1.331-.263h-9.243A3.466 3.466 0 0 0 10 13.32v9.418a3.44 3.44 0 0 0 1.024 2.443 3.48 3.48 0 0 0 2.428 1.009h9.243a3.48 3.48 0 0 0 3.184-2.128c.176-.42.266-.87.267-1.324v-9.404a3.8 3.8 0 0 0-.248-1.33m-3.657 8.161a4.4 4.4 0 0 1-.965 1.463 4.8 4.8 0 0 1-1.462 1.009 4.7 4.7 0 0 1-3.73-.042 4.62 4.62 0 0 1-2.647-5.048 4.83 4.83 0 0 1 1.243-2.384 4.66 4.66 0 0 1 5.031-1.038 4.47 4.47 0 0 1 2.077 1.711c.506.742.78 1.618.79 2.516a4.3 4.3 0 0 1-.337 1.813m1.609-7.225a.833.833 0 1 1-1.653 0 .836.836 0 0 1 .827-.943.833.833 0 0 1 .826.943"/><path fill="#fff" d="M25.313 3.375H10.688a7.31 7.31 0 0 0-7.313 7.313v14.625a7.313 7.313 0 0 0 7.313 7.312h14.625a7.31 7.31 0 0 0 7.312-7.312V10.688a7.31 7.31 0 0 0-7.312-7.313m3.1 19.217a5.6 5.6 0 0 1-.424 2.238 5.85 5.85 0 0 1-3.145 3.144 5.6 5.6 0 0 1-2.237.424h-8.994a5.6 5.6 0 0 1-2.238-.424 6 6 0 0 1-1.887-1.258A5.9 5.9 0 0 1 8.23 24.83a5.6 5.6 0 0 1-.468-2.238v-9.067a5.6 5.6 0 0 1 .425-2.238 5.85 5.85 0 0 1 3.115-3.174 5.85 5.85 0 0 1 2.31-.394h9.068A5.7 5.7 0 0 1 26.775 9.4a6 6 0 0 1 1.258 1.887c.292.71.436 1.47.424 2.238z"/></svg>