<svg xmlns="http://www.w3.org/2000/svg" width="255" height="216" fill="none" viewBox="0 0 255 216"><path fill="url(#a)" stroke="#89f801" d="M253.163 177.719c-25.44-.491-59.285.987-114.351 26.963-23.658 11.162-43.797 12.581-59.521 7.892-15.722-4.688-27.084-15.497-33.178-28.901-12.187-26.806-3.313-64.034 34.113-83.336l1.026-.529-1.089-.386c-28.38-10.062-54.897-6.74-70.779 2.713l-7.792-4.178 45.904-85.62 7.792 4.179c.918 18.459 12.826 42.383 36.914 60.451l.924.693L93 76.513c-4.638-41.854 21.458-69.85 50.529-74.535 14.536-2.343 29.827 1.138 42.433 11.638 12.608 10.501 22.572 28.06 26.369 53.941 8.843 60.24 26.351 89.232 40.833 110.162Z" opacity=".05"/><defs><linearGradient id="a" x1="278.477" x2="178.253" y1="197.873" y2="-26.799" gradientUnits="userSpaceOnUse"><stop stop-color="#89f801"/><stop offset=".98" stop-color="#89f801" stop-opacity=".02"/></linearGradient></defs></svg>