<svg xmlns="http://www.w3.org/2000/svg" width="135" height="154" fill="none" viewBox="0 0 135 154"><path fill="url(#a)" stroke="#89f801" d="M27.135 3.518c14.857-7.252 32.98-.922 40.611 14.282l.001.002a31.3 31.3 0 0 1 3.31 11.967 31 31 0 0 1-1.605 12.264c-1.064 3.081-1.928 7.663-2.305 12.49-.377 4.828-.272 9.948.626 14.103l.256 1.187.654-1.024c2.799-4.388 5.15-8.992 6.148-12.403 2.264-7.776 7.55-14.495 15.24-18.358 14.917-7.482 33.227-1.172 40.909 14.132 7.682 15.307 1.788 33.766-13.122 41.25a29.55 29.55 0 0 1-11.794 3.085 29.9 29.9 0 0 1-12.09-1.932h-.002l-.677-.242c-3.498-1.191-8.641-2.116-13.8-2.46l-.892-.058.416.792c10.346 19.619 26.982 29.627 39.558 30.736l2.198 4.378-50.032 25.112-2.198-4.379c6.631-10.738 8.547-30.058-1.006-50.085l-.386-.808-.486.752c-2.986 4.627-5.44 9.638-6.485 13.221-2.265 7.783-7.497 14.599-15.197 18.464-14.92 7.488-33.23 1.187-40.917-14.128S2.279 82.091 17.19 74.608v-.001a29.5 29.5 0 0 1 11.76-3.125c4.1-.216 8.21.42 12.074 1.87l.001.001c3.331 1.239 8.425 2.096 13.619 2.482l1.214.09-.8-.917c-2.795-3.203-6.835-6.348-10.931-8.93-3.84-2.422-7.762-4.371-10.8-5.418l-.596-.197c-7.709-2.445-14.449-7.953-18.411-15.848-7.635-15.212-1.877-33.518 12.815-41.097Z" opacity=".05"/><defs><linearGradient id="a" x1="22.004" x2="-2.573" y1="-14.758" y2="131.354" gradientUnits="userSpaceOnUse"><stop stop-color="#89f801"/><stop offset=".98" stop-color="#89f801" stop-opacity=".02"/></linearGradient></defs></svg>