<svg xmlns="http://www.w3.org/2000/svg" width="24" height="24" fill="none" viewBox="0 0 24 24"><g stroke="#89f801" stroke-linecap="round" stroke-linejoin="round" stroke-width="1.2" clip-path="url(#a)"><path d="M16.5 15.749h1.875a3.963 3.963 0 0 0 4.125-3.75 3.96 3.96 0 0 0-4.125-3.75H16.5m-9 7.5H5.625a3.963 3.963 0 0 1-4.125-3.75 3.963 3.963 0 0 1 4.125-3.75H7.5M12 5.248v-4.5m-3 4.5-1.5-1.5m7.5 1.5 1.5-1.5m-4.5 15v4.5m-3-4.5-1.5 1.5m7.5-1.5 1.5 1.5"/></g><defs><clipPath id="a"><path fill="#fff" d="M0 0h24v24H0z"/></clipPath></defs></svg>