<svg xmlns="http://www.w3.org/2000/svg" width="102" height="59" fill="none" viewBox="0 0 102 59"><g fill="#fff" clip-path="url(#a)"><path d="M96.464 1.647A5.52 5.52 0 0 0 92.527 0H68.553L82.34 23.01l1.26.157.741 1.046v1.013l.89.165.823 1.095v.947l.898.157s.89.947.89.996v2.158a14.7 14.7 0 0 0 3.68 2.47c1.211.478 1.368 2.422 2.051 3.468.948 1.474 2.208 2.1 1.944 2.94-.626 2.257-2.94 6.045-5.09 6.25H81.88v3.64h10.64a5.583 5.583 0 0 0 5.576-5.583V5.592a5.54 5.54 0 0 0-1.63-3.945"/><path d="M60.384.02H6.776a5.584 5.584 0 0 0-5.575 5.575v38.337a5.59 5.59 0 0 0 5.575 5.584h34.82l-2.157-3.615h-4.118c0-10.295 3.509-16.019 7.66-17.13.576-.1.313-2.94-.429-3.78q-1.207.05-2.413-.05c-.527-.157-.156-.684-.156-.684l1.935-4.2-.263-1.161h-7.24c-.107 0 5.93-4.118 5.93-4.118.338-10.962 11.522-11.785 18.3-7.289 3.994 2.677 4.315 7.931 4.002 11.613-.057.206-1.054.049-1.054.049s-.683 3.994 1.104 3.994h7.881c3.204-.115 6.3 2.084 6.3 2.084l.824-2.734zM12.731 41.618a3.83 3.83 0 1 1 0-7.658 3.83 3.83 0 0 1 0 7.658"/></g><defs><clipPath id="a"><path fill="#fff" d="M.33 0h101.305v59H.33z"/></clipPath></defs></svg>