<svg xmlns="http://www.w3.org/2000/svg" width="59" height="59" fill="none" viewBox="0 0 59 59"><path fill="#fff" fill-rule="evenodd" d="M35.989 57.43c-.176-.476-.345-1.197-.32-2.182.027-.606.088-1.25.142-1.742s.102-.834.102-.834l-.17-.395a21 21 0 0 1-.3-.746c-.095-.242-.094-.338-.063-.395s.092-.074.116-.158c0 0 .018-.147-.01-.363a1.84 1.84 0 0 0-.285-.778c-.183-.268-.487-.851-.752-1.368-.265-.516-.49-.965-.517-.965-.035 0 .039-.122.121-.243.083-.12.174-.241.174-.241l-.364-.813-.365-.812s-1.04-.778-2.297-1.759-2.735-2.165-3.613-2.977c-.87-.812-2.12-2.584-3.192-4.16-1.07-1.575-1.962-2.953-2.11-2.979-.156-.034-.382-.004-.569.035s-.334.086-.334.086-.048-.134-.126-.367a39 39 0 0 1-.309-.964c-.06-.19-.226-.609-.439-1.138-.213-.53-.473-1.17-.725-1.8a45 45 0 0 1-.652-1.698c-.174-.493-.287-.877-.287-1.05 0-.363 0-.8.021-1.236.022-.437.066-.873.153-1.236.095-.355.4-.804.67-1.165.272-.36.512-.633.477-.633-.026 0-.087-.09-.141-.181-.055-.09-.102-.182-.102-.182s-.196.13-.511.162c-.315.033-.75-.032-1.228-.421-.486-.389-.547-1.141-.27-2.32.28-1.18.896-2.788 1.765-4.888.878-2.1 1.5-3.353 1.947-4.118s.721-1.041.904-1.188q.193-.178.406-.333c.098-.07.159-.1.185-.1.034 0 .487-.012.93-.025l.878-.026.121-.147.122-.147.851-.035.852-.034c-.004 0 .27-.013.49-.372s.386-1.064.17-2.446c0 0-.091-.224-.182-.473s-.183-.52-.183-.616c0-.086.061-.19.129-.278.067-.089.14-.162.167-.188.292-.291.438-.408.52-.664s.102-.65.14-1.497l.4-.302.4-.303.235-.181.234-.182h-8.134a3.64 3.64 0 0 0-3.355 2.217 3.6 3.6 0 0 0-.278 1.379v50.057a3.6 3.6 0 0 0 1.067 2.551 3.63 3.63 0 0 0 2.566 1.061h15.087s-.183-.229-.359-.704m-11.496-2.366h-2.068l-1.252-5.687v5.687h-1.356v-7.26h2.416l.887 4.719.017-4.72h1.356zm4.612-5.238c0 .692-.19 1.193-1.303 1.366v.034c.904.07 1.303.415 1.303 1.573v.64c0 1.244-.695 1.625-2.05 1.625H25.02v-7.26h2.033c1.078 0 2.051.363 2.051 1.47zm3.017 5.238-.191-1.971h-.835l-.26 1.97h-1.547l1.303-7.26h2.294l1.043 7.26z" clip-rule="evenodd"/><path fill="#fff" fill-rule="evenodd" d="M26.964 48.846h-.209v1.988h.21c.277 0 .399-.122.399-.467v-1.054c0-.346-.122-.467-.4-.467m0 2.888h-.209v2.299h.21c.277 0 .399-.052.399-.346V52.08c0-.294-.122-.346-.4-.346m4.297.323h.556l-.278-2.99zm8.53-18.48a4.4 4.4 0 0 1-2.26.618 4.395 4.395 0 0 1-4.065-2.698 4.34 4.34 0 0 1 .477-4.19 4.45 4.45 0 0 1 2.075-1.582 4 4 0 0 1 .278-.432s-.06-.147-.19-.4q-.27-.532-.592-1.035c-.278-.423-.613-1.145-.908-1.849a31 31 0 0 1-.674-1.746c-.113-.363-.278-1.326-.43-2.206s-.291-1.674-.352-1.7c-.06-.035-.104-.035-.2.004-.095.039-.243.117-.512.238-.278.12-.535.406-.746.713s-.376.635-.471.842c-.087.208-.374.96-.645 1.66-.272.7-.528 1.348-.554 1.348-.035 0 .026.073.095.146.07.074.148.147.148.147a7 7 0 0 0 .319.212c.172.12.367.272.463.393.087.121.495 1.5.882 2.848s.752 2.666.752 2.666l-.183.302-.182.303s.021.125.06.337c.04.212.096.51.166.855.077.363.169.782.271 1.217.102.434.215.883.337 1.307.243.838.5 1.919.695 2.79.195.87.33 1.531.33 1.531s.183.303.441.763q.475.84.897 1.709c.296.622.626 2.091.883 3.412a61 61 0 0 1 .439 2.517c0 .034.256.458.528.955.271.497.558 1.067.619 1.396s-.013.868-.102 1.326c-.09.458-.193.834-.193.834s.012.286.034.601.052.661.087.782c.026.112.057.26.102.409s.107.3.193.421.13.316.153.51c.021.195.021.389.021.51 0 .12.243.963.487 1.819.243.855.486 1.724.486 1.897 0 .181-.165.527-.36.851-.196.324-.422.627-.543.721-.026.018-.14.13-.25.242l-.237.243a3.65 3.65 0 0 0 2.486-1.1 3.6 3.6 0 0 0 1.025-2.513V31.947a4.36 4.36 0 0 1-1.58 1.63m.514-31.656A3.64 3.64 0 0 0 37.739.87h-5.597c.061.026.395.242.743.486s.709.517.822.655c.113.147.156.328.156.54s-.043.454-.104.722a9 9 0 0 1-.228.797c-.076.231-.137.395-.137.395s-.043.108-.08.223-.068.236-.042.261a.5.5 0 0 1 .087.182c.021.069.035.13.035.13s-.179.328-.365.663c-.187.335-.383.676-.417.702-.027.035-.27.458-.544.888-.273.43-.577.867-.725.927-.064.019-.122.114-.15.216-.029.101-.027.208.028.25a62 62 0 0 0 .904.675l.183.026.183.026.451.302.452.303s.018.073.088.177.19.237.4.359c.208.12.538.389.886.717s.712.717.99 1.08c.27.363.435.95.54 1.603.104.653.147 1.37.173 1.992.035.631.174 1.625.317 2.483.144.857.291 1.58.343 1.665.061.087.305.657.555 1.273s.506 1.277.593 1.545c.095.268.174.704.228 1.073.055.37.085.672.085.672l.417.51.417.51c.408.19.782.446 1.11.75.328.305.61.66.836 1.048V4.465a3.57 3.57 0 0 0-1.067-2.544" clip-rule="evenodd"/></svg>