<svg xmlns="http://www.w3.org/2000/svg" width="59" height="59" fill="none" viewBox="0 0 59 59"><path fill="#fff" fill-rule="evenodd" d="M29.368 2.602c2.47 5.708 12.68 10.21 21.298 4.171v37.491c0 5.874-4.885 6.752-7.465 6.752-9.002 0-12.351 3.732-13.888 5.38-1.537-1.648-4.776-5.38-13.778-5.38-2.58 0-7.465-.878-7.465-6.752V6.774c8.618 6.037 18.828 1.536 21.298-4.172" clip-rule="evenodd"/><path fill="#03030d" fill-rule="evenodd" d="M9.373 12.115h1.493l.459-1.408.459 1.408h1.489l-1.206.875.461 1.416-1.205-.876-1.2.872.46-1.41zm5.105 0h1.493l.459-1.408.459 1.408h1.489l-1.206.875.461 1.416-1.205-.876-1.2.872.46-1.41z" clip-rule="evenodd"/><path fill="#03030d" fill-rule="evenodd" d="M14.478 12.115h1.493l.459-1.408.459 1.408h1.489l-1.206.875.461 1.416-1.205-.876-1.2.872.46-1.41zm5.105 0h1.493l.459-1.408.459 1.408h1.489l-1.206.875.461 1.416-1.205-.876-1.2.872.46-1.41zm-10.21 4.776h1.493l.459-1.408.459 1.408h1.489l-1.206.874.461 1.416-1.205-.876-1.2.873.46-1.41zm5.105 0h1.493l.459-1.408.459 1.408h1.489l-1.206.874.461 1.416-1.205-.876-1.2.873.46-1.41z" clip-rule="evenodd"/><path fill="#03030d" fill-rule="evenodd" d="M14.478 16.889h1.493l.459-1.408.459 1.408h1.489l-1.206.874.461 1.416-1.205-.876-1.2.872.46-1.41zm-5.105 4.72h1.493l.459-1.408.459 1.409h1.489l-1.206.874.461 1.416-1.205-.876-1.2.872.46-1.41zm5.105 0h1.493l.459-1.408.459 1.409h1.489l-1.206.874.461 1.416-1.205-.876-1.2.872.46-1.41z" clip-rule="evenodd"/><path fill="#04040e" fill-rule="evenodd" d="M14.478 21.612h1.493l.459-1.409.459 1.409h1.489l-1.206.874.461 1.416-1.205-.876-1.2.872.46-1.41zm34.102 3.605v18.554c0 4.007-2.14 5.16-6.038 5.16-7.575.055-11.363 2.69-13.174 4.39-1.811-1.7-5.599-4.335-13.174-4.39-3.898 0-6.038-1.154-6.038-5.16V25.217zm.783-13.102H47.87l-.459-1.408-.458 1.408h-1.49l1.206.875-.461 1.416 1.206-.876 1.199.872-.46-1.41zm-5.105 0h-1.493l-.459-1.408-.458 1.408h-1.49l1.206.875-.461 1.416 1.205-.876 1.2.872-.46-1.41z" clip-rule="evenodd"/><path fill="#03030d" fill-rule="evenodd" d="M44.258 12.115h-1.493l-.459-1.408-.458 1.408h-1.49l1.206.875-.461 1.416 1.205-.876 1.2.872-.46-1.41zm5.105 4.776H47.87l-.459-1.408-.459 1.408h-1.489l1.206.874-.461 1.416 1.206-.876 1.199.873-.46-1.41zm-5.105 0h-1.493l-.459-1.408-.458 1.408h-1.49l1.206.874-.461 1.416 1.205-.876 1.2.873-.46-1.41z" clip-rule="evenodd"/><path fill="#03030d" fill-rule="evenodd" d="M44.258 16.889h-1.493l-.459-1.408-.458 1.408h-1.49l1.206.874-.461 1.416 1.205-.876 1.2.872-.46-1.41zm5.105 4.72H47.87l-.459-1.408-.459 1.409h-1.489l1.206.874-.461 1.416 1.206-.876 1.199.872-.46-1.41zm-5.105 0h-1.493l-.459-1.408-.458 1.409h-1.49l1.206.874-.461 1.416 1.205-.876 1.2.872-.46-1.41z" clip-rule="evenodd"/><path fill="#03030d" fill-rule="evenodd" d="M44.258 21.612h-1.493l-.459-1.409-.458 1.409h-1.49l1.206.874-.461 1.416 1.205-.876 1.2.872-.46-1.41zm-5.105 0H37.66l-.459-1.409-.459 1.409h-1.488l1.205.874-.461 1.416 1.205-.876 1.2.872-.46-1.41zM27.543 7.395h1.492l.459-1.409.459 1.409h1.489l-1.205.874.46 1.416-1.205-.876-1.2.872.46-1.41z" clip-rule="evenodd"/><path fill="#fff" fill-rule="evenodd" d="M26.13 45.583c0 .356 0 1.208-.55 1.482-.548.275-.658.631-.603.85.055.22.302.468.741.605.44.137 1.263.412 3.705 2.196.44.274.879.109 1.016-.056.137-.164.192-.63-.165-1.043-.389-.448-.796-1.152-.796-2.195V37.184h2.498c.604 0 1.207.165 1.4 1.208.164.686 1.125.796 1.125.055V32.93c0-.603-1.07-.548-1.208.056-.137.603-.165 1.674-.988 1.674h-2.827v-5.545h3.074c.467 0 .933.165 1.208.55.274.384 1.125 1.4 1.702 1.152.274-.11.411-.384.274-.906l-1.29-3.485H25.58c-.549 0-.823.192-.879.439-.054.247.11.714.494.906.385.192.934.576.934 1.455z" clip-rule="evenodd"/><path fill="#fff" fill-rule="evenodd" d="M37.163 43.25c0 .385 0 1.318-.549 1.757s-1.894 1.702-1.318 2.47c.22.301.824.22 1.592-.055.77-.274 3.02-.357 3.843-.33.823.028 4.72.742 6.258-3.87 1.015-3.183-.412-6.944-3.266-6.998-1.62-.028-2.416.796-2.553 1.976-.138 1.18.823 2.937 2.882 2.607.576-.109.713.083.713.55 0 .466-.164 3.293-2.854 3.293-.44 0-1.098.028-1.4.028V29.609c0-.713.85-1.701 1.428-2.085.439-.274.411-1.098-.11-1.098h-5.874c-.384 0-.768.439-.219 1.015.549.577 1.427 1.016 1.427 2.278zm10.66 9.341h1.664v.245h-.693v1.805h-.277v-1.805h-.694zm3.608 2.05V53.43c0-.06.006-.32.006-.51h-.006l-.577 1.72h-.274l-.576-1.718h-.006c0 .189.006.448.006.508v1.21h-.269v-2.049h.397l.585 1.733h.006l.582-1.733h.394v2.05zM11.94 26.426c-.413 0-.824.192-.907.549-.069.299 0 .768.44.96.439.193 1.098.577 1.098 1.592v12.241c0 .467-.055 1.125-.687 1.043-.63-.082-.796.22-.823.412s.082 1.482 1.894 2.662c.604.384 2.305 1.51 2.992.96.329-.247-.028-1.427-.357-1.81a2.2 2.2 0 0 1-.55-1.51v-9.606l4.721 12.323c.33.823 1.373 1.619 2.141 1.372.769-.247.879-.85.879-1.345V29.226c0-.494.027-.934.988-1.455.494-.22.686-1.345-.192-1.345h-4.913c-.576 0-.96.713-.412 1.152.55.44 1.675.989 1.675 1.895v7.932l-3.679-9.58c-.302-.74-.823-1.399-1.4-1.399z" clip-rule="evenodd"/><path fill="#03030d" fill-rule="evenodd" d="m25.636 18.794.274.659-3.87 1.564c1.537 2.059 6.12 2.47 9.359.769 3.11-1.635 5.187-3.706 5.599-6.78l-3.843 1.524-.247-.631 3.788-1.551c-.522-.823-4.529-2.745-9.14-.85-4.227 1.509-5.9 5.296-5.818 6.86z" clip-rule="evenodd"/><path fill="#fff" fill-rule="evenodd" d="M26.809 19.493a.237.237 0 0 0 .13-.308l-.35-.866a.24.24 0 0 0-.308-.131l-.053.013a.24.24 0 0 0-.131.309l.35.866a.237.237 0 0 0 .308.13zm.837-.329a.24.24 0 0 0 .13-.309l-.35-.866a.237.237 0 0 0-.308-.13l-.053.013a.24.24 0 0 0-.131.308l.35.866a.24.24 0 0 0 .309.131zm.837-.33a.237.237 0 0 0 .13-.308l-.35-.866a.24.24 0 0 0-.308-.13l-.053.012a.24.24 0 0 0-.131.309l.35.866a.237.237 0 0 0 .309.13zm.837-.329a.237.237 0 0 0 .13-.308l-.35-.866a.237.237 0 0 0-.308-.131l-.053.013a.24.24 0 0 0-.13.309l.35.866a.237.237 0 0 0 .308.13zm.837-.33a.24.24 0 0 0 .131-.308l-.35-.866a.24.24 0 0 0-.309-.13l-.053.013a.24.24 0 0 0-.13.308l.35.866a.24.24 0 0 0 .308.131zm.837-.328a.24.24 0 0 0 .131-.31l-.35-.865a.237.237 0 0 0-.309-.131l-.053.013a.237.237 0 0 0-.131.309l.35.865a.236.236 0 0 0 .309.132zm.837-.33a.237.237 0 0 0 .131-.309l-.35-.865a.24.24 0 0 0-.309-.131l-.052.013a.237.237 0 0 0-.132.308l.35.866a.24.24 0 0 0 .218.149.2.2 0 0 0 .09-.018zm.837-.33a.237.237 0 0 0 .131-.308l-.35-.866a.237.237 0 0 0-.308-.13l-.054.013a.237.237 0 0 0-.13.308l.35.866a.237.237 0 0 0 .308.131z" clip-rule="evenodd"/><path fill="#03030d" fill-rule="evenodd" d="m36.951 13.698.252-.169 1.2.873-.459-1.41 1.21-.877H37.66l-.459-1.408-.459 1.408h-1.488l1.205.875-.078.309c.187.114.386.265.57.399m-5.332-1.603.478-1.388.5 1.422a11 11 0 0 0-.978-.034m-5.956 1.632.234-.735-1.209-.876h1.493l.459-1.409.459 1.409h1.488l-1.177.82c-.859.31-1.514.652-1.747.79M22.3 16.905l-.307-.014-.459-1.408-.46 1.408h-1.492l1.21.876-.46 1.41 1.241-.858c.18-.441.415-.935.727-1.414m.22 5.41-.244.171.461 1.416-1.205-.876-1.2.872.46-1.41-1.21-.876h1.493l.168-.594c.275.659.769.96 1.277 1.297m5.186 1.068.136.52-.694-.484c.149-.01.411-.021.558-.036m-1.564.041-.704.474.17-.524c.182.017.35.044.534.05m5.206-.974.005.036-.46 1.416 1.205-.876 1.199.872-.459-1.41 1.21-.876-1.221-.008c-.023.015-.13.099-.152.114a9.4 9.4 0 0 1-1.327.732m6.015-6.462.297.903h1.493l-1.21.876.46 1.41-1.2-.872-1.206.876.15-.51c.658-1.015 1.083-1.92 1.216-2.683" clip-rule="evenodd"/></svg>