<svg xmlns="http://www.w3.org/2000/svg" width="182" height="182" fill="none" viewBox="0 0 182 182"><path fill="#4a5751" d="M143.259 117.122c-1.832 0-3.588-.315-5.104-.921-.52-.203-1.02-.438-1.49-.703l-17.651-10.177a1.07 1.07 0 0 1-.535-.93l.052-20.555a1.073 1.073 0 0 1 1.607-.924l17.8 10.278c1.568.912 3.73 1.411 5.97 1.355 2.046-.025 4.04-.519 5.481-1.355l19.644-11.428c1.294-.747 2.016-1.674 2.037-2.615v-.057a1.07 1.07 0 0 1 1.071-1.059h.005a1.07 1.07 0 0 1 1.067 1.07q0 .041-.003.082l-.211 20.379c0 1.76-1.103 3.373-3.106 4.528l-19.642 11.426c-1.649.963-3.886 1.529-6.291 1.591q-.352.015-.701.015m-22.637-13.347 17.101 9.862c.374.21.785.404 1.216.571 1.419.567 3.178.829 4.945.759 2.073-.053 3.944-.515 5.288-1.3l19.647-11.43c1.315-.759 2.036-1.712 2.036-2.687l.175-16.547q-.424.323-.922.611l-19.643 11.427c-1.777 1.032-4.093 1.616-6.521 1.645-2.629.054-5.154-.523-7.08-1.645l-16.195-9.35z"/><path fill="#4a5751" d="M143.463 117.113c-1.889 0-3.709-.31-5.287-.904a12 12 0 0 1-1.511-.711l-17.651-10.177a1.07 1.07 0 0 1-.535-.93l.052-20.555a1.073 1.073 0 0 1 1.607-.924l17.8 10.277c1.568.913 3.73 1.412 5.97 1.356.253-.028.567.102.771.304.206.201.324.479.324.766v20.421c0 .579-.463 1.054-1.041 1.071q-.249.007-.499.006m-22.841-13.338 17.101 9.862c.374.21.785.404 1.216.571 1.166.439 2.506.696 3.92.753V96.674c-2.242-.101-4.338-.668-5.995-1.633l-16.195-9.35z"/><path fill="#4a5751" d="M143.573 96.688c-2.502 0-4.875-.58-6.71-1.648l-17.797-10.276a1.07 1.07 0 0 1-.536-.93l.029-9.607c.003-.38.204-.732.533-.923l4.925-2.865c.287-.17.642-.193.946-.063.308.126.541.389.627.712.761 2.837 2.261 4.962 4.339 6.145l6.78 3.94.24.149c3.281 1.903 7.742 1.424 12.549-1.355 3.855-2.218 7.543-5.694 10.667-10.055.318-.45.93-.582 1.406-.304l8.484 4.898c2.039 1.173 3.189 2.852 3.157 4.605-.005 1.75-1.108 3.348-3.105 4.502L150.465 95.04c-1.777 1.031-4.093 1.615-6.521 1.644q-.186.004-.371.004m-22.899-13.467 17.263 9.967c1.569.912 3.73 1.412 5.97 1.355 2.047-.024 4.041-.518 5.481-1.355l19.645-11.427c1.315-.76 2.036-1.704 2.036-2.66q0-.013.003-.024c.018-.952-.74-1.941-2.086-2.716l-7.656-4.419c-3.175 4.244-6.882 7.648-10.763 9.88-5.499 3.179-10.73 3.652-14.721 1.335l-.24-.15-6.746-3.919c-2.232-1.27-3.918-3.373-4.922-6.125l-3.238 1.883z"/><path fill="#89f801" d="M90.81 147.42c-.471 0-.981-.026-1.493-.111-.154.023-.45-.021-.753-.097-.714-.064-1.587-.272-2.373-.576a8.7 8.7 0 0 1-1.992-.846l-17.617-10.2a1.07 1.07 0 0 1-.535-.93l.107-30.484c.02-.97-.74-1.961-2.086-2.736l-2.196-1.257a1.08 1.08 0 0 1-.538-.933l.055-16.46c.669-2.823.99-5.302.99-7.624 0-2.154-.31-4.189-.904-5.884a1.1 1.1 0 0 1-.06-.357l.055-15.898a1.071 1.071 0 0 1 2.143.004c0 .974.732 1.938 2.065 2.717l19.797 11.398c.376.21.784.43 1.22.598.455.167.928.318 1.427.442 1.012.238 2.041.347 3.186.345.105-.028.22-.029.332-.026.194.014.392.004.675-.042.29-.015.402-.012.538-.03.654-.08 1.04-.153 1.453-.25.975-.25 1.861-.595 2.614-1.015a1 1 0 0 1 .136-.066l19.519-11.355c1.31-.758 2.031-1.698 2.036-2.65v-.015a1.072 1.072 0 0 1 2.144.003v.027l-.215 76.71c0 1.768-1.103 3.381-3.105 4.537l-19.642 11.455c-1.707.994-3.947 1.56-6.307 1.59q-.319.015-.677.016m-22.62-13.372 17.075 9.887a7 7 0 0 0 1.597.671c.711.27 1.396.432 2.073.502.28.06.405.075.557.075a9.7 9.7 0 0 0 1.94.081c2.022-.026 3.891-.488 5.284-1.301l19.645-11.456c1.315-.759 2.036-1.713 2.036-2.688l.204-72.855q-.434.335-.951.635L98.007 69.026a1 1 0 0 1-.17.08c-.883.48-1.897.868-3.018 1.155-.518.123-.988.21-1.516.268a2 2 0 0 1-.303.034c-.095.023-.301.026-.51.026a3.2 3.2 0 0 1-.829.061c-.177.037-.353.024-.528.023-1.17 0-2.357-.136-3.515-.405-.59-.15-1.137-.32-1.68-.52a12 12 0 0 1-1.52-.742L64.605 57.6q-.548-.32-1.007-.68l-.039 11.833c.64 1.904.965 4.06.965 6.413 0 2.495-.345 5.148-1.022 7.885l-.024 15.584 1.657.948c2.044 1.178 3.197 2.86 3.163 4.617z"/><path fill="#89f801" d="M90.977 147.415c-.55 0-1.093-.033-1.618-.1a4 4 0 0 1-.795-.103c-.87-.114-1.683-.31-2.373-.576a8.7 8.7 0 0 1-1.992-.846l-17.617-10.2a1.08 1.08 0 0 1-.535-.93l.107-30.484c.02-.97-.74-1.961-2.086-2.736l-2.195-1.257a1.08 1.08 0 0 1-.539-.933l.055-16.46c.67-2.823.99-5.302.99-7.624 0-2.154-.31-4.189-.904-5.884a1.1 1.1 0 0 1-.06-.357l.055-15.891v-.007a1.071 1.071 0 0 1 2.143.004c0 .974.732 1.938 2.065 2.717l19.797 11.398c.376.21.784.43 1.22.598.455.167.928.318 1.427.442a13 13 0 0 0 3.328.342c.287-.031.567.102.77.305.207.2.325.478.325.766v76.735c0 .575-.455 1.047-1.03 1.07q-.27.01-.538.011M68.19 134.048l17.076 9.887a7 7 0 0 0 1.596.671c.633.239 1.292.394 2.107.506.246.056.371.071.523.071q.48.054.91.075V70.654a15.5 15.5 0 0 1-2.784-.386c-.59-.15-1.137-.32-1.68-.52a12 12 0 0 1-1.52-.742L64.605 57.6q-.548-.32-1.006-.68l-.04 11.833c.64 1.904.965 4.06.965 6.413 0 2.495-.345 5.148-1.022 7.885l-.024 15.584 1.658.948c2.043 1.178 3.196 2.86 3.162 4.617z"/><path fill="#89f801" d="M91.204 70.689c-2.447 0-4.893-.554-6.801-1.664L64.601 57.6c-2.023-1.177-3.136-2.799-3.136-4.568 0-1.76 1.103-3.372 3.108-4.538l6.476-3.774a1.068 1.068 0 0 1 1.584.697c.722 3.295 2.321 5.738 4.627 7.062l6.777 3.937.243.153c3.26 1.903 7.719 1.427 12.546-1.359 4.13-2.38 8.043-6.19 11.318-11.022a1.07 1.07 0 0 1 1.422-.327l8.029 4.63c2.036 1.175 3.16 2.798 3.163 4.57.002 1.76-1.101 3.371-3.106 4.537L98.007 69.025c-1.907 1.11-4.354 1.664-6.803 1.664M70.911 47.278l-5.262 3.066c-1.317.767-2.044 1.72-2.044 2.687 0 .974.735 1.939 2.07 2.715l19.802 11.426c3.105 1.809 8.349 1.806 11.454.003l19.645-11.429c1.317-.766 2.041-1.718 2.041-2.681-.003-.962-.766-1.954-2.094-2.719l-7.174-4.139c-3.338 4.713-7.282 8.455-11.454 10.857-5.517 3.187-10.745 3.659-14.726 1.334-.01-.005-.23-.145-.24-.152l-6.741-3.915c-2.486-1.427-4.294-3.85-5.277-7.053"/><path fill="#4a5751" d="M38.566 177.723c-2.455 0-4.917-.553-6.84-1.659l-19.802-11.436c-2.023-1.181-3.137-2.799-3.137-4.558l.225-55.959v-.006a1.071 1.071 0 0 1 2.143.004c0 .991.732 1.959 2.062 2.727l19.8 11.412c3.118 1.812 8.356 1.821 11.437.025l19.663-11.435c1.297-.749 2.04-1.714 2.044-2.652v-.014a1.071 1.071 0 0 1 2.144.004v.027l-.223 55.916c0 1.775-1.108 3.386-3.12 4.535l-19.632 11.43c-1.89 1.093-4.323 1.639-6.764 1.639m-27.427-69.711-.209 52.061c0 .962.735 1.924 2.07 2.704l19.794 11.433c3.124 1.796 8.375 1.805 11.462.022L63.893 162.8c1.322-.756 2.046-1.708 2.046-2.685l.21-52.061a9 9 0 0 1-.957.636l-19.66 11.434c-3.793 2.21-9.76 2.201-13.59-.022l-19.794-11.411a9 9 0 0 1-1.008-.679"/><path fill="#4a5751" d="M38.547 177.697c-2.572 0-4.979-.574-6.822-1.633l-19.801-11.436c-2.023-1.181-3.137-2.799-3.137-4.558l.225-55.959v-.006a1.071 1.071 0 0 1 2.143.004c0 .991.732 1.959 2.065 2.727l19.797 11.412c1.547.9 3.771 1.422 5.974 1.361.228.035.563.106.766.307.207.201.322.477.322.763v55.941c0 .579-.463 1.053-1.043 1.07q-.242.007-.489.007M11.14 108.012l-.21 52.061c0 .962.735 1.924 2.07 2.704l19.794 11.433c1.357.779 3.19 1.249 5.142 1.332v-53.811c-2.256-.111-4.355-.678-5.994-1.628l-19.794-11.412a9 9 0 0 1-1.008-.679"/><path fill="#4a5751" d="M38.746 121.781c-2.447 0-4.893-.555-6.801-1.663L12.14 108.692c-2.023-1.179-3.136-2.801-3.136-4.57 0-1.761 1.103-3.372 3.108-4.536l5.781-3.373a1.067 1.067 0 0 1 1.592.735c.65 3.602 2.287 6.264 4.733 7.698l6.6 3.843q.115.04.225.106c3.233 2.017 7.883 1.572 12.734-1.223 4.38-2.539 8.644-6.808 12.002-12.018a1.07 1.07 0 0 1 1.435-.346l7.923 4.576c2.036 1.175 3.16 2.798 3.162 4.57.003 1.759-1.1 3.37-3.105 4.535l-19.647 11.429c-1.908 1.108-4.355 1.663-6.801 1.663m-21.041-22.98-4.516 2.635c-1.318.766-2.044 1.72-2.044 2.686 0 .975.734 1.94 2.07 2.717l19.804 11.426c3.105 1.806 8.35 1.803 11.45.002l19.648-11.428c1.318-.766 2.042-1.718 2.039-2.681 0-.963-.763-1.953-2.091-2.719l-7.05-4.074c-3.447 5.106-7.739 9.295-12.166 11.861-5.377 3.096-10.643 3.603-14.54 1.422a1 1 0 0 1-.184-.086l-6.986-4.067c-2.645-1.55-4.506-4.192-5.434-7.693m19.167 78.818a1 1 0 0 1-.102-.006 13.3 13.3 0 0 1-3.46-.814 1.073 1.073 0 0 1-.622-1.38 1.07 1.07 0 0 1 1.38-.622c.865.327 1.85.559 2.932.689a1.07 1.07 0 0 1-.128 2.133"/><path fill="#89f801" d="M88.747 59.848c-2.012 0-3.881-.473-5.538-1.426-3.957-2.278-6.148-6.985-6.166-13.256-.034-12.495 8.782-27.765 19.653-34.041 5.489-3.17 10.706-3.654 14.686-1.36 3.958 2.276 6.145 6.982 6.164 13.25.034 12.498-8.783 27.772-19.653 34.048-3.205 1.85-6.317 2.785-9.146 2.785m17.092-49.366c-2.449 0-5.199.839-8.072 2.496-10.28 5.935-18.615 20.372-18.58 32.183.012 5.473 1.821 9.525 5.09 11.405 3.297 1.895 7.75 1.413 12.544-1.356 10.28-5.935 18.615-20.374 18.581-32.19-.013-5.472-1.821-9.52-5.089-11.4-1.32-.76-2.83-1.138-4.474-1.138"/><path fill="#89f801" d="M83.71 58.545c-.182 0-.368-.046-.538-.145l-6.992-4.067c-3.936-2.285-6.113-6.983-6.134-13.231C70.012 28.61 78.828 13.34 89.701 7.06c5.5-3.18 10.724-3.659 14.724-1.342l6.989 4.062.01.005a1.07 1.07 0 0 1-1.077 1.853l-.005-.004c-3.296-1.91-7.763-1.43-12.577 1.348-10.278 5.934-18.61 20.371-18.576 32.182.016 5.448 1.806 9.487 5.044 11.376l.016.009a1.071 1.071 0 0 1-.538 1.995M98.843 6.416c-2.45 0-5.2.84-8.069 2.498-10.28 5.938-18.618 20.375-18.584 32.183.016 5.453 1.817 9.496 5.068 11.384l1.396.813c-1.046-2.246-1.597-4.99-1.607-8.125-.034-12.494 8.78-27.765 19.647-34.042 2.8-1.616 5.528-2.534 8.058-2.741l-1.403-.816c-1.331-.771-2.849-1.154-4.506-1.154"/><path fill="#4a5751" d="M35.714 112.001c-2.012 0-3.881-.473-5.538-1.426-3.957-2.278-6.148-6.985-6.166-13.255-.034-12.495 8.782-27.766 19.653-34.042 5.486-3.167 10.703-3.652 14.686-1.36 3.957 2.277 6.145 6.982 6.163 13.25.034 12.498-8.782 27.773-19.652 34.048-3.205 1.851-6.318 2.785-9.146 2.785m17.091-49.366c-2.449 0-5.198.84-8.07 2.497-10.28 5.934-18.616 20.371-18.582 32.182.013 5.474 1.822 9.525 5.092 11.406 3.296 1.893 7.75 1.411 12.543-1.357 10.28-5.934 18.615-20.374 18.581-32.19-.013-5.471-1.822-9.52-5.089-11.4-1.32-.76-2.83-1.138-4.475-1.138"/><path fill="#4a5751" d="M30.675 110.699c-.183 0-.369-.046-.539-.145l-.02-.013-6.971-4.054c-3.934-2.283-6.111-6.982-6.132-13.23-.034-12.49 8.782-27.763 19.653-34.043 5.51-3.183 10.729-3.656 14.723-1.34l7 4.064.002.001a1.071 1.071 0 0 1-1.077 1.853c-3.293-1.918-7.77-1.437-12.585 1.344-10.275 5.933-18.607 20.371-18.573 32.183.015 5.457 1.811 9.5 5.057 11.383a1.072 1.072 0 0 1-.538 1.997m15.133-52.13c-2.451 0-5.198.839-8.07 2.499-10.28 5.938-18.616 20.376-18.582 32.184.016 5.454 1.814 9.497 5.066 11.383l1.395.814c-1.043-2.245-1.594-4.99-1.605-8.125-.034-12.495 8.78-27.767 19.645-34.042 2.8-1.617 5.528-2.534 8.058-2.742l-1.403-.816c-1.328-.77-2.85-1.155-4.504-1.155m95.624 26.046c-2.01 0-3.879-.473-5.536-1.426-3.957-2.277-6.147-6.984-6.168-13.256-.034-12.493 8.782-27.764 19.655-34.041 5.489-3.172 10.703-3.65 14.684-1.362 3.957 2.277 6.145 6.983 6.166 13.252.034 12.498-8.782 27.77-19.656 34.048-3.204 1.85-6.317 2.785-9.145 2.785m17.094-49.366c-2.452 0-5.199.839-8.071 2.496-10.28 5.936-18.618 20.373-18.584 32.183.016 5.475 1.824 9.525 5.094 11.405 3.291 1.894 7.742 1.413 12.541-1.356 10.28-5.936 18.617-20.376 18.584-32.19-.016-5.472-1.825-9.52-5.089-11.401-1.323-.76-2.831-1.137-4.475-1.137"/><path fill="#4a5751" d="M136.396 83.311c-.183 0-.369-.046-.539-.145l-6.992-4.067c-3.936-2.285-6.113-6.984-6.131-13.23-.037-12.49 8.779-27.763 19.652-34.042 5.507-3.182 10.73-3.655 14.723-1.341l6.987 4.06.013.007c.51.297.685.951.387 1.462a1.07 1.07 0 0 1-1.464.389c-3.293-1.914-7.765-1.437-12.582 1.344-10.275 5.933-18.608 20.372-18.574 32.183.016 5.449 1.806 9.488 5.042 11.375l.016.01a1.07 1.07 0 0 1-.538 1.995m15.133-52.13c-2.452 0-5.199.84-8.071 2.499-10.283 5.938-18.618 20.377-18.581 32.184.013 5.454 1.811 9.496 5.065 11.383l1.396.814c-1.043-2.245-1.594-4.99-1.605-8.125-.034-12.495 8.78-27.767 19.645-34.042 2.799-1.617 5.528-2.534 8.058-2.742l-1.403-.816c-1.328-.77-2.849-1.155-4.504-1.155"/><path fill="#89f801" d="M97.47 25.591q.379-.219.645-.064.267.152.269.586l.035 12.33 1.879-1.084q.344-.2.581-.063.238.136.239.527.001.393-.235.792a1.6 1.6 0 0 1-.58.599L94.437 42.6q-.343.197-.57.066-.23-.13-.232-.523 0-.391.227-.796c.153-.27.34-.47.57-.602l2.258-1.303-.031-11.065-1.934 2.21q-.263.285-.435.383-.363.21-.59.076-.23-.126-.23-.543-.001-.61.491-1.18l2.577-3.038q.267-.31.532-.463z"/><path fill="#4a5751" d="M150.219 50.294q1.216-.704 2.214-.721 1-.019 1.58.65.584.67.587 1.978.004 1.287-.647 2.768a18.5 18.5 0 0 1-1.563 2.836q-.908 1.355-2.368 3.29a76 76 0 0 0-1.999 2.803q-.672 1.01-.935 1.821l6.606-3.814q.344-.2.582-.063.237.136.238.527.002.393-.235.792-.236.4-.579.598l-7.33 4.232q-.435.252-.722.097-.286-.15-.287-.651-.003-1.136.574-2.43.575-1.295 1.401-2.502a75 75 0 0 1 2.169-2.99 72 72 0 0 0 1.837-2.505q.682-.982 1.137-1.946.453-.96.451-1.746-.004-1.242-.718-1.564c-.477-.21-1.24-.017-2.291.59q-1.709.987-3.244 2.662-.19.218-.361.316-.306.178-.512.056c-.141-.08-.213-.24-.213-.49q-.002-.543.417-1.05 1.934-2.229 4.211-3.544M43.863 78.24q2.184-1.262 3.384-.929 1.198.337 1.203 2.213c.002 1.006-.212 1.918-.648 2.747a9.1 9.1 0 0 1-1.639 2.224c.722-.226 1.367-.203 1.931.078q.847.417.853 2.206.006 2.006-1.369 3.905-1.371 1.895-3.538 3.145-2.106 1.216-3.971 1.42c-.15.013-.273-.022-.36-.11q-.135-.13-.137-.436 0-.368.217-.77.218-.397.542-.585a.9.9 0 0 1 .36-.12q1.369-.158 3.02-1.111 1.482-.855 2.496-1.998 1.016-1.143 1.011-2.453-.007-2.747-4.204-.325l-.305.177q-.32.185-.56.048-.24-.134-.24-.507 0-.368.235-.78.24-.41.56-.596l.114-.066c1.266-.73 2.235-1.513 2.903-2.34q1.006-1.25 1.003-2.558-.004-1.048-.766-1.219-.761-.172-2.242.682-1.594.92-2.941 2.419-.19.197-.341.285-.285.165-.495.054-.21-.109-.21-.456 0-.502.377-.962 1.82-2.163 3.757-3.283"/></svg>