<svg xmlns="http://www.w3.org/2000/svg" width="36" height="32" fill="none" viewBox="0 0 36 32"><g filter="url(#a)"><path fill="url(#b)" d="M14.536 30c1.54 2.667 5.388 2.667 6.928 0L35.321 6c1.54-2.667-.385-6-3.465-6H4.144C1.064 0-.86 3.333.679 6z"/><path fill="url(#c)" d="M14.536 30c1.54 2.667 5.388 2.667 6.928 0L35.321 6c1.54-2.667-.385-6-3.465-6H4.144C1.064 0-.86 3.333.679 6z"/><path fill="url(#d)" d="M14.536 30c1.54 2.667 5.388 2.667 6.928 0L35.321 6c1.54-2.667-.385-6-3.465-6H4.144C1.064 0-.86 3.333.679 6z"/></g><path stroke="#fff" stroke-width="1.189" d="M15.05 29.703c1.312 2.27 4.588 2.27 5.9 0l13.856-24c1.31-2.27-.328-5.108-2.95-5.108H4.144c-2.622 0-4.26 2.838-2.95 5.108z"/><defs><linearGradient id="b" x1="-2.5" x2="34.628" y1="7.2" y2="29.531" gradientUnits="userSpaceOnUse"><stop stop-color="#ede8e1"/><stop offset=".598" stop-color="#f8f6f3"/><stop offset="1" stop-color="#ede8e1"/></linearGradient><linearGradient id="c" x1="18" x2="18" y1="36" y2="-12" gradientUnits="userSpaceOnUse"><stop stop-color="#bde68b"/><stop offset="1" stop-color="#6dae1c"/></linearGradient><linearGradient id="d" x1="21.266" x2="26.382" y1="-12" y2="35.464" gradientUnits="userSpaceOnUse"><stop offset=".713" stop-color="#89f801"/><stop offset="1" stop-color="#fff"/></linearGradient><filter id="a" width="40.481" height="51.024" x=".138" y="0" color-interpolation-filters="sRGB" filterUnits="userSpaceOnUse"><feFlood flood-opacity="0" result="BackgroundImageFix"/><feBlend in="SourceGraphic" in2="BackgroundImageFix" result="shape"/><feColorMatrix in="SourceAlpha" result="hardAlpha" values="0 0 0 0 0 0 0 0 0 0 0 0 0 0 0 0 0 0 127 0"/><feOffset dx="4.756" dy="19.024"/><feGaussianBlur stdDeviation="9.512"/><feComposite in2="hardAlpha" k2="-1" k3="1" operator="arithmetic"/><feColorMatrix values="0 0 0 0 1 0 0 0 0 1 0 0 0 0 1 0 0 0 0.27 0"/><feBlend in2="shape" result="effect1_innerShadow_2709_2319"/></filter></defs></svg>