<svg xmlns="http://www.w3.org/2000/svg" width="60" height="59" fill="none" viewBox="0 0 60 59"><g fill="#fff" clip-path="url(#a)"><path d="M29.815 0c16.23 0 29.478 13.249 29.478 29.522C59.338 45.838 46.044 59 29.643 59 13.545 59 .338 45.707.338 29.478.338 13.248 13.545.045 29.815 0m-13.42 3.756c-.26.13-.431.172-.562.258-2.633 1.64-5.007 3.584-6.992 5.958-3.628 4.272-5.74 9.234-6.215 14.844-.345 3.883-.304 7.811.733 11.608 4.662 17.35 24.082 25.595 39.794 16.919.173-.087.303-.173.562-.304-.172.82-.345 1.51-.517 2.288.303-.13.43-.172.603-.258 4.576-2.85 8.2-6.602 10.575-11.481 3.15-6.474 3.583-13.294 2.115-20.157C52.65 5.693 32.668-3.287 16.742 5.434c-.217.13-.475.259-.82.43.17-.771.3-1.374.472-2.108"/><path d="M35.859 45.491a43 43 0 0 1-.517-1.857c-1.468.603-2.805 1.296-4.231 1.727-2.591.775-5.137.603-7.598-.517-.517-.217-.648-.517-.561-1.079.517-2.505.734-4.962.086-7.467-.045-.13-.086-.303-.131-.43 0-.045-.086-.087-.172-.259-1.296 1.899-2.677 3.67-4.531 5.137-1.468-3.194-1.468-6.474-1.037-9.926-.907.258-1.727.517-2.678.775.345-3.022 1.468-5.568 3.236-7.984a20 20 0 0 0-1.596-.303c1.124-2.288 2.678-4.142 4.79-5.74-.344 1.64-.258 3.021 1.165 4.014a14 14 0 0 1-.345-1.468 4.7 4.7 0 0 1 0-1.123c.259-1.382 1.251-1.943 2.591-1.554a6 6 0 0 1 .865.345c-.39-.951-1.037-1.337-1.812-1.685 0-.086 0-.131-.045-.217 1.25-.39 2.46-.865 3.755-1.165 1.124-.258 2.33-.258 3.498-.39 1.123-.13 1.984.304 2.718 1.124.259.258.517.517.82.775.045-.044.131-.044.173-.086-.086-.43-.172-.82-.259-1.295.131 0 .259 0 .39.044 1.337.39 2.632.907 3.71 1.813.173.13.431.303.476.517.258.864.475 1.77.734 2.59-1.25-.864-2.546-1.77-3.928-2.718-.217.648-.345 1.123-.517 1.64-.992-.603-1.857-1.165-2.763-1.64-.345-.172-.82-.258-1.21-.172-1.509.258-2.935.82-4.23 1.898.216.173.43.303.775.562-.951.475-1.771.906-2.416 1.857 1.123-.172 1.25.562 1.596 1.21.561 1.123 1.553 1.684 2.804 1.726 1.51.044 3.022 0 4.576 0-.43-.476-.95-.951-1.423-1.468-.517-.603-1.165-.82-1.943-.734-1.079.086-2.116-.172-2.977-.865 1.209-1.423 2.329-1.468 4.748-.172.389-.217.775-.39 1.164-.603.045.13.087.172.087.172-.517 1.079-.517 1.079.344 1.943.517.517.992 1.079 1.468 1.596.648-.13 1.295-.303 1.943-.303.648-.045 1.296.086 2.03.13-.951-1.037-1.899-1.984-2.85-2.976.045-.087.131-.173.172-.259.345.217.69.39 1.079.603.43-.086.69-.95 1.296-.344.43.43.389.864-.045 1.423.344.389.734.734 1.123 1.209.086-.303.13-.43.217-.603h.13c3.109 4.403 4.015 9.151 2.244 14.458-.43-.476-.82-.865-1.296-1.337-.303 2.03-.82 3.797-1.812 5.396-.944 1.64-2.24 2.977-3.88 4.055m-4.793-17.738c.517.992 1.037 1.899 1.468 2.805.217.475.517.561.95.43 1.51-.389 2.678-1.336 3.884-2.287.045-.045.131-.131.131-.217 0-.648.086-1.296-.045-1.899-.044-.258-.603-.39-.906-.603-.217-.13-.39-.303-.603-.344-.303-.087-.648-.217-.95-.131-1.469.434-2.675 1.298-3.929 2.246m2.722 5.179c.172.39.476.865.69 1.382.172.389.389.475.733.303.648-.345 1.296-.648 2.03-.993l.258 2.071c.086 0 .172 0 .217-.044.992-.776 1.64-1.813 1.726-3.022.045-.562-.344-1.382-.82-1.685-.389-.258-1.25-.13-1.726.13-1.037.435-2.03 1.169-3.108 1.858m6.43-7.422c-.476.303-.82.561-1.21.82-.13.086-.258.258-.258.39-.39 1.684.603 2.763 1.64 3.927.693-1.73.475-3.41-.172-5.137"/><path d="M33.226 8.418c.087 1.295.173 2.416.304 3.67.733-.82 1.337-1.468 1.984-2.158l.131.131a147 147 0 0 1-.865 3.842c-4.317-1.078-8.459-.603-12.428 1.51-.562-1.251-1.165-2.416-1.813-3.842.907.561 1.685 1.078 2.591 1.64-.172-1.21-.344-2.33-.561-3.584 1.382.951 2.59 1.771 3.883 2.678.43-1.296.865-2.505 1.337-3.884.775 1.21 1.468 2.288 2.202 3.497 1.12-1.17 2.112-2.25 3.235-3.5M6.596 37.506c-.087-.258-.173-.43-.26-.647.82-.345 1.596-.648 2.46-.993.26.69.518 1.382.82 2.157.132.259.39.603.432.993.044.561-.476.734-.907.906-.43.172-.82.345-1.295.517a7 7 0 0 0-.303-.648c.475-.217.95-.345 1.381-.603.173-.086.259-.39.345-.562-.217-.086-.475-.258-.69-.217-.43.087-.864.303-1.38.517-.087-.172-.173-.389-.304-.603.475-.217.95-.344 1.337-.603.172-.13.258-.39.345-.603-.217-.045-.476-.217-.69-.172a9 9 0 0 1-1.292.561m9.278 6.905c.217.173.39.304.603.476-.689.865-1.337 1.685-2.07 2.59.43.346.82.69 1.295 1.08-.13.172-.258.344-.43.561l-1.944-1.554c.865-1.037 1.685-2.074 2.546-3.153M27.4 51.104c.517-.086.734.086.603.561l-.13.907c-.132.775-.69 1.25-1.424 1.123-.775-.086-1.21-.603-1.165-1.423.045-.476.131-.951.173-1.51.258.045.43.087.689.131-.086.476-.172.951-.172 1.382 0 .258.216.603.43.69.345.171.603-.132.69-.476.133-.437.22-.91.306-1.385M7.587 32.844c-.389-1.423-1.381-.475-2.157-.733 0-.131-.044-.345-.086-.604.906-.086 1.771-.217 2.591-.303.086.562.131.993.173 1.51-.131.044-.304.044-.52.13m3.584 12.474c-.131-.131-.217-.303-.39-.476l1.944-1.685c.344.39.69.776 1.078 1.21-.086.086-.258.217-.389.344-1.12-.989-1.468.393-2.243.607M8.58 41.693c-.131-.217-.217-.39-.345-.603.776-.431 1.51-.865 2.33-1.296.13.217.217.39.389.603-.82.434-1.596.82-2.374 1.296m2.894-2.677c.217.303.43.475.39.647-.045.173-.26.304-.39.431-.13-.13-.39-.303-.43-.43-.046-.173.213-.345.43-.648M24.16 50.541c-.516-.43-1.036-.43-1.594-.086-.517.303-.734.992-.562 1.64.172.562.648.906 1.295.906h.345c-.345.734-.775.734-1.726 0-.131.131-.259.217-.431.39.82 1.123 2.288 1.209 2.719.172.389-.906.561-1.857.864-2.805-.348-.09-.692-.045-.91-.217m.087 1.25c-.303.173-.561.476-.865.518-.43.044-.689-.303-.647-.734.044-.43.303-.734.689-.648.303.086.561.39.82.562v.303zM9.314 28.056H5.299v.689c.431 0 .865.045 1.296.045 0 .303 0 .561.045.775.086.734.603 1.21 1.337 1.21.689 0 1.25-.431 1.337-1.124.044-.517 0-1.034 0-1.595m-.993 1.812c-.086.086-.561.131-.603 0-.217-.258-.303-.648-.475-1.078H8.71c-.173.43-.217.82-.39 1.078m12.821 19.595c-.43-.389-.906-.475-1.423-.303-.561.217-.865.69-.906 1.296 0 .517.217 1.037.734 1.25.475.218.95.345 1.51.518.344-.734.688-1.51 1.036-2.288-.348-.214-.692-.259-.95-.473m-.82 1.682c-.258 0-.648-.344-.689-.603a.6.6 0 0 1 .648-.734c.303.045.561.303.864.476v.303c-.306.214-.564.558-.823.558m-1.857-1.295c.517-.648.517-1.296.045-1.813-.476-.517-1.296-.603-1.857-.172-.562.43-.734 1.25-.39 1.812.39.603 1.124.907 1.899.517-.258-.172-.43-.344-.648-.43-.43-.131-.775-.345-.689-.951.562.434 1.079.737 1.64 1.037m-.258-.731c-.431-.259-.734-.476-1.079-.69.645-.306.948-.13 1.079.69m11.953 4.056c-.476.258-.776.086-.992-.431h1.898c0-.951-.345-1.468-1.078-1.596-.604-.13-1.251.217-1.51.82-.258.648-.044 1.382.476 1.771.561.39 1.381.259 1.898-.258-.172-.393-.344-.479-.692-.306m.175-.993h-1.164c.386-.603.644-.603 1.164 0M11.991 41.996c-.303-.648-.951-.951-1.64-.776-.648.173-1.124.776-1.037 1.468.044.69.561 1.251 1.509 1.296-.172-.303-.217-.517-.39-.648-.475-.39-.561-.603-.258-1.123.39.517.734.992 1.123 1.51.779-.476.996-1.08.693-1.727m-.776.82c-.217-.303-.389-.603-.603-.865.045-.045.086-.086.131-.172.217.13.476.217.603.39.131.171.086.43.131.647zM8.58 34.529c-.045-.648-.476-1.165-1.123-1.296-.69-.13-1.337.218-1.596.776-.303.69-.045 1.423.69 1.898.085-.13.216-.303.302-.43-.344-.476-.689-.906-.086-1.468.173.69.345 1.25.517 1.898.951-.213 1.34-.644 1.296-1.378m-.993.562c-.086-.431-.172-.776-.258-1.21.734.345.778.69.258 1.21"/></g><defs><clipPath id="a"><path fill="#fff" d="M.338 0h58.959v59H.337z"/></clipPath></defs></svg>