<svg xmlns="http://www.w3.org/2000/svg" width="24" height="24" fill="none" viewBox="0 0 24 24"><g stroke="#89f801" stroke-linecap="round" stroke-linejoin="round" stroke-width="1.2" clip-path="url(#a)"><path d="M.5 18.531v1.97a1 1 0 0 0 1 1h1.969m0-19.001H1.5a1 1 0 0 0-1 1v1.969m23 0V3.5a1 1 0 0 0-1-1h-1.97m0 19h1.97a1 1 0 0 0 1-1v-1.969M5.497 5.5h3v3h-3zm10 0h3v3h-3zm-10 10h3v3h-3zm10 0v3h3v-3h-1m-7-7.5V5.5h3m0 2V11m-8 2.5h5V11m0 4.5v3h3m-1-3h1m-8-5h3m10 0h-3v1m-3 2h6"/></g><defs><clipPath id="a"><path fill="#fff" d="M0 0h24v24H0z"/></clipPath></defs></svg>