<svg xmlns="http://www.w3.org/2000/svg" width="25" height="24" fill="none" viewBox="0 0 25 24"><path stroke="#fff" stroke-linecap="round" stroke-linejoin="round" stroke-width="1.714" d="m22.786 12.6-1.857.937m-2.715 1.369-1.857.937m-5 1.369.406.205a1.73 1.73 0 0 0 1.423 0l.457-.23M2.214 12.6l1.857.937m2.715 1.369 1.857.937"/><path stroke="#fff" stroke-linecap="round" stroke-linejoin="round" stroke-width="1.714" d="m2.214 17.309 9.54 4.806a1.76 1.76 0 0 0 1.492 0l9.54-4.806M4.071 8.844l-1.368-.685a.9.9 0 0 1-.357-.354 1.02 1.02 0 0 1 0-1.006.9.9 0 0 1 .357-.354l1.368-.684m2.715 4.44 1.857.928m2.714 1.358.397.198a1.76 1.76 0 0 0 1.492 0l.397-.2m7.286-3.641 1.368-.685a.9.9 0 0 0 .357-.354 1.02 1.02 0 0 0 0-1.006.9.9 0 0 0-.357-.354l-1.368-.684m-4.572 5.368 1.858-.928M8.643 3.475l-1.857.929m4.571-2.286.397-.199a1.76 1.76 0 0 1 1.492 0l.397.2m2.714 1.356 1.858.929"/></svg>