<svg xmlns="http://www.w3.org/2000/svg" width="55" height="92" fill="none" viewBox="0 0 55 92"><path fill="url(#a)" fill-opacity=".92" d="M43.441 18.734 54.748 7.031v24h-2.975l2.975 2.975V65.07h-5.9v12.777l-4.613 2.984V54.838l8.134-8.134h-6.347l-7.903 4.563-8.364-4.829v-8.263h15.274l-7.558-4.364H17.258L9.72 38.174H24.2v24.002h6.519l8.755 7.071v8.401l3.802 3.803-15.903 10.291L5.899 77.847V65.07H.67L.313 34.288l3.258-3.257H.276L0 7.031l11.307 11.703L27.374 0zM27.177 78.037l2.578-2.579h-5.157zm-8.332-5.753h17.06l-4.167-3.372h-8.33zM6.149 48.687 15.671 59.2l2.777-2.38v-5.95h-5.553l-4.563-4.365h15.075l-3.57-3.372h-8.133zM31.54 46.44h13.49l-3.106-3.107h-7.21z"/><defs><linearGradient id="a" x1="27.374" x2="27.374" y1="0" y2="91.743" gradientUnits="userSpaceOnUse"><stop stop-color="#fff"/><stop offset="1" stop-color="#89f801"/></linearGradient></defs></svg>