<svg xmlns="http://www.w3.org/2000/svg" width="208" height="208" fill="none" viewBox="0 0 208 208"><g fill="#89f801" clip-path="url(#a)" filter="url(#b)"><path d="M104.759 103.275c-.006-.007-.007-.015-.013-.021l-6.02-6.019v-3.782c0-.28-.11-.548-.308-.746L92.09 86.31a1.055 1.055 0 0 0-1.8.746v3.164h-3.235a1.053 1.053 0 0 0-.746 1.8l6.399 6.398c.197.198.465.31.745.31h3.782l6.019 6.018c.006.007.015.008.021.014.41.392 1.034.397 1.45 0a1.037 1.037 0 0 0 .034-1.484"/><path d="M104 86c-2.699 0-5.25.687-7.548 1.76l3.236 3.234A13.6 13.6 0 0 1 104 90.29c7.56 0 13.711 6.15 13.711 13.711 0 7.56-6.151 13.711-13.711 13.711S90.29 111.56 90.29 104c0-1.508.253-2.955.705-4.313l-3.236-3.235C86.687 98.75 86 101.3 86 104c0 9.886 8.114 18 18 18 9.887 0 18-8.114 18-18 0-9.887-8.113-18-18-18"/><path d="M104 94.508c-1.115 0-2.169.228-3.164.583v1.27l2.438 2.439c.24-.034.477-.073.726-.073a5.28 5.28 0 0 1 5.273 5.273 5.28 5.28 0 0 1-5.273 5.273A5.28 5.28 0 0 1 98.727 104c0-.249.04-.486.073-.726l-2.438-2.438H95.09c-.354.994-.583 2.049-.583 3.164 0 5.234 4.258 9.492 9.492 9.492s9.492-4.258 9.492-9.492-4.258-9.492-9.492-9.492"/></g><defs><clipPath id="a"><path fill="#fff" d="M86 86h36v36H86z"/></clipPath><filter id="b" width="206.554" height="206.554" x=".723" y=".723" color-interpolation-filters="sRGB" filterUnits="userSpaceOnUse"><feFlood flood-opacity="0" result="BackgroundImageFix"/><feColorMatrix in="SourceAlpha" result="hardAlpha" values="0 0 0 0 0 0 0 0 0 0 0 0 0 0 0 0 0 0 127 0"/><feOffset/><feGaussianBlur stdDeviation="1.015"/><feColorMatrix values="0 0 0 0 0.537255 0 0 0 0 0.972549 0 0 0 0 0.00392157 0 0 0 0.12 0"/><feBlend in2="BackgroundImageFix" result="effect1_dropShadow_2154_1842"/><feColorMatrix in="SourceAlpha" result="hardAlpha" values="0 0 0 0 0 0 0 0 0 0 0 0 0 0 0 0 0 0 127 0"/><feOffset/><feGaussianBlur stdDeviation="2.03"/><feColorMatrix values="0 0 0 0 0.537255 0 0 0 0 0.972549 0 0 0 0 0.00392157 0 0 0 0.25 0"/><feBlend in2="effect1_dropShadow_2154_1842" result="effect2_dropShadow_2154_1842"/><feColorMatrix in="SourceAlpha" result="hardAlpha" values="0 0 0 0 0 0 0 0 0 0 0 0 0 0 0 0 0 0 127 0"/><feOffset/><feGaussianBlur stdDeviation="7.106"/><feColorMatrix values="0 0 0 0 0.537255 0 0 0 0 0.972549 0 0 0 0 0.00392157 0 0 0 0.25 0"/><feBlend in2="effect2_dropShadow_2154_1842" result="effect3_dropShadow_2154_1842"/><feColorMatrix in="SourceAlpha" result="hardAlpha" values="0 0 0 0 0 0 0 0 0 0 0 0 0 0 0 0 0 0 127 0"/><feOffset/><feGaussianBlur stdDeviation="14.213"/><feColorMatrix values="0 0 0 0 0.537255 0 0 0 0 0.972549 0 0 0 0 0.00392157 0 0 0 0.5 0"/><feBlend in2="effect3_dropShadow_2154_1842" result="effect4_dropShadow_2154_1842"/><feColorMatrix in="SourceAlpha" result="hardAlpha" values="0 0 0 0 0 0 0 0 0 0 0 0 0 0 0 0 0 0 127 0"/><feOffset/><feGaussianBlur stdDeviation="24.365"/><feColorMatrix values="0 0 0 0 0.537255 0 0 0 0 0.972549 0 0 0 0 0.00392157 0 0 0 0.5 0"/><feBlend in2="effect4_dropShadow_2154_1842" result="effect5_dropShadow_2154_1842"/><feColorMatrix in="SourceAlpha" result="hardAlpha" values="0 0 0 0 0 0 0 0 0 0 0 0 0 0 0 0 0 0 127 0"/><feOffset/><feGaussianBlur stdDeviation="42.638"/><feColorMatrix values="0 0 0 0 0.537255 0 0 0 0 0.972549 0 0 0 0 0.00392157 0 0 0 0.5 0"/><feBlend in2="effect5_dropShadow_2154_1842" result="effect6_dropShadow_2154_1842"/><feBlend in="SourceGraphic" in2="effect6_dropShadow_2154_1842" result="shape"/></filter></defs></svg>