<svg xmlns="http://www.w3.org/2000/svg" width="25" height="24" fill="none" viewBox="0 0 25 24"><path stroke="#000" stroke-linecap="round" stroke-linejoin="round" stroke-width="1.5" d="m19.27 19.071-.113 1.696a.524.524 0 0 1-.473.483H6.351a.524.524 0 0 1-.514-.483l-.113-1.696a2.62 2.62 0 0 1 .442-1.655L9.836 12a.82.82 0 0 0 0-.946L6.443 6.553a2.7 2.7 0 0 1-.535-1.614V3.274a.524.524 0 0 1 .524-.524h12.17a.524.524 0 0 1 .523.524V4.94c0 .581-.188 1.147-.534 1.614l-3.371 4.42a.82.82 0 0 0 0 .945l3.628 5.457c.33.5.479 1.1.421 1.696m-9.393-.906h5.283"/></svg>