<svg xmlns="http://www.w3.org/2000/svg" width="41" height="40" fill="none" viewBox="0 0 41 40"><path fill="#a9a6bc" d="M5.538 13.214v12.76c0 1.016.5 1.963 1.315 2.471l12.612 7.852c.833.51 1.842.492 2.657-.045l11.788-7.797a2.92 2.92 0 0 0 1.258-2.436V14.03c0-1-.481-1.926-1.258-2.435L22.057 3.75a2.43 2.43 0 0 0-2.555-.1L6.955 10.675a2.88 2.88 0 0 0-1.417 2.539"/><path fill="#989898" d="m20.354 23.706-4.629-2.778 4.629 7.406z"/><path fill="#3a3a3a" d="m20.355 23.706 4.63-2.778-4.632 7.406z"/><path fill="#989898" d="M20.354 17.224v-6.482L15.725 20z"/><path fill="#3a3a3a" d="M20.355 17.224v-6.482L24.985 20z"/><path fill="#141302" d="M20.355 22.78v-5.555L24.985 20z"/><path fill="#595959" d="M20.354 22.78v-5.555L15.725 20z"/></svg>