<svg xmlns="http://www.w3.org/2000/svg" width="24" height="24" fill="none" viewBox="0 0 24 24"><path stroke="#a9a6bc" stroke-linecap="round" stroke-linejoin="round" stroke-width="1.3" d="M6.209 12.324H4.401c-.579 0-1.048.47-1.048 1.05v6.828c0 .58.47 1.049 1.048 1.049H6.21c.58 0 1.049-.47 1.049-1.05v-6.828c0-.58-.47-1.049-1.049-1.049m6.694-9.574h-1.808a1.05 1.05 0 0 0-1.049 1.049V20.2c0 .58.47 1.049 1.05 1.049h1.807c.58 0 1.049-.47 1.049-1.049V3.8c0-.58-.47-1.049-1.05-1.049m6.696 5.177H17.79c-.58 0-1.049.47-1.049 1.049v11.225c0 .579.47 1.048 1.049 1.048h1.808a1.05 1.05 0 0 0 1.049-1.048V8.977c0-.58-.47-1.05-1.05-1.05"/></svg>